<svg width="16" height="16" viewBox="0 0 16 16" fill="none" xmlns="http://www.w3.org/2000/svg">
<g clip-path="url(#clip0)">
<path d="M15.4953 15.5001V15.4995H15.4991V9.99826C15.4991 7.30701 14.9197 5.23389 11.7734 5.23389C10.2609 5.23389 9.24594 6.06389 8.83156 6.85076H8.78781V5.48514H5.80469V15.4995H8.91094V10.5408C8.91094 9.23514 9.15844 7.97264 10.7753 7.97264C12.3684 7.97264 12.3922 9.46264 12.3922 10.6245V15.5001H15.4953Z" fill="#377DF7"/>
<path d="M0.748047 5.48584H3.85805V15.5002H0.748047V5.48584Z" fill="#377DF7"/>
<path d="M2.30125 0.5C1.30687 0.5 0.5 1.30688 0.5 2.30125C0.5 3.29563 1.30687 4.11938 2.30125 4.11938C3.29562 4.11938 4.1025 3.29563 4.1025 2.30125C4.10188 1.30688 3.295 0.5 2.30125 0.5V0.5Z" fill="#377DF7"/>
</g>
<defs>
<clipPath id="clip0">
<rect width="15" height="15" fill="white" transform="translate(0.5 0.5)"/>
</clipPath>
</defs>
</svg>
