<svg width="328" height="382" viewBox="0 0 328 382" fill="none" xmlns="http://www.w3.org/2000/svg">
<g clip-path="url(#clip0_1431_10394)">
<g opacity="0.47" filter="url(#filter0_b_1431_10394)">
<path d="M160.483 295.739C169.944 290.727 184.551 290.882 193.687 296.09L227.741 315.503C237.538 321.087 237.247 330.269 227.102 335.643L194.266 353.037C184.806 358.049 170.199 357.895 161.062 352.686L127.009 333.274C117.212 327.689 117.503 318.507 127.647 313.134L160.483 295.739Z" fill="url(#paint0_radial_1431_10394)" fill-opacity="0.56"/>
<path d="M194.084 295.858C184.733 290.528 169.784 290.37 160.102 295.499L127.266 312.893C116.883 318.393 116.585 327.79 126.612 333.506L160.666 352.918C170.016 358.249 184.965 358.407 194.648 353.278L227.484 335.883C237.866 330.383 238.164 320.986 228.138 315.271L194.084 295.858Z" stroke="url(#paint1_radial_1431_10394)" stroke-width="0.921777"/>
<path d="M194.084 295.858C184.733 290.528 169.784 290.37 160.102 295.499L127.266 312.893C116.883 318.393 116.585 327.79 126.612 333.506L160.666 352.918C170.016 358.249 184.965 358.407 194.648 353.278L227.484 335.883C237.866 330.383 238.164 320.986 228.138 315.271L194.084 295.858Z" stroke="url(#paint2_radial_1431_10394)" stroke-width="0.921777"/>
<path d="M194.084 295.858C184.733 290.528 169.784 290.37 160.102 295.499L127.266 312.893C116.883 318.393 116.585 327.79 126.612 333.506L160.666 352.918C170.016 358.249 184.965 358.407 194.648 353.278L227.484 335.883C237.866 330.383 238.164 320.986 228.138 315.271L194.084 295.858Z" stroke="url(#paint3_radial_1431_10394)" stroke-width="0.921777"/>
</g>
<g opacity="0.47" filter="url(#filter1_b_1431_10394)">
<path d="M242.829 245.963C252.289 240.951 266.896 241.106 276.033 246.314L310.087 265.727C319.883 271.312 319.592 280.493 309.448 285.867L276.612 303.262C267.151 308.273 252.544 308.119 243.408 302.91L209.354 283.498C199.557 277.913 199.848 268.732 209.993 263.358L242.829 245.963Z" fill="url(#paint4_radial_1431_10394)" fill-opacity="0.56"/>
<path d="M276.429 246.082C267.079 240.752 252.13 240.594 242.447 245.723L209.611 263.118C199.229 268.617 198.931 278.014 208.957 283.73L243.011 303.142C252.362 308.473 267.311 308.631 276.993 303.502L309.829 286.107C320.212 280.607 320.51 271.211 310.483 265.495L276.429 246.082Z" stroke="url(#paint5_radial_1431_10394)" stroke-width="0.921777"/>
<path d="M276.429 246.082C267.079 240.752 252.13 240.594 242.447 245.723L209.611 263.118C199.229 268.617 198.931 278.014 208.957 283.73L243.011 303.142C252.362 308.473 267.311 308.631 276.993 303.502L309.829 286.107C320.212 280.607 320.51 271.211 310.483 265.495L276.429 246.082Z" stroke="url(#paint6_radial_1431_10394)" stroke-width="0.921777"/>
<path d="M276.429 246.082C267.079 240.752 252.13 240.594 242.447 245.723L209.611 263.118C199.229 268.617 198.931 278.014 208.957 283.73L243.011 303.142C252.362 308.473 267.311 308.631 276.993 303.502L309.829 286.107C320.212 280.607 320.51 271.211 310.483 265.495L276.429 246.082Z" stroke="url(#paint7_radial_1431_10394)" stroke-width="0.921777"/>
</g>
<g opacity="0.66" filter="url(#filter2_b_1431_10394)">
<path d="M160.483 281.539C169.944 276.528 184.551 276.682 193.687 281.89L227.741 301.303C237.538 306.888 237.247 316.069 227.102 321.443L194.266 338.838C184.806 343.849 170.199 343.695 161.062 338.487L127.009 319.074C117.212 313.489 117.503 304.308 127.647 298.934L160.483 281.539Z" fill="url(#paint8_radial_1431_10394)" fill-opacity="0.56"/>
<path d="M194.084 281.658C184.733 276.328 169.784 276.17 160.102 281.299L127.266 298.694C116.883 304.194 116.585 313.59 126.612 319.306L160.666 338.719C170.016 344.049 184.965 344.207 194.648 339.078L227.484 321.683C237.866 316.183 238.164 306.787 228.138 301.071L194.084 281.658Z" stroke="url(#paint9_radial_1431_10394)" stroke-width="0.921777"/>
<path d="M194.084 281.658C184.733 276.328 169.784 276.17 160.102 281.299L127.266 298.694C116.883 304.194 116.585 313.59 126.612 319.306L160.666 338.719C170.016 344.049 184.965 344.207 194.648 339.078L227.484 321.683C237.866 316.183 238.164 306.787 228.138 301.071L194.084 281.658Z" stroke="url(#paint10_radial_1431_10394)" stroke-width="0.921777"/>
<path d="M194.084 281.658C184.733 276.328 169.784 276.17 160.102 281.299L127.266 298.694C116.883 304.194 116.585 313.59 126.612 319.306L160.666 338.719C170.016 344.049 184.965 344.207 194.648 339.078L227.484 321.683C237.866 316.183 238.164 306.787 228.138 301.071L194.084 281.658Z" stroke="url(#paint11_radial_1431_10394)" stroke-width="0.921777"/>
</g>
<g opacity="0.66" filter="url(#filter3_b_1431_10394)">
<path d="M242.829 231.763C252.289 226.752 266.896 226.906 276.033 232.114L310.087 251.527C319.883 257.112 319.592 266.293 309.448 271.667L276.612 289.062C267.151 294.074 252.544 293.919 243.408 288.711L209.354 269.298C199.557 263.713 199.848 254.532 209.993 249.158L242.829 231.763Z" fill="url(#paint12_radial_1431_10394)" fill-opacity="0.56"/>
<path d="M276.429 231.883C267.079 226.552 252.13 226.394 242.447 231.523L209.611 248.918C199.229 254.418 198.931 263.814 208.957 269.53L243.011 288.943C252.362 294.273 267.311 294.431 276.993 289.302L309.829 271.907C320.212 266.407 320.51 257.011 310.483 251.295L276.429 231.883Z" stroke="url(#paint13_radial_1431_10394)" stroke-width="0.921777"/>
<path d="M276.429 231.883C267.079 226.552 252.13 226.394 242.447 231.523L209.611 248.918C199.229 254.418 198.931 263.814 208.957 269.53L243.011 288.943C252.362 294.273 267.311 294.431 276.993 289.302L309.829 271.907C320.212 266.407 320.51 257.011 310.483 251.295L276.429 231.883Z" stroke="url(#paint14_radial_1431_10394)" stroke-width="0.921777"/>
<path d="M276.429 231.883C267.079 226.552 252.13 226.394 242.447 231.523L209.611 248.918C199.229 254.418 198.931 263.814 208.957 269.53L243.011 288.943C252.362 294.273 267.311 294.431 276.993 289.302L309.829 271.907C320.212 266.407 320.51 257.011 310.483 251.295L276.429 231.883Z" stroke="url(#paint15_radial_1431_10394)" stroke-width="0.921777"/>
</g>
<g filter="url(#filter4_b_1431_10394)">
<path d="M160.483 265.235C169.944 260.223 184.551 260.378 193.687 265.586L227.741 284.999C237.538 290.584 237.247 299.765 227.102 305.139L194.266 322.534C184.806 327.545 170.199 327.391 161.062 322.182L127.009 302.77C117.212 297.185 117.503 288.004 127.647 282.63L160.483 265.235Z" fill="url(#paint16_radial_1431_10394)" fill-opacity="0.62"/>
<path d="M194.084 265.354C184.733 260.024 169.784 259.866 160.102 264.995L127.266 282.39C116.883 287.889 116.585 297.286 126.612 303.002L160.666 322.414C170.016 327.745 184.965 327.903 194.648 322.774L227.484 305.379C237.866 299.879 238.164 290.482 228.138 284.767L194.084 265.354Z" stroke="url(#paint17_radial_1431_10394)" stroke-width="0.921777"/>
<path d="M194.084 265.354C184.733 260.024 169.784 259.866 160.102 264.995L127.266 282.39C116.883 287.889 116.585 297.286 126.612 303.002L160.666 322.414C170.016 327.745 184.965 327.903 194.648 322.774L227.484 305.379C237.866 299.879 238.164 290.482 228.138 284.767L194.084 265.354Z" stroke="url(#paint18_radial_1431_10394)" stroke-width="0.921777"/>
<path d="M194.084 265.354C184.733 260.024 169.784 259.866 160.102 264.995L127.266 282.39C116.883 287.889 116.585 297.286 126.612 303.002L160.666 322.414C170.016 327.745 184.965 327.903 194.648 322.774L227.484 305.379C237.866 299.879 238.164 290.482 228.138 284.767L194.084 265.354Z" stroke="url(#paint19_radial_1431_10394)" stroke-width="0.921777"/>
</g>
<g filter="url(#filter5_b_1431_10394)">
<path d="M242.829 215.459C252.289 210.447 266.896 210.602 276.033 215.81L310.087 235.223C319.883 240.808 319.592 249.989 309.448 255.363L276.612 272.758C267.151 277.769 252.544 277.615 243.408 272.407L209.354 252.994C199.557 247.409 199.848 238.228 209.993 232.854L242.829 215.459Z" fill="url(#paint20_radial_1431_10394)" fill-opacity="0.62"/>
<path d="M276.429 215.578C267.079 210.248 252.13 210.09 242.447 215.219L209.611 232.614C199.229 238.114 198.931 247.51 208.957 253.226L243.011 272.638C252.362 277.969 267.311 278.127 276.993 272.998L309.829 255.603C320.212 250.103 320.51 240.707 310.483 234.991L276.429 215.578Z" stroke="url(#paint21_radial_1431_10394)" stroke-width="0.921777"/>
<path d="M276.429 215.578C267.079 210.248 252.13 210.09 242.447 215.219L209.611 232.614C199.229 238.114 198.931 247.51 208.957 253.226L243.011 272.638C252.362 277.969 267.311 278.127 276.993 272.998L309.829 255.603C320.212 250.103 320.51 240.707 310.483 234.991L276.429 215.578Z" stroke="url(#paint22_radial_1431_10394)" stroke-width="0.921777"/>
<path d="M276.429 215.578C267.079 210.248 252.13 210.09 242.447 215.219L209.611 232.614C199.229 238.114 198.931 247.51 208.957 253.226L243.011 272.638C252.362 277.969 267.311 278.127 276.993 272.998L309.829 255.603C320.212 250.103 320.51 240.707 310.483 234.991L276.429 215.578Z" stroke="url(#paint23_radial_1431_10394)" stroke-width="0.921777"/>
</g>
<path opacity="0.86" d="M-51.6242 145.085C-51.6242 140.326 -48.283 134.539 -44.1615 132.159L176.154 4.95953C180.276 2.57999 183.617 4.50899 183.617 9.26808L183.617 229.693C183.617 234.452 180.276 240.239 176.154 242.619L-44.1616 369.818C-48.283 372.198 -51.6242 370.269 -51.6242 365.51L-51.6242 145.085Z" fill="url(#paint24_linear_1431_10394)" stroke="url(#paint25_linear_1431_10394)" stroke-width="0.867949"/>
<path d="M-38.9498 150.173C-38.9498 145.414 -35.6087 139.627 -31.4872 137.247L188.829 10.0479C192.95 7.66833 196.291 9.59734 196.291 14.3564L196.291 237.298C196.291 242.057 192.95 247.844 188.829 250.223L-31.4872 377.423C-35.6087 379.802 -38.9498 377.873 -38.9498 373.114L-38.9498 150.173Z" fill="url(#paint26_linear_1431_10394)" stroke="url(#paint27_linear_1431_10394)" stroke-width="0.867949"/>
<path opacity="0.52" d="M118.221 181.283H236.823V292.546C236.823 297.066 234.342 301.222 230.363 303.366L192.972 323.514C183.328 328.711 171.717 328.711 162.072 323.514L124.682 303.366C120.702 301.222 118.221 297.066 118.221 292.546V181.283Z" fill="url(#paint28_linear_1431_10394)"/>
</g>
<defs>
<filter id="filter0_b_1431_10394" x="92.907" y="265.618" width="168.935" height="117.54" filterUnits="userSpaceOnUse" color-interpolation-filters="sRGB">
<feFlood flood-opacity="0" result="BackgroundImageFix"/>
<feGaussianBlur in="BackgroundImage" stdDeviation="12.9049"/>
<feComposite in2="SourceAlpha" operator="in" result="effect1_backgroundBlur_1431_10394"/>
<feBlend mode="normal" in="SourceGraphic" in2="effect1_backgroundBlur_1431_10394" result="shape"/>
</filter>
<filter id="filter1_b_1431_10394" x="175.252" y="215.842" width="168.935" height="117.54" filterUnits="userSpaceOnUse" color-interpolation-filters="sRGB">
<feFlood flood-opacity="0" result="BackgroundImageFix"/>
<feGaussianBlur in="BackgroundImage" stdDeviation="12.9049"/>
<feComposite in2="SourceAlpha" operator="in" result="effect1_backgroundBlur_1431_10394"/>
<feBlend mode="normal" in="SourceGraphic" in2="effect1_backgroundBlur_1431_10394" result="shape"/>
</filter>
<filter id="filter2_b_1431_10394" x="92.907" y="251.418" width="168.935" height="117.54" filterUnits="userSpaceOnUse" color-interpolation-filters="sRGB">
<feFlood flood-opacity="0" result="BackgroundImageFix"/>
<feGaussianBlur in="BackgroundImage" stdDeviation="12.9049"/>
<feComposite in2="SourceAlpha" operator="in" result="effect1_backgroundBlur_1431_10394"/>
<feBlend mode="normal" in="SourceGraphic" in2="effect1_backgroundBlur_1431_10394" result="shape"/>
</filter>
<filter id="filter3_b_1431_10394" x="175.252" y="201.642" width="168.935" height="117.54" filterUnits="userSpaceOnUse" color-interpolation-filters="sRGB">
<feFlood flood-opacity="0" result="BackgroundImageFix"/>
<feGaussianBlur in="BackgroundImage" stdDeviation="12.9049"/>
<feComposite in2="SourceAlpha" operator="in" result="effect1_backgroundBlur_1431_10394"/>
<feBlend mode="normal" in="SourceGraphic" in2="effect1_backgroundBlur_1431_10394" result="shape"/>
</filter>
<filter id="filter4_b_1431_10394" x="92.907" y="235.114" width="168.935" height="117.54" filterUnits="userSpaceOnUse" color-interpolation-filters="sRGB">
<feFlood flood-opacity="0" result="BackgroundImageFix"/>
<feGaussianBlur in="BackgroundImage" stdDeviation="12.9049"/>
<feComposite in2="SourceAlpha" operator="in" result="effect1_backgroundBlur_1431_10394"/>
<feBlend mode="normal" in="SourceGraphic" in2="effect1_backgroundBlur_1431_10394" result="shape"/>
</filter>
<filter id="filter5_b_1431_10394" x="175.252" y="185.338" width="168.935" height="117.54" filterUnits="userSpaceOnUse" color-interpolation-filters="sRGB">
<feFlood flood-opacity="0" result="BackgroundImageFix"/>
<feGaussianBlur in="BackgroundImage" stdDeviation="12.9049"/>
<feComposite in2="SourceAlpha" operator="in" result="effect1_backgroundBlur_1431_10394"/>
<feBlend mode="normal" in="SourceGraphic" in2="effect1_backgroundBlur_1431_10394" result="shape"/>
</filter>
<radialGradient id="paint0_radial_1431_10394" cx="0" cy="0" r="1" gradientUnits="userSpaceOnUse" gradientTransform="translate(189.495 279.331) rotate(69.3218) scale(123.206 328.864)">
<stop stop-color="white" stop-opacity="0.3"/>
<stop offset="1" stop-color="white" stop-opacity="0"/>
</radialGradient>
<radialGradient id="paint1_radial_1431_10394" cx="0" cy="0" r="1" gradientUnits="userSpaceOnUse" gradientTransform="translate(191.794 277.306) rotate(69.7967) scale(123.992 332.069)">
<stop stop-color="white"/>
<stop offset="1" stop-color="white" stop-opacity="0"/>
</radialGradient>
<radialGradient id="paint2_radial_1431_10394" cx="0" cy="0" r="1" gradientUnits="userSpaceOnUse" gradientTransform="translate(187.721 277.562) rotate(68.8492) scale(125.492 333.824)">
<stop stop-color="#4262FE"/>
<stop offset="1" stop-color="#4262FE" stop-opacity="0"/>
</radialGradient>
<radialGradient id="paint3_radial_1431_10394" cx="0" cy="0" r="1" gradientUnits="userSpaceOnUse" gradientTransform="translate(189.979 276.258) rotate(69.7967) scale(123.992 332.069)">
<stop stop-color="#151515"/>
<stop offset="1" stop-color="#151515" stop-opacity="0"/>
</radialGradient>
<radialGradient id="paint4_radial_1431_10394" cx="0" cy="0" r="1" gradientUnits="userSpaceOnUse" gradientTransform="translate(271.841 229.556) rotate(69.3218) scale(123.206 328.864)">
<stop stop-color="white" stop-opacity="0.3"/>
<stop offset="1" stop-color="white" stop-opacity="0"/>
</radialGradient>
<radialGradient id="paint5_radial_1431_10394" cx="0" cy="0" r="1" gradientUnits="userSpaceOnUse" gradientTransform="translate(274.139 227.53) rotate(69.7967) scale(123.992 332.069)">
<stop stop-color="white"/>
<stop offset="1" stop-color="white" stop-opacity="0"/>
</radialGradient>
<radialGradient id="paint6_radial_1431_10394" cx="0" cy="0" r="1" gradientUnits="userSpaceOnUse" gradientTransform="translate(270.066 227.786) rotate(68.8492) scale(125.492 333.824)">
<stop stop-color="#4262FE"/>
<stop offset="1" stop-color="#4262FE" stop-opacity="0"/>
</radialGradient>
<radialGradient id="paint7_radial_1431_10394" cx="0" cy="0" r="1" gradientUnits="userSpaceOnUse" gradientTransform="translate(272.325 226.482) rotate(69.7967) scale(123.992 332.069)">
<stop stop-color="#151515"/>
<stop offset="1" stop-color="#151515" stop-opacity="0"/>
</radialGradient>
<radialGradient id="paint8_radial_1431_10394" cx="0" cy="0" r="1" gradientUnits="userSpaceOnUse" gradientTransform="translate(189.495 265.132) rotate(69.3218) scale(123.206 328.864)">
<stop stop-color="white" stop-opacity="0.3"/>
<stop offset="1" stop-color="white" stop-opacity="0"/>
</radialGradient>
<radialGradient id="paint9_radial_1431_10394" cx="0" cy="0" r="1" gradientUnits="userSpaceOnUse" gradientTransform="translate(191.794 263.106) rotate(69.7967) scale(123.992 332.069)">
<stop stop-color="white"/>
<stop offset="1" stop-color="white" stop-opacity="0"/>
</radialGradient>
<radialGradient id="paint10_radial_1431_10394" cx="0" cy="0" r="1" gradientUnits="userSpaceOnUse" gradientTransform="translate(187.721 263.362) rotate(68.8492) scale(125.492 333.824)">
<stop stop-color="#4262FE"/>
<stop offset="1" stop-color="#4262FE" stop-opacity="0"/>
</radialGradient>
<radialGradient id="paint11_radial_1431_10394" cx="0" cy="0" r="1" gradientUnits="userSpaceOnUse" gradientTransform="translate(189.979 262.059) rotate(69.7967) scale(123.992 332.069)">
<stop stop-color="#151515"/>
<stop offset="1" stop-color="#151515" stop-opacity="0"/>
</radialGradient>
<radialGradient id="paint12_radial_1431_10394" cx="0" cy="0" r="1" gradientUnits="userSpaceOnUse" gradientTransform="translate(271.841 215.356) rotate(69.3218) scale(123.206 328.864)">
<stop stop-color="white" stop-opacity="0.3"/>
<stop offset="1" stop-color="white" stop-opacity="0"/>
</radialGradient>
<radialGradient id="paint13_radial_1431_10394" cx="0" cy="0" r="1" gradientUnits="userSpaceOnUse" gradientTransform="translate(274.139 213.33) rotate(69.7967) scale(123.992 332.069)">
<stop stop-color="white"/>
<stop offset="1" stop-color="white" stop-opacity="0"/>
</radialGradient>
<radialGradient id="paint14_radial_1431_10394" cx="0" cy="0" r="1" gradientUnits="userSpaceOnUse" gradientTransform="translate(270.066 213.587) rotate(68.8492) scale(125.492 333.824)">
<stop stop-color="#4262FE"/>
<stop offset="1" stop-color="#4262FE" stop-opacity="0"/>
</radialGradient>
<radialGradient id="paint15_radial_1431_10394" cx="0" cy="0" r="1" gradientUnits="userSpaceOnUse" gradientTransform="translate(272.325 212.283) rotate(69.7967) scale(123.992 332.069)">
<stop stop-color="#151515"/>
<stop offset="1" stop-color="#151515" stop-opacity="0"/>
</radialGradient>
<radialGradient id="paint16_radial_1431_10394" cx="0" cy="0" r="1" gradientUnits="userSpaceOnUse" gradientTransform="translate(189.495 248.828) rotate(69.3218) scale(123.206 328.864)">
<stop stop-color="#2982FF"/>
<stop offset="1" stop-color="#476EA5" stop-opacity="0"/>
</radialGradient>
<radialGradient id="paint17_radial_1431_10394" cx="0" cy="0" r="1" gradientUnits="userSpaceOnUse" gradientTransform="translate(191.794 246.802) rotate(69.7967) scale(123.992 332.069)">
<stop stop-color="white"/>
<stop offset="1" stop-color="white" stop-opacity="0"/>
</radialGradient>
<radialGradient id="paint18_radial_1431_10394" cx="0" cy="0" r="1" gradientUnits="userSpaceOnUse" gradientTransform="translate(187.721 247.058) rotate(68.8492) scale(125.492 333.824)">
<stop stop-color="#4262FE"/>
<stop offset="1" stop-color="#4262FE" stop-opacity="0"/>
</radialGradient>
<radialGradient id="paint19_radial_1431_10394" cx="0" cy="0" r="1" gradientUnits="userSpaceOnUse" gradientTransform="translate(189.979 245.754) rotate(69.7967) scale(123.992 332.069)">
<stop stop-color="#151515"/>
<stop offset="1" stop-color="#151515" stop-opacity="0"/>
</radialGradient>
<radialGradient id="paint20_radial_1431_10394" cx="0" cy="0" r="1" gradientUnits="userSpaceOnUse" gradientTransform="translate(271.841 199.052) rotate(69.3218) scale(123.206 328.864)">
<stop stop-color="#2982FF"/>
<stop offset="1" stop-color="#476EA5" stop-opacity="0"/>
</radialGradient>
<radialGradient id="paint21_radial_1431_10394" cx="0" cy="0" r="1" gradientUnits="userSpaceOnUse" gradientTransform="translate(274.139 197.026) rotate(69.7967) scale(123.992 332.069)">
<stop stop-color="white"/>
<stop offset="1" stop-color="white" stop-opacity="0"/>
</radialGradient>
<radialGradient id="paint22_radial_1431_10394" cx="0" cy="0" r="1" gradientUnits="userSpaceOnUse" gradientTransform="translate(270.066 197.282) rotate(68.8492) scale(125.492 333.824)">
<stop stop-color="#4262FE"/>
<stop offset="1" stop-color="#4262FE" stop-opacity="0"/>
</radialGradient>
<radialGradient id="paint23_radial_1431_10394" cx="0" cy="0" r="1" gradientUnits="userSpaceOnUse" gradientTransform="translate(272.325 195.978) rotate(69.7967) scale(123.992 332.069)">
<stop stop-color="#151515"/>
<stop offset="1" stop-color="#151515" stop-opacity="0"/>
</radialGradient>
<linearGradient id="paint24_linear_1431_10394" x1="-37.2131" y1="210.358" x2="144.536" y2="116.832" gradientUnits="userSpaceOnUse">
<stop stop-color="#3C88F8" stop-opacity="0.33"/>
<stop offset="1" stop-color="#22324B" stop-opacity="0"/>
</linearGradient>
<linearGradient id="paint25_linear_1431_10394" x1="-52" y1="205.288" x2="119.339" y2="148.614" gradientUnits="userSpaceOnUse">
<stop stop-color="#3A94FF" stop-opacity="0.62"/>
<stop offset="1" stop-color="#3A94FF" stop-opacity="0"/>
</linearGradient>
<linearGradient id="paint26_linear_1431_10394" x1="-24.5388" y1="217.962" x2="157.21" y2="124.437" gradientUnits="userSpaceOnUse">
<stop stop-color="#3C88F8" stop-opacity="0.33"/>
<stop offset="1" stop-color="#22324B" stop-opacity="0"/>
</linearGradient>
<linearGradient id="paint27_linear_1431_10394" x1="-39.3257" y1="212.893" x2="132.013" y2="156.219" gradientUnits="userSpaceOnUse">
<stop stop-color="#3A94FF" stop-opacity="0.62"/>
<stop offset="1" stop-color="#3A94FF" stop-opacity="0"/>
</linearGradient>
<linearGradient id="paint28_linear_1431_10394" x1="177.522" y1="181.283" x2="177.522" y2="331.84" gradientUnits="userSpaceOnUse">
<stop offset="0.171875" stop-color="#14D5FF" stop-opacity="0"/>
<stop offset="1" stop-color="#14D5FF"/>
</linearGradient>
<clipPath id="clip0_1431_10394">
<rect width="328" height="382" fill="white"/>
</clipPath>
</defs>
</svg>
