<svg width="168" height="308" viewBox="0 0 168 308" fill="none" xmlns="http://www.w3.org/2000/svg">
<g clip-path="url(#clip0_1431_10395)">
<g opacity="0.47" filter="url(#filter0_b_1431_10395)">
<path d="M83.5948 237.438C91.1904 233.414 102.918 233.538 110.253 237.719L137.594 253.305C145.459 257.789 145.225 265.16 137.081 269.475L110.718 283.44C103.122 287.464 91.395 287.34 84.0596 283.159L56.7192 267.573C48.8537 263.089 49.0875 255.718 57.2321 251.403L83.5948 237.438Z" fill="url(#paint0_radial_1431_10395)" fill-opacity="0.56"/>
<path d="M110.572 237.533C103.064 233.254 91.0621 233.127 83.2884 237.245L56.9257 251.21C48.5902 255.626 48.3509 263.17 56.4008 267.759L83.7412 283.345C91.2485 287.624 103.251 287.751 111.024 283.633L137.387 269.668C145.723 265.252 145.962 257.708 137.912 253.119L110.572 237.533Z" stroke="url(#paint1_radial_1431_10395)" stroke-width="0.740059"/>
<path d="M110.572 237.533C103.064 233.254 91.0621 233.127 83.2884 237.245L56.9257 251.21C48.5902 255.626 48.3509 263.17 56.4008 267.759L83.7412 283.345C91.2485 287.624 103.251 287.751 111.024 283.633L137.387 269.668C145.723 265.252 145.962 257.708 137.912 253.119L110.572 237.533Z" stroke="url(#paint2_radial_1431_10395)" stroke-width="0.740059"/>
<path d="M110.572 237.533C103.064 233.254 91.0621 233.127 83.2884 237.245L56.9257 251.21C48.5902 255.626 48.3509 263.17 56.4008 267.759L83.7412 283.345C91.2485 287.624 103.251 287.751 111.024 283.633L137.387 269.668C145.723 265.252 145.962 257.708 137.912 253.119L110.572 237.533Z" stroke="url(#paint3_radial_1431_10395)" stroke-width="0.740059"/>
</g>
<g opacity="0.47" filter="url(#filter1_b_1431_10395)">
<path d="M149.707 197.474C157.302 193.451 169.03 193.575 176.365 197.756L203.705 213.342C211.571 217.826 211.337 225.197 203.192 229.512L176.83 243.477C169.234 247.501 157.507 247.377 150.171 243.195L122.831 227.61C114.965 223.126 115.199 215.754 123.344 211.44L149.707 197.474Z" fill="url(#paint4_radial_1431_10395)" fill-opacity="0.56"/>
<path d="M176.683 197.57C169.176 193.29 157.174 193.163 149.4 197.281L123.038 211.247C114.702 215.663 114.463 223.207 122.513 227.796L149.853 243.381C157.36 247.661 169.362 247.788 177.136 243.67L203.499 229.704C211.834 225.289 212.074 217.744 204.024 213.156L176.683 197.57Z" stroke="url(#paint5_radial_1431_10395)" stroke-width="0.740059"/>
<path d="M176.683 197.57C169.176 193.29 157.174 193.163 149.4 197.281L123.038 211.247C114.702 215.663 114.463 223.207 122.513 227.796L149.853 243.381C157.36 247.661 169.362 247.788 177.136 243.67L203.499 229.704C211.834 225.289 212.074 217.744 204.024 213.156L176.683 197.57Z" stroke="url(#paint6_radial_1431_10395)" stroke-width="0.740059"/>
<path d="M176.683 197.57C169.176 193.29 157.174 193.163 149.4 197.281L123.038 211.247C114.702 215.663 114.463 223.207 122.513 227.796L149.853 243.381C157.36 247.661 169.362 247.788 177.136 243.67L203.499 229.704C211.834 225.289 212.074 217.744 204.024 213.156L176.683 197.57Z" stroke="url(#paint7_radial_1431_10395)" stroke-width="0.740059"/>
</g>
<g opacity="0.66" filter="url(#filter2_b_1431_10395)">
<path d="M83.5948 226.037C91.1904 222.014 102.918 222.138 110.253 226.319L137.594 241.905C145.459 246.389 145.225 253.76 137.081 258.075L110.718 272.04C103.122 276.064 91.395 275.94 84.0596 271.758L56.7192 256.172C48.8537 251.689 49.0875 244.317 57.2321 240.003L83.5948 226.037Z" fill="url(#paint8_radial_1431_10395)" fill-opacity="0.56"/>
<path d="M110.572 226.133C103.064 221.853 91.0621 221.726 83.2884 225.844L56.9257 239.81C48.5902 244.226 48.3509 251.77 56.4008 256.359L83.7412 271.944C91.2485 276.224 103.251 276.351 111.024 272.233L137.387 258.267C145.723 253.852 145.962 246.307 137.912 241.719L110.572 226.133Z" stroke="url(#paint9_radial_1431_10395)" stroke-width="0.740059"/>
<path d="M110.572 226.133C103.064 221.853 91.0621 221.726 83.2884 225.844L56.9257 239.81C48.5902 244.226 48.3509 251.77 56.4008 256.359L83.7412 271.944C91.2485 276.224 103.251 276.351 111.024 272.233L137.387 258.267C145.723 253.852 145.962 246.307 137.912 241.719L110.572 226.133Z" stroke="url(#paint10_radial_1431_10395)" stroke-width="0.740059"/>
<path d="M110.572 226.133C103.064 221.853 91.0621 221.726 83.2884 225.844L56.9257 239.81C48.5902 244.226 48.3509 251.77 56.4008 256.359L83.7412 271.944C91.2485 276.224 103.251 276.351 111.024 272.233L137.387 258.267C145.723 253.852 145.962 246.307 137.912 241.719L110.572 226.133Z" stroke="url(#paint11_radial_1431_10395)" stroke-width="0.740059"/>
</g>
<g opacity="0.66" filter="url(#filter3_b_1431_10395)">
<path d="M149.707 186.074C157.302 182.05 169.03 182.174 176.365 186.356L203.705 201.941C211.571 206.425 211.337 213.797 203.192 218.111L176.83 232.077C169.234 236.1 157.507 235.976 150.171 231.795L122.831 216.209C114.965 211.725 115.199 204.354 123.344 200.039L149.707 186.074Z" fill="url(#paint12_radial_1431_10395)" fill-opacity="0.56"/>
<path d="M176.683 186.17C169.176 181.89 157.174 181.763 149.4 185.881L123.038 199.847C114.702 204.262 114.463 211.806 122.513 216.395L149.853 231.981C157.36 236.261 169.362 236.387 177.136 232.269L203.499 218.304C211.834 213.888 212.074 206.344 204.024 201.755L176.683 186.17Z" stroke="url(#paint13_radial_1431_10395)" stroke-width="0.740059"/>
<path d="M176.683 186.17C169.176 181.89 157.174 181.763 149.4 185.881L123.038 199.847C114.702 204.262 114.463 211.806 122.513 216.395L149.853 231.981C157.36 236.261 169.362 236.387 177.136 232.269L203.499 218.304C211.834 213.888 212.074 206.344 204.024 201.755L176.683 186.17Z" stroke="url(#paint14_radial_1431_10395)" stroke-width="0.740059"/>
<path d="M176.683 186.17C169.176 181.89 157.174 181.763 149.4 185.881L123.038 199.847C114.702 204.262 114.463 211.806 122.513 216.395L149.853 231.981C157.36 236.261 169.362 236.387 177.136 232.269L203.499 218.304C211.834 213.888 212.074 206.344 204.024 201.755L176.683 186.17Z" stroke="url(#paint15_radial_1431_10395)" stroke-width="0.740059"/>
</g>
<g filter="url(#filter4_b_1431_10395)">
<path d="M83.5948 212.947C91.1904 208.924 102.918 209.048 110.253 213.229L137.594 228.815C145.459 233.299 145.225 240.67 137.081 244.985L110.718 258.95C103.122 262.974 91.395 262.85 84.0596 258.668L56.7192 243.083C48.8537 238.599 49.0875 231.227 57.2321 226.913L83.5948 212.947Z" fill="url(#paint16_radial_1431_10395)" fill-opacity="0.62"/>
<path d="M110.572 213.043C103.064 208.763 91.0621 208.637 83.2884 212.755L56.9257 226.72C48.5902 231.136 48.3509 238.68 56.4008 243.269L83.7412 258.854C91.2485 263.134 103.251 263.261 111.024 259.143L137.387 245.177C145.723 240.762 145.962 233.218 137.912 228.629L110.572 213.043Z" stroke="url(#paint17_radial_1431_10395)" stroke-width="0.740059"/>
<path d="M110.572 213.043C103.064 208.763 91.0621 208.637 83.2884 212.755L56.9257 226.72C48.5902 231.136 48.3509 238.68 56.4008 243.269L83.7412 258.854C91.2485 263.134 103.251 263.261 111.024 259.143L137.387 245.177C145.723 240.762 145.962 233.218 137.912 228.629L110.572 213.043Z" stroke="url(#paint18_radial_1431_10395)" stroke-width="0.740059"/>
<path d="M110.572 213.043C103.064 208.763 91.0621 208.637 83.2884 212.755L56.9257 226.72C48.5902 231.136 48.3509 238.68 56.4008 243.269L83.7412 258.854C91.2485 263.134 103.251 263.261 111.024 259.143L137.387 245.177C145.723 240.762 145.962 233.218 137.912 228.629L110.572 213.043Z" stroke="url(#paint19_radial_1431_10395)" stroke-width="0.740059"/>
</g>
<g filter="url(#filter5_b_1431_10395)">
<path d="M149.707 172.984C157.302 168.96 169.03 169.084 176.365 173.266L203.705 188.852C211.571 193.335 211.337 200.707 203.192 205.021L176.83 218.987C169.234 223.01 157.507 222.886 150.171 218.705L122.831 203.119C114.965 198.635 115.199 191.264 123.344 186.949L149.707 172.984Z" fill="url(#paint20_radial_1431_10395)" fill-opacity="0.62"/>
<path d="M176.683 173.08C169.176 168.8 157.174 168.673 149.4 172.791L123.038 186.757C114.702 191.172 114.463 198.717 122.513 203.305L149.853 218.891C157.36 223.171 169.362 223.298 177.136 219.18L203.499 205.214C211.834 200.798 212.074 193.254 204.024 188.665L176.683 173.08Z" stroke="url(#paint21_radial_1431_10395)" stroke-width="0.740059"/>
<path d="M176.683 173.08C169.176 168.8 157.174 168.673 149.4 172.791L123.038 186.757C114.702 191.172 114.463 198.717 122.513 203.305L149.853 218.891C157.36 223.171 169.362 223.298 177.136 219.18L203.499 205.214C211.834 200.798 212.074 193.254 204.024 188.665L176.683 173.08Z" stroke="url(#paint22_radial_1431_10395)" stroke-width="0.740059"/>
<path d="M176.683 173.08C169.176 168.8 157.174 168.673 149.4 172.791L123.038 186.757C114.702 191.172 114.463 198.717 122.513 203.305L149.853 218.891C157.36 223.171 169.362 223.298 177.136 219.18L203.499 205.214C211.834 200.798 212.074 193.254 204.024 188.665L176.683 173.08Z" stroke="url(#paint23_radial_1431_10395)" stroke-width="0.740059"/>
</g>
<path opacity="0.86" d="M0.301745 116.483C0.301745 112.662 2.98421 108.016 6.2932 106.105L183.176 3.98183C186.485 2.07139 189.168 3.62011 189.168 7.44101L189.168 184.412C189.168 188.233 186.485 192.879 183.176 194.789L6.29319 296.913C2.9842 298.823 0.301746 297.275 0.301746 293.454L0.301745 116.483Z" fill="url(#paint24_linear_1431_10395)" stroke="url(#paint25_linear_1431_10395)" stroke-width="0.696843"/>
<path d="M10.4775 120.568C10.4775 116.747 13.16 112.101 16.469 110.191L193.352 8.06726C196.661 6.15682 199.344 7.70554 199.344 11.5264L199.344 190.517C199.344 194.338 196.661 198.984 193.352 200.895L16.469 303.018C13.16 304.929 10.4775 303.38 10.4775 299.559L10.4775 120.568Z" fill="url(#paint26_linear_1431_10395)" stroke="url(#paint27_linear_1431_10395)" stroke-width="0.696843"/>
<path opacity="0.52" d="M49.6643 145.545H144.885V234.874C144.885 238.503 142.893 241.839 139.699 243.561L109.679 259.737C101.936 263.91 92.6137 263.91 84.8706 259.737L54.8509 243.561C51.6562 241.839 49.6643 238.503 49.6643 234.874V145.545Z" fill="url(#paint28_linear_1431_10395)"/>
</g>
<defs>
<filter id="filter0_b_1431_10395" x="29.3406" y="213.255" width="135.632" height="94.3685" filterUnits="userSpaceOnUse" color-interpolation-filters="sRGB">
<feFlood flood-opacity="0" result="BackgroundImageFix"/>
<feGaussianBlur in="BackgroundImage" stdDeviation="10.3608"/>
<feComposite in2="SourceAlpha" operator="in" result="effect1_backgroundBlur_1431_10395"/>
<feBlend mode="normal" in="SourceGraphic" in2="effect1_backgroundBlur_1431_10395" result="shape"/>
</filter>
<filter id="filter1_b_1431_10395" x="95.4524" y="173.291" width="135.632" height="94.3686" filterUnits="userSpaceOnUse" color-interpolation-filters="sRGB">
<feFlood flood-opacity="0" result="BackgroundImageFix"/>
<feGaussianBlur in="BackgroundImage" stdDeviation="10.3608"/>
<feComposite in2="SourceAlpha" operator="in" result="effect1_backgroundBlur_1431_10395"/>
<feBlend mode="normal" in="SourceGraphic" in2="effect1_backgroundBlur_1431_10395" result="shape"/>
</filter>
<filter id="filter2_b_1431_10395" x="29.3406" y="201.854" width="135.632" height="94.3686" filterUnits="userSpaceOnUse" color-interpolation-filters="sRGB">
<feFlood flood-opacity="0" result="BackgroundImageFix"/>
<feGaussianBlur in="BackgroundImage" stdDeviation="10.3608"/>
<feComposite in2="SourceAlpha" operator="in" result="effect1_backgroundBlur_1431_10395"/>
<feBlend mode="normal" in="SourceGraphic" in2="effect1_backgroundBlur_1431_10395" result="shape"/>
</filter>
<filter id="filter3_b_1431_10395" x="95.4524" y="161.891" width="135.632" height="94.3686" filterUnits="userSpaceOnUse" color-interpolation-filters="sRGB">
<feFlood flood-opacity="0" result="BackgroundImageFix"/>
<feGaussianBlur in="BackgroundImage" stdDeviation="10.3608"/>
<feComposite in2="SourceAlpha" operator="in" result="effect1_backgroundBlur_1431_10395"/>
<feBlend mode="normal" in="SourceGraphic" in2="effect1_backgroundBlur_1431_10395" result="shape"/>
</filter>
<filter id="filter4_b_1431_10395" x="29.3406" y="188.764" width="135.632" height="94.3686" filterUnits="userSpaceOnUse" color-interpolation-filters="sRGB">
<feFlood flood-opacity="0" result="BackgroundImageFix"/>
<feGaussianBlur in="BackgroundImage" stdDeviation="10.3608"/>
<feComposite in2="SourceAlpha" operator="in" result="effect1_backgroundBlur_1431_10395"/>
<feBlend mode="normal" in="SourceGraphic" in2="effect1_backgroundBlur_1431_10395" result="shape"/>
</filter>
<filter id="filter5_b_1431_10395" x="95.4524" y="148.801" width="135.632" height="94.3686" filterUnits="userSpaceOnUse" color-interpolation-filters="sRGB">
<feFlood flood-opacity="0" result="BackgroundImageFix"/>
<feGaussianBlur in="BackgroundImage" stdDeviation="10.3608"/>
<feComposite in2="SourceAlpha" operator="in" result="effect1_backgroundBlur_1431_10395"/>
<feBlend mode="normal" in="SourceGraphic" in2="effect1_backgroundBlur_1431_10395" result="shape"/>
</filter>
<radialGradient id="paint0_radial_1431_10395" cx="0" cy="0" r="1" gradientUnits="userSpaceOnUse" gradientTransform="translate(106.887 224.265) rotate(69.3218) scale(98.9171 264.032)">
<stop stop-color="white" stop-opacity="0.3"/>
<stop offset="1" stop-color="white" stop-opacity="0"/>
</radialGradient>
<radialGradient id="paint1_radial_1431_10395" cx="0" cy="0" r="1" gradientUnits="userSpaceOnUse" gradientTransform="translate(108.733 222.638) rotate(69.7967) scale(99.5481 266.605)">
<stop stop-color="white"/>
<stop offset="1" stop-color="white" stop-opacity="0"/>
</radialGradient>
<radialGradient id="paint2_radial_1431_10395" cx="0" cy="0" r="1" gradientUnits="userSpaceOnUse" gradientTransform="translate(105.463 222.844) rotate(68.8492) scale(100.753 268.015)">
<stop stop-color="#4262FE"/>
<stop offset="1" stop-color="#4262FE" stop-opacity="0"/>
</radialGradient>
<radialGradient id="paint3_radial_1431_10395" cx="0" cy="0" r="1" gradientUnits="userSpaceOnUse" gradientTransform="translate(107.276 221.797) rotate(69.7967) scale(99.5481 266.605)">
<stop stop-color="#151515"/>
<stop offset="1" stop-color="#151515" stop-opacity="0"/>
</radialGradient>
<radialGradient id="paint4_radial_1431_10395" cx="0" cy="0" r="1" gradientUnits="userSpaceOnUse" gradientTransform="translate(172.999 184.301) rotate(69.3218) scale(98.9171 264.032)">
<stop stop-color="white" stop-opacity="0.3"/>
<stop offset="1" stop-color="white" stop-opacity="0"/>
</radialGradient>
<radialGradient id="paint5_radial_1431_10395" cx="0" cy="0" r="1" gradientUnits="userSpaceOnUse" gradientTransform="translate(174.845 182.675) rotate(69.7967) scale(99.5481 266.605)">
<stop stop-color="white"/>
<stop offset="1" stop-color="white" stop-opacity="0"/>
</radialGradient>
<radialGradient id="paint6_radial_1431_10395" cx="0" cy="0" r="1" gradientUnits="userSpaceOnUse" gradientTransform="translate(171.575 182.881) rotate(68.8492) scale(100.753 268.015)">
<stop stop-color="#4262FE"/>
<stop offset="1" stop-color="#4262FE" stop-opacity="0"/>
</radialGradient>
<radialGradient id="paint7_radial_1431_10395" cx="0" cy="0" r="1" gradientUnits="userSpaceOnUse" gradientTransform="translate(173.388 181.834) rotate(69.7967) scale(99.5481 266.605)">
<stop stop-color="#151515"/>
<stop offset="1" stop-color="#151515" stop-opacity="0"/>
</radialGradient>
<radialGradient id="paint8_radial_1431_10395" cx="0" cy="0" r="1" gradientUnits="userSpaceOnUse" gradientTransform="translate(106.887 212.864) rotate(69.3218) scale(98.9171 264.032)">
<stop stop-color="white" stop-opacity="0.3"/>
<stop offset="1" stop-color="white" stop-opacity="0"/>
</radialGradient>
<radialGradient id="paint9_radial_1431_10395" cx="0" cy="0" r="1" gradientUnits="userSpaceOnUse" gradientTransform="translate(108.733 211.238) rotate(69.7967) scale(99.5481 266.605)">
<stop stop-color="white"/>
<stop offset="1" stop-color="white" stop-opacity="0"/>
</radialGradient>
<radialGradient id="paint10_radial_1431_10395" cx="0" cy="0" r="1" gradientUnits="userSpaceOnUse" gradientTransform="translate(105.463 211.444) rotate(68.8492) scale(100.753 268.015)">
<stop stop-color="#4262FE"/>
<stop offset="1" stop-color="#4262FE" stop-opacity="0"/>
</radialGradient>
<radialGradient id="paint11_radial_1431_10395" cx="0" cy="0" r="1" gradientUnits="userSpaceOnUse" gradientTransform="translate(107.276 210.397) rotate(69.7967) scale(99.5481 266.605)">
<stop stop-color="#151515"/>
<stop offset="1" stop-color="#151515" stop-opacity="0"/>
</radialGradient>
<radialGradient id="paint12_radial_1431_10395" cx="0" cy="0" r="1" gradientUnits="userSpaceOnUse" gradientTransform="translate(172.999 172.901) rotate(69.3218) scale(98.9171 264.032)">
<stop stop-color="white" stop-opacity="0.3"/>
<stop offset="1" stop-color="white" stop-opacity="0"/>
</radialGradient>
<radialGradient id="paint13_radial_1431_10395" cx="0" cy="0" r="1" gradientUnits="userSpaceOnUse" gradientTransform="translate(174.845 171.275) rotate(69.7967) scale(99.5481 266.605)">
<stop stop-color="white"/>
<stop offset="1" stop-color="white" stop-opacity="0"/>
</radialGradient>
<radialGradient id="paint14_radial_1431_10395" cx="0" cy="0" r="1" gradientUnits="userSpaceOnUse" gradientTransform="translate(171.575 171.48) rotate(68.8492) scale(100.753 268.015)">
<stop stop-color="#4262FE"/>
<stop offset="1" stop-color="#4262FE" stop-opacity="0"/>
</radialGradient>
<radialGradient id="paint15_radial_1431_10395" cx="0" cy="0" r="1" gradientUnits="userSpaceOnUse" gradientTransform="translate(173.388 170.434) rotate(69.7967) scale(99.5481 266.605)">
<stop stop-color="#151515"/>
<stop offset="1" stop-color="#151515" stop-opacity="0"/>
</radialGradient>
<radialGradient id="paint16_radial_1431_10395" cx="0" cy="0" r="1" gradientUnits="userSpaceOnUse" gradientTransform="translate(106.887 199.775) rotate(69.3218) scale(98.9171 264.032)">
<stop stop-color="#2982FF"/>
<stop offset="1" stop-color="#476EA5" stop-opacity="0"/>
</radialGradient>
<radialGradient id="paint17_radial_1431_10395" cx="0" cy="0" r="1" gradientUnits="userSpaceOnUse" gradientTransform="translate(108.733 198.148) rotate(69.7967) scale(99.5481 266.605)">
<stop stop-color="white"/>
<stop offset="1" stop-color="white" stop-opacity="0"/>
</radialGradient>
<radialGradient id="paint18_radial_1431_10395" cx="0" cy="0" r="1" gradientUnits="userSpaceOnUse" gradientTransform="translate(105.463 198.354) rotate(68.8492) scale(100.753 268.015)">
<stop stop-color="#4262FE"/>
<stop offset="1" stop-color="#4262FE" stop-opacity="0"/>
</radialGradient>
<radialGradient id="paint19_radial_1431_10395" cx="0" cy="0" r="1" gradientUnits="userSpaceOnUse" gradientTransform="translate(107.276 197.307) rotate(69.7967) scale(99.5481 266.605)">
<stop stop-color="#151515"/>
<stop offset="1" stop-color="#151515" stop-opacity="0"/>
</radialGradient>
<radialGradient id="paint20_radial_1431_10395" cx="0" cy="0" r="1" gradientUnits="userSpaceOnUse" gradientTransform="translate(172.999 159.811) rotate(69.3218) scale(98.9171 264.032)">
<stop stop-color="#2982FF"/>
<stop offset="1" stop-color="#476EA5" stop-opacity="0"/>
</radialGradient>
<radialGradient id="paint21_radial_1431_10395" cx="0" cy="0" r="1" gradientUnits="userSpaceOnUse" gradientTransform="translate(174.845 158.185) rotate(69.7967) scale(99.5481 266.605)">
<stop stop-color="white"/>
<stop offset="1" stop-color="white" stop-opacity="0"/>
</radialGradient>
<radialGradient id="paint22_radial_1431_10395" cx="0" cy="0" r="1" gradientUnits="userSpaceOnUse" gradientTransform="translate(171.575 158.391) rotate(68.8492) scale(100.753 268.015)">
<stop stop-color="#4262FE"/>
<stop offset="1" stop-color="#4262FE" stop-opacity="0"/>
</radialGradient>
<radialGradient id="paint23_radial_1431_10395" cx="0" cy="0" r="1" gradientUnits="userSpaceOnUse" gradientTransform="translate(173.388 157.344) rotate(69.7967) scale(99.5481 266.605)">
<stop stop-color="#151515"/>
<stop offset="1" stop-color="#151515" stop-opacity="0"/>
</radialGradient>
<linearGradient id="paint24_linear_1431_10395" x1="11.8718" y1="168.888" x2="157.791" y2="93.8002" gradientUnits="userSpaceOnUse">
<stop stop-color="#3C88F8" stop-opacity="0.33"/>
<stop offset="1" stop-color="#22324B" stop-opacity="0"/>
</linearGradient>
<linearGradient id="paint25_linear_1431_10395" x1="-3.3463e-05" y1="164.818" x2="137.561" y2="119.317" gradientUnits="userSpaceOnUse">
<stop stop-color="#3A94FF" stop-opacity="0.62"/>
<stop offset="1" stop-color="#3A94FF" stop-opacity="0"/>
</linearGradient>
<linearGradient id="paint26_linear_1431_10395" x1="22.0476" y1="174.994" x2="167.967" y2="99.9057" gradientUnits="userSpaceOnUse">
<stop stop-color="#3C88F8" stop-opacity="0.33"/>
<stop offset="1" stop-color="#22324B" stop-opacity="0"/>
</linearGradient>
<linearGradient id="paint27_linear_1431_10395" x1="10.1758" y1="170.924" x2="147.737" y2="125.422" gradientUnits="userSpaceOnUse">
<stop stop-color="#3A94FF" stop-opacity="0.62"/>
<stop offset="1" stop-color="#3A94FF" stop-opacity="0"/>
</linearGradient>
<linearGradient id="paint28_linear_1431_10395" x1="97.2748" y1="145.545" x2="97.2748" y2="266.421" gradientUnits="userSpaceOnUse">
<stop offset="0.171875" stop-color="#14D5FF" stop-opacity="0"/>
<stop offset="1" stop-color="#14D5FF"/>
</linearGradient>
<clipPath id="clip0_1431_10395">
<rect width="168" height="308" fill="white"/>
</clipPath>
</defs>
</svg>
