<?xml version="1.0" encoding="UTF-8"?>
<svg width="40px" height="46px" viewBox="0 0 40 46" version="1.1" xmlns="http://www.w3.org/2000/svg" xmlns:xlink="http://www.w3.org/1999/xlink">
    <!-- Generator: Sketch 53.2 (72643) - https://sketchapp.com -->
    <title>COUNTRY</title>
    <desc>Created with Sketch.</desc>
    <g id="Page-1" stroke="none" stroke-width="1" fill="none" fill-rule="evenodd">
        <g id="about" transform="translate(-160.000000, -2273.000000)" fill="#007FFF">
            <path d="M184,2294.21179 L184,2286.17598 C184,2285.07699 183.131,2283.97404 182.059,2283.70648 L179,2282.94442 L179,2281.91876 L179,2281.00013 L182.685,2281.91876 L184,2282.24677 L189,2283.49342 L197.57,2285.62897 C197.755,2285.67554 198,2285.98572 198,2286.17598 L198,2297.70101 L189,2295.45843 L184,2294.21179 Z M182,2297.70101 L179,2296.95381 L177,2296.45535 L172,2295.20871 L168,2294.21179 L163.43,2293.07316 C163.245,2293.02658 163,2292.71542 163,2292.52614 L163,2281.91876 L163,2281.00013 L166.685,2281.91876 L168,2282.24677 L172,2283.24369 L177,2284.48935 L179,2284.98781 L181.57,2285.62897 C181.755,2285.67554 182,2285.98572 182,2286.17598 L182,2293.71333 L182,2295.75771 L182,2297.70101 Z M198.059,2283.70648 L189,2281.44904 L185,2280.45113 L184,2280.2024 L179,2278.95575 L179,2276.96389 C179,2276.8757 178.971,2276.79741 178.949,2276.71615 C179.572,2276.38021 180,2275.7341 180,2274.98195 C180,2274.59349 179.883,2274.23475 179.688,2273.92854 C179.334,2273.37261 178.713,2273 178,2273 C177.287,2273 176.666,2273.37261 176.312,2273.92854 C176.117,2274.23475 176,2274.59349 176,2274.98195 C176,2275.7341 176.428,2276.38021 177.051,2276.71615 C177.029,2276.79741 177,2276.8757 177,2276.96389 L177,2280.44221 L177,2281.91876 L177,2282.44596 L174.884,2281.91876 L172,2281.19931 L171,2280.95058 L169,2280.45113 L168,2280.2024 L163,2278.95575 L163,2276.6884 C163.596,2276.34553 164,2275.71329 164,2274.98195 C164,2274.59349 163.883,2274.23475 163.688,2273.92854 C163.334,2273.37261 162.713,2273 162,2273 C161.287,2273 160.666,2273.37261 160.312,2273.92854 C160.117,2274.23475 160,2274.59349 160,2274.98195 C160,2275.71329 160.404,2276.34553 161,2276.6884 L161,2280.44221 L161,2281.91876 L161,2292.52614 L161,2304.77259 L161,2318.00903 C161,2318.55604 161.447,2319 162,2319 C162.553,2319 163,2318.55604 163,2318.00903 L163,2304.77259 L163,2295.00952 L168,2296.25617 L172,2297.2521 L177,2298.49874 L177,2304.77259 L177,2317.59381 C177,2318.14083 177.447,2318.58478 178,2318.58478 C178.553,2318.58478 179,2318.14083 179,2317.59381 L179,2304.77259 L179,2298.9972 L182.059,2299.76025 C183.127,2300.02583 184,2299.35494 184,2298.25892 L184,2296.25617 L189,2297.50182 L198.059,2299.76025 C199.127,2300.02583 200,2299.35494 200,2298.25892 L200,2286.17598 C200,2285.07699 199.131,2283.97404 198.059,2283.70648 L198.059,2283.70648 Z" id="COUNTRY"></path>
        </g>
    </g>
</svg>