<svg width="87" height="24" viewBox="0 0 87 24" fill="none" xmlns="http://www.w3.org/2000/svg">
<path fill-rule="evenodd" clip-rule="evenodd" d="M15.1881 23.6338C16.7581 23.3828 18.1567 22.4922 19.0561 21.171L16.8835 19.6344C16.3715 20.3719 15.5852 20.8691 14.7037 21.013C13.8287 21.1988 12.9165 21.0061 12.1892 20.4816C11.8227 20.2285 11.5359 19.8746 11.3629 19.462L20.1317 18.0044C20.1939 17.0125 19.9949 16.0217 19.5547 15.1323C19.0965 14.1993 18.4192 13.3933 17.5816 12.7844C16.2737 11.8309 14.6475 11.4314 13.0511 11.6714C11.4773 11.907 10.0669 12.7795 9.14592 14.0873C8.22493 15.3951 7.87308 17.0251 8.17169 18.6004C8.46865 20.1923 9.37427 21.6029 10.6933 22.528C11.9832 23.4907 13.6033 23.8893 15.1881 23.6338ZM10.9427 17.0638C11.0476 16.5931 11.2411 16.1471 11.5125 15.7498L11.5268 15.7713C12.0368 15.0572 12.8038 14.5727 13.6638 14.4214C14.5095 14.2405 15.3918 14.4282 16.0928 14.9384C16.482 15.229 16.801 15.6046 17.026 16.037L10.9427 17.0638Z" fill="#042055"/>
<path d="M21.5278 23.2747V11.9944H24.0637V13.6459H24.0993C24.4151 13.0539 24.8825 12.5581 25.4528 12.2098C26.0991 11.8266 26.8404 11.6373 27.5898 11.6641C28.784 11.6238 29.9354 12.1148 30.7383 13.0068C31.5728 13.9613 32.0092 15.2038 31.9563 16.4749V23.2962H29.2139V16.8339C29.2272 16.1588 28.9705 15.5067 28.5015 15.0245C28.0504 14.539 27.4199 14.2635 26.7599 14.2635C26.0999 14.2635 25.4694 14.539 25.0182 15.0245C24.5493 15.5067 24.2926 16.1588 24.3059 16.8339V23.2962L21.5278 23.2747Z" fill="#042055"/>
<path d="M36.5865 16.9273H36.6221L40.9317 11.9944H44.5646L38.9229 18.3849L44.6215 23.2963H40.4758L37.0566 20.4241L33.844 23.9999V8.68433H36.5865V16.9273Z" fill="#042055"/>
<path fill-rule="evenodd" clip-rule="evenodd" d="M50.3701 23.6481C51.9911 23.6911 53.5606 23.0723 54.7224 21.932C55.883 20.8248 56.5291 19.2774 56.5033 17.6669C56.5291 16.0564 55.883 14.5089 54.7224 13.4018C53.5606 12.2615 51.9911 11.6427 50.3701 11.6857C48.7504 11.65 47.1836 12.2677 46.0178 13.4018C44.8429 14.5001 44.1897 16.0521 44.2227 17.6669C44.1897 19.2817 44.8429 20.8337 46.0178 21.932C47.1831 23.0667 48.7502 23.6846 50.3701 23.6481ZM52.7208 15.2902C53.3311 15.926 53.6623 16.7825 53.6397 17.6669L53.6682 17.6454C53.6832 18.534 53.3415 19.391 52.7208 20.0221C52.1174 20.6581 51.2823 21.0178 50.4093 21.0178C49.5362 21.0178 48.7011 20.6581 48.0977 20.0221C47.4712 19.3932 47.122 18.5366 47.129 17.6454C47.1221 16.7605 47.4717 15.9106 48.0977 15.2902C48.7011 14.6542 49.5362 14.2945 50.4093 14.2945C51.2823 14.2945 52.1174 14.6542 52.7208 15.2902Z" fill="#042055"/>
<path d="M58.2841 23.2747V11.9944H60.82V13.6459H60.8556C61.1714 13.0539 61.6387 12.5581 62.209 12.2098C62.8553 11.8266 63.5966 11.6373 64.346 11.6641C65.5402 11.6238 66.6916 12.1148 67.4945 13.0068C68.329 13.9613 68.7654 15.2038 68.7126 16.4749V23.2962H65.9416V16.8339C65.955 16.1588 65.6982 15.5067 65.2293 15.0245C64.7781 14.539 64.1476 14.2635 63.4876 14.2635C62.8277 14.2635 62.1971 14.539 61.746 15.0245C61.277 15.5067 61.0203 16.1588 61.0337 16.8339V23.2962L58.2841 23.2747Z" fill="#042055"/>
<path d="M73.3783 12.0161V23.2964H70.6002V12.0161H73.3783Z" fill="#042055"/>
<path d="M74.8813 12.0161H78.1509L80.5657 15.4052H80.6013L83.0161 12.0161H86.2857L82.2254 17.6455L86.2857 23.2964H83.0161L80.6013 19.8857H80.5657L78.1509 23.2964H74.8813L78.9629 17.6455L74.8813 12.0161Z" fill="#042055"/>
<g style="mix-blend-mode:multiply" opacity="0.5">
<path d="M10.8215 17.0855L11.4626 16.9778L10.9426 17.0639C11.015 16.7557 11.1225 16.4569 11.2631 16.1736C10.234 16.3482 9.19363 16.4466 8.15026 16.468C8.01551 17.1796 8.01551 17.9105 8.15026 18.6221C8.193 18.8375 8.24286 19.0457 8.30697 19.2468C9.28999 19.1965 10.273 19.0744 11.2133 18.9524L10.8215 17.0855Z" fill="#042055"/>
</g>
<path d="M71.9536 5.38867C71.9536 5.38867 71.9536 5.5251 71.9536 5.58972C71.7989 6.7473 70.8523 7.63218 69.6956 7.70073C70.9003 7.76457 71.8735 8.71488 71.975 9.92663C71.975 9.92663 71.975 9.99843 71.975 10.0128C71.9685 9.91237 71.9685 9.81164 71.975 9.71122C72.0427 9.31558 72.2067 8.94305 72.4523 8.62699C72.5285 8.52985 72.6118 8.43864 72.7016 8.35414C73.0495 8.02085 73.4888 7.8007 73.9624 7.72227H74.2473H74.2117C72.9926 7.64437 72.0233 6.66107 71.9536 5.43175C71.9552 5.41744 71.9552 5.40299 71.9536 5.38867V5.38867Z" fill="#007FFF"/>
<path d="M26.5355 3.46436C23.0747 3.57878 19.6283 3.96772 16.2281 4.62757C12.7776 5.25309 9.42899 6.35486 6.27684 7.90179C4.63832 8.71596 3.15148 9.80904 1.88176 11.1329C1.20159 11.8581 0.671299 12.7123 0.321763 13.646C0.23736 13.8812 0.166017 14.1209 0.108064 14.3641C0.0551437 14.639 0.0218164 14.9173 0.00833758 15.197C-0.0309746 15.7866 0.0691207 16.3772 0.300393 16.9203C0.542585 17.4947 1.14094 18.3563 2.80779 19.1318C5.10149 20.1945 8.67027 19.8498 11.3557 19.4693L10.9355 17.0639C9.39684 17.3726 1.433 18.3348 2.14533 14.2205C2.36849 13.5034 2.7291 12.8374 3.2067 12.2602C4.27461 11.0086 5.54657 9.94992 6.9678 9.12962C9.92062 7.42519 13.0916 6.13747 16.3919 5.30251C19.7201 4.42271 23.1117 3.80809 26.5355 3.46436V3.46436Z" fill="#042055"/>
<path d="M32.7755 3.67254C32.9939 3.69886 33.2121 3.62201 33.3667 3.46431C33.5632 3.24509 33.5914 2.92103 33.4357 2.6707C33.2801 2.42037 32.9785 2.30463 32.6971 2.38726L29.7125 3.213L32.7755 3.67254Z" fill="#042055"/>
<path fill-rule="evenodd" clip-rule="evenodd" d="M35.5465 5.52506L34.6917 5.56814C34.6153 5.58151 34.5373 5.55603 34.4831 5.50004C34.429 5.44405 34.4058 5.36476 34.421 5.28811L34.7487 3.99565C34.4205 3.69627 34.2233 3.27803 34.2002 2.83244C34.1799 2.38192 34.3448 1.9429 34.6561 1.61897L34.2002 0.362417C34.1681 0.292492 34.1742 0.210818 34.2163 0.146493C34.2583 0.0821675 34.3304 0.0443385 34.4068 0.0464833L35.2616 0.00340147C35.9515 -0.0356846 36.6176 0.263912 37.0495 0.807596L37.6336 0.678351C38.4178 0.562775 39.2176 0.722489 39.8988 1.13071L41.4375 2.04979C41.573 2.12964 41.6592 2.27328 41.6664 2.43136C41.6736 2.58944 41.6008 2.74042 41.4731 2.83244L39.963 3.93821C39.3242 4.40238 38.5485 4.63518 37.7619 4.5988L37.2134 4.54854C36.8483 5.12781 36.2266 5.49202 35.5465 5.52506ZM38.559 1.70739C38.0957 1.73094 37.7389 2.12845 37.7618 2.59553C37.771 2.82103 37.8698 3.03333 38.0359 3.18461C38.2021 3.33589 38.4217 3.41341 38.6451 3.39972C39.1084 3.37537 39.4646 2.97724 39.4408 2.5102C39.4171 2.04316 39.0224 1.68385 38.559 1.70739Z" fill="#042055"/>
</svg>
