<?xml version="1.0" encoding="UTF-8"?>
<svg width="48px" height="41px" viewBox="0 0 48 41" version="1.1" xmlns="http://www.w3.org/2000/svg" xmlns:xlink="http://www.w3.org/1999/xlink">
    <!-- Generator: Sketch 53.2 (72643) - https://sketchapp.com -->
    <title>AGILE</title>
    <desc>Created with Sketch.</desc>
    <g id="Page-1" stroke="none" stroke-width="1" fill="none" fill-rule="evenodd">
        <g id="about" transform="translate(-160.000000, -2039.000000)" fill="#007FFF">
            <path d="M207.706752,2072.2928 L201.706783,2066.29283 C201.315785,2065.90184 200.683788,2065.90184 200.29279,2066.29283 C199.901792,2066.68383 199.901792,2067.31583 200.29279,2067.70682 L204.585768,2071.9998 L183.01888,2071.9998 C179.064901,2072.0058 175.260921,2070.41781 172.403935,2067.47083 C166.531966,2061.41586 166.531966,2051.58492 172.403935,2045.52796 C178.259905,2039.49 187.739856,2039.49 193.595825,2045.52796 C199.468794,2051.58492 199.468794,2061.41586 193.595825,2067.47083 C193.210827,2067.86682 193.220827,2068.49982 193.616825,2068.88482 C194.013823,2069.26982 194.64582,2069.25982 195.030818,2068.86282 C201.655783,2062.03186 201.655783,2050.96793 195.030818,2044.13597 C188.390852,2037.28801 177.609908,2037.28801 170.968943,2044.13597 C164.343977,2050.96793 164.343977,2062.03186 170.968943,2068.86282 C172.205936,2070.13981 173.603929,2071.1878 175.107921,2071.9998 L160.999995,2071.9998 C160.447998,2071.9998 160,2072.4468 160,2072.99979 C160,2073.55279 160.447998,2073.99979 160.999995,2073.99979 L204.585768,2073.99979 L200.29279,2078.29276 C199.901792,2078.68376 199.901792,2079.31575 200.29279,2079.70675 C200.683788,2080.09775 201.315785,2080.09775 201.706783,2079.70675 L207.706752,2073.70679 C208.097749,2073.31579 208.097749,2072.68379 207.706752,2072.2928" id="AGILE"></path>
        </g>
    </g>
</svg>