<?xml version="1.0" encoding="UTF-8"?>
<svg width="46px" height="41px" viewBox="0 0 46 41" version="1.1" xmlns="http://www.w3.org/2000/svg" xmlns:xlink="http://www.w3.org/1999/xlink">
    <!-- Generator: Sketch 53.2 (72643) - https://sketchapp.com -->
    <title>PRODUCT DEV</title>
    <desc>Created with Sketch.</desc>
    <g id="Page-1" stroke="none" stroke-width="1" fill="none" fill-rule="evenodd">
        <g id="about" transform="translate(-794.000000, -2310.000000)" fill="#007FFF">
            <path d="M804,2315 C804,2314.448 804.448,2314 805,2314 C805.552,2314 806,2314.448 806,2315 C806,2315.552 805.552,2316 805,2316 C804.448,2316 804,2315.552 804,2315 L804,2315 Z M801,2315 C801,2314.448 801.448,2314 802,2314 C802.552,2314 803,2314.448 803,2315 C803,2315.552 802.552,2316 802,2316 C801.448,2316 801,2315.552 801,2315 L801,2315 Z M799,2316 C798.448,2316 798,2315.552 798,2315 C798,2314.448 798.448,2314 799,2314 C799.552,2314 800,2314.448 800,2315 C800,2315.552 799.552,2316 799,2316 L799,2316 Z M832,2328 C831.448,2328 831,2327.551 831,2327 C831,2326.449 831.448,2326 832,2326 C832.552,2326 833,2326.449 833,2327 C833,2327.551 832.552,2328 832,2328 L832,2328 Z M832,2324 C830.346,2324 829,2325.346 829,2327 C829,2327.469 829.117,2327.907 829.311,2328.302 C829.273,2328.337 829.23,2328.359 829.2,2328.4 L823.959,2335.389 L819.768,2330.36 C819.34,2329.846 818.539,2329.889 818.168,2330.445 L812.846,2338.431 L808.707,2334.293 C808.295,2333.881 807.62,2333.906 807.241,2334.35 L801.241,2341.35 C800.881,2341.769 800.93,2342.4 801.35,2342.76 C801.77,2343.119 802.4,2343.07 802.759,2342.65 L808.057,2336.471 L812.293,2340.707 C812.738,2341.153 813.482,2341.08 813.832,2340.555 L819.089,2332.669 L823.232,2337.641 C823.645,2338.137 824.412,2338.116 824.8,2337.6 L830.723,2329.704 C831.111,2329.888 831.541,2330 832,2330 C833.654,2330 835,2328.654 835,2327 C835,2325.346 833.654,2324 832,2324 L832,2324 Z M838,2348.002 C838,2348.549 837.548,2349 837,2349 L797,2349 C796.447,2349 796,2348.554 796,2348.002 L796,2348 L796,2321 L796,2320 L799,2320 L805,2320 L808,2320 L811,2320 L838,2320 L838,2348 L838,2348.002 Z M796,2312.998 C796,2312.451 796.452,2312 797,2312 L799,2312 L805,2312 L808,2312 L811,2312 L837,2312 C837.553,2312 838,2312.446 838,2312.998 L838,2318 L811,2318 L808,2318 L805,2318 L799,2318 L796,2318 L796,2312.998 Z M837,2310 L811,2310 L808,2310 L805,2310 L799,2310 L797,2310 C796.648,2310 796.314,2310.072 796,2310.185 C794.841,2310.599 794,2311.695 794,2312.998 L794,2321 L794,2348.002 C794,2349.659 795.343,2351 797,2351 L837,2351 C838.648,2351 840,2349.658 840,2348.002 L840,2348 L840,2319 L840,2312.998 C840,2311.341 838.656,2310 837,2310 L837,2310 Z" id="PRODUCT-DEV"></path>
        </g>
    </g>
</svg>