<?xml version="1.0" encoding="UTF-8"?>
<svg width="46px" height="45px" viewBox="0 0 46 45" version="1.1" xmlns="http://www.w3.org/2000/svg" xmlns:xlink="http://www.w3.org/1999/xlink">
    <!-- Generator: Sketch 53.2 (72643) - https://sketchapp.com -->
    <title>COMMUNICATION</title>
    <desc>Created with Sketch.</desc>
    <g id="Page-1" stroke="none" stroke-width="1" fill="none" fill-rule="evenodd">
        <g id="about" transform="translate(-794.000000, -2095.000000)" fill="#007FFF">
            <path d="M807.373,2120.80787 L811,2120.80787 L811,2121.80048 L811,2122.79309 L801,2122.79309 L801,2121.80048 L801,2120.80787 L807.373,2120.80787 Z M808,2114.8522 L821,2114.8522 L821,2115.84482 L821,2116.83743 L820.007,2116.83743 L816,2116.83743 L808,2116.83743 L806,2116.83743 L801,2116.83743 L801,2115.84482 L801,2114.8522 L806,2114.8522 L808,2114.8522 Z M838,2117.83897 C838,2118.92687 837.104,2119.81526 836.004,2119.81526 L833.429,2119.81526 L833,2119.81526 L831.429,2119.81526 L831.429,2121.80048 L831.429,2124.97286 L828,2121.85606 L828,2121.80048 L828,2119.81526 L828,2117.83004 L828,2115.84482 L828,2110.87283 C828,2108.6881 826.209,2106.91132 824.004,2106.91132 L808,2106.91132 L808,2101.94827 L808,2098.96151 C808,2097.87361 808.895,2096.98522 809.996,2096.98522 L836.004,2096.98522 C837.111,2096.98522 838,2097.86765 838,2098.96151 L838,2117.83897 Z M826,2129.75029 C826,2130.84415 825.111,2131.72658 824.004,2131.72658 L811.602,2131.72658 L808.619,2131.72658 L806.994,2133.18572 L806.407,2133.7118 L803,2136.77003 L803,2133.7118 L803,2133.18572 L803,2131.72658 L801,2131.72658 L797.996,2131.72658 C796.895,2131.72658 796,2130.83819 796,2129.75029 L796,2127.75614 L796,2121.80048 L796,2115.84482 L796,2110.87283 C796,2110.51251 796.103,2110.17999 796.272,2109.88915 C796.616,2109.29756 797.254,2108.89654 797.996,2108.89654 L801,2108.89654 L806,2108.89654 L808,2108.89654 L824.004,2108.89654 C824.741,2108.89654 825.379,2109.29954 825.725,2109.88915 C825.894,2110.17999 826,2110.51351 826,2110.87283 L826,2115.84482 L826,2117.83004 L826,2119.81526 L826,2120.0376 L826,2121.80048 L826,2122.72956 L826,2129.75029 Z M836.004,2095 L809.996,2095 C807.791,2095 806,2096.77677 806,2098.96151 L806,2101.94827 L806,2106.91132 L801,2106.91132 L797.996,2106.91132 C795.785,2106.91132 794,2108.68214 794,2110.87283 L794,2129.75029 C794,2131.93503 795.791,2133.7118 797.996,2133.7118 L801,2133.7118 L801,2139.00539 C801,2139.86598 802.027,2140.31861 802.671,2139.74191 L809.391,2133.7118 L824.004,2133.7118 C824.72,2133.7118 825.381,2133.51129 825.962,2133.18572 C827.174,2132.50578 828,2131.23127 828,2129.75029 L828,2124.54802 L831.753,2127.95962 C832.131,2128.30307 832.642,2128.28123 833,2128.03308 C833.25,2127.86036 833.429,2127.58243 833.429,2127.22807 L833.429,2121.80048 L836.004,2121.80048 C838.209,2121.80048 840,2120.0237 840,2117.83897 L840,2098.96151 C840,2096.77082 838.215,2095 836.004,2095 L836.004,2095 Z" id="COMMUNICATION"></path>
        </g>
    </g>
</svg>