<?xml version="1.0" encoding="utf-8"?>
<!-- Generator: Adobe Illustrator 24.2.3, SVG Export Plug-In . SVG Version: 6.00 Build 0)  -->
<svg version="1.1" id="Layer_1" xmlns="http://www.w3.org/2000/svg" xmlns:xlink="http://www.w3.org/1999/xlink" x="0px" y="0px"
	 viewBox="0 0 1137.5 848.9" style="enable-background:new 0 0 1137.5 848.9;" xml:space="preserve">
<style type="text/css">
	.st0{opacity:0.5;}
	.st1{fill:#808080;}
	.st2{fill:url(#SVGID_1_);}
	.st3{fill:#FFFFFF;}
	.st4{fill:url(#SVGID_2_);}
	.st5{fill:#277CFF;}
</style>
<g class="st0">
	<path class="st1" d="M365.1,136.5l1.9-1.1l1.3,0.8l-1.9,1.1L365.1,136.5z M353.3,143.3l9.8-5.6l1.3,0.8l-9.8,5.6L353.3,143.3z"/>
	<path class="st1" d="M367.5,149.9c-1.9,0.1-3.8-0.2-5.5-1.3c-1.8-1-2.4-2.1-2.2-3.2c0.3-1.3,1.9-2.6,4.1-3.9
		c2.2-1.3,4.4-2.2,6.7-2.3c1.9-0.1,3.8,0.2,5.5,1.3c1.8,1,2.4,2.1,2.2,3.2c-0.3,1.3-1.9,2.6-4.1,3.9
		C372.1,148.8,369.9,149.7,367.5,149.9z M376.5,143.4c0.2-0.8-0.4-1.6-1.6-2.3s-2.6-1-3.9-0.9c-1.8,0.1-3.6,0.8-5.7,2.1
		c-2.2,1.3-3.4,2.3-3.6,3.3c-0.2,0.8,0.4,1.6,1.6,2.3s2.6,1,3.9,0.9c1.8-0.1,3.6-0.8,5.7-2.1C375.1,145.5,376.3,144.5,376.5,143.4z"
		/>
	<path class="st1" d="M373.9,155.5c-3-1.7-2.9-3.6-0.7-4.9l0.4-0.2l1.4,0.8l-0.4,0.2c-1.5,0.9-1.5,2.2,0.6,3.4
		c2,1.2,4.4,1.2,5.9,0.3c1.3-0.8,1.4-1.8,0-3.1l-1.4-1.2c-1.7-1.5-1.8-2.9,0.2-4c2-1.2,5.2-1.3,8,0.4c2.8,1.6,2.7,3.5,0.7,4.6
		l-0.3,0.2l-1.4-0.8l0.3-0.2c1.5-0.8,1.4-2.1-0.5-3.1c-1.9-1.1-4-1.1-5.5-0.3c-1.3,0.8-1.3,1.7,0,2.8l1.4,1.2
		c1.9,1.7,1.9,3.1-0.2,4.3C380.2,157.2,376.9,157.2,373.9,155.5z"/>
	<path class="st1" d="M405,157.4l-8.8,10.7l-1.4-0.8l2.2-2.6l-6.1-3.5l-4.5,1.3l-1.4-0.8l18.5-5.1L405,157.4z M392.4,160.7l5.3,3.1
		l5.1-6L392.4,160.7z"/>
	<path class="st1" d="M394.7,172.2l-1.3-0.8l14-8.1l1.3,0.8l-1.5,0.9c1.5-0.4,3.2-0.2,4.8,0.7c2.6,1.5,2.3,3.3-1.1,5.3
		s-6.5,2.1-9.1,0.6c-1.6-0.9-1.9-1.9-1.3-2.8L394.7,172.2z M402.7,170.9c2.1,1.2,4.4,0.8,6.9-0.7s3.2-2.8,1.2-4s-4.4-0.8-6.9,0.7
		C401.4,168.4,400.7,169.7,402.7,170.9z"/>
	<path class="st1" d="M405.3,178.3l-1.3-0.8l14-8.1l1.3,0.8l-1.5,0.9c1.5-0.4,3.2-0.2,4.8,0.7c2.6,1.5,2.3,3.3-1.1,5.3
		s-6.5,2.1-9.1,0.6c-1.6-0.9-1.9-1.9-1.3-2.8L405.3,178.3z M413.3,177c2.1,1.2,4.4,0.8,6.9-0.7s3.2-2.8,1.2-4
		c-2.1-1.2-4.4-0.8-6.9,0.7C411.9,174.4,411.2,175.8,413.3,177z"/>
</g>
<g>
	
		<linearGradient id="SVGID_1_" gradientUnits="userSpaceOnUse" x1="8971.1338" y1="653.3" x2="8950.96" y2="653.3" gradientTransform="matrix(-1 0 0 -1 9228.4268 850)">
		<stop  offset="6.359925e-03" style="stop-color:#7EF070"/>
		<stop  offset="1" style="stop-color:#1AC67C"/>
	</linearGradient>
	<path class="st2" d="M273.1,206.5c-1.5,0-2.8-0.3-3.9-0.9l-11.3-6.5c-1.1-0.6-1.7-1.5-1.7-2.4s0.6-1.8,1.7-2.4l11.3-6.5
		c1-0.6,2.4-0.9,3.9-0.9s2.8,0.3,3.9,0.9l11.3,6.5c1.1,0.6,1.7,1.5,1.7,2.4s-0.6,1.8-1.7,2.4l-11.3,6.5
		C276,206.2,274.6,206.5,273.1,206.5z"/>
	<path class="st3" d="M273.1,187.1c1.4,0,2.7,0.3,3.8,0.9l11.3,6.5c2.1,1.2,2.1,3.1,0,4.3l-11.3,6.5c-1,0.6-2.4,0.9-3.8,0.9
		s-2.7-0.3-3.8-0.9l-11.3-6.5c-2.1-1.2-2.1-3.1,0-4.3l11.3-6.5C270.4,187.4,271.8,187.1,273.1,187.1 M273.1,186.6
		c-1.5,0-2.9,0.3-4,1l-11.3,6.5c-1.2,0.7-1.8,1.6-1.8,2.6s0.6,1.9,1.8,2.6l11.3,6.5c1.1,0.6,2.5,1,4,1s2.9-0.3,4-1l11.3-6.5
		c1.2-0.7,1.8-1.6,1.8-2.6s-0.6-1.9-1.8-2.6l-11.3-6.5C276.1,186.9,274.6,186.6,273.1,186.6L273.1,186.6z"/>
</g>
<g>
	
		<linearGradient id="SVGID_2_" gradientUnits="userSpaceOnUse" x1="915.8525" y1="256.7" x2="942.9297" y2="256.7" gradientTransform="matrix(1 0 0 -1 0 850)">
		<stop  offset="6.359925e-03" style="stop-color:#7EF070"/>
		<stop  offset="1" style="stop-color:#1AC67C"/>
	</linearGradient>
	<path class="st4" d="M929.4,601.2c-3.6,0-7-0.8-9.5-2.3c-2.6-1.5-4-3.5-4-5.6s1.4-4.1,4-5.6c2.5-1.5,5.9-2.3,9.5-2.3s7,0.8,9.5,2.3
		c2.6,1.5,4,3.5,4,5.6s-1.4,4.1-4,5.6C936.4,600.4,933,601.2,929.4,601.2z"/>
	<path class="st3" d="M929.4,585.7c3.4,0,6.8,0.7,9.4,2.2c5.2,3,5.2,7.9,0,10.9l0,0c-2.6,1.5-6,2.2-9.4,2.2s-6.8-0.7-9.4-2.2l0,0
		c-5.2-3-5.2-7.9,0-10.8l0,0C922.6,586.4,926,585.7,929.4,585.7 M929.4,585.2c-3.6,0-7.1,0.8-9.6,2.3c-2.7,1.5-4.1,3.6-4.1,5.9
		c0,2.2,1.5,4.3,4.1,5.9c2.6,1.5,6,2.3,9.6,2.3s7.1-0.8,9.6-2.3c2.7-1.5,4.1-3.6,4.1-5.9s-1.5-4.3-4.1-5.9
		C936.5,586,933,585.2,929.4,585.2L929.4,585.2z"/>
</g>
<g class="st0">
	<path class="st1" d="M1042,293.5l-14.8,4.7l-1.6-0.9l9.9-10.1l1.4,0.8l-8.5,8.7l15.2-4.8l1.4,0.8l-8.3,8.8l15-4.9l1.4,0.8
		l-17.5,5.7l-1.6-0.9L1042,293.5z"/>
	<path class="st1" d="M1050.8,308.4c-2.3,0.9-4.8,0.8-7.1-0.5c-2.9-1.6-2.3-3.5,0.9-5.4c3.2-1.9,6.5-2.2,9.3-0.5
		c2.8,1.6,2.3,3.5-0.9,5.4l-0.4,0.2l-7.1-4.1c-2.3,1.4-2.7,2.6-0.7,3.8c1.4,0.8,3,0.9,4.6,0.3L1050.8,308.4z M1052.3,306.3
		c2.1-1.3,2.4-2.5,0.5-3.6s-4-0.9-6.3,0.3L1052.3,306.3z"/>
	<path class="st1" d="M1059.8,307.5c1.5-0.4,3.2-0.2,4.8,0.7c2.6,1.5,2.3,3.3-1.1,5.3s-6.5,2.1-9.1,0.6c-1.6-0.9-1.9-1.9-1.3-2.8
		l-1.5,0.9l-1.3-0.8l13.7-7.9l1.3,0.8L1059.8,307.5z M1055.3,313.4c2.1,1.2,4.4,0.8,6.9-0.7s3.2-2.8,1.2-4c-2.1-1.2-4.4-0.8-6.9,0.7
		S1053.3,312.2,1055.3,313.4z"/>
	<path class="st1" d="M1084.9,315.7l-8.8,10.7l-1.4-0.8l2.2-2.6l-6.1-3.5l-4.5,1.3l-1.4-0.8l18.5-5.1L1084.9,315.7z M1072.3,319
		l5.3,3.1l5.1-6L1072.3,319z"/>
	<path class="st1" d="M1074.7,330.5l-1.3-0.8l14-8.1l1.3,0.8l-1.5,0.9c1.5-0.4,3.2-0.2,4.8,0.7c2.6,1.5,2.3,3.3-1.1,5.3
		s-6.5,2.1-9.1,0.6c-1.6-0.9-1.9-1.9-1.3-2.8L1074.7,330.5z M1082.6,329.2c2.1,1.2,4.4,0.8,6.9-0.7s3.2-2.8,1.2-4
		c-2.1-1.2-4.4-0.8-6.9,0.7C1081.3,326.7,1080.6,328,1082.6,329.2z"/>
	<path class="st1" d="M1085.2,336.6l-1.3-0.8l14-8.1l1.3,0.8l-1.5,0.9c1.5-0.4,3.2-0.2,4.8,0.7c2.6,1.5,2.3,3.3-1.1,5.3
		s-6.5,2.1-9.1,0.6c-1.6-0.9-1.9-1.9-1.3-2.8L1085.2,336.6z M1093.2,335.3c2.1,1.2,4.4,0.8,6.9-0.7s3.2-2.8,1.2-4
		c-2.1-1.2-4.4-0.8-6.9,0.7C1091.8,332.8,1091.1,334.1,1093.2,335.3z"/>
</g>
<g>
	<path class="st3" d="M922.2,340.9l-32-18.5c-2.9-1.7-2.6-4.7,0.8-6.6l30.4-17.5c3.4-2,8.5-2.2,11.5-0.5l32,18.5
		c2.9,1.7,2.6,4.7-0.8,6.6l-30.4,17.5C930.3,342.4,925.2,342.6,922.2,340.9z"/>
	<g>
		<path class="st5" d="M907.9,318.5l21.1,12.2c0.5,0.3,1.3,0.3,1.8,0c0.2-0.1,0.3-0.3,0.4-0.4l1-4c0.1-0.4-0.4-0.8-1.1-0.8
			c-0.1,0-0.1,0-0.2,0l-5.8-0.1l2.5-9.4c0.1-0.4-0.4-0.8-1.1-0.8c-0.2,0-0.3,0-0.5,0l-17.6,2.1c-0.7,0.1-1.1,0.5-1,0.9
			C907.5,318.3,907.7,318.4,907.9,318.5z"/>
		<ellipse class="st5" cx="940.1" cy="319.7" rx="4.5" ry="2.6"/>
	</g>
</g>
<g>
	<path class="st3" d="M985.1,376.6l-32-18.5c-2.9-1.7-2.6-4.7,0.8-6.6l30.4-17.5c3.4-2,8.5-2.2,11.5-0.5l32,18.5
		c2.9,1.7,2.6,4.7-0.8,6.6l-30.4,17.5C993.1,378.1,988,378.3,985.1,376.6z"/>
	<g>
		<path class="st5" d="M970.7,354.2l21.1,12.2c0.5,0.3,1.3,0.3,1.8,0c0.2-0.1,0.3-0.3,0.4-0.4l1-4c0.1-0.4-0.4-0.8-1.1-0.8
			c-0.1,0-0.1,0-0.2,0l-5.8-0.1l2.5-9.4c0.1-0.4-0.4-0.8-1.1-0.8c-0.2,0-0.3,0-0.5,0l-17.6,2.1c-0.7,0.1-1.1,0.5-1,0.9
			C970.4,354,970.5,354.1,970.7,354.2z"/>
		<ellipse class="st5" cx="1002.9" cy="355.4" rx="4.5" ry="2.6"/>
	</g>
</g>
<g>
	<path class="st3" d="M1045.2,412l-32-18.5c-2.9-1.7-2.6-4.7,0.8-6.6l30.4-17.5c3.4-2,8.5-2.2,11.5-0.5l32,18.5
		c2.9,1.7,2.6,4.7-0.8,6.6l-30.4,17.5C1053.3,413.5,1048.1,413.7,1045.2,412z"/>
	<g>
		<path class="st5" d="M1030.8,389.6l21.1,12.2c0.5,0.3,1.3,0.3,1.8,0c0.2-0.1,0.3-0.3,0.4-0.4l1-4c0.1-0.4-0.4-0.8-1.1-0.8
			c-0.1,0-0.1,0-0.2,0l-5.8-0.1l2.5-9.4c0.1-0.4-0.4-0.8-1.1-0.8c-0.2,0-0.3,0-0.5,0l-17.6,2.1c-0.7,0.1-1.1,0.5-1,0.9
			C1030.5,389.4,1030.6,389.5,1030.8,389.6z"/>
		<ellipse class="st5" cx="1063" cy="390.8" rx="4.5" ry="2.6"/>
	</g>
</g>
<g class="st0">
	<path class="st1" d="M989.8,509.5l-8.8,10.7l-1.4-0.8l2.2-2.6l-6.1-3.5l-4.5,1.3l-1.4-0.8l18.5-5.1L989.8,509.5z M977.2,512.8
		l5.3,3.1l5.1-6L977.2,512.8z"/>
	<path class="st1" d="M990.4,525.7l-1.3-0.8l5.6-3.3c2.3-1.3,2.4-2.4,0.8-3.3c-1.7-1-4.4-0.9-6.9,0.6l-5,2.9l-1.3-0.8l9.8-5.6
		l1.3,0.8l-1.8,1c1.6-0.4,3.5-0.3,5.2,0.7c2.2,1.3,2,2.8-0.5,4.3L990.4,525.7z"/>
	<path class="st1" d="M1013.3,523.1l1.3,0.8l-13.7,7.9l-1.3-0.8l1.5-0.9c-1.5,0.4-3.2,0.2-4.8-0.7c-2.6-1.5-2.3-3.3,1.1-5.3
		c3.4-2,6.5-2.1,9.1-0.6c1.6,0.9,1.9,1.9,1.3,2.8L1013.3,523.1z M1005.7,524.2c-2.1-1.2-4.4-0.8-6.9,0.7c-2.5,1.5-3.2,2.8-1.2,4
		c2.1,1.2,4.4,0.8,6.9-0.7C1007,526.7,1007.7,525.4,1005.7,524.2z"/>
	<path class="st1" d="M1009.8,531.1l-5,2.9l-1.3-0.8l9.8-5.6l1.3,0.8l-1.8,1c1.6-0.5,3.3-0.4,4.9,0.5c0.3,0.2,0.5,0.3,0.6,0.5
		l-1.1,0.6c-0.1-0.1-0.4-0.3-0.7-0.5C1014.9,529.5,1012.4,529.6,1009.8,531.1z"/>
	<path class="st1" d="M1032.1,536l1.9-1.1l1.3,0.8l-1.9,1.1L1032.1,536z M1020.3,542.9l9.8-5.6l1.3,0.8l-9.8,5.6L1020.3,542.9z"/>
	<path class="st1" d="M1013.6,539.2c-2.8-1.6-2.3-3.5,0.9-5.4c3.2-1.9,6.5-2.2,9.3-0.5c2.8,1.6,2.3,3.5-0.9,5.4
		C1019.6,540.5,1016.4,540.9,1013.6,539.2z M1014.7,538.6c2.1,1.2,4.4,0.8,6.9-0.7c2.5-1.5,3.2-2.8,1.2-4c-2.1-1.2-4.4-0.8-6.9,0.7
		C1013.3,536.1,1012.6,537.4,1014.7,538.6z"/>
	<path class="st1" d="M1044.6,541.2l1.3,0.8l-13.7,7.9l-1.3-0.8l1.5-0.9c-1.5,0.4-3.2,0.2-4.8-0.7c-2.6-1.5-2.3-3.3,1.1-5.3
		c3.4-2,6.5-2.1,9.1-0.6c1.6,0.9,1.9,1.9,1.3,2.8L1044.6,541.2z M1037,542.3c-2.1-1.2-4.4-0.8-6.9,0.7c-2.5,1.5-3.2,2.8-1.2,4
		c2.1,1.2,4.4,0.8,6.9-0.7C1038.4,544.8,1039.1,543.5,1037,542.3z"/>
	<path class="st1" d="M1058.9,549.4l-8.8,10.7l-1.4-0.8l2.2-2.6l-6.1-3.5l-4.5,1.3l-1.4-0.8l18.5-5.1L1058.9,549.4z M1046.3,552.7
		l5.3,3.1l5.1-6L1046.3,552.7z"/>
	<path class="st1" d="M1048.7,564.2l-1.3-0.8l14-8.1l1.3,0.8l-1.5,0.9c1.5-0.4,3.2-0.2,4.8,0.7c2.6,1.5,2.3,3.3-1.1,5.3
		c-3.4,2-6.5,2.1-9.1,0.6c-1.6-0.9-1.9-1.9-1.3-2.8L1048.7,564.2z M1056.7,562.9c2.1,1.2,4.4,0.8,6.9-0.7c2.5-1.5,3.2-2.8,1.2-4
		c-2.1-1.2-4.4-0.8-6.9,0.7C1055.3,560.4,1054.6,561.7,1056.7,562.9z"/>
	<path class="st1" d="M1059.2,570.3l-1.3-0.8l14-8.1l1.3,0.8l-1.5,0.9c1.5-0.4,3.2-0.2,4.8,0.7c2.6,1.5,2.3,3.3-1.1,5.3
		c-3.4,2-6.5,2.1-9.1,0.6c-1.6-0.9-1.9-1.9-1.3-2.8L1059.2,570.3z M1067.2,569c2.1,1.2,4.4,0.8,6.9-0.7c2.5-1.5,3.2-2.8,1.2-4
		c-2.1-1.2-4.4-0.8-6.9,0.7C1065.8,566.5,1065.1,567.8,1067.2,569z"/>
</g>
</svg>
