<?xml version="1.0" encoding="utf-8"?>
<!-- Generator: Adobe Illustrator 24.2.3, SVG Export Plug-In . SVG Version: 6.00 Build 0)  -->
<svg version="1.1" id="Layer_1" xmlns="http://www.w3.org/2000/svg" xmlns:xlink="http://www.w3.org/1999/xlink" x="0px" y="0px"
	 viewBox="0 0 566.1 1882.2" style="enable-background:new 0 0 566.1 1882.2;" xml:space="preserve">
<style type="text/css">
	.st0{fill:#C9C9DC;}
	.st1{fill:url(#SVGID_1_);}
	.st2{fill:#FFFFFF;}
	.st3{fill:url(#SVGID_2_);}
	.st4{fill:url(#SVGID_3_);}
</style>
<path class="st0" d="M471.4,1251.8c-3.8-7.1-10.6-13.8-20.3-19.4c-32-18.4-83.8-18.5-115.7,0c-9.7,5.6-16.5,12.3-20.3,19.4h-3.7v14
	l0,0c0,12.1,8,24.2,24,33.4c32,18.5,83.8,18.5,115.7,0c16-9.2,24-21.3,24-33.4v-14H471.4z"/>
<linearGradient id="SVGID_1_" gradientUnits="userSpaceOnUse" x1="311.4465" y1="1251.8423" x2="475.1043" y2="1251.8423">
	<stop  offset="1.550722e-03" style="stop-color:#EAEAF1"/>
	<stop  offset="1" style="stop-color:#EEEFF4"/>
</linearGradient>
<ellipse class="st1" cx="393.3" cy="1251.8" rx="81.8" ry="47.2"/>
<g>
	<path class="st2" d="M393.3,1204.6v1c21.7,0,42,4.9,57.4,13.7c15.1,8.7,23.5,20.3,23.5,32.5c0,12.2-8.3,23.8-23.5,32.5
		c-15.3,8.8-35.7,13.7-57.4,13.7c-21.7,0-42.1-4.9-57.4-13.7c-20.9-12-28.6-29.6-20.1-45.8c3.8-7.2,10.7-13.9,20.1-19.3
		c15.3-8.8,35.7-13.7,57.4-13.7L393.3,1204.6 M393.3,1204.6c-20.9,0-41.9,4.6-57.9,13.8c-9.9,5.7-16.7,12.5-20.5,19.7
		c-8.4,16.1-1.6,34.4,20.5,47.1c16,9.2,36.9,13.8,57.9,13.8c20.9,0,41.9-4.6,57.9-13.8c32-18.4,32-48.4,0-66.8
		C435.2,1209.2,414.2,1204.6,393.3,1204.6L393.3,1204.6z"/>
</g>
<path class="st0" d="M198.6,1389.2c-3.8-7.1-10.6-13.8-20.3-19.4c-32-18.4-83.8-18.5-115.7,0c-9.7,5.6-16.5,12.3-20.3,19.4h-3.7v14
	l0,0c0,12.1,8,24.2,24,33.4c32,18.5,83.8,18.5,115.7,0c16-9.2,24-21.3,24-33.4v-14H198.6z"/>
<linearGradient id="SVGID_2_" gradientUnits="userSpaceOnUse" x1="38.6669" y1="1389.1892" x2="202.3248" y2="1389.1892">
	<stop  offset="1.550722e-03" style="stop-color:#EAEAF1"/>
	<stop  offset="1" style="stop-color:#EEEFF4"/>
</linearGradient>
<ellipse class="st3" cx="120.5" cy="1389.2" rx="81.8" ry="47.2"/>
<g>
	<path class="st2" d="M120.5,1341.9v1c21.7,0,42,4.9,57.4,13.7c15.1,8.7,23.5,20.3,23.5,32.5c0,12.2-8.3,23.8-23.5,32.5
		c-15.3,8.8-35.7,13.7-57.4,13.7c-21.7,0-42.1-4.9-57.4-13.7c-15.1-8.7-23.5-20.3-23.5-32.5c0-12.2,8.3-23.8,23.5-32.5
		c15.3-8.8,35.7-13.7,57.4-13.7L120.5,1341.9 M120.5,1341.9c-20.9,0-41.9,4.6-57.9,13.8c-32,18.4-32,48.4,0,66.8
		c16,9.2,36.9,13.8,57.9,13.8c20.9,0,41.9-4.6,57.9-13.8c32-18.4,32-48.4,0-66.8C162.4,1346.6,141.4,1341.9,120.5,1341.9
		L120.5,1341.9z"/>
</g>
<path class="st0" d="M516.7,252.6c-4.1-7.6-11.3-14.8-21.7-20.8c-34.3-19.8-89.8-19.8-124,0c-10.4,6-17.7,13.2-21.7,20.8h-3.9v15
	l0,0c0,13,8.6,25.9,25.7,35.8c34.3,19.8,89.8,19.8,124,0c17.1-9.9,25.7-22.8,25.7-35.8v-15H516.7z"/>
<linearGradient id="SVGID_3_" gradientUnits="userSpaceOnUse" x1="345.224" y1="252.5946" x2="520.6324" y2="252.5946">
	<stop  offset="1.550722e-03" style="stop-color:#EAEAF1"/>
	<stop  offset="1" style="stop-color:#EEEFF4"/>
</linearGradient>
<ellipse class="st4" cx="432.9" cy="252.6" rx="87.7" ry="50.6"/>
<g>
	<path class="st2" d="M432.9,202v1c23.2,0,45.1,5.2,61.5,14.7c16.2,9.4,25.2,21.8,25.2,34.9c0,13.2-8.9,25.6-25.2,34.9
		c-16.4,9.5-38.3,14.7-61.5,14.7c-23.3,0-45.1-5.2-61.5-14.7c-16.2-9.4-25.2-21.8-25.2-34.9c0-13.2,8.9-25.6,25.2-34.9
		c16.4-9.5,38.3-14.7,61.5-14.7L432.9,202 M432.9,202c-22.4,0-44.9,4.9-62,14.8c-34.3,19.8-34.3,51.8,0,71.6
		c17.1,9.9,39.6,14.8,62,14.8c22.4,0,44.9-4.9,62-14.8c34.3-19.8,34.3-51.8,0-71.6C477.8,206.9,455.4,202,432.9,202L432.9,202z"/>
</g>
</svg>
