<?xml version="1.0" encoding="utf-8"?>
<!-- Generator: Adobe Illustrator 24.2.3, SVG Export Plug-In . SVG Version: 6.00 Build 0)  -->
<svg version="1.1" id="Layer_1" xmlns="http://www.w3.org/2000/svg" xmlns:xlink="http://www.w3.org/1999/xlink" x="0px" y="0px"
	 viewBox="0 0 566.1 1882.2" style="enable-background:new 0 0 566.1 1882.2;" xml:space="preserve">
<style type="text/css">
	.st0{opacity:0.5;}
	.st1{fill:#808080;}
	.st2{fill:url(#SVGID_1_);}
	.st3{fill:#FFFFFF;}
	.st4{fill:url(#SVGID_2_);}
	.st5{fill:#277CFF;}
</style>
<g class="st0">
	<path class="st1" d="M241.9,12.8l-14.8,4.7l-1.6-0.9l9.9-10.1l1.4,0.8l-8.5,8.7l15.2-4.8l1.4,0.8l-8.3,8.8l15-4.9l1.4,0.8
		l-17.5,5.7l-1.6-0.9L241.9,12.8z"/>
	<path class="st1" d="M250.7,27.8c-2.3,0.9-4.8,0.8-7.1-0.5c-2.9-1.6-2.3-3.5,0.9-5.4c3.2-1.9,6.5-2.2,9.3-0.5
		c2.8,1.6,2.3,3.5-0.9,5.4l-0.4,0.2l-7.1-4.1c-2.3,1.4-2.7,2.6-0.7,3.8c1.4,0.8,3,0.9,4.6,0.3L250.7,27.8z M252.2,25.6
		c2.1-1.3,2.4-2.5,0.5-3.6c-1.9-1.1-4-0.9-6.3,0.3L252.2,25.6z"/>
	<path class="st1" d="M259.8,26.8c1.5-0.4,3.2-0.2,4.8,0.7c2.6,1.5,2.3,3.3-1.1,5.3c-3.4,2-6.5,2.1-9.1,0.6
		c-1.6-0.9-1.9-1.9-1.3-2.8l-1.5,0.9l-1.3-0.8l13.7-7.9l1.3,0.8L259.8,26.8z M255.3,32.7c2.1,1.2,4.4,0.8,6.9-0.7
		c2.5-1.5,3.2-2.8,1.2-4c-2.1-1.2-4.4-0.8-6.9,0.7C253.9,30.2,253.2,31.5,255.3,32.7z"/>
	<path class="st1" d="M284.9,35L276,45.7l-1.4-0.8l2.2-2.6l-6.1-3.5l-4.5,1.3l-1.4-0.8l18.5-5.1L284.9,35z M272.3,38.3l5.3,3.1
		l5.1-6L272.3,38.3z"/>
	<path class="st1" d="M274.6,49.8l-1.3-0.8l14-8.1l1.3,0.8l-1.5,0.9c1.5-0.4,3.2-0.2,4.8,0.7c2.6,1.5,2.3,3.3-1.1,5.3
		c-3.4,2-6.5,2.1-9.1,0.6c-1.6-0.9-1.9-1.9-1.3-2.8L274.6,49.8z M282.6,48.5c2.1,1.2,4.4,0.8,6.9-0.7c2.5-1.5,3.2-2.8,1.2-4
		c-2.1-1.2-4.4-0.8-6.9,0.7C281.2,46,280.5,47.3,282.6,48.5z"/>
	<path class="st1" d="M285.1,55.9l-1.3-0.8l14-8.1l1.3,0.8l-1.5,0.9c1.5-0.4,3.2-0.2,4.8,0.7c2.6,1.5,2.3,3.3-1.1,5.3
		c-3.4,2-6.5,2.1-9.1,0.6c-1.6-0.9-1.9-1.9-1.3-2.8L285.1,55.9z M293.1,54.6c2.1,1.2,4.4,0.8,6.9-0.7c2.5-1.5,3.2-2.8,1.2-4
		c-2.1-1.2-4.4-0.8-6.9,0.7C291.8,52.1,291.1,53.4,293.1,54.6z"/>
</g>
<g>
	<linearGradient id="SVGID_1_" gradientUnits="userSpaceOnUse" x1="411.1487" y1="1495.386" x2="438.2249" y2="1495.386">
		<stop  offset="6.359925e-03" style="stop-color:#7EF070"/>
		<stop  offset="1" style="stop-color:#1AC67C"/>
	</linearGradient>
	<path class="st2" d="M424.7,1503.3c-3.6,0-7-0.8-9.5-2.3c-2.6-1.5-4-3.5-4-5.6c0-2.1,1.4-4.1,4-5.6c2.5-1.5,5.9-2.3,9.5-2.3
		s7,0.8,9.5,2.3c2.6,1.5,4,3.5,4,5.6c0,2.1-1.4,4.1-4,5.6C431.7,1502.5,428.3,1503.3,424.7,1503.3z"/>
	<path class="st3" d="M424.7,1487.7c3.4,0,6.8,0.7,9.4,2.2l0,0c5.2,3,5.2,7.9,0,10.8l0,0c-2.6,1.5-6,2.2-9.4,2.2
		c-3.4,0-6.8-0.7-9.4-2.2h0c-5.2-3-5.2-7.9,0-10.8l0,0C417.9,1488.5,421.3,1487.7,424.7,1487.7 M424.7,1487.2
		c-3.6,0-7.1,0.8-9.6,2.3c-2.7,1.5-4.1,3.6-4.1,5.9s1.5,4.3,4.1,5.9c2.6,1.5,6,2.3,9.6,2.3c3.6,0,7.1-0.8,9.6-2.3
		c2.7-1.5,4.1-3.6,4.1-5.9c0-2.2-1.5-4.3-4.1-5.9C431.7,1488,428.3,1487.2,424.7,1487.2L424.7,1487.2z"/>
</g>
<g>
	
		<linearGradient id="SVGID_2_" gradientUnits="userSpaceOnUse" x1="9293.8604" y1="1740.3645" x2="9273.6875" y2="1740.3645" gradientTransform="matrix(-1 0 0 1 9460.749 0)">
		<stop  offset="6.359925e-03" style="stop-color:#7EF070"/>
		<stop  offset="1" style="stop-color:#1AC67C"/>
	</linearGradient>
	<path class="st4" d="M182.7,1750.2c-1.5,0-2.8-0.3-3.9-0.9l-11.3-6.5c-1.1-0.6-1.7-1.5-1.7-2.4s0.6-1.8,1.7-2.4l11.3-6.5
		c1-0.6,2.4-0.9,3.9-0.9c1.5,0,2.8,0.3,3.9,0.9l11.3,6.5c1.1,0.6,1.7,1.5,1.7,2.4c0,0.9-0.6,1.8-1.7,2.4l-11.3,6.5
		C185.6,1749.9,184.2,1750.2,182.7,1750.2z"/>
	<path class="st3" d="M182.7,1730.8c1.4,0,2.7,0.3,3.8,0.9l11.3,6.5c2.1,1.2,2.1,3.1,0,4.3l-11.3,6.5c-1,0.6-2.4,0.9-3.8,0.9
		s-2.7-0.3-3.8-0.9l-11.3-6.5c-2.1-1.2-2.1-3.1,0-4.3l11.3-6.5C180,1731.1,181.4,1730.8,182.7,1730.8 M182.7,1730.3
		c-1.5,0-2.9,0.3-4,1l-11.3,6.5c-1.2,0.7-1.8,1.6-1.8,2.6c0,1,0.6,1.9,1.8,2.6l11.3,6.5c1.1,0.6,2.5,1,4,1c1.5,0,2.9-0.3,4-1
		l11.3-6.5c1.2-0.7,1.8-1.6,1.8-2.6s-0.6-1.9-1.8-2.6l-11.3-6.5C185.7,1730.6,184.2,1730.3,182.7,1730.3L182.7,1730.3z"/>
</g>
<g>
	<path class="st3" d="M119.5,60.2l-32-18.5c-2.9-1.7-2.6-4.7,0.8-6.6l30.4-17.5c3.4-2,8.5-2.2,11.5-0.5l32,18.5
		c2.9,1.7,2.6,4.7-0.8,6.6L131,59.7C127.6,61.7,122.5,61.9,119.5,60.2z"/>
	<g>
		<path class="st5" d="M105.2,37.8L126.3,50c0.5,0.3,1.3,0.3,1.8,0c0.2-0.1,0.3-0.3,0.4-0.4l1-4c0.1-0.4-0.4-0.8-1.1-0.8
			c-0.1,0-0.1,0-0.2,0l-5.8-0.1l2.5-9.4c0.1-0.4-0.4-0.8-1.1-0.8c-0.2,0-0.3,0-0.5,0l-17.6,2.1c-0.7,0.1-1.1,0.5-1,0.9
			C104.9,37.6,105,37.7,105.2,37.8z"/>
		<ellipse class="st5" cx="137.4" cy="39" rx="4.5" ry="2.6"/>
	</g>
</g>
<g>
	<path class="st3" d="M182.4,95.9l-32-18.5c-2.9-1.7-2.6-4.7,0.8-6.6l30.4-17.5c3.4-2,8.5-2.2,11.5-0.5l32,18.5
		c2.9,1.7,2.6,4.7-0.8,6.6l-30.4,17.5C190.5,97.4,185.3,97.6,182.4,95.9z"/>
	<g>
		<path class="st5" d="M168,73.5l21.1,12.2c0.5,0.3,1.3,0.3,1.8,0c0.2-0.1,0.3-0.3,0.4-0.4l1-4c0.1-0.4-0.4-0.8-1.1-0.8
			c-0.1,0-0.1,0-0.2,0l-5.8-0.1l2.5-9.4c0.1-0.4-0.4-0.8-1.1-0.8c-0.2,0-0.3,0-0.5,0l-17.6,2.1c-0.7,0.1-1.1,0.5-1,0.9
			C167.7,73.3,167.8,73.4,168,73.5z"/>
		<ellipse class="st5" cx="200.2" cy="74.7" rx="4.5" ry="2.6"/>
	</g>
</g>
<g>
	<path class="st3" d="M242.5,131.3l-32-18.5c-2.9-1.7-2.6-4.7,0.8-6.6l30.4-17.5c3.4-2,8.5-2.2,11.5-0.5l32,18.5
		c2.9,1.7,2.6,4.7-0.8,6.6L254,130.8C250.6,132.8,245.4,133,242.5,131.3z"/>
	<g>
		<path class="st5" d="M228.1,109l21.1,12.2c0.5,0.3,1.3,0.3,1.8,0c0.2-0.1,0.3-0.3,0.4-0.4l1-4c0.1-0.4-0.4-0.8-1.1-0.8
			c-0.1,0-0.1,0-0.2,0l-5.8-0.1l2.5-9.4c0.1-0.4-0.4-0.8-1.1-0.8c-0.2,0-0.3,0-0.5,0l-17.6,2.1c-0.7,0.1-1.1,0.5-1,0.9
			C227.8,108.7,227.9,108.9,228.1,109z"/>
		<ellipse class="st5" cx="260.4" cy="110.1" rx="4.5" ry="2.6"/>
	</g>
</g>
<g class="st0">
	<path class="st1" d="M477.7,1417.4l-8.8,10.7l-1.4-0.8l2.2-2.6l-6.1-3.5l-4.5,1.3l-1.4-0.8l18.5-5.1L477.7,1417.4z M465.1,1420.7
		l5.3,3.1l5.1-6L465.1,1420.7z"/>
	<path class="st1" d="M478.3,1433.6l-1.3-0.8l5.6-3.3c2.3-1.3,2.4-2.4,0.8-3.3c-1.7-1-4.4-0.9-6.9,0.6l-5,2.9l-1.3-0.8l9.8-5.6
		l1.3,0.8l-1.8,1c1.6-0.4,3.5-0.3,5.2,0.7c2.2,1.3,2,2.8-0.5,4.3L478.3,1433.6z"/>
	<path class="st1" d="M501.2,1431l1.3,0.8l-13.7,7.9l-1.3-0.8l1.5-0.9c-1.5,0.4-3.2,0.2-4.8-0.7c-2.6-1.5-2.3-3.3,1.1-5.3
		c3.4-2,6.5-2.1,9.1-0.6c1.6,0.9,1.9,1.9,1.3,2.8L501.2,1431z M493.6,1432.1c-2.1-1.2-4.4-0.8-6.9,0.7c-2.5,1.5-3.2,2.8-1.2,4
		c2.1,1.2,4.4,0.8,6.9-0.7C494.9,1434.6,495.6,1433.3,493.6,1432.1z"/>
	<path class="st1" d="M497.7,1439l-5,2.9l-1.3-0.8l9.8-5.6l1.3,0.8l-1.8,1c1.6-0.5,3.3-0.4,4.9,0.5c0.3,0.2,0.5,0.3,0.6,0.5
		l-1.1,0.6c-0.1-0.1-0.4-0.3-0.7-0.5C502.8,1437.5,500.3,1437.5,497.7,1439z"/>
	<path class="st1" d="M520,1444l1.9-1.1l1.3,0.8l-1.9,1.1L520,1444z M508.2,1450.8l9.8-5.6l1.3,0.8l-9.8,5.6L508.2,1450.8z"/>
	<path class="st1" d="M501.4,1447.1c-2.8-1.6-2.3-3.5,0.9-5.4s6.5-2.2,9.3-0.5c2.8,1.6,2.3,3.5-0.9,5.4
		C507.5,1448.5,504.3,1448.8,501.4,1447.1z M502.5,1446.5c2.1,1.2,4.4,0.8,6.9-0.7c2.5-1.5,3.2-2.8,1.2-4c-2.1-1.2-4.4-0.8-6.9,0.7
		C501.2,1444,500.5,1445.3,502.5,1446.5z"/>
	<path class="st1" d="M532.5,1449.1l1.3,0.8l-13.7,7.9l-1.3-0.8l1.5-0.9c-1.5,0.4-3.2,0.2-4.8-0.7c-2.6-1.5-2.3-3.3,1.1-5.3
		c3.4-2,6.5-2.1,9.1-0.6c1.6,0.9,1.9,1.9,1.3,2.8L532.5,1449.1z M524.9,1450.2c-2.1-1.2-4.4-0.8-6.9,0.7c-2.5,1.5-3.2,2.8-1.2,4
		c2.1,1.2,4.4,0.8,6.9-0.7C526.2,1452.7,526.9,1451.4,524.9,1450.2z"/>
	<path class="st1" d="M546.8,1457.4l-8.8,10.7l-1.4-0.8l2.2-2.6l-6.1-3.5l-4.5,1.3l-1.4-0.8l18.5-5.1L546.8,1457.4z M534.2,1460.7
		l5.3,3.1l5.1-6L534.2,1460.7z"/>
	<path class="st1" d="M536.5,1472.1l-1.3-0.8l14-8.1l1.3,0.8l-1.5,0.9c1.5-0.4,3.2-0.2,4.8,0.7c2.6,1.5,2.3,3.3-1.1,5.3
		s-6.5,2.1-9.1,0.6c-1.6-0.9-1.9-1.9-1.3-2.8L536.5,1472.1z M544.5,1470.8c2.1,1.2,4.4,0.8,6.9-0.7c2.5-1.5,3.2-2.8,1.2-4
		s-4.4-0.8-6.9,0.7C543.2,1468.3,542.5,1469.7,544.5,1470.8z"/>
	<path class="st1" d="M547.1,1478.2l-1.3-0.8l14-8.1l1.3,0.8l-1.5,0.9c1.5-0.4,3.2-0.2,4.8,0.7c2.6,1.5,2.3,3.3-1.1,5.3
		c-3.4,2-6.5,2.1-9.1,0.6c-1.6-0.9-1.9-1.9-1.3-2.8L547.1,1478.2z M555.1,1476.9c2.1,1.2,4.4,0.8,6.9-0.7c2.5-1.5,3.2-2.8,1.2-4
		c-2.1-1.2-4.4-0.8-6.9,0.7C553.7,1474.4,553,1475.7,555.1,1476.9z"/>
</g>
<g class="st0">
	<path class="st1" d="M274.7,1680.2l1.9-1.1l1.3,0.8l-1.9,1.1L274.7,1680.2z M262.9,1687l9.8-5.6l1.3,0.8l-9.8,5.6L262.9,1687z"/>
	<path class="st1" d="M277.1,1693.6c-1.9,0.1-3.8-0.2-5.5-1.3c-1.8-1-2.4-2.1-2.2-3.2c0.3-1.3,1.9-2.6,4.1-3.9
		c2.2-1.3,4.4-2.2,6.7-2.3c1.9-0.1,3.8,0.2,5.5,1.3c1.8,1,2.4,2.1,2.2,3.2c-0.3,1.3-1.9,2.6-4.1,3.9
		C281.7,1692.5,279.5,1693.4,277.1,1693.6z M286.1,1687.1c0.2-0.8-0.4-1.6-1.6-2.3c-1.2-0.7-2.6-1-3.9-0.9c-1.8,0.1-3.6,0.8-5.7,2.1
		c-2.2,1.3-3.4,2.3-3.6,3.3c-0.2,0.8,0.4,1.6,1.6,2.3s2.6,1,3.9,0.9c1.8-0.1,3.6-0.8,5.7-2.1
		C284.7,1689.2,285.9,1688.1,286.1,1687.1z"/>
	<path class="st1" d="M283.5,1699.2c-3-1.7-2.9-3.6-0.7-4.9l0.4-0.2l1.4,0.8l-0.4,0.2c-1.5,0.9-1.5,2.2,0.6,3.4s4.4,1.2,5.9,0.3
		c1.3-0.8,1.4-1.8,0-3.1l-1.4-1.2c-1.7-1.5-1.8-2.9,0.2-4c2-1.2,5.2-1.3,8,0.4c2.8,1.6,2.7,3.5,0.7,4.6l-0.3,0.2l-1.4-0.8l0.3-0.2
		c1.5-0.8,1.4-2.1-0.5-3.1c-1.9-1.1-4-1.1-5.5-0.3c-1.3,0.8-1.3,1.7,0,2.8l1.4,1.2c1.9,1.7,1.9,3.1-0.2,4.3
		C289.8,1700.9,286.5,1700.9,283.5,1699.2z"/>
	<path class="st1" d="M314.6,1701.1l-8.8,10.7l-1.4-0.8l2.2-2.6l-6.1-3.5l-4.5,1.3l-1.4-0.8l18.5-5.1L314.6,1701.1z M302,1704.4
		l5.3,3.1l5.1-6L302,1704.4z"/>
	<path class="st1" d="M304.3,1715.9l-1.3-0.8l14-8.1l1.3,0.8l-1.5,0.9c1.5-0.4,3.2-0.2,4.8,0.7c2.6,1.5,2.3,3.3-1.1,5.3
		s-6.5,2.1-9.1,0.6c-1.6-0.9-1.9-1.9-1.3-2.8L304.3,1715.9z M312.3,1714.6c2.1,1.2,4.4,0.8,6.9-0.7c2.5-1.5,3.2-2.8,1.2-4
		s-4.4-0.8-6.9,0.7C311,1712,310.3,1713.4,312.3,1714.6z"/>
	<path class="st1" d="M314.9,1721.9l-1.3-0.8l14-8.1l1.3,0.8l-1.5,0.9c1.5-0.4,3.2-0.2,4.8,0.7c2.6,1.5,2.3,3.3-1.1,5.3
		c-3.4,2-6.5,2.1-9.1,0.6c-1.6-0.9-1.9-1.9-1.3-2.8L314.9,1721.9z M322.9,1720.7c2.1,1.2,4.4,0.8,6.9-0.7c2.5-1.5,3.2-2.8,1.2-4
		s-4.4-0.8-6.9,0.7C321.5,1718.1,320.8,1719.5,322.9,1720.7z"/>
</g>
</svg>
