<?xml version="1.0" encoding="utf-8"?>
<!-- Generator: Adobe Illustrator 24.2.3, SVG Export Plug-In . SVG Version: 6.00 Build 0)  -->
<svg version="1.1" id="Layer_1" xmlns="http://www.w3.org/2000/svg" xmlns:xlink="http://www.w3.org/1999/xlink" x="0px" y="0px"
	 viewBox="0 0 566.1 1882.2" style="enable-background:new 0 0 566.1 1882.2;" xml:space="preserve">
<style type="text/css">
	.st0{fill:#E7E8EB;}
	.st1{fill:#C9C9DC;}
	.st2{fill:url(#SVGID_1_);}
	.st3{fill:#FFFFFF;}
	.st4{fill:#383839;}
	.st5{fill:url(#SVGID_2_);}
	.st6{fill:#202023;}
	.st7{fill:#4D39AD;}
	.st8{opacity:0.4;}
	.st9{fill:url(#SVGID_3_);}
	.st10{fill:url(#SVGID_4_);}
	.st11{fill:url(#SVGID_5_);}
	.st12{fill:#F7F8FC;}
	.st13{fill:#CCDAF2;}
	.st14{fill:#F95C58;}
	.st15{fill:#68C900;}
	.st16{fill:#FFCF50;}
	.st17{opacity:0.3;fill:#FFFFFF;}
	.st18{fill:#277CFF;}
	.st19{opacity:0.5;fill:none;stroke:#FFFFFF;stroke-miterlimit:10;stroke-dasharray:4,3;}
</style>
<g>
	<g>
		<g>
			<path class="st0" d="M95.4,1877.9l-75.9-43.8c-4.6-2.7-7.2-6.2-7.3-9.8c-0.1-3.7,2.5-7.3,7.2-10l187.5-108.3
				c4.8-2.8,10.9-4.5,17-4.8c3.5-0.2,7,0.1,10.3,0.9c3.2,0.7,6.3,1.9,9,3.5l74.9,43.2c2.7,1.6,4.8,3.3,6.1,5.2
				c1.3,1.9,1.8,3.9,1.5,6c-0.5,3.5-3.4,7-8.3,9.8L129.8,1878c-4.7,2.7-10.9,4.2-17.4,4.2C106.1,1882.1,100,1880.6,95.4,1877.9
				L95.4,1877.9z"/>
			<path class="st1" d="M309.7,1749.8c-1.1-1-2.3-1.9-3.8-2.7l-74.9-43.2c-2.7-1.6-5.8-2.8-9-3.5c-3.3-0.8-6.8-1.1-10.3-0.9
				c-6.1,0.3-12.1,2-17,4.8L7.2,1812.5c-1.6,0.9-3,2-4.1,3.1v-0.7H0v7.6c0.1,3.7,2.7,7.2,7.3,9.8l75.9,43.8c4.6,2.7,10.7,4.2,17,4.2
				c6.5,0,12.7-1.4,17.4-4.2L305.2,1768c4.8-2.8,7.8-6.3,8.3-9.8c0.1-0.4,0.1-0.7,0.1-1.1h0v-7.4H309.7z"/>
			
				<linearGradient id="SVGID_1_" gradientUnits="userSpaceOnUse" x1="-7191.9941" y1="7537.252" x2="-7064.4409" y2="7537.252" gradientTransform="matrix(0.866 0.5 -1 0.5774 13867.3477 994.7681)">
				<stop  offset="1.550722e-03" style="stop-color:#EAEAF1"/>
				<stop  offset="1" style="stop-color:#EEEFF4"/>
			</linearGradient>
			<path class="st2" d="M83.3,1868.6l-75.9-43.8c-4.6-2.7-7.2-6.2-7.3-9.8c-0.1-3.7,2.5-7.3,7.2-10l187.5-108.3
				c4.8-2.8,10.9-4.5,17-4.8c3.5-0.2,7,0.1,10.3,0.9c3.2,0.7,6.3,1.9,9,3.5l74.9,43.2c2.7,1.6,4.8,3.3,6.1,5.2
				c1.3,1.9,1.8,3.9,1.5,6c-0.5,3.5-3.4,7-8.3,9.8l-187.5,108.3c-4.7,2.7-10.9,4.2-17.4,4.2C93.9,1872.8,87.9,1871.3,83.3,1868.6
				L83.3,1868.6z"/>
			<g>
				<path class="st3" d="M213.6,1692.8c2.8,0,5.6,0.3,8.2,0.9c3.1,0.7,6.1,1.9,8.7,3.4l74.9,43.2c2.6,1.5,4.5,3.2,5.7,4.9
					c1.2,1.7,1.6,3.5,1.4,5.2c-0.5,3.2-3.2,6.4-7.8,9.1l-187.5,108.3c-4.5,2.6-10.4,4-16.6,4l-0.3,0c-6.2,0-12-1.5-16.5-4.1
					l-75.9-43.8c-4.3-2.5-6.7-5.7-6.8-9c-0.1-3.4,2.3-6.6,6.7-9.2l187.5-108.3c4.7-2.7,10.6-4.4,16.5-4.6
					C212.4,1692.8,213,1692.8,213.6,1692.8 M213.6,1691.8c-0.6,0-1.3,0-1.9,0c-6.1,0.3-12.1,2-17,4.8L7.2,1804.9
					c-4.7,2.7-7.3,6.3-7.2,10c0.1,3.7,2.7,7.2,7.3,9.8l75.9,43.8c4.6,2.7,10.7,4.2,17,4.2c0.1,0,0.2,0,0.3,0
					c6.4,0,12.4-1.5,17.1-4.2l187.5-108.3c4.8-2.8,7.8-6.3,8.3-9.8c0.3-2-0.2-4-1.5-6c-1.3-1.9-3.3-3.6-6.1-5.2l-74.9-43.2
					c-2.7-1.6-5.8-2.8-9-3.5C219.3,1692.1,216.5,1691.8,213.6,1691.8L213.6,1691.8z"/>
			</g>
			<path class="st4" d="M88.1,1866.1l-76.6-44.2c-6.8-3.9-6.8-10.3,0-14.2l189.7-109.5c6.8-3.9,17.8-3.9,24.6,0l76.6,44.2
				c6.8,3.9,6.8,10.3,0,14.2l-189.7,109.5C105.9,1870,94.9,1870,88.1,1866.1L88.1,1866.1z"/>
			
				<linearGradient id="SVGID_2_" gradientUnits="userSpaceOnUse" x1="-7128.2979" y1="7432.0454" x2="-7128.2979" y2="7642.1475" gradientTransform="matrix(0.866 0.5 -1 0.5774 13867.3477 994.7681)">
				<stop  offset="6.045854e-03" style="stop-color:#4FB1FF"/>
				<stop  offset="1" style="stop-color:#427CFF"/>
			</linearGradient>
			<path class="st5" d="M300.7,1743.8l-77.4-44.7c-5.3-3.1-14.1-3.1-19.4,0L13.2,1809.3c-5.3,3.1-5.3,8.1,0,11.2l77.4,44.7
				c5.3,3.1,14.1,3.1,19.4,0l190.7-110.1C306,1752,306,1746.9,300.7,1743.8z"/>
			<path class="st4" d="M233.4,1706.6l-0.9,0.5c-3,1.7-3,4.5,0,6.2l43.5,25.1c3,1.7,7.8,1.7,10.8,0l1.4-0.8c0.7-0.2,1.6-0.1,2.2,0.2
				l2-1.2l-56.9-32.9l-2.1,1.2C234.2,1705.5,234.2,1706.2,233.4,1706.6z"/>
			<path class="st6" d="M264.9,1726.8l-11.7-6.8c-0.5-0.3-0.5-0.7,0-1l0.1-0.1c0.5-0.3,1.3-0.3,1.7,0l11.7,6.8c0.5,0.3,0.5,0.7,0,1
				l-0.1,0.1C266.2,1727.1,265.4,1727.1,264.9,1726.8L264.9,1726.8z"/>
			<path class="st7" d="M273.4,1730.7c-0.9,0.5-2.4,0.5-3.4,0c-0.9-0.5-0.9-1.4,0-1.9c0.9-0.5,2.4-0.5,3.4,0
				C274.4,1729.3,274.4,1730.1,273.4,1730.7z"/>
		</g>
		<g class="st8">
			<g>
				<path class="st3" d="M53.5,1811.9l-11.3-6.5c-2.1-1.2-5.4-1.2-7.5,0l-11.3,6.5c-2.1,1.2-2.1,3.1,0,4.3l11.3,6.5
					c2.1,1.2,5.4,1.2,7.5,0l11.3-6.5C55.6,1815,55.6,1813.1,53.5,1811.9z"/>
				<path class="st3" d="M75,1824.3l-11.3-6.5c-2.1-1.2-5.4-1.2-7.5,0l-11.3,6.5c-2.1,1.2-2.1,3.1,0,4.3l11.3,6.5
					c2.1,1.2,5.4,1.2,7.5,0l11.3-6.5C77.1,1827.4,77.1,1825.5,75,1824.3z"/>
				<path class="st3" d="M96.5,1836.7l-11.3-6.5c-2.1-1.2-5.4-1.2-7.5,0l-11.3,6.5c-2.1,1.2-2.1,3.1,0,4.3l11.3,6.5
					c2.1,1.2,5.4,1.2,7.5,0l11.3-6.5C98.5,1839.8,98.5,1837.9,96.5,1836.7z"/>
				<path class="st3" d="M117.9,1849l-11.3-6.5c-2.1-1.2-5.4-1.2-7.5,0l-11.3,6.5c-2.1,1.2-2.1,3.1,0,4.3l11.3,6.5
					c2.1,1.2,5.4,1.2,7.5,0l11.3-6.5C120,1852.2,120,1850.2,117.9,1849z"/>
			</g>
			<g>
				<path class="st3" d="M219.2,1716.2l-11.3-6.5c-2.1-1.2-5.4-1.2-7.5,0l-11.3,6.5c-2.1,1.2-2.1,3.1,0,4.3l11.3,6.5
					c2.1,1.2,5.4,1.2,7.5,0l11.3-6.5C221.3,1719.4,221.3,1717.4,219.2,1716.2z"/>
				<path class="st3" d="M240.7,1728.6l-11.3-6.5c-2.1-1.2-5.4-1.2-7.5,0l-11.3,6.5c-2.1,1.2-2.1,3.1,0,4.3l11.3,6.5
					c2.1,1.2,5.4,1.2,7.5,0l11.3-6.5C242.8,1731.7,242.8,1729.8,240.7,1728.6z"/>
				<path class="st3" d="M262.2,1741l-11.3-6.5c-2.1-1.2-5.4-1.2-7.5,0l-11.3,6.5c-2.1,1.2-2.1,3.1,0,4.3l11.3,6.5
					c2.1,1.2,5.4,1.2,7.5,0l11.3-6.5C264.2,1744.1,264.2,1742.2,262.2,1741z"/>
				<path class="st3" d="M283.6,1753.4l-11.3-6.5c-2.1-1.2-5.4-1.2-7.5,0l-11.3,6.5c-2.1,1.2-2.1,3.1,0,4.3l11.3,6.5
					c2.1,1.2,5.4,1.2,7.5,0l11.3-6.5C285.7,1756.5,285.7,1754.6,283.6,1753.4z"/>
			</g>
			<g>
				<path class="st3" d="M197.8,1728.6l-11.3-6.5c-2.1-1.2-5.4-1.2-7.5,0l-11.3,6.5c-2.1,1.2-2.1,3.1,0,4.3l11.3,6.5
					c2.1,1.2,5.4,1.2,7.5,0l11.3-6.5C199.8,1731.7,199.8,1729.8,197.8,1728.6z"/>
				<path class="st3" d="M219.2,1741l-11.3-6.5c-2.1-1.2-5.4-1.2-7.5,0l-11.3,6.5c-2.1,1.2-2.1,3.1,0,4.3l11.3,6.5
					c2.1,1.2,5.4,1.2,7.5,0l11.3-6.5C221.3,1744.1,221.3,1742.2,219.2,1741z"/>
				<path class="st3" d="M240.7,1753.4l-11.3-6.5c-2.1-1.2-5.4-1.2-7.5,0l-11.3,6.5c-2.1,1.2-2.1,3.1,0,4.3l11.3,6.5
					c2.1,1.2,5.4,1.2,7.5,0l11.3-6.5C242.8,1756.5,242.8,1754.6,240.7,1753.4z"/>
				<path class="st3" d="M262.2,1765.8l-11.3-6.5c-2.1-1.2-5.4-1.2-7.5,0l-11.3,6.5c-2.1,1.2-2.1,3.1,0,4.3l11.3,6.5
					c2.1,1.2,5.4,1.2,7.5,0l11.3-6.5C264.2,1768.9,264.2,1767,262.2,1765.8z"/>
			</g>
			<g>
				<path class="st3" d="M176.3,1741l-11.3-6.5c-2.1-1.2-5.4-1.2-7.5,0l-11.3,6.5c-2.1,1.2-2.1,3.1,0,4.3l11.3,6.5
					c2.1,1.2,5.4,1.2,7.5,0l11.3-6.5C178.4,1744.1,178.4,1742.2,176.3,1741z"/>
				<path class="st3" d="M197.8,1753.4l-11.3-6.5c-2.1-1.2-5.4-1.2-7.5,0l-11.3,6.5c-2.1,1.2-2.1,3.1,0,4.3l11.3,6.5
					c2.1,1.2,5.4,1.2,7.5,0l11.3-6.5C199.8,1756.5,199.8,1754.6,197.8,1753.4z"/>
				<path class="st3" d="M219.2,1765.8l-11.3-6.5c-2.1-1.2-5.4-1.2-7.5,0l-11.3,6.5c-2.1,1.2-2.1,3.1,0,4.3l11.3,6.5
					c2.1,1.2,5.4,1.2,7.5,0l11.3-6.5C221.3,1768.9,221.3,1767,219.2,1765.8z"/>
				<path class="st3" d="M240.7,1778.2l-11.3-6.5c-2.1-1.2-5.4-1.2-7.5,0l-11.3,6.5c-2.1,1.2-2.1,3.1,0,4.3l11.3,6.5
					c2.1,1.2,5.4,1.2,7.5,0l11.3-6.5C242.8,1781.3,242.8,1779.4,240.7,1778.2z"/>
			</g>
			<g>
				<path class="st3" d="M154.8,1753.4l-11.3-6.5c-2.1-1.2-5.4-1.2-7.5,0l-11.3,6.5c-2.1,1.2-2.1,3.1,0,4.3l11.3,6.5
					c2.1,1.2,5.4,1.2,7.5,0l11.3-6.5C156.9,1756.5,156.9,1754.6,154.8,1753.4z"/>
				<path class="st3" d="M176.3,1765.8l-11.3-6.5c-2.1-1.2-5.4-1.2-7.5,0l-11.3,6.5c-2.1,1.2-2.1,3.1,0,4.3l11.3,6.5
					c2.1,1.2,5.4,1.2,7.5,0l11.3-6.5C178.4,1768.9,178.4,1767,176.3,1765.8z"/>
				<path class="st3" d="M197.8,1778.2l-11.3-6.5c-2.1-1.2-5.4-1.2-7.5,0l-11.3,6.5c-2.1,1.2-2.1,3.1,0,4.3l11.3,6.5
					c2.1,1.2,5.4,1.2,7.5,0l11.3-6.5C199.8,1781.3,199.8,1779.4,197.8,1778.2z"/>
			</g>
		</g>
	</g>
</g>
<g>
	<path class="st0" d="M547.7,1499.4l-102.9-59.4c-1.9-1.1-5.3-1-7.5,0.3l-195.8,113.1c-2.2,1.3-2.5,3.2-0.5,4.4l93.3,53.8l-1.6,0.2
		l3.8,6.1h10.6l0,0c1.5,0,3.2-0.3,4.4-1l195.8-113.1C549.4,1502.4,549.6,1500.5,547.7,1499.4z"/>
	<path class="st1" d="M538.2,1493.7l-10-3.1l-0.2,3.6l-94-54.3c-1.9-1.1-5.3-1-7.5,0.3L240,1547.9l-0.4-3.9l-10.8,4.2v7.7l0,0
		c0,0.7,0.5,1.3,1.3,1.8l102.9,59.4c1.9,1.1,5.3,1,7.5-0.3l195.8-113.1c1.2-0.7,1.8-1.6,1.8-2.5l0,0V1493.7z"/>
	
		<linearGradient id="SVGID_3_" gradientUnits="userSpaceOnUse" x1="-730.4503" y1="822.7708" x2="-489.1945" y2="822.7708" gradientTransform="matrix(0.866 0.5 -1.5 0.2887 2145.7117 1588.3148)">
		<stop  offset="1.550722e-03" style="stop-color:#EAEAF1"/>
		<stop  offset="1" style="stop-color:#EEEFF4"/>
	</linearGradient>
	<path class="st9" d="M333,1609.5L230,1550.1c-1.9-1.1-1.7-3.1,0.5-4.4l195.8-113.1c2.2-1.3,5.6-1.4,7.5-0.3l102.9,59.4
		c1.9,1.1,1.7,3.1-0.5,4.4l-195.8,113.1C338.3,1610.5,334.9,1610.6,333,1609.5z"/>
	<g>
		<path class="st3" d="M430.6,1432.6c1.1,0,2.1,0.2,2.8,0.6l102.9,59.4c0.3,0.2,0.8,0.5,0.8,1c0,0.5-0.5,1.1-1.3,1.6L340,1608.3
			c-1,0.6-2.4,0.9-3.8,0.9c-1.1,0-2.1-0.2-2.8-0.6l-102.9-59.4c-0.3-0.2-0.8-0.5-0.8-1c0-0.5,0.5-1.1,1.3-1.6l195.8-113.1
			C427.9,1432.9,429.3,1432.6,430.6,1432.6 M430.6,1431.6c-1.5,0-3,0.4-4.3,1.1l-195.8,113.1c-2.2,1.3-2.5,3.2-0.5,4.4l102.9,59.4
			c0.9,0.5,2,0.8,3.3,0.8c1.5,0,3-0.4,4.3-1.1l195.8-113.1c2.2-1.3,2.5-3.2,0.5-4.4l-102.9-59.4
			C433,1431.8,431.9,1431.6,430.6,1431.6L430.6,1431.6z"/>
	</g>
	<path class="st4" d="M334.2,1605.4l-97-56c-1-0.6-0.8-1.5,0.3-2.2l191.4-110.5c1.1-0.6,2.8-0.7,3.8-0.2l97,56
		c1,0.6,0.8,1.5-0.3,2.2L338,1605.2C336.9,1605.8,335.2,1605.9,334.2,1605.4z"/>
	
		<linearGradient id="SVGID_4_" gradientUnits="userSpaceOnUse" x1="-609.8224" y1="726.9279" x2="-609.8224" y2="918.6138" gradientTransform="matrix(0.866 0.5 -1.5 0.2887 2145.7117 1588.3148)">
		<stop  offset="6.045854e-03" style="stop-color:#4FB1FF"/>
		<stop  offset="1" style="stop-color:#427CFF"/>
	</linearGradient>
	<path class="st10" d="M334.2,1603.2l-93.3-53.9c-1-0.6-0.8-1.5,0.3-2.2l187.6-108.3c1.1-0.6,2.8-0.7,3.8-0.2l93.3,53.9
		c1,0.6,0.8,1.5-0.3,2.2L338,1603C336.9,1603.7,335.2,1603.7,334.2,1603.2z"/>
	<g class="st8">
		<g>
			<path class="st3" d="M287.2,1539.3L287.2,1539.3c-5.2-3-13.6-3-18.8,0l0,0c-5.2,3-5.2,7.9,0,10.8l0,0c5.2,3,13.6,3,18.8,0h0
				C292.4,1547.2,292.4,1542.3,287.2,1539.3z"/>
			<path class="st3" d="M308.7,1551.7L308.7,1551.7c-5.2-3-13.6-3-18.8,0l0,0c-5.2,3-5.2,7.9,0,10.9l0,0c5.2,3,13.6,3,18.8,0h0
				C313.8,1559.6,313.8,1554.7,308.7,1551.7z"/>
			<path class="st3" d="M330.1,1564.1L330.1,1564.1c-5.2-3-13.6-3-18.8,0l0,0c-5.2,3-5.2,7.9,0,10.9l0,0c5.2,3,13.6,3,18.8,0h0
				C335.3,1571.9,335.3,1567.1,330.1,1564.1z"/>
			<path class="st3" d="M351.6,1576.5L351.6,1576.5c-5.2-3-13.6-3-18.8,0l0,0c-5.2,3-5.2,7.9,0,10.8l0,0c5.2,3,13.6,3,18.8,0h0
				C356.8,1584.3,356.8,1579.5,351.6,1576.5z"/>
		</g>
		<g>
			<path class="st3" d="M434.1,1454.5L434.1,1454.5c-5.2-3-13.6-3-18.8,0l0,0c-5.2,3-5.2,7.9,0,10.9h0c5.2,3,13.6,3,18.8,0h0
				C439.3,1462.4,439.3,1457.5,434.1,1454.5z"/>
			<path class="st3" d="M455.5,1466.9L455.5,1466.9c-5.2-3-13.6-3-18.8,0h0c-5.2,3-5.2,7.9,0,10.8l0,0c5.2,3,13.6,3,18.8,0l0,0
				C460.7,1474.7,460.7,1469.9,455.5,1466.9z"/>
			<path class="st3" d="M477,1479.3L477,1479.3c-5.2-3-13.6-3-18.8,0h0c-5.2,3-5.2,7.9,0,10.8h0c5.2,3,13.6,3,18.8,0l0,0
				C482.2,1487.1,482.2,1482.3,477,1479.3z"/>
			<path class="st3" d="M498.5,1491.7L498.5,1491.7c-5.2-3-13.6-3-18.8,0h0c-5.2,3-5.2,7.9,0,10.8h0c5.2,3,13.6,3,18.8,0v0
				C503.7,1499.5,503.7,1494.7,498.5,1491.7z"/>
		</g>
		<g>
			<path class="st3" d="M412.6,1466.9L412.6,1466.9c-5.2-3-13.6-3-18.8,0h0c-5.2,3-5.2,7.9,0,10.9h0c5.2,3,13.6,3,18.8,0l0,0
				C417.8,1474.7,417.8,1469.9,412.6,1466.9z"/>
			<path class="st3" d="M434.1,1479.3L434.1,1479.3c-5.2-3-13.6-3-18.8,0h0c-5.2,3-5.2,7.9,0,10.9h0c5.2,3,13.6,3,18.8,0h0
				C439.3,1487.1,439.3,1482.3,434.1,1479.3z"/>
			<path class="st3" d="M455.5,1491.7L455.5,1491.7c-5.2-3-13.6-3-18.8,0l0,0c-5.2,3-5.2,7.9,0,10.9l0,0c5.2,3,13.6,3,18.8,0h0
				C460.7,1499.5,460.7,1494.7,455.5,1491.7z"/>
			<path class="st3" d="M477,1504.1L477,1504.1c-5.2-3-13.6-3-18.8,0l0,0c-5.2,3-5.2,7.9,0,10.8l0,0c5.2,3,13.6,3,18.8,0h0
				C482.2,1511.9,482.2,1507.1,477,1504.1z"/>
		</g>
		<g>
			<path class="st3" d="M391.2,1479.3L391.2,1479.3c-5.2-3-13.6-3-18.8,0l0,0c-5.2,3-5.2,7.9,0,10.8l0,0c5.2,3,13.6,3,18.8,0h0
				C396.3,1487.1,396.3,1482.3,391.2,1479.3z"/>
			<path class="st3" d="M412.6,1491.7L412.6,1491.7c-5.2-3-13.6-3-18.8,0v0c-5.2,3-5.2,7.9,0,10.8l0,0c5.2,3,13.6,3,18.8,0h0
				C417.8,1499.5,417.8,1494.7,412.6,1491.7z"/>
			<path class="st3" d="M434.1,1504.1L434.1,1504.1c-5.2-3-13.6-3-18.8,0h0c-5.2,3-5.2,7.9,0,10.9h0c5.2,3,13.6,3,18.8,0l0,0
				C439.3,1511.9,439.3,1507.1,434.1,1504.1z"/>
			<path class="st3" d="M455.5,1516.5L455.5,1516.5c-5.2-3-13.6-3-18.8,0h0c-5.2,3-5.2,7.9,0,10.9h0c5.2,3,13.6,3,18.8,0l0,0
				C460.7,1524.3,460.7,1519.5,455.5,1516.5z"/>
		</g>
		<g>
			<path class="st3" d="M369.7,1491.7L369.7,1491.7c-5.2-3-13.6-3-18.8,0h0c-5.2,3-5.2,7.9,0,10.8h0c5.2,3,13.6,3,18.8,0l0,0
				C374.9,1499.5,374.9,1494.7,369.7,1491.7z"/>
			<path class="st3" d="M391.2,1504.1L391.2,1504.1c-5.2-3-13.6-3-18.8,0h0c-5.2,3-5.2,7.9,0,10.8h0c5.2,3,13.6,3,18.8,0l0,0
				C396.3,1511.9,396.3,1507.1,391.2,1504.1z"/>
			<path class="st3" d="M412.6,1516.5L412.6,1516.5c-5.2-3-13.6-3-18.8,0h0c-5.2,3-5.2,7.9,0,10.8h0c5.2,3,13.6,3,18.8,0h0
				C417.8,1524.3,417.8,1519.5,412.6,1516.5z"/>
		</g>
	</g>
</g>
<g>
	<g>
		<path class="st0" d="M332.6,120.1l-187-107.9c-3.3-1.9-9.1-1.7-13,0.5l-9.8,5.7L4.4,86.7c-3.8,2.2-4.3,5.6-0.9,7.5l187,107.9
			c3.3,1.9,9.1,1.7,13-0.5l118.4-68.4l9.8-5.7C335.5,125.4,335.9,122,332.6,120.1z"/>
		
			<linearGradient id="SVGID_5_" gradientUnits="userSpaceOnUse" x1="-2910.9292" y1="-380.4883" x2="-2611.728" y2="-380.4883" gradientTransform="matrix(0.866 0.5 -1.5 0.2887 1979.0022 1590.9113)">
			<stop  offset="6.045854e-03" style="stop-color:#4FB1FF"/>
			<stop  offset="1" style="stop-color:#427CFF"/>
		</linearGradient>
		<path class="st11" d="M190.4,191.3L3.5,83.4c-3.3-1.9-2.9-5.3,0.9-7.5L122.8,7.5l199,114.9l-118.4,68.4
			C199.6,193,193.8,193.2,190.4,191.3z"/>
		<path class="st12" d="M321.8,122.4L122.8,7.5l9.8-5.7c3.8-2.2,9.6-2.5,13-0.5l187,107.9c3.3,1.9,2.9,5.3-0.9,7.5L321.8,122.4z"/>
		<path class="st13" d="M279.8,92.9L162.9,25.4c-1.8-1.1-1.6-2.9,0.5-4.1l0,0c2.1-1.2,5.3-1.3,7.1-0.3l116.9,67.5
			c1.8,1.1,1.6,2.9-0.5,4.1l0,0C284.8,93.8,281.6,93.9,279.8,92.9z"/>
		<path class="st14" d="M137.3,9.5L137.3,9.5c-1.4-0.8-1.2-2.2,0.4-3.1l0,0c1.6-0.9,4-1,5.4-0.2v0c1.4,0.8,1.2,2.2-0.4,3.1v0
			C141.1,10.2,138.6,10.3,137.3,9.5z"/>
		<path class="st15" d="M144.3,13.6L144.3,13.6c-1.4-0.8-1.2-2.2,0.4-3.1v0c1.6-0.9,4-1,5.4-0.2v0c1.4,0.8,1.2,2.2-0.4,3.1l0,0
			C148.1,14.3,145.7,14.4,144.3,13.6z"/>
		<path class="st16" d="M151.3,17.6L151.3,17.6c-1.4-0.8-1.2-2.2,0.4-3.1v0c1.6-0.9,4-1,5.4-0.2l0,0c1.4,0.8,1.2,2.2-0.4,3.1v0
			C155.1,18.3,152.7,18.4,151.3,17.6z"/>
		<path class="st13" d="M319.1,115.6l-27.3-15.8c-1.8-1.1-1.6-2.9,0.5-4.1v0c2.1-1.2,5.3-1.3,7.1-0.3l27.3,15.8
			c1.8,1.1,1.6,2.9-0.5,4.1l0,0C324.1,116.5,320.9,116.6,319.1,115.6z"/>
		<g>
			<path class="st17" d="M119.5,68.8l-32-18.5c-2.9-1.7-2.6-4.7,0.8-6.6l30.4-17.5c3.4-2,8.5-2.2,11.5-0.5l32,18.5
				c2.9,1.7,2.6,4.7-0.8,6.6L131,68.4C127.6,70.3,122.5,70.5,119.5,68.8z"/>
			<g>
				<path class="st3" d="M78.6,92.2l-32-18.5C43.6,72,44,69,47.4,67L72,52.8c3.4-2,8.5-2.2,11.5-0.5l32,18.5
					c2.9,1.7,2.6,4.7-0.8,6.6L90.1,91.7C86.7,93.7,81.5,93.9,78.6,92.2z"/>
				<g>
					<path class="st18" d="M101.9,76.4l-28-16.2c-1.1-0.6-1-1.8,0.3-2.5h0c1.3-0.7,3.2-0.8,4.3-0.2l28,16.2c1.1,0.6,1,1.8-0.3,2.5v0
						C104.9,77,103,77,101.9,76.4z"/>
					<path class="st18" d="M92.6,81.7l-28-16.2c-1.1-0.6-1-1.8,0.3-2.5l0,0c1.3-0.7,3.2-0.8,4.3-0.2l28,16.2c1.1,0.6,1,1.8-0.3,2.5
						l0,0C95.7,82.3,93.7,82.4,92.6,81.7z"/>
					<path class="st18" d="M62,74.7l-6.6-3.8c-1.1-0.6-1-1.8,0.3-2.5h0c1.3-0.7,3.2-0.8,4.3-0.2l6.6,3.8c1.1,0.6,1,1.8-0.3,2.5l0,0
						C65,75.3,63.1,75.4,62,74.7z"/>
				</g>
			</g>
			<path class="st19" d="M59.7,103.2l-32-18.5c-2.9-1.7-2.6-4.7,0.8-6.6l0.8-0.5c3.4-2,8.5-2.2,11.5-0.5l32,18.5
				c2.9,1.7,2.6,4.7-0.8,6.6l-0.8,0.5C67.8,104.7,62.7,104.9,59.7,103.2z"/>
		</g>
		<g>
			<path class="st17" d="M182.4,104.5l-32-18.5c-2.9-1.7-2.6-4.7,0.8-6.6l30.4-17.5c3.4-2,8.5-2.2,11.5-0.5l32,18.5
				c2.9,1.7,2.6,4.7-0.8,6.6l-30.4,17.5C190.5,106,185.3,106.2,182.4,104.5z"/>
			<g>
				<path class="st3" d="M141.4,127.9l-32-18.5c-2.9-1.7-2.6-4.7,0.8-6.6l24.6-14.2c3.4-2,8.5-2.2,11.5-0.5l32,18.5
					c2.9,1.7,2.6,4.7-0.8,6.6l-24.6,14.2C149.5,129.3,144.4,129.6,141.4,127.9z"/>
				<g>
					<path class="st18" d="M164.7,112.1l-28-16.2c-1.1-0.6-1-1.8,0.3-2.5h0c1.3-0.7,3.2-0.8,4.3-0.2l28,16.2c1.1,0.6,1,1.8-0.3,2.5
						l0,0C167.7,112.6,165.8,112.7,164.7,112.1z"/>
					<path class="st18" d="M155.5,117.4l-28-16.2c-1.1-0.6-1-1.8,0.3-2.5h0c1.3-0.7,3.2-0.8,4.3-0.2l28,16.2c1.1,0.6,1,1.8-0.3,2.5
						v0C158.5,118,156.6,118.1,155.5,117.4z"/>
					<path class="st18" d="M124.8,110.4l-6.6-3.8c-1.1-0.6-1-1.8,0.3-2.5h0c1.3-0.7,3.2-0.8,4.3-0.2l6.6,3.8c1.1,0.6,1,1.8-0.3,2.5
						l0,0C127.9,111,125.9,111,124.8,110.4z"/>
				</g>
			</g>
			<path class="st19" d="M122.6,138.9l-32-18.5c-2.9-1.7-2.6-4.7,0.8-6.6l0.8-0.5c3.4-2,8.5-2.2,11.5-0.5l32,18.5
				c2.9,1.7,2.6,4.7-0.8,6.6l-0.8,0.5C130.7,140.4,125.5,140.6,122.6,138.9z"/>
		</g>
		<g>
			<path class="st17" d="M242.5,139.9l-32-18.5c-2.9-1.7-2.6-4.7,0.8-6.6l30.4-17.5c3.4-2,8.5-2.2,11.5-0.5l32,18.5
				c2.9,1.7,2.6,4.7-0.8,6.6L254,139.5C250.6,141.4,245.4,141.6,242.5,139.9z"/>
			<g>
				<path class="st3" d="M201.5,163.3l-32-18.5c-2.9-1.7-2.6-4.7,0.8-6.6l24.6-14.2c3.4-2,8.5-2.2,11.5-0.5l32,18.5
					c2.9,1.7,2.6,4.7-0.8,6.6L213,162.8C209.6,164.8,204.5,165,201.5,163.3z"/>
				<g>
					<path class="st18" d="M224.8,147.5l-28-16.2c-1.1-0.6-1-1.8,0.3-2.5l0,0c1.3-0.7,3.2-0.8,4.3-0.2l28,16.2
						c1.1,0.6,1,1.8-0.3,2.5l0,0C227.9,148.1,225.9,148.1,224.8,147.5z"/>
					<path class="st18" d="M215.6,152.8l-28-16.2c-1.1-0.6-1-1.8,0.3-2.5v0c1.3-0.7,3.2-0.8,4.3-0.2l28,16.2c1.1,0.6,1,1.8-0.3,2.5
						h0C218.6,153.4,216.7,153.5,215.6,152.8z"/>
					<path class="st18" d="M184.9,145.8l-6.6-3.8c-1.1-0.6-1-1.8,0.3-2.5h0c1.3-0.7,3.2-0.8,4.3-0.2l6.6,3.8c1.1,0.6,1,1.8-0.3,2.5
						v0C188,146.4,186.1,146.5,184.9,145.8z"/>
				</g>
			</g>
			<path class="st19" d="M182.7,174.3l-32-18.5c-2.9-1.7-2.6-4.7,0.8-6.6l0.8-0.5c3.4-2,8.5-2.2,11.5-0.5l32,18.5
				c2.9,1.7,2.6,4.7-0.8,6.6l-0.8,0.5C190.8,175.8,185.6,176,182.7,174.3z"/>
		</g>
	</g>
</g>
</svg>
