<?xml version="1.0" encoding="utf-8"?>
<!-- Generator: Adobe Illustrator 24.2.3, SVG Export Plug-In . SVG Version: 6.00 Build 0)  -->
<svg version="1.1" id="Layer_1" xmlns="http://www.w3.org/2000/svg" xmlns:xlink="http://www.w3.org/1999/xlink" x="0px" y="0px"
	 viewBox="0 0 1137.5 848.9" style="enable-background:new 0 0 1137.5 848.9;" xml:space="preserve">
<style type="text/css">
	.st0{fill:#C9C9DC;}
	.st1{fill:#FFFFFF;}
	.st2{clip-path:url(#SVGID_2_);}
	.st3{fill:#39CCFB;}
	.st4{clip-path:url(#SVGID_4_);fill:#39CCFB;}
	.st5{clip-path:url(#SVGID_6_);fill:#045698;}
	.st6{clip-path:url(#SVGID_8_);fill:url(#SVGID_9_);}
	.st7{clip-path:url(#SVGID_11_);}
	.st8{fill:#16B7FB;}
	.st9{fill:url(#SVGID_12_);}
	.st10{fill:#808080;}
	.st11{fill-rule:evenodd;clip-rule:evenodd;fill:#808080;}
	.st12{fill:#656565;}
	.st13{fill:url(#SVGID_13_);}
	.st14{fill:url(#SVGID_14_);}
</style>
<path class="st0" d="M478.9,604.8l-118.1-68.2c-8.2-4.7-22.6-4.2-32.1,1.3L214.2,604c-1.1,0.7-2.2,1.4-3,2.1h-4.8v7.8l0,0
	c-0.2,3.2,1.6,6.3,5.5,8.6L331,691.2c8.2,4.7,22.6,4.2,32.1-1.3l114.5-66.1c4.9-2.8,7.6-6.5,7.8-9.9v-9.2L478.9,604.8z"/>
<path class="st1" d="M331,683.4l-119.1-68.7c-8.2-4.7-7.2-13,2.3-18.5l114.5-66.1c9.5-5.5,23.9-6.1,32.1-1.3l119.1,68.7
	c8.2,4.7,7.2,13-2.3,18.5l-114.5,66.1C353.6,687.6,339.2,688.2,331,683.4z"/>
<g>
	<g transform="matrix(.03881911 0 0 .03881916 -.560501 8.162276)">
		<g>
			<g>
				<g>
					<defs>
						<path id="SVGID_1_" d="M8369.2,14973.7l-585.1,0.1l-0.1,337.8l-334.3-193v-144.8v-193h585.2L8369.2,14973.7z M8536.4,14491.2
							H7449.8v193l1420.8-0.1C8870.6,14684.2,8536.4,14491.2,8536.4,14491.2z"/>
					</defs>
					<clipPath id="SVGID_2_">
						<use xlink:href="#SVGID_1_"  style="overflow:visible;"/>
					</clipPath>
					<g class="st2">
						<path class="st3" d="M7449.7,14973.8l919.5-0.1l-334.3-193l-585.1,0.1L7449.7,14973.8z"/>
					</g>
				</g>
			</g>
		</g>
		<g>
			<g>
				<g>
					<defs>
						<path id="SVGID_3_" d="M8369.2,14973.7l-585.1,0.1l-0.1,337.8l-334.3-193v-144.8v-193h585.2L8369.2,14973.7z M8536.4,14491.2
							H7449.8v193l1420.8-0.1C8870.6,14684.2,8536.4,14491.2,8536.4,14491.2z"/>
					</defs>
					<clipPath id="SVGID_4_">
						<use xlink:href="#SVGID_3_"  style="overflow:visible;"/>
					</clipPath>
					<path class="st4" d="M7449.8,14491.2h1086.6l334.3,193l-1420.8,0.1L7449.8,14491.2z"/>
				</g>
			</g>
		</g>
		<g>
			<g>
				<g>
					<defs>
						<path id="SVGID_5_" d="M8369.2,14973.7l-585.1,0.1l-0.1,337.8l-334.3-193v-144.8v-193h585.2L8369.2,14973.7z M8536.4,14491.2
							H7449.8v193l1420.8-0.1C8870.6,14684.2,8536.4,14491.2,8536.4,14491.2z"/>
					</defs>
					<clipPath id="SVGID_6_">
						<use xlink:href="#SVGID_5_"  style="overflow:visible;"/>
					</clipPath>
					<path class="st5" d="M7449.8,15118.6l334.3,193v-337.8h-334.4L7449.8,15118.6z"/>
				</g>
			</g>
		</g>
		<g>
			<g>
				<g>
					<defs>
						<path id="SVGID_7_" d="M8369.2,14973.7l-585.1,0.1l-0.1,337.8l-334.3-193v-144.8v-193h585.2L8369.2,14973.7z M8536.4,14491.2
							H7449.8v193l1420.8-0.1C8870.6,14684.2,8536.4,14491.2,8536.4,14491.2z"/>
					</defs>
					<clipPath id="SVGID_8_">
						<use xlink:href="#SVGID_7_"  style="overflow:visible;"/>
					</clipPath>
					
						<linearGradient id="SVGID_9_" gradientUnits="userSpaceOnUse" x1="100023.3672" y1="-192164.9375" x2="100032.5469" y2="-192174.1094" gradientTransform="matrix(1.266506e-05 0 0 8.443408e-06 -101485.9766 -141954.7812)">
						<stop  offset="0" style="stop-color:#1A237E;stop-opacity:0.4"/>
						<stop  offset="1" style="stop-color:#1A237E;stop-opacity:0"/>
					</linearGradient>
					<path class="st6" d="M7784.1,14973.8h-334.4l333.8,93.6L7784.1,14973.8z"/>
				</g>
			</g>
		</g>
		<g>
			<g>
				<g>
					<defs>
						<path id="SVGID_10_" d="M8369.2,14973.7l-585.1,0.1l-0.1,337.8l-334.3-193v-144.8v-193h585.2L8369.2,14973.7z M8536.4,14491.2
							H7449.8v193l1420.8-0.1C8870.6,14684.2,8536.4,14491.2,8536.4,14491.2z"/>
					</defs>
					<clipPath id="SVGID_11_">
						<use xlink:href="#SVGID_10_"  style="overflow:visible;"/>
					</clipPath>
					<g class="st7">
						<path class="st8" d="M7449.9,14780.7h334.4v193l-334.5,0.1L7449.9,14780.7z"/>
					</g>
				</g>
			</g>
		</g>
		
			<radialGradient id="SVGID_12_" cx="210225.0938" cy="-383252.4688" r="22.5185" gradientTransform="matrix(1.266506e-05 0 0 7.312160e-06 -86856.9453 -150400.8594)" gradientUnits="userSpaceOnUse">
			<stop  offset="0" style="stop-color:#FFFFFF;stop-opacity:0.1"/>
			<stop  offset="1" style="stop-color:#FFFFFF;stop-opacity:0"/>
		</radialGradient>
		<path class="st9" d="M8369.2,14973.7l-585.1,0.1l-0.1,337.8l-334.3-193v-144.8v-193h585.2L8369.2,14973.7z M8536.4,14491.2H7449.8
			v193l1420.8-0.1C8870.6,14684.2,8536.4,14491.2,8536.4,14491.2z"/>
	</g>
	<g transform="matrix(1.0352624 0 0 1.0352624 -1.939178 -1.035154)">
		<path class="st10" d="M327,568.1l11,6.3l-2.1,1.2l-8.7-5l-6.5,3.7l7.8,4.5l-2.1,1.2l-7.8-4.5l-8.2,4.7l-2.2-1.3L327,568.1
			L327,568.1z"/>
		<path class="st10" d="M340.6,575.9l2.2,1.3l-18.9,10.9l-2.2-1.3L340.6,575.9z"/>
		<path class="st10" d="M331.7,593.2c-1.7-1-2.3-1.9-2.3-3c0.1-1,1-2.1,2.7-3l8.5-4.9l2.2,1.3l-8.2,4.7c-1.3,0.7-1.9,1.4-2,2.1
			c0,0.7,0.4,1.3,1.5,1.9c0.7,0.4,1.7,0.7,2.6,0.8c1,0.1,2,0.1,2.9-0.1c0.9-0.2,1.9-0.5,2.6-0.9l7.6-4.4l2.2,1.3l-13.5,7.8l-2.1-1.2
			l2-1.1l-0.1-0.1c-1,0.1-2.2,0.2-3.5-0.1C333.7,594.1,332.6,593.7,331.7,593.2z"/>
		<path class="st10" d="M347.2,601.9c-0.5-0.3-0.9-0.7-1.3-1.1c-0.2-0.4-0.4-0.7-0.4-1.1c0-0.4,0.1-0.8,0.3-1.1
			c0.2-0.4,0.6-0.7,1.3-1.1l8-4.6l-2.4-1.4l2-1.1l2.4,1.4l3.8-2.2l2.2,1.3l-3.8,2.2l3.2,1.9l-2,1.1l-3.2-1.9l-7.3,4.2
			c-0.7,0.4-1.2,0.8-1.3,1.2c-0.1,0.4,0.2,0.8,0.8,1.2c0.5,0.3,1.2,0.5,1.9,0.6l-2.2,1.3c-0.4-0.1-0.7-0.2-1.2-0.3
			C348,602.3,347.6,602.1,347.2,601.9z"/>
		<path class="st10" d="M356.7,607.3c-0.5-0.3-0.9-0.7-1.3-1.1c-0.2-0.4-0.4-0.7-0.4-1.1c0-0.4,0.1-0.8,0.3-1.1s0.6-0.7,1.3-1.1
			l8-4.6l-2.2-1.3l2-1.1l2.4,1.4l3.8-2.2l2.2,1.3l-3.8,2.2l3.2,1.9l-2,1.1l-3.2-1.9l-7.3,4.2c-0.7,0.4-1.2,0.8-1.3,1.2
			c-0.1,0.4,0.2,0.8,0.8,1.2c0.5,0.3,1.2,0.5,1.9,0.6l-2.2,1.3c-0.4-0.1-0.7-0.2-1.2-0.3C357.5,607.8,357.1,607.6,356.7,607.3z"/>
		<path class="st10" d="M366.4,613.2c-1.3-0.7-2.1-1.6-2.5-2.5c-0.4-1-0.3-1.9,0.1-2.8c0.5-0.9,1.5-1.8,2.8-2.6
			c1.3-0.7,2.8-1.3,4.4-1.6s3.3-0.4,4.9-0.2s3,0.7,4.4,1.4s2.2,1.6,2.5,2.5s0.3,1.8-0.2,2.7s-1.4,1.8-2.7,2.5
			c-0.3,0.2-0.5,0.3-0.8,0.4l-10.8-6.2c-0.9,0.7-1.6,1.3-1.9,1.9c-0.3,0.7-0.2,1.3,0.1,1.9c0.4,0.6,0.8,1.1,1.6,1.5
			c1.8,1,3.9,1.3,6.4,0.9l0.9,1.6c-1.7,0.2-3.3,0.4-5,0.1C369.4,614.5,367.9,614.1,366.4,613.2L366.4,613.2z M378.9,610.5
			c0.5-0.3,0.9-0.8,1.2-1.3s0.3-1,0.1-1.6s-0.7-1.1-1.7-1.7c-1-0.6-2.3-1-3.8-1c-1.4-0.1-2.7,0.2-4.2,0.7L378.9,610.5z"/>
		<path class="st10" d="M389.2,610.3l2.1,1.2l-2.2,1.3l0.1,0.1c1-0.2,2.1-0.4,3.3-0.1c1.3,0.1,2.3,0.5,3.1,1c0.6,0.4,1,0.7,1.3,1.1
			l-2.4,1.4c-0.2-0.5-0.7-0.9-1.5-1.3c-0.6-0.4-1.5-0.6-2.3-0.7c-0.9-0.1-1.8-0.1-2.8,0.1c-0.9,0.2-1.8,0.4-2.5,0.8l-7.5,4.3
			l-2.2-1.3L389.2,610.3z"/>
	</g>
</g>
<path class="st0" d="M659.2,280.1l-118.1-68.2c-8.2-4.7-22.6-4.2-32.1,1.3l-114.5,66.1c-1.1,0.7-2.2,1.4-3,2.1h-4.8v7.8l0,0
	c-0.2,3.2,1.6,6.3,5.5,8.6l119.1,68.7c8.2,4.7,22.6,4.2,32.1-1.3l114.5-66.1c4.9-2.8,7.6-6.5,7.8-9.9V280L659.2,280.1z"/>
<path class="st1" d="M511.3,358.7L392.2,290c-8.2-4.7-7.2-13,2.3-18.5L509,205.4c9.5-5.5,23.9-6.1,32.1-1.3l119.1,68.7
	c8.2,4.7,7.2,13-2.3,18.5l-114.5,66.1C533.9,362.9,519.5,363.5,511.3,358.7z"/>
<g>
	<path class="st11" d="M502.8,241.6c2.2,1.2,4.3,2.5,6.5,3.7c-10.2,5.9-20.4,11.8-30.6,17.6c-7.2-3-13.8-6-15.6-9.9
		c-2.4-4.9,6.9-10.8,15.5-10.8c4.4,0,10.3,1.7,14.1,5c3.2-1.9,6.4-3.7,9.6-5.6C502.4,241.7,502.6,241.5,502.8,241.6z M474.3,249.1
		c-4,2.3-3.5,5.4,2.3,7.5c3.5-2,7.1-4.1,10.6-6.1C484,246.8,478.2,246.9,474.3,249.1z"/>
	<path class="st11" d="M519.7,251.4c-2.2,1.3-4.5,2.6-6.7,3.9c-2.2-1.2-4.3-2.5-6.5-3.7c2.2-1.3,4.5-2.6,6.7-3.9
		C515.4,248.9,517.5,250.2,519.7,251.4z"/>
	<path class="st11" d="M587.7,301.9c6,2.8,7.6,6.5,5.6,9.5c-3.5,5.2-13.5,7.6-20.1,6.3c-3.4-0.7-5.9-2-7.9-3.4
		c-6.1-4.2-3.5-10.6,6.5-13.7c1.6-0.5,2.7-0.7,3.3-0.7C579,299.4,583.2,299.8,587.7,301.9z M570.9,311.3c4.3,5.6,20.4-2.8,11.9-6
		C577.5,303.2,568.7,308.5,570.9,311.3z"/>
	<path class="st11" d="M509.1,280.9c-5.6-2.9-15.6-6.5-14.9-10.3c0.4-2.2,4.5-4.4,8-4.6c4.5-0.3,9.4,1.9,13.6,3.9
		c1.2-0.3,2.4-1.3,2.6-1.8c-2.7-2.6-7.6-3.8-11.2-4.6c1.7-1,3.3-1.9,5-2.9c5.5,1.2,16.2,5.2,14.8,9c-0.7,2-4.9,3.8-8.2,5.7
		C515.4,277.2,512.2,279.1,509.1,280.9z M504.8,270.3c-4.8,0.7-1,3.7,2.7,4.9c1.5-0.9,3-1.7,4.4-2.6
		C509.4,271.5,507,270,504.8,270.3z"/>
	<path class="st11" d="M531.5,294.2c-2.2-1.2-4.3-2.5-6.5-3.7c2.1-1.2,5.2-3,8.3-4.8c2.7-1.6,6.7-3.3,6.3-4.8
		c-0.3-1.2-3.4-2.5-5.5-3.1c-5.2,3-10.4,6-15.6,9c-2.2-1.2-4.3-2.5-6.5-3.7c6.6-3.8,13.3-7.7,19.9-11.5c8.3,2.8,22.1,8.6,14.6,13.9
		C543,288,536.1,291.1,531.5,294.2z"/>
	<path class="st11" d="M577.8,297.2c-2.3,0.7-4.6,1-6.9,1.5c-0.8-0.3-1-0.9-1.6-0.9c-7.1,4-15,10.4-22.8,11.7
		c-4.7,0.8-9.7,0.1-14.8-2.4c-3.7-1.8-5.8-3.7-7.3-5.7c2-1.2,4-2.3,6-3.5c1.2,2.7,7.3,7.8,12.9,7c1.7-0.2,2.7-0.9,4.6-1.7
		c-1.4-0.7-3.4-1.1-5-2.1c-6.9-3.9-5.7-9.4,3.4-12.8c3.5-1.3,7.5-1.7,11.2-1.2C565.2,288.3,572.2,292.6,577.8,297.2z M548,295.7
		c-0.7,1.6,1.6,3.7,5.2,4.5c3.2-2,6.6-4,10.2-6C559.2,290.1,549.6,291.8,548,295.7z"/>
	<path class="st11" d="M509.5,257.3c-4.8,2.7-8.2,4.7-14,8.1c-6,3.1-10.4,5.8-15.2,6.1c-0.9,0.1-2.6,0-3.9-0.1
		c-1.1-0.1-3.2-0.2-3.9-0.6c-0.7-0.4-1.5-1.9-1.9-2.6c-0.5-0.9-0.8-1.8-1.6-2.6c4,0.5,7.5,1.2,11.5,0c3.5-1.1,7.3-3.4,11.1-5.6
		c3.7-2.2,8.1-4.6,11.4-6.6L509.5,257.3z"/>
</g>
<path class="st0" d="M980.7,95.4L862.6,27.2c-8.2-4.7-22.6-4.2-32.1,1.3L716.1,94.6c-1.1,0.7-2.2,1.4-3,2.1h-4.8v7.8l0,0
	c-0.2,3.2,1.6,6.3,5.5,8.6l119.1,68.7c8.2,4.7,22.6,4.2,32.1-1.3l114.5-66.1c4.9-2.8,7.6-6.5,7.8-9.9v-9.2L980.7,95.4z"/>
<path class="st1" d="M832.8,174l-119.1-68.7c-8.2-4.7-7.2-13,2.3-18.5l114.5-66.1c9.5-5.5,23.9-6.1,32.1-1.3l119.1,68.7
	c8.2,4.7,7.2,13-2.3,18.5l-114.5,66.1C855.4,178.2,841,178.8,832.8,174z"/>
<g>
	<path class="st12" d="M775.2,97.8c4.2-2.4,5.1-4.3,2.7-5.7c-0.9-0.6-2-1-3.2-1.3c-1-0.3-1.7-0.4-2.2-0.4l-9.8,5.7
		c0.5,1.4,1.4,2.4,2.7,3.1C768.2,100.4,771.4,100,775.2,97.8z M778,99.5c-2.1,1.2-4.2,1.9-6.7,2.1c-2.7,0.3-5-0.1-7-1.3
		c-1.6-0.8-2.5-2-3.1-3.4l-8.9,5.1l-1.6-2l19.8-11.5c1,0,1.9,0,2.9,0.1c2.4,0.3,4.7,1.2,6.8,2.4c1.9,1.1,2.7,2.5,2.2,4
		C781.7,96.8,780.4,98.2,778,99.5L778,99.5z M787.5,111.8c-2.8,1.6-5.1,2.6-6.6,2.9c-1.6,0.3-3.6,0.2-5.8-0.3
		c-1.9-0.5-3.5-1.1-5-1.9l1.1-1.2c1.8,0.8,3,1.2,3.8,1.5c1.6,0.4,3.1,0.6,4.5,0.3c1-0.2,2.5-0.9,4.5-2l0.7-0.4
		c-2.5-0.5-4.8-1.4-6.6-2.4c-1.3-0.7-2-1.6-2.1-2.6c-0.2-1.1,0.4-2,1.7-2.8l10.5-6l3.4,0.9l-10.5,6.1c-1.1,0.6-1.6,1.4-1.5,2.1
		c0.1,0.8,0.7,1.5,1.9,2.1c1.2,0.7,2.8,1.1,5.1,1.4l12.3-7.1l2.5,1.5L787.5,111.8z M795.6,118.4l-0.8-0.5c-1.4-0.8-2.2-1.7-2.3-2.5
		c-0.1-0.9,0.4-1.6,1.6-2.3l10-5.7l-1.7-1l1.6-0.9l1.7,1l4.2-2.4l3.4,0.9l-5.1,3l2.8,1.6l-1.6,0.9l-2.8-1.6l-9.8,5.7
		c-1,0.6-1.4,1.1-1.3,1.6c0.1,0.4,0.6,0.9,1.5,1.5L795.6,118.4z M811.2,127.1l-2.5-1.5l9.7-5.6c1-0.6,1.6-1.2,1.9-1.8
		c0.3-0.8-0.1-1.4-1-2c-1.2-0.7-3.2-1.2-6.2-1.4l-11.7,6.7l-2.5-1.5l23.3-13.4l3.3,1l-10.5,6.1c2.8,0.3,5.1,0.9,7.1,2
		c1.3,0.8,1.9,1.6,1.9,2.7c-0.1,1-0.7,1.9-2.1,2.7L811.2,127.1z M832.4,130.3c1.6-0.9,2.6-1.8,3-2.8c0.5-1.2,0.1-2.1-1.3-3.1
		c-2.9-1.5-6.3-1.2-10.1,1c-1.8,1-2.9,2-3.5,3c-0.7,1.3-0.4,2.4,1.1,3.2C824.5,133.2,828,132.8,832.4,130.3z M835.2,131.9
		c-2.2,1.3-4.8,2.1-7.4,2.3c-2.9,0.2-5.6-0.3-7.7-1.5c-2.2-1.3-3.1-2.7-2.7-4.5c0.4-1.5,1.6-2.9,3.9-4.2c2.2-1.2,4.5-1.9,7.2-2
		c2.9-0.1,5.3,0.4,7.4,1.6c2.1,1.2,3,2.6,2.8,4.3C838.4,129.3,837.3,130.7,835.2,131.9z M841.8,144.8l-2.5-1.5l10.3-5.9
		c1.1-0.6,1.6-1.4,1.6-2.1c-0.1-0.7-0.6-1.5-1.9-2.1c-1.2-0.7-2.8-1.1-4.6-1.3l-12.7,7.3l-2.5-1.5l13-7.5c2.5,0.2,4.5,0.6,6.1,1.1
		c1.5,0.5,2.6,1,3.5,1.5c0.6,0.3,1.1,0.7,1.6,1.1c0.7,0.7,1.1,1.4,1.1,2.1c0,0.8-0.5,1.5-1.5,2.1L841.8,144.8z"/>
	
		<linearGradient id="SVGID_13_" gradientUnits="userSpaceOnUse" x1="14094.1885" y1="-27840.793" x2="14098.0957" y2="-27844.1543" gradientTransform="matrix(8.0162 4.6281 9.3468 -5.3964 148107.7188 -215423.4375)">
		<stop  offset="0" style="stop-color:#5C9ED3"/>
		<stop  offset="1" style="stop-color:#326A97"/>
	</linearGradient>
	<path class="st13" d="M895.7,63.7c-2.4-1.4-4.9-2.6-7.3-3.5c-7-2.8-10.2-2.2-14.3,0.2l-5.3,3.1l14,8.1l-1.8,1l-19.2-11.1
		c-4-2.3-10-3-15.7-0.9c-6.6,2.4-10,4.2-14.2,8.2c-3.2,3-3.7,6,0.4,8.4l4.8,2.8l6.4-3.7c4.6-2.7,12.7-2.7,17.4,0l13.9,8
		c3.9,2.2,10.2,2.2,14.1-0.1l13.3-7.7c3.8-2.2,3.4-5.7,0.3-8.2C900.4,66.6,898.2,65,895.7,63.7z M883.9,61.8c1.4,0.8,1.4,2.2-0.1,3
		c-1.5,0.9-3.9,0.9-5.3,0c-1.4-0.8-1.4-2.2,0.1-3C880.1,61,882.4,60.9,883.9,61.8z"/>
	
		<linearGradient id="SVGID_14_" gradientUnits="userSpaceOnUse" x1="14099.5381" y1="-27845.8477" x2="14098.2305" y2="-27843.998" gradientTransform="matrix(8.0162 4.6281 9.3468 -5.3964 148107.7188 -215423.4375)">
		<stop  offset="0" style="stop-color:#FDD23E"/>
		<stop  offset="1" style="stop-color:#FDE774"/>
	</linearGradient>
	<path class="st14" d="M896.8,81.5l-6.2,3.6c-4.8,2.8-12.9,2.7-17.6,0l-13.9-8c-3.8-2.2-10.3-2.1-14.1,0.1l-13.3,7.7
		c-3.8,2.2-2.7,5.4-0.1,8.1c3,3.3,7.1,5.9,14,8.1c4.5,1.4,10,2.3,14.1-0.1l5.3-3.1l-14-8.1l1.8-1l21,12.1c4,2.3,8.4,1.6,14,0
		c5.9-1.7,10-4.1,14.2-8.2c3-2.9,4.2-5.7,0.1-8.1L896.8,81.5z M855.3,96.4c1.4,0.8,1.4,2.2-0.1,3c-1.5,0.9-3.9,0.9-5.3,0
		c-1.4-0.8-1.4-2.2,0.1-3S853.9,95.6,855.3,96.4z"/>
	<path class="st12" d="M864,137.5l0.4,0.3l2.7-1.6l1,0.6l0.4-0.2l-2.5-1.5l-0.4,0.2l1,0.6L864,137.5z M865.9,138.6l0.4,0.2l2.5-1.5
		l-1.7,1.9l0.4,0.3l3.3-1l-2.5,1.5l0.4,0.3l3.1-1.8l-0.5-0.3l-3.6,1l1.9-2l-0.6-0.3L865.9,138.6z"/>
</g>
</svg>
