<?xml version="1.0" encoding="utf-8"?>
<!-- Generator: Adobe Illustrator 24.2.1, SVG Export Plug-In . SVG Version: 6.00 Build 0)  -->
<svg version="1.1" id="Layer_1" xmlns="http://www.w3.org/2000/svg" xmlns:xlink="http://www.w3.org/1999/xlink" x="0px" y="0px"
	 viewBox="0 0 1137.5 848.9" style="enable-background:new 0 0 1137.5 848.9;" xml:space="preserve">
<style type="text/css">
	.st0{opacity:0.4;fill:#FFFFFF;enable-background:new    ;}
	.st1{opacity:0.2;}
	.st2{fill:#FFFFFF;}
</style>
<path class="st0" d="M288.2,202.1l-11.3-6.5c-2.1-1.2-5.4-1.2-7.5,0l-11.3,6.5c-2.1,1.2-2.1,3.1,0,4.3l11.3,6.5
	c2.1,1.2,5.4,1.2,7.5,0l11.3-6.5C290.2,205.2,290.2,203.3,288.2,202.1z"/>
<path class="st0" d="M938.8,595.5L938.8,595.5c-5.2-3-13.6-3-18.8,0l0,0c-5.2,3-5.2,7.9,0,10.9l0,0c5.2,3,13.6,3,18.8,0l0,0
	C944,603.3,944,598.5,938.8,595.5z"/>
<g class="st1">
	<path class="st2" d="M922.2,345.2l-32-18.5c-2.9-1.7-2.6-4.7,0.8-6.6l30.4-17.5c3.4-2,8.5-2.2,11.5-0.5l32,18.5
		c2.9,1.7,2.6,4.7-0.8,6.6l-30.4,17.5C930.3,346.7,925.2,346.9,922.2,345.2z"/>
</g>
<g class="st1">
	<path class="st2" d="M985.1,380.9l-32-18.5c-2.9-1.7-2.6-4.7,0.8-6.6l30.4-17.5c3.4-2,8.5-2.2,11.5-0.5l32,18.5
		c2.9,1.7,2.6,4.7-0.8,6.6l-30.4,17.5C993.1,382.4,988,382.6,985.1,380.9z"/>
</g>
<g class="st1">
	<path class="st2" d="M1045.2,416.3l-32-18.5c-2.9-1.7-2.6-4.7,0.8-6.6l30.4-17.5c3.4-2,8.5-2.2,11.5-0.5l32,18.5
		c2.9,1.7,2.6,4.7-0.8,6.6l-30.4,17.5C1053.3,417.8,1048.1,418,1045.2,416.3z"/>
</g>
</svg>
