<?xml version="1.0" encoding="utf-8"?>
<!-- Generator: Adobe Illustrator 24.2.3, SVG Export Plug-In . SVG Version: 6.00 Build 0)  -->
<svg version="1.1" id="Layer_1" xmlns="http://www.w3.org/2000/svg" xmlns:xlink="http://www.w3.org/1999/xlink" x="0px" y="0px"
	 viewBox="0 0 566.1 1882.2" style="enable-background:new 0 0 566.1 1882.2;" xml:space="preserve">
<style type="text/css">
	.st0{fill:#E7E8EB;}
	.st1{fill:url(#SVGID_1_);}
	.st2{fill:url(#SVGID_2_);}
	.st3{fill:#FFFFFF;}
	.st4{fill:url(#SVGID_3_);}
	.st5{fill:url(#SVGID_4_);}
	.st6{fill:url(#SVGID_5_);}
	.st7{fill:url(#SVGID_6_);}
	.st8{fill:none;stroke:#FFFFFF;}
</style>
<path class="st0" d="M172.3,559.5L21.9,472.7c-10.4-6-9.1-16.5,2.9-23.4l144.5-83.4c12-6.9,30.1-7.7,40.5-1.7L360.2,451
	c10.4,6,9.1,16.5-2.9,23.4l-144.5,83.4C200.8,564.7,182.7,565.5,172.3,559.5z"/>
<linearGradient id="SVGID_1_" gradientUnits="userSpaceOnUse" x1="0.816" y1="461.8354" x2="353.097" y2="461.8354">
	<stop  offset="7.240053e-04" style="stop-color:#C9C9DC"/>
	<stop  offset="0.1605" style="stop-color:#CCCCDE"/>
	<stop  offset="0.2866" style="stop-color:#D6D6E4"/>
	<stop  offset="0.4008" style="stop-color:#E7E7EF"/>
	<stop  offset="0.5081" style="stop-color:#FEFEFE"/>
	<stop  offset="0.5119" style="stop-color:#FFFFFF"/>
	<stop  offset="0.6172" style="stop-color:#E7E7F0"/>
	<stop  offset="0.7284" style="stop-color:#D6D6E5"/>
	<stop  offset="0.85" style="stop-color:#CCCCDE"/>
	<stop  offset="1" style="stop-color:#C9C9DC"/>
</linearGradient>
<path class="st1" d="M353.1,460.5l0-42.1h-63.4l-94-54.2c-10.4-6-28.5-5.2-40.5,1.7l-91.1,52.6H0.8l0,43.4h0c-0.3,4.1,2,8,7,10.8
	l150.3,86.8c10.4,6,28.5,5.2,40.5-1.7l144.5-83.4c6.2-3.6,9.6-8.1,9.9-12.5C353.1,461.4,353.1,461,353.1,460.5z"/>
<linearGradient id="SVGID_2_" gradientUnits="userSpaceOnUse" x1="0.8162" y1="418.4351" x2="353.1003" y2="418.4351">
	<stop  offset="1.550722e-03" style="stop-color:#EAEAF1"/>
	<stop  offset="1" style="stop-color:#EEEFF4"/>
</linearGradient>
<path class="st2" d="M158.2,516.1L7.8,429.3c-10.4-6-9.1-16.5,2.9-23.4l144.5-83.4c12-6.9,30.1-7.7,40.5-1.7l150.3,86.8
	c10.4,6,9.1,16.5-2.9,23.4l-144.5,83.4C186.7,521.3,168.5,522.1,158.2,516.1z"/>
<g>
	<path class="st3" d="M178.2,316.7v1c6.6,0,12.7,1.4,17.1,3.9l150.3,86.8c4.2,2.4,6.5,5.7,6.5,9.3c0,4.4-3.4,8.9-9.4,12.4
		l-144.5,83.4c-6.2,3.6-14.3,5.6-22.4,5.6c-6.6,0-12.7-1.4-17.1-3.9L8.3,428.4c-4.2-2.4-6.5-5.7-6.5-9.3c0-4.4,3.4-8.9,9.4-12.4
		l144.5-83.4c6.2-3.6,14.3-5.6,22.4-5.6V316.7 M178.2,316.7c-8,0-16.4,1.9-22.9,5.7L10.7,405.9c-12,6.9-13.3,17.4-2.9,23.4
		l150.3,86.8c4.7,2.7,11,4,17.6,4c8,0,16.4-1.9,22.9-5.7L343.2,431c12-6.9,13.3-17.4,2.9-23.4l-150.3-86.8
		C191,318.1,184.8,316.7,178.2,316.7L178.2,316.7z"/>
</g>
<path class="st0" d="M356,853.1l-150.3-86.8c-10.4-6-9.1-16.5,2.9-23.4l144.5-83.4c12-6.9,30.1-7.7,40.5-1.7l150.3,86.8
	c10.4,6,9.1,16.5-2.9,23.4l-144.5,83.4C384.5,858.3,366.4,859,356,853.1z"/>
<linearGradient id="SVGID_3_" gradientUnits="userSpaceOnUse" x1="184.554" y1="755.4008" x2="536.835" y2="755.4008">
	<stop  offset="7.240053e-04" style="stop-color:#C9C9DC"/>
	<stop  offset="0.1605" style="stop-color:#CCCCDE"/>
	<stop  offset="0.2866" style="stop-color:#D6D6E4"/>
	<stop  offset="0.4008" style="stop-color:#E7E7EF"/>
	<stop  offset="0.5081" style="stop-color:#FEFEFE"/>
	<stop  offset="0.5119" style="stop-color:#FFFFFF"/>
	<stop  offset="0.6172" style="stop-color:#E7E7F0"/>
	<stop  offset="0.7284" style="stop-color:#D6D6E5"/>
	<stop  offset="0.85" style="stop-color:#CCCCDE"/>
	<stop  offset="1" style="stop-color:#C9C9DC"/>
</linearGradient>
<path class="st4" d="M536.8,754.1l0-42.1h-63.4l-94-54.2c-10.4-6-28.5-5.2-40.5,1.7L247.9,712h-63.4l0,43.4h0c-0.3,4.1,2,8,7,10.8
	l150.3,86.8c10.4,6,28.5,5.2,40.5-1.7l144.5-83.4c6.2-3.6,9.6-8.1,9.9-12.5C536.8,755,536.8,754.5,536.8,754.1z"/>
<linearGradient id="SVGID_4_" gradientUnits="userSpaceOnUse" x1="184.5542" y1="712.0005" x2="536.8382" y2="712.0005">
	<stop  offset="1.550722e-03" style="stop-color:#EAEAF1"/>
	<stop  offset="1" style="stop-color:#EEEFF4"/>
</linearGradient>
<path class="st5" d="M341.9,809.7l-150.3-86.8c-10.4-6-9.1-16.5,2.9-23.4L339,616c12-6.9,30.1-7.7,40.5-1.7l150.3,86.8
	c10.4,6,9.1,16.5-2.9,23.4L382.4,808C370.4,814.9,352.3,815.6,341.9,809.7z"/>
<g>
	<path class="st3" d="M361.9,610.3v1c6.6,0,12.7,1.4,17.1,3.9L529.3,702c4.2,2.4,6.5,5.7,6.5,9.3c0,4.4-3.4,8.9-9.4,12.4
		l-144.5,83.4c-6.2,3.6-14.3,5.6-22.4,5.6c-6.6,0-12.7-1.4-17.1-3.9L192.1,722c-4.2-2.4-6.5-5.7-6.5-9.3c0-4.4,3.4-8.9,9.4-12.4
		l144.5-83.4c6.2-3.6,14.3-5.6,22.4-5.6L361.9,610.3 M361.9,610.3c-8,0-16.4,1.9-22.9,5.7l-144.5,83.4c-12,6.9-13.3,17.4-2.9,23.4
		l150.3,86.8c4.7,2.7,11,4,17.6,4c8,0,16.4-1.9,22.9-5.7l144.5-83.4c12-6.9,13.3-17.4,2.9-23.4l-150.3-86.8
		C374.8,611.6,368.5,610.3,361.9,610.3L361.9,610.3z"/>
</g>
<path class="st0" d="M192,1156.2l-150.3-86.8c-10.4-6-9.1-16.5,2.9-23.4L189,962.6c12-6.9,30.1-7.7,40.5-1.7l150.3,86.8
	c10.4,6,9.1,16.5-2.9,23.4l-144.5,83.4C220.5,1161.4,202.3,1162.2,192,1156.2z"/>
<linearGradient id="SVGID_5_" gradientUnits="userSpaceOnUse" x1="20.498" y1="1058.5248" x2="372.7791" y2="1058.5248">
	<stop  offset="7.240053e-04" style="stop-color:#C9C9DC"/>
	<stop  offset="0.1605" style="stop-color:#CCCCDE"/>
	<stop  offset="0.2866" style="stop-color:#D6D6E4"/>
	<stop  offset="0.4008" style="stop-color:#E7E7EF"/>
	<stop  offset="0.5081" style="stop-color:#FEFEFE"/>
	<stop  offset="0.5119" style="stop-color:#FFFFFF"/>
	<stop  offset="0.6172" style="stop-color:#E7E7F0"/>
	<stop  offset="0.7284" style="stop-color:#D6D6E5"/>
	<stop  offset="0.85" style="stop-color:#CCCCDE"/>
	<stop  offset="1" style="stop-color:#C9C9DC"/>
</linearGradient>
<path class="st6" d="M372.8,1057.2l0-42.1h-63.4l-94-54.2c-10.4-6-28.5-5.2-40.5,1.7l-91.1,52.6H20.5l0,43.4h0c-0.3,4.1,2,8,7,10.8
	l150.3,86.8c10.4,6,28.5,5.2,40.5-1.7l144.5-83.4c6.2-3.6,9.6-8.1,9.9-12.5C372.8,1058.1,372.8,1057.7,372.8,1057.2z"/>
<linearGradient id="SVGID_6_" gradientUnits="userSpaceOnUse" x1="20.4982" y1="1015.1245" x2="372.7822" y2="1015.1245">
	<stop  offset="1.550722e-03" style="stop-color:#EAEAF1"/>
	<stop  offset="1" style="stop-color:#EEEFF4"/>
</linearGradient>
<path class="st7" d="M177.8,1112.8L27.5,1026c-10.4-6-9.1-16.5,2.9-23.4l144.5-83.4c12-6.9,30.1-7.7,40.5-1.7l150.3,86.8
	c10.4,6,9.1,16.5-2.9,23.4l-144.5,83.4C206.4,1118,188.2,1118.8,177.8,1112.8z"/>
<path class="st8" d="M365.8,1004.3c10.4,6,9.1,16.5-2.9,23.4l-144.5,83.4c-12,6.9-30.1,7.7-40.5,1.7L27.5,1026
	c-10.4-6-9.1-16.5,2.9-23.4"/>
</svg>
