<?xml version="1.0" encoding="utf-8"?>
<!-- Generator: Adobe Illustrator 24.2.3, SVG Export Plug-In . SVG Version: 6.00 Build 0)  -->
<svg version="1.1" id="Layer_1" xmlns="http://www.w3.org/2000/svg" xmlns:xlink="http://www.w3.org/1999/xlink" x="0px" y="0px"
	 viewBox="0 0 566.1 1882.2" style="enable-background:new 0 0 566.1 1882.2;" xml:space="preserve">
<style type="text/css">
	.st0{fill:#C9C9DC;}
	.st1{fill:#FFFFFF;}
	.st2{fill:#656565;}
	.st3{fill:url(#SVGID_1_);}
	.st4{fill:url(#SVGID_2_);}
	.st5{fill-rule:evenodd;clip-rule:evenodd;fill:#808080;}
	.st6{clip-path:url(#SVGID_4_);}
	.st7{fill:#39CCFB;}
	.st8{clip-path:url(#SVGID_6_);fill:#39CCFB;}
	.st9{clip-path:url(#SVGID_8_);fill:#045698;}
	.st10{clip-path:url(#SVGID_10_);fill:url(#SVGID_11_);}
	.st11{clip-path:url(#SVGID_13_);}
	.st12{fill:#16B7FB;}
	.st13{fill:url(#SVGID_14_);}
	.st14{fill:#808080;}
</style>
<path class="st0" d="M310,412.1l-118.1-68.2c-8.2-4.7-22.6-4.2-32.1,1.3L45.3,411.3c-1.1,0.7-2.2,1.4-3,2.1h-4.8v7.8l0,0
	c-0.2,3.2,1.6,6.3,5.5,8.6l119.1,68.7c8.2,4.7,22.6,4.2,32.1-1.3l114.5-66.1c4.9-2.8,7.6-6.5,7.8-9.9V412L310,412.1z"/>
<path class="st1" d="M162.1,490.8L43,422c-8.2-4.7-7.2-13,2.3-18.5l114.5-66.1c9.5-5.5,23.9-6.1,32.1-1.3L311,404.8
	c8.2,4.7,7.2,13-2.3,18.5l-114.5,66.1C184.7,494.9,170.3,495.5,162.1,490.8z"/>
<g>
	<path class="st2" d="M104.5,414.5c4.2-2.4,5.1-4.3,2.7-5.7c-0.9-0.6-2-1-3.2-1.3c-1-0.3-1.7-0.4-2.2-0.4l-9.8,5.7
		c0.5,1.4,1.4,2.4,2.7,3.1C97.4,417.1,100.7,416.7,104.5,414.5z M107.2,416.3c-2.1,1.2-4.2,1.9-6.7,2.1c-2.7,0.3-5-0.1-7-1.3
		c-1.6-0.8-2.5-2-3.1-3.4l-8.9,5.1l-1.6-2l19.8-11.5c1,0,1.9,0,2.9,0.1c2.4,0.3,4.7,1.2,6.8,2.4c1.9,1.1,2.7,2.5,2.2,4
		C110.9,413.5,109.6,414.9,107.2,416.3L107.2,416.3z M116.7,428.5c-2.8,1.6-5.1,2.6-6.6,2.9c-1.6,0.3-3.6,0.2-5.8-0.3
		c-1.9-0.5-3.5-1.1-5-1.9l1.1-1.2c1.8,0.8,3,1.2,3.8,1.5c1.6,0.4,3.1,0.6,4.5,0.3c1-0.2,2.5-0.9,4.5-2l0.7-0.4
		c-2.5-0.5-4.8-1.4-6.6-2.4c-1.3-0.7-2-1.6-2.1-2.6c-0.2-1.1,0.4-2,1.7-2.8l10.5-6l3.4,0.9l-10.5,6.1c-1.1,0.6-1.6,1.4-1.5,2.1
		c0.1,0.8,0.7,1.5,1.9,2.1c1.2,0.7,2.8,1.1,5.1,1.4l12.3-7.1l2.5,1.5L116.7,428.5z M124.9,435.1l-0.8-0.5c-1.4-0.8-2.2-1.7-2.3-2.5
		c-0.1-0.9,0.4-1.6,1.6-2.3l10-5.7l-1.7-1l1.6-0.9l1.7,1l4.2-2.4l3.4,0.9l-5.1,3l2.8,1.6l-1.6,0.9l-2.8-1.6l-9.8,5.7
		c-1,0.6-1.4,1.1-1.3,1.6c0.1,0.4,0.6,0.9,1.5,1.5L124.9,435.1z M140.4,443.8l-2.5-1.5l9.7-5.6c1-0.6,1.6-1.2,1.9-1.8
		c0.3-0.8-0.1-1.4-1-2c-1.2-0.7-3.2-1.2-6.2-1.4l-11.7,6.7l-2.5-1.5l23.3-13.4l3.3,1l-10.5,6.1c2.8,0.3,5.1,0.9,7.1,2
		c1.3,0.8,1.9,1.6,1.9,2.7c-0.1,1-0.7,1.9-2.1,2.7L140.4,443.8z M161.7,447c1.6-0.9,2.6-1.8,3-2.8c0.5-1.2,0.1-2.1-1.3-3.1
		c-2.9-1.5-6.3-1.2-10.1,1c-1.8,1-2.9,2-3.5,3c-0.7,1.3-0.4,2.4,1.1,3.2C153.7,450,157.3,449.5,161.7,447z M164.4,448.6
		c-2.2,1.3-4.8,2.1-7.4,2.3c-2.9,0.2-5.6-0.3-7.7-1.5c-2.2-1.3-3.1-2.7-2.7-4.5c0.4-1.5,1.6-2.9,3.9-4.2c2.2-1.2,4.5-1.9,7.2-2
		c2.9-0.1,5.3,0.4,7.4,1.6s3,2.6,2.8,4.3C167.7,446,166.5,447.4,164.4,448.6z M171,461.5l-2.5-1.5l10.3-5.9c1.1-0.6,1.6-1.4,1.6-2.1
		c-0.1-0.7-0.6-1.5-1.9-2.1c-1.2-0.7-2.8-1.1-4.6-1.3l-12.7,7.3l-2.5-1.5l13-7.5c2.5,0.2,4.5,0.6,6.1,1.1c1.5,0.5,2.6,1,3.5,1.5
		c0.6,0.3,1.1,0.7,1.6,1.1c0.7,0.7,1.1,1.4,1.1,2.1c0,0.8-0.5,1.5-1.5,2.1L171,461.5z"/>
	
		<linearGradient id="SVGID_1_" gradientUnits="userSpaceOnUse" x1="13448.4678" y1="-27792.6875" x2="13452.374" y2="-27796.0488" gradientTransform="matrix(8.0162 4.6281 9.3468 -5.3964 152163.6094 -211858.6094)">
		<stop  offset="0" style="stop-color:#5C9ED3"/>
		<stop  offset="1" style="stop-color:#326A97"/>
	</linearGradient>
	<path class="st3" d="M225,380.5c-2.4-1.4-4.9-2.6-7.3-3.5c-7-2.8-10.2-2.2-14.3,0.2l-5.3,3.1l14,8.1l-1.8,1l-19.2-11.1
		c-4-2.3-10-3-15.7-0.9c-6.6,2.4-10,4.2-14.2,8.2c-3.2,3-3.7,6,0.4,8.4l4.8,2.8l6.4-3.7c4.6-2.7,12.7-2.7,17.4,0l13.9,8
		c3.9,2.2,10.2,2.2,14.1-0.1l13.3-7.7c3.8-2.2,3.4-5.7,0.3-8.2C229.6,383.3,227.4,381.8,225,380.5z M213.2,378.5
		c1.4,0.8,1.4,2.2-0.1,3c-1.5,0.9-3.9,0.9-5.3,0c-1.4-0.8-1.4-2.2,0.1-3S211.7,377.7,213.2,378.5z"/>
	
		<linearGradient id="SVGID_2_" gradientUnits="userSpaceOnUse" x1="13453.8184" y1="-27797.7422" x2="13452.5107" y2="-27795.8926" gradientTransform="matrix(8.0162 4.6281 9.3468 -5.3964 152163.6094 -211858.6094)">
		<stop  offset="0" style="stop-color:#FDD23E"/>
		<stop  offset="1" style="stop-color:#FDE774"/>
	</linearGradient>
	<path class="st4" d="M226.1,398.3l-6.2,3.6c-4.8,2.8-12.9,2.7-17.6,0l-13.9-8c-3.8-2.2-10.3-2.1-14.1,0.1l-13.3,7.7
		c-3.8,2.2-2.7,5.4-0.1,8.1c3,3.3,7.1,5.9,14,8.1c4.5,1.4,10,2.3,14.1-0.1l5.3-3.1l-14-8.1l1.8-1l21,12.1c4,2.3,8.4,1.6,14,0
		c5.9-1.7,10-4.1,14.2-8.2c3-2.9,4.2-5.7,0.1-8.1L226.1,398.3z M184.6,413.1c1.4,0.8,1.4,2.2-0.1,3s-3.9,0.9-5.3,0s-1.4-2.2,0.1-3
		C180.8,412.3,183.1,412.3,184.6,413.1z"/>
	<path class="st2" d="M193.2,454.3l0.4,0.3l2.7-1.6l1,0.6l0.4-0.2l-2.5-1.5l-0.4,0.2l1,0.6L193.2,454.3z M195.2,455.4l0.4,0.2
		l2.5-1.5l-1.7,1.9l0.4,0.3l3.3-1l-2.5,1.5l0.4,0.3l3.1-1.8l-0.5-0.3l-3.6,1l1.9-2l-0.6-0.3L195.2,455.4z"/>
</g>
<path class="st0" d="M493.7,705.7l-118.1-68.2c-8.2-4.7-22.6-4.2-32.1,1.3L229,704.9c-1.1,0.7-2.2,1.4-3,2.1h-4.8v7.8l0,0
	c-0.2,3.2,1.6,6.3,5.5,8.6l119.1,68.7c8.2,4.7,22.6,4.2,32.1-1.3l114.5-66.1c4.9-2.8,7.6-6.5,7.8-9.9v-9.2L493.7,705.7z"/>
<path class="st1" d="M345.8,784.3l-119.1-68.7c-8.2-4.7-7.2-13,2.3-18.5L343.5,631c9.5-5.5,23.9-6.1,32.1-1.3l119.1,68.7
	c8.2,4.7,7.2,13-2.3,18.5L377.9,783C368.4,788.5,354,789.1,345.8,784.3z"/>
<g>
	<path class="st5" d="M337.2,667.2c2.2,1.2,4.3,2.5,6.5,3.7c-10.2,5.9-20.4,11.8-30.6,17.6c-7.2-3-13.8-6-15.6-9.9
		c-2.4-4.9,6.9-10.8,15.5-10.8c4.4,0,10.3,1.7,14.1,5c3.2-1.9,6.4-3.7,9.6-5.6C336.9,667.3,337.1,667.2,337.2,667.2z M308.8,674.7
		c-4,2.3-3.5,5.4,2.3,7.5c3.5-2,7.1-4.1,10.6-6.1C318.4,672.5,312.7,672.5,308.8,674.7z"/>
	<path class="st5" d="M354.2,677c-2.2,1.3-4.5,2.6-6.7,3.9c-2.2-1.2-4.3-2.5-6.5-3.7c2.2-1.3,4.5-2.6,6.7-3.9
		C349.9,674.5,352,675.8,354.2,677z"/>
	<path class="st5" d="M422.2,727.6c6,2.8,7.6,6.5,5.6,9.5c-3.5,5.2-13.5,7.6-20.1,6.3c-3.4-0.7-5.9-2-7.9-3.4
		c-6.1-4.2-3.5-10.6,6.5-13.7c1.6-0.5,2.7-0.7,3.3-0.7C413.5,725,417.7,725.5,422.2,727.6z M405.4,736.9c4.3,5.6,20.4-2.8,11.9-6
		C412,728.8,403.2,734.1,405.4,736.9z"/>
	<path class="st5" d="M343.6,706.5c-5.6-2.9-15.6-6.5-14.9-10.3c0.4-2.2,4.5-4.4,8-4.6c4.5-0.3,9.4,1.9,13.6,3.9
		c1.2-0.3,2.4-1.3,2.6-1.8c-2.7-2.6-7.6-3.8-11.2-4.6c1.7-1,3.3-1.9,5-2.9c5.5,1.2,16.2,5.2,14.8,9c-0.7,2-4.9,3.8-8.2,5.7
		C349.9,702.8,346.7,704.7,343.6,706.5z M339.3,695.9c-4.8,0.7-1,3.7,2.7,4.9c1.5-0.9,3-1.7,4.4-2.6
		C343.9,697.1,341.5,695.6,339.3,695.9z"/>
	<path class="st5" d="M365.9,719.8c-2.2-1.2-4.3-2.5-6.5-3.7c2.1-1.2,5.2-3,8.3-4.8c2.7-1.6,6.7-3.3,6.3-4.8
		c-0.3-1.2-3.4-2.5-5.5-3.1c-5.2,3-10.4,6-15.6,9c-2.2-1.2-4.3-2.5-6.5-3.7c6.6-3.8,13.3-7.7,19.9-11.5c8.3,2.8,22.1,8.6,14.6,13.9
		C377.5,713.6,370.6,716.7,365.9,719.8z"/>
	<path class="st5" d="M412.3,722.8c-2.3,0.7-4.6,1-6.9,1.5c-0.8-0.3-1-0.9-1.6-0.9c-7.1,4-15,10.4-22.8,11.7
		c-4.7,0.8-9.7,0.1-14.8-2.4c-3.7-1.8-5.8-3.7-7.3-5.7c2-1.2,4-2.3,6-3.5c1.2,2.7,7.3,7.8,12.9,7c1.7-0.2,2.7-0.9,4.6-1.7
		c-1.4-0.7-3.4-1.1-5-2.1c-6.9-3.9-5.7-9.4,3.4-12.8c3.5-1.3,7.5-1.7,11.2-1.2C399.7,713.9,406.7,718.2,412.3,722.8z M382.5,721.4
		c-0.7,1.6,1.6,3.7,5.2,4.5c3.2-2,6.6-4,10.2-6C393.7,715.7,384.1,717.4,382.5,721.4z"/>
	<path class="st5" d="M344,682.9c-4.8,2.7-8.2,4.7-14,8.1c-6,3.1-10.4,5.8-15.2,6.1c-0.9,0.1-2.6,0-3.9-0.1
		c-1.1-0.1-3.2-0.2-3.9-0.6c-0.7-0.4-1.5-1.9-1.9-2.6c-0.5-0.9-0.8-1.8-1.6-2.6c4,0.5,7.5,1.2,11.5,0c3.5-1.1,7.3-3.4,11.1-5.6
		c3.7-2.2,8.1-4.6,11.4-6.6L344,682.9z"/>
</g>
<path class="st0" d="M329.6,1008.8l-118.1-68.2c-8.2-4.7-22.6-4.2-32.1,1.3L65,1008c-1.1,0.7-2.2,1.4-3,2.1h-4.8v7.8l0,0
	c-0.2,3.2,1.6,6.3,5.5,8.6l119.1,68.7c8.2,4.7,22.6,4.2,32.1-1.3l114.5-66.1c4.9-2.8,7.6-6.5,7.8-9.9v-9.2L329.6,1008.8z"/>
<path class="st1" d="M181.8,1087.5l-119.1-68.7c-8.2-4.7-7.2-13,2.3-18.5l114.5-66.1c9.5-5.5,23.9-6.1,32.1-1.3l119.1,68.7
	c8.2,4.7,7.2,13-2.3,18.5l-114.5,66.1C204.3,1091.6,190,1092.2,181.8,1087.5z"/>
<g>
	<g transform="matrix(.03881911 0 0 .03881916 -.560501 8.162276)">
		<g>
			<g>
				<g>
					<defs>
						<path id="SVGID_3_" d="M4524.2,25382l-585.1,0.1l-0.1,337.8l-334.3-193v-144.8v-193h585.2L4524.2,25382z M4691.4,24899.5
							H3604.8v193l1420.8-0.1L4691.4,24899.5z"/>
					</defs>
					<clipPath id="SVGID_4_">
						<use xlink:href="#SVGID_3_"  style="overflow:visible;"/>
					</clipPath>
					<g class="st6">
						<path class="st7" d="M3604.7,25382l919.5-0.1l-334.3-193l-585.1,0.1L3604.7,25382z"/>
					</g>
				</g>
			</g>
		</g>
		<g>
			<g>
				<g>
					<defs>
						<path id="SVGID_5_" d="M4524.2,25382l-585.1,0.1l-0.1,337.8l-334.3-193v-144.8v-193h585.2L4524.2,25382z M4691.4,24899.5
							H3604.8v193l1420.8-0.1L4691.4,24899.5z"/>
					</defs>
					<clipPath id="SVGID_6_">
						<use xlink:href="#SVGID_5_"  style="overflow:visible;"/>
					</clipPath>
					<path class="st8" d="M3604.8,24899.5h1086.6l334.3,193l-1420.8,0.1L3604.8,24899.5z"/>
				</g>
			</g>
		</g>
		<g>
			<g>
				<g>
					<defs>
						<path id="SVGID_7_" d="M4524.2,25382l-585.1,0.1l-0.1,337.8l-334.3-193v-144.8v-193h585.2L4524.2,25382z M4691.4,24899.5
							H3604.8v193l1420.8-0.1L4691.4,24899.5z"/>
					</defs>
					<clipPath id="SVGID_8_">
						<use xlink:href="#SVGID_7_"  style="overflow:visible;"/>
					</clipPath>
					<path class="st9" d="M3604.8,25526.8l334.3,193V25382h-334.4L3604.8,25526.8z"/>
				</g>
			</g>
		</g>
		<g>
			<g>
				<g>
					<defs>
						<path id="SVGID_9_" d="M4524.2,25382l-585.1,0.1l-0.1,337.8l-334.3-193v-144.8v-193h585.2L4524.2,25382z M4691.4,24899.5
							H3604.8v193l1420.8-0.1L4691.4,24899.5z"/>
					</defs>
					<clipPath id="SVGID_10_">
						<use xlink:href="#SVGID_9_"  style="overflow:visible;"/>
					</clipPath>
					
						<linearGradient id="SVGID_11_" gradientUnits="userSpaceOnUse" x1="93087.4062" y1="-183268.9062" x2="93096.5938" y2="-183278.0938" gradientTransform="matrix(1.266506e-05 0 0 8.443408e-06 -115910.3203 -114961.3359)">
						<stop  offset="0" style="stop-color:#1A237E;stop-opacity:0.4"/>
						<stop  offset="1" style="stop-color:#1A237E;stop-opacity:0"/>
					</linearGradient>
					<path class="st10" d="M3939.1,25382h-334.4l333.8,93.6L3939.1,25382z"/>
				</g>
			</g>
		</g>
		<g>
			<g>
				<g>
					<defs>
						<path id="SVGID_12_" d="M4524.2,25382l-585.1,0.1l-0.1,337.8l-334.3-193v-144.8v-193h585.2L4524.2,25382z M4691.4,24899.5
							H3604.8v193l1420.8-0.1L4691.4,24899.5z"/>
					</defs>
					<clipPath id="SVGID_13_">
						<use xlink:href="#SVGID_12_"  style="overflow:visible;"/>
					</clipPath>
					<g class="st11">
						<path class="st12" d="M3604.9,25189h334.4v193l-334.5,0.1L3604.9,25189z"/>
					</g>
				</g>
			</g>
		</g>
		
			<radialGradient id="SVGID_14_" cx="111176.3047" cy="-651375.1875" r="22.5185" gradientTransform="matrix(1.266506e-05 0 0 7.312160e-06 -101280.6406 -123407.7969)" gradientUnits="userSpaceOnUse">
			<stop  offset="0" style="stop-color:#FFFFFF;stop-opacity:0.1"/>
			<stop  offset="1" style="stop-color:#FFFFFF;stop-opacity:0"/>
		</radialGradient>
		<path class="st13" d="M4524.2,25382l-585.1,0.1l-0.1,337.8l-334.3-193v-144.8v-193h585.2L4524.2,25382z M4691.4,24899.5H3604.8
			v193l1420.8-0.1L4691.4,24899.5z"/>
	</g>
	<g transform="matrix(1.0352624 0 0 1.0352624 -1.939178 -1.035154)">
		<path class="st14" d="M182.8,958.4l11,6.3l-2.1,1.2l-8.7-5l-6.5,3.7l7.8,4.5l-2.1,1.2l-7.8-4.5l-8.2,4.7l-2.2-1.3L182.8,958.4
			L182.8,958.4z"/>
		<path class="st14" d="M196.4,966.2l2.2,1.3l-18.9,10.9l-2.2-1.3L196.4,966.2z"/>
		<path class="st14" d="M187.5,983.4c-1.7-1-2.3-1.9-2.3-3c0.1-1,1-2.1,2.7-3l8.5-4.9l2.2,1.3l-8.2,4.7c-1.3,0.7-1.9,1.4-2,2.1
			c0,0.7,0.4,1.3,1.5,1.9c0.7,0.4,1.7,0.7,2.6,0.8c1,0.1,2,0.1,2.9-0.1s1.9-0.5,2.6-0.9l7.6-4.4l2.2,1.3l-13.5,7.8l-2.1-1.2l2-1.1
			l-0.1-0.1c-1,0.1-2.2,0.2-3.5-0.1C189.5,984.3,188.5,984,187.5,983.4z"/>
		<path class="st14" d="M203,992.1c-0.5-0.3-0.9-0.7-1.3-1.1c-0.2-0.4-0.4-0.7-0.4-1.1c0-0.4,0.1-0.8,0.3-1.1
			c0.2-0.4,0.6-0.7,1.3-1.1l8-4.6l-2.4-1.4l2-1.1l2.4,1.4l3.8-2.2l2.2,1.3l-3.8,2.2l3.2,1.9l-2,1.1l-3.2-1.9l-7.3,4.2
			c-0.7,0.4-1.2,0.8-1.3,1.2s0.2,0.8,0.8,1.2c0.5,0.3,1.2,0.5,1.9,0.6l-2.2,1.3c-0.4-0.1-0.7-0.2-1.2-0.3
			C203.9,992.6,203.4,992.4,203,992.1z"/>
		<path class="st14" d="M212.5,997.6c-0.5-0.3-0.9-0.7-1.3-1.1c-0.2-0.4-0.4-0.7-0.4-1.1c0-0.4,0.1-0.8,0.3-1.1
			c0.2-0.4,0.6-0.7,1.3-1.1l8-4.6l-2.2-1.3l2-1.1l2.4,1.4l3.8-2.2l2.2,1.3l-3.8,2.2l3.2,1.9l-2,1.1l-3.2-1.9l-7.3,4.2
			c-0.7,0.4-1.2,0.8-1.3,1.2s0.2,0.8,0.8,1.2c0.5,0.3,1.2,0.5,1.9,0.6l-2.2,1.3c-0.4-0.1-0.7-0.2-1.2-0.3
			C213.4,998.1,213,997.9,212.5,997.6z"/>
		<path class="st14" d="M222.3,1003.5c-1.3-0.7-2.1-1.6-2.5-2.5c-0.4-1-0.3-1.9,0.1-2.8c0.5-0.9,1.5-1.8,2.8-2.6
			c1.3-0.7,2.8-1.3,4.4-1.6s3.3-0.4,4.9-0.2c1.6,0.2,3,0.7,4.4,1.4c1.4,0.8,2.2,1.6,2.5,2.5s0.3,1.8-0.2,2.7s-1.4,1.8-2.7,2.5
			c-0.3,0.2-0.5,0.3-0.8,0.4l-10.8-6.2c-0.9,0.7-1.6,1.3-1.9,1.9c-0.3,0.7-0.2,1.3,0.1,1.9c0.4,0.6,0.8,1.1,1.6,1.5
			c1.8,1,3.9,1.3,6.4,0.9l0.9,1.6c-1.7,0.2-3.3,0.4-5,0.1C225.2,1004.8,223.7,1004.3,222.3,1003.5L222.3,1003.5z M234.7,1000.8
			c0.5-0.3,0.9-0.8,1.2-1.3s0.3-1,0.1-1.6s-0.7-1.1-1.7-1.7c-1-0.6-2.3-1-3.8-1c-1.4-0.1-2.7,0.2-4.2,0.7L234.7,1000.8z"/>
		<path class="st14" d="M245.1,1000.6l2.1,1.2l-2.2,1.3l0.1,0.1c1-0.2,2.1-0.4,3.3-0.1c1.3,0.1,2.3,0.5,3.1,1c0.6,0.4,1,0.7,1.3,1.1
			l-2.4,1.4c-0.2-0.5-0.7-0.9-1.5-1.3c-0.6-0.4-1.5-0.6-2.3-0.7c-0.9-0.1-1.8-0.1-2.8,0.1c-0.9,0.2-1.8,0.4-2.5,0.8l-7.5,4.3
			l-2.2-1.3L245.1,1000.6z"/>
	</g>
</g>
</svg>
