<?xml version="1.0" encoding="utf-8"?>
<!-- Generator: Adobe Illustrator 24.2.1, SVG Export Plug-In . SVG Version: 6.00 Build 0)  -->
<svg version="1.1" id="Layer_1" xmlns="http://www.w3.org/2000/svg" xmlns:xlink="http://www.w3.org/1999/xlink" x="0px" y="0px"
	 viewBox="0 0 1137.5 848.9" style="enable-background:new 0 0 1137.5 848.9;" xml:space="preserve">
<style type="text/css">
	.st0{fill:#E7E8EB;}
	.st1{fill:#C9C9DC;}
	.st2{fill:url(#SVGID_1_);}
	.st3{fill:#FFFFFF;}
	.st4{fill:#383839;}
	.st5{fill:url(#SVGID_2_);}
	.st6{fill:#202023;}
	.st7{fill:#4D39AD;}
	.st8{opacity:0.4;}
	.st9{fill:url(#SVGID_3_);}
	.st10{fill:url(#SVGID_4_);}
	.st11{fill:url(#SVGID_5_);}
	.st12{fill:#F7F8FC;}
	.st13{fill:#CCDAF2;}
	.st14{fill:#F95C58;}
	.st15{fill:#68C900;}
	.st16{fill:#FFCF50;}
	.st17{opacity:0.3;fill:#FFFFFF;}
	.st18{fill:#277CFF;}
	.st19{opacity:0.5;fill:none;stroke:#FFFFFF;stroke-miterlimit:10;stroke-dasharray:4,3;}
</style>
<g>
	<g>
		<path class="st0" d="M185.8,334.3l-75.9-43.8c-4.6-2.7-7.2-6.2-7.3-9.8c-0.1-3.7,2.5-7.3,7.2-10l187.5-108.3
			c4.8-2.8,10.9-4.5,17-4.8c3.5-0.2,7,0.1,10.3,0.9c3.2,0.7,6.3,1.9,9,3.5l74.9,43.2c2.7,1.6,4.8,3.3,6.1,5.2c1.3,1.9,1.8,3.9,1.5,6
			c-0.5,3.5-3.4,7-8.3,9.8L220.2,334.3c-4.7,2.7-10.9,4.2-17.4,4.2C196.5,338.4,190.4,336.9,185.8,334.3L185.8,334.3z"/>
		<path class="st1" d="M400.1,206.1c-1.1-1-2.3-1.9-3.8-2.7l-74.9-43.2c-2.7-1.6-5.8-2.8-9-3.5c-3.3-0.8-6.8-1.1-10.3-0.9
			c-6.1,0.3-12.1,2-17,4.8L97.6,268.8c-1.6,0.9-3,2-4.1,3.1v-0.7h-3.1v7.6c0.1,3.7,2.7,7.2,7.3,9.8l75.9,43.8
			c4.6,2.7,10.7,4.2,17,4.2c6.5,0,12.7-1.4,17.4-4.2l187.5-108.3c4.8-2.8,7.8-6.3,8.3-9.8c0.1-0.4,0.1-0.7,0.1-1.1h0v-7.4H400.1z"/>
		
			<linearGradient id="SVGID_1_" gradientUnits="userSpaceOnUse" x1="-8037.0527" y1="6221.0015" x2="-7909.4995" y2="6221.0015" gradientTransform="matrix(0.866 0.5 -1 0.5774 13373.3447 633.5523)">
			<stop  offset="1.550722e-03" style="stop-color:#EAEAF1"/>
			<stop  offset="1" style="stop-color:#EEEFF4"/>
		</linearGradient>
		<path class="st2" d="M173.7,325l-75.9-43.8c-4.6-2.7-7.2-6.2-7.3-9.8c-0.1-3.7,2.5-7.3,7.2-10L285.2,153c4.8-2.8,10.9-4.5,17-4.8
			c3.5-0.2,7,0.1,10.3,0.9c3.2,0.7,6.3,1.9,9,3.5l74.9,43.2c2.7,1.6,4.8,3.3,6.1,5.2c1.3,1.9,1.8,3.9,1.5,6c-0.5,3.5-3.4,7-8.3,9.8
			L208.1,325c-4.7,2.7-10.9,4.2-17.4,4.2C184.3,329.1,178.3,327.6,173.7,325L173.7,325z"/>
		<g>
			<path class="st3" d="M304,149.1L304,149.1c2.8,0,5.6,0.3,8.2,0.9c3.1,0.7,6.1,1.9,8.7,3.4l74.9,43.2c2.6,1.5,4.5,3.2,5.7,4.9
				c1.2,1.7,1.6,3.5,1.4,5.2c-0.5,3.2-3.2,6.4-7.8,9.1L207.6,324.2c-4.5,2.6-10.4,4-16.6,4l-0.3,0c-6.2,0-12-1.5-16.5-4.1
				l-75.9-43.8c-4.3-2.5-6.7-5.7-6.8-9c-0.1-3.4,2.3-6.6,6.7-9.2l187.5-108.3c4.7-2.7,10.6-4.4,16.5-4.6
				C302.8,149.2,303.4,149.1,304,149.1 M304,148.1c-0.6,0-1.3,0-1.9,0c-6.1,0.3-12.1,2-17,4.8L97.6,261.2c-4.7,2.7-7.3,6.3-7.2,10
				c0.1,3.7,2.7,7.2,7.3,9.8l75.9,43.8c4.6,2.7,10.7,4.2,17,4.2c0.1,0,0.2,0,0.3,0c6.4,0,12.4-1.5,17.1-4.2l187.5-108.3
				c4.8-2.8,7.8-6.3,8.3-9.8c0.3-2-0.2-4-1.5-6c-1.3-1.9-3.3-3.6-6.1-5.2l-74.9-43.2c-2.7-1.6-5.8-2.8-9-3.5
				C309.7,148.5,306.9,148.1,304,148.1L304,148.1z"/>
		</g>
		<path class="st4" d="M178.5,322.4L102,278.2c-6.8-3.9-6.8-10.3,0-14.2l189.7-109.5c6.8-3.9,17.8-3.9,24.6,0l76.6,44.2
			c6.8,3.9,6.8,10.3,0,14.2L203.1,322.4C196.3,326.3,185.3,326.3,178.5,322.4L178.5,322.4z"/>
		
			<linearGradient id="SVGID_2_" gradientUnits="userSpaceOnUse" x1="-7973.3564" y1="6115.7949" x2="-7973.3564" y2="6325.897" gradientTransform="matrix(0.866 0.5 -1 0.5774 13373.3447 633.5523)">
			<stop  offset="6.045854e-03" style="stop-color:#4FB1FF"/>
			<stop  offset="1" style="stop-color:#427CFF"/>
		</linearGradient>
		<path class="st5" d="M391.1,200.2l-77.4-44.7c-5.3-3.1-14.1-3.1-19.4,0L103.6,265.6c-5.3,3.1-5.3,8.1,0,11.2l77.4,44.7
			c5.3,3.1,14.1,3.1,19.4,0l190.7-110.1C396.4,208.3,396.4,203.2,391.1,200.2z"/>
		<path class="st4" d="M323.8,163l-0.9,0.5c-3,1.7-3,4.5,0,6.2l43.5,25.1c3,1.7,7.8,1.7,10.8,0l1.4-0.8c0.7-0.2,1.6-0.1,2.2,0.2
			l2-1.2l-56.9-32.9l-2.1,1.2C324.6,161.8,324.6,162.5,323.8,163z"/>
		<path class="st6" d="M355.4,183.1l-11.7-6.8c-0.5-0.3-0.5-0.7,0-1l0.1-0.1c0.5-0.3,1.3-0.3,1.7,0l11.7,6.8c0.5,0.3,0.5,0.7,0,1
			l-0.1,0.1C356.6,183.4,355.8,183.4,355.4,183.1L355.4,183.1z"/>
		<path class="st7" d="M363.8,187c-0.9,0.5-2.4,0.5-3.4,0c-0.9-0.5-0.9-1.4,0-1.9c0.9-0.5,2.4-0.5,3.4,0
			C364.8,185.6,364.8,186.5,363.8,187z"/>
	</g>
	<g class="st8">
		<g>
			<path class="st3" d="M143.9,268.2l-11.3-6.5c-2.1-1.2-5.4-1.2-7.5,0l-11.3,6.5c-2.1,1.2-2.1,3.1,0,4.3l11.3,6.5
				c2.1,1.2,5.4,1.2,7.5,0l11.3-6.5C146,271.3,146,269.4,143.9,268.2z"/>
			<path class="st3" d="M165.4,280.6l-11.3-6.5c-2.1-1.2-5.4-1.2-7.5,0l-11.3,6.5c-2.1,1.2-2.1,3.1,0,4.3l11.3,6.5
				c2.1,1.2,5.4,1.2,7.5,0l11.3-6.5C167.5,283.7,167.5,281.8,165.4,280.6z"/>
			<path class="st3" d="M186.9,293l-11.3-6.5c-2.1-1.2-5.4-1.2-7.5,0l-11.3,6.5c-2.1,1.2-2.1,3.1,0,4.3l11.3,6.5
				c2.1,1.2,5.4,1.2,7.5,0l11.3-6.5C188.9,296.1,188.9,294.2,186.9,293z"/>
			<path class="st3" d="M208.3,305.4l-11.3-6.5c-2.1-1.2-5.4-1.2-7.5,0l-11.3,6.5c-2.1,1.2-2.1,3.1,0,4.3l11.3,6.5
				c2.1,1.2,5.4,1.2,7.5,0l11.3-6.5C210.4,308.5,210.4,306.6,208.3,305.4z"/>
		</g>
		<g>
			<path class="st3" d="M309.6,172.5l-11.3-6.5c-2.1-1.2-5.4-1.2-7.5,0l-11.3,6.5c-2.1,1.2-2.1,3.1,0,4.3l11.3,6.5
				c2.1,1.2,5.4,1.2,7.5,0l11.3-6.5C311.7,175.7,311.7,173.7,309.6,172.5z"/>
			<path class="st3" d="M331.1,184.9l-11.3-6.5c-2.1-1.2-5.4-1.2-7.5,0l-11.3,6.5c-2.1,1.2-2.1,3.1,0,4.3l11.3,6.5
				c2.1,1.2,5.4,1.2,7.5,0l11.3-6.5C333.2,188.1,333.2,186.1,331.1,184.9z"/>
			<path class="st3" d="M352.6,197.3l-11.3-6.5c-2.1-1.2-5.4-1.2-7.5,0l-11.3,6.5c-2.1,1.2-2.1,3.1,0,4.3l11.3,6.5
				c2.1,1.2,5.4,1.2,7.5,0l11.3-6.5C354.6,200.5,354.6,198.5,352.6,197.3z"/>
			<path class="st3" d="M374,209.7l-11.3-6.5c-2.1-1.2-5.4-1.2-7.5,0l-11.3,6.5c-2.1,1.2-2.1,3.1,0,4.3l11.3,6.5
				c2.1,1.2,5.4,1.2,7.5,0L374,214C376.1,212.8,376.1,210.9,374,209.7z"/>
		</g>
		<g>
			<path class="st3" d="M288.2,184.9l-11.3-6.5c-2.1-1.2-5.4-1.2-7.5,0l-11.3,6.5c-2.1,1.2-2.1,3.1,0,4.3l11.3,6.5
				c2.1,1.2,5.4,1.2,7.5,0l11.3-6.5C290.2,188.1,290.2,186.1,288.2,184.9z"/>
			<path class="st3" d="M309.6,197.3l-11.3-6.5c-2.1-1.2-5.4-1.2-7.5,0l-11.3,6.5c-2.1,1.2-2.1,3.1,0,4.3l11.3,6.5
				c2.1,1.2,5.4,1.2,7.5,0l11.3-6.5C311.7,200.5,311.7,198.5,309.6,197.3z"/>
			<path class="st3" d="M331.1,209.7l-11.3-6.5c-2.1-1.2-5.4-1.2-7.5,0l-11.3,6.5c-2.1,1.2-2.1,3.1,0,4.3l11.3,6.5
				c2.1,1.2,5.4,1.2,7.5,0l11.3-6.5C333.2,212.8,333.2,210.9,331.1,209.7z"/>
			<path class="st3" d="M352.6,222.1l-11.3-6.5c-2.1-1.2-5.4-1.2-7.5,0l-11.3,6.5c-2.1,1.2-2.1,3.1,0,4.3l11.3,6.5
				c2.1,1.2,5.4,1.2,7.5,0l11.3-6.5C354.6,225.2,354.6,223.3,352.6,222.1z"/>
		</g>
		<g>
			<path class="st3" d="M266.7,197.3l-11.3-6.5c-2.1-1.2-5.4-1.2-7.5,0l-11.3,6.5c-2.1,1.2-2.1,3.1,0,4.3l11.3,6.5
				c2.1,1.2,5.4,1.2,7.5,0l11.3-6.5C268.8,200.5,268.8,198.5,266.7,197.3z"/>
			<path class="st3" d="M288.2,209.7l-11.3-6.5c-2.1-1.2-5.4-1.2-7.5,0l-11.3,6.5c-2.1,1.2-2.1,3.1,0,4.3l11.3,6.5
				c2.1,1.2,5.4,1.2,7.5,0l11.3-6.5C290.2,212.8,290.2,210.9,288.2,209.7z"/>
			<path class="st3" d="M309.6,222.1l-11.3-6.5c-2.1-1.2-5.4-1.2-7.5,0l-11.3,6.5c-2.1,1.2-2.1,3.1,0,4.3l11.3,6.5
				c2.1,1.2,5.4,1.2,7.5,0l11.3-6.5C311.7,225.2,311.7,223.3,309.6,222.1z"/>
			<path class="st3" d="M331.1,234.5l-11.3-6.5c-2.1-1.2-5.4-1.2-7.5,0l-11.3,6.5c-2.1,1.2-2.1,3.1,0,4.3l11.3,6.5
				c2.1,1.2,5.4,1.2,7.5,0l11.3-6.5C333.2,237.6,333.2,235.7,331.1,234.5z"/>
		</g>
		<g>
			<path class="st3" d="M245.2,209.7l-11.3-6.5c-2.1-1.2-5.4-1.2-7.5,0l-11.3,6.5c-2.1,1.2-2.1,3.1,0,4.3l11.3,6.5
				c2.1,1.2,5.4,1.2,7.5,0l11.3-6.5C247.3,212.8,247.3,210.9,245.2,209.7z"/>
			<path class="st3" d="M266.7,222.1l-11.3-6.5c-2.1-1.2-5.4-1.2-7.5,0l-11.3,6.5c-2.1,1.2-2.1,3.1,0,4.3l11.3,6.5
				c2.1,1.2,5.4,1.2,7.5,0l11.3-6.5C268.8,225.2,268.8,223.3,266.7,222.1z"/>
			<path class="st3" d="M288.2,234.5l-11.3-6.5c-2.1-1.2-5.4-1.2-7.5,0l-11.3,6.5c-2.1,1.2-2.1,3.1,0,4.3l11.3,6.5
				c2.1,1.2,5.4,1.2,7.5,0l11.3-6.5C290.2,237.6,290.2,235.7,288.2,234.5z"/>
		</g>
	</g>
</g>
<g>
	<path class="st0" d="M1052.4,597.3l-102.9-59.4c-1.9-1.1-5.3-1-7.5,0.3L746.1,651.2c-2.2,1.3-2.5,3.2-0.5,4.4l93.3,53.8l-1.6,0.2
		l3.8,6.1h10.6l0,0c1.5,0,3.2-0.3,4.4-1l195.8-113.1C1054.1,600.4,1054.3,598.4,1052.4,597.3z"/>
	<path class="st1" d="M1042.9,591.6l-10-3.1l-0.2,3.6l-94-54.3c-1.9-1.1-5.3-1-7.5,0.3L744.7,645.8l-0.4-3.9l-10.8,4.2v7.7l0,0
		c0,0.7,0.5,1.3,1.3,1.8L837.7,715c1.9,1.1,5.3,1,7.5-0.3L1041,601.7c1.2-0.7,1.8-1.6,1.8-2.5l0,0V591.6z"/>
	
		<linearGradient id="SVGID_3_" gradientUnits="userSpaceOnUse" x1="-947.0209" y1="-144.9683" x2="-705.7652" y2="-144.9683" gradientTransform="matrix(0.866 0.5 -1.5 0.2887 1386.3624 1073.9017)">
		<stop  offset="1.550722e-03" style="stop-color:#EAEAF1"/>
		<stop  offset="1" style="stop-color:#EEEFF4"/>
	</linearGradient>
	<path class="st9" d="M837.7,707.4L734.7,648c-1.9-1.1-1.7-3.1,0.5-4.4l195.8-113.1c2.2-1.3,5.6-1.4,7.5-0.3l102.9,59.4
		c1.9,1.1,1.7,3.1-0.5,4.4L845.2,707.1C843,708.4,839.6,708.5,837.7,707.4z"/>
	<g>
		<path class="st3" d="M935.3,530.5L935.3,530.5c1.1,0,2.1,0.2,2.8,0.6l102.9,59.4c0.3,0.2,0.8,0.5,0.8,1c0,0.5-0.5,1.1-1.3,1.6
			L844.7,706.3c-1,0.6-2.4,0.9-3.8,0.9c-1.1,0-2.1-0.2-2.8-0.6l-102.9-59.4c-0.3-0.2-0.8-0.5-0.8-1c0-0.5,0.5-1.1,1.3-1.6
			l195.8-113.1C932.6,530.9,934,530.5,935.3,530.5 M935.3,529.5c-1.5,0-3,0.4-4.3,1.1L735.3,643.6c-2.2,1.3-2.5,3.2-0.5,4.4
			l102.9,59.4c0.9,0.5,2,0.8,3.3,0.8c1.5,0,3-0.4,4.3-1.1L1041,594.1c2.2-1.3,2.5-3.2,0.5-4.4l-102.9-59.4
			C937.7,529.8,936.6,529.5,935.3,529.5L935.3,529.5z"/>
	</g>
	<path class="st4" d="M838.9,703.3l-97-56c-1-0.6-0.8-1.5,0.3-2.2l191.4-110.5c1.1-0.6,2.8-0.7,3.8-0.2l97,56c1,0.6,0.8,1.5-0.3,2.2
		L842.7,703.1C841.6,703.8,839.9,703.8,838.9,703.3z"/>
	
		<linearGradient id="SVGID_4_" gradientUnits="userSpaceOnUse" x1="-826.3931" y1="-240.8112" x2="-826.3931" y2="-49.1253" gradientTransform="matrix(0.866 0.5 -1.5 0.2887 1386.3624 1073.9017)">
		<stop  offset="6.045854e-03" style="stop-color:#4FB1FF"/>
		<stop  offset="1" style="stop-color:#427CFF"/>
	</linearGradient>
	<path class="st10" d="M838.9,701.1l-93.3-53.9c-1-0.6-0.8-1.5,0.3-2.2l187.6-108.3c1.1-0.6,2.8-0.7,3.8-0.2l93.3,53.9
		c1,0.6,0.8,1.5-0.3,2.2L842.7,701C841.6,701.6,839.9,701.7,838.9,701.1z"/>
	<g class="st8">
		<g>
			<path class="st3" d="M791.9,637.2L791.9,637.2c-5.2-3-13.6-3-18.8,0h0c-5.2,3-5.2,7.9,0,10.8l0,0c5.2,3,13.6,3,18.8,0l0,0
				C797.1,645.1,797.1,640.2,791.9,637.2z"/>
			<path class="st3" d="M813.4,649.6L813.4,649.6c-5.2-3-13.6-3-18.8,0h0c-5.2,3-5.2,7.9,0,10.9h0c5.2,3,13.6,3,18.8,0l0,0
				C818.5,657.5,818.5,652.6,813.4,649.6z"/>
			<path class="st3" d="M834.8,662L834.8,662c-5.2-3-13.6-3-18.8,0h0c-5.2,3-5.2,7.9,0,10.9h0c5.2,3,13.6,3,18.8,0l0,0
				C840,669.9,840,665,834.8,662z"/>
			<path class="st3" d="M856.3,674.4L856.3,674.4c-5.2-3-13.6-3-18.8,0h0c-5.2,3-5.2,7.9,0,10.9l0,0c5.2,3,13.6,3,18.8,0h0
				C861.5,682.3,861.5,677.4,856.3,674.4z"/>
		</g>
		<g>
			<path class="st3" d="M938.8,552.4L938.8,552.4c-5.2-3-13.6-3-18.8,0l0,0c-5.2,3-5.2,7.9,0,10.9l0,0c5.2,3,13.6,3,18.8,0v0
				C944,560.3,944,555.4,938.8,552.4z"/>
			<path class="st3" d="M960.2,564.8L960.2,564.8c-5.2-3-13.6-3-18.8,0l0,0c-5.2,3-5.2,7.9,0,10.9l0,0c5.2,3,13.6,3,18.8,0l0,0
				C965.4,572.7,965.4,567.8,960.2,564.8z"/>
			<path class="st3" d="M981.7,577.2L981.7,577.2c-5.2-3-13.6-3-18.8,0v0c-5.2,3-5.2,7.9,0,10.8l0,0c5.2,3,13.6,3,18.8,0l0,0
				C986.9,585.1,986.9,580.2,981.7,577.2z"/>
			<path class="st3" d="M1003.2,589.6L1003.2,589.6c-5.2-3-13.6-3-18.8,0l0,0c-5.2,3-5.2,7.9,0,10.9l0,0c5.2,3,13.6,3,18.8,0l0,0
				C1008.4,597.5,1008.4,592.6,1003.2,589.6z"/>
		</g>
		<g>
			<path class="st3" d="M917.3,564.8L917.3,564.8c-5.2-3-13.6-3-18.8,0v0c-5.2,3-5.2,7.9,0,10.8l0,0c5.2,3,13.6,3,18.8,0h0
				C922.5,572.7,922.5,567.8,917.3,564.8z"/>
			<path class="st3" d="M938.8,577.2L938.8,577.2c-5.2-3-13.6-3-18.8,0l0,0c-5.2,3-5.2,7.9,0,10.9l0,0c5.2,3,13.6,3,18.8,0l0,0
				C944,585.1,944,580.2,938.8,577.2z"/>
			<path class="st3" d="M960.2,589.6L960.2,589.6c-5.2-3-13.6-3-18.8,0l0,0c-5.2,3-5.2,7.9,0,10.9l0,0c5.2,3,13.6,3,18.8,0l0,0
				C965.4,597.5,965.4,592.6,960.2,589.6z"/>
			<path class="st3" d="M981.7,602L981.7,602c-5.2-3-13.6-3-18.8,0l0,0c-5.2,3-5.2,7.9,0,10.8v0c5.2,3,13.6,3,18.8,0l0,0
				C986.9,609.9,986.9,605,981.7,602z"/>
		</g>
		<g>
			<path class="st3" d="M895.9,577.2L895.9,577.2c-5.2-3-13.6-3-18.8,0h0c-5.2,3-5.2,7.9,0,10.9h0c5.2,3,13.6,3,18.8,0l0,0
				C901.1,585.1,901.1,580.2,895.9,577.2z"/>
			<path class="st3" d="M917.3,589.6L917.3,589.6c-5.2-3-13.6-3-18.8,0h0c-5.2,3-5.2,7.9,0,10.8l0,0c5.2,3,13.6,3,18.8,0h0
				C922.5,597.5,922.5,592.6,917.3,589.6z"/>
			<path class="st3" d="M938.8,602L938.8,602c-5.2-3-13.6-3-18.8,0l0,0c-5.2,3-5.2,7.9,0,10.9l0,0c5.2,3,13.6,3,18.8,0h0
				C944,609.9,944,605,938.8,602z"/>
			<path class="st3" d="M960.2,614.4L960.2,614.4c-5.2-3-13.6-3-18.8,0l0,0c-5.2,3-5.2,7.9,0,10.9l0,0c5.2,3,13.6,3,18.8,0l0,0
				C965.4,622.3,965.4,617.4,960.2,614.4z"/>
		</g>
		<g>
			<path class="st3" d="M874.4,589.6L874.4,589.6c-5.2-3-13.6-3-18.8,0l0,0c-5.2,3-5.2,7.9,0,10.9l0,0c5.2,3,13.6,3,18.8,0l0,0
				C879.6,597.5,879.6,592.6,874.4,589.6z"/>
			<path class="st3" d="M895.9,602L895.9,602c-5.2-3-13.6-3-18.8,0l0,0c-5.2,3-5.2,7.9,0,10.9l0,0c5.2,3,13.6,3,18.8,0v0
				C901.1,609.9,901.1,605,895.9,602z"/>
			<path class="st3" d="M917.3,614.4L917.3,614.4c-5.2-3-13.6-3-18.8,0h0c-5.2,3-5.2,7.9,0,10.9h0c5.2,3,13.6,3,18.8,0l0,0
				C922.5,622.3,922.5,617.4,917.3,614.4z"/>
		</g>
	</g>
</g>
<g>
	<path class="st0" d="M1135.2,400.8l-187-107.9c-3.3-1.9-9.1-1.7-13,0.5l-9.8,5.7l-118.4,68.4c-3.8,2.2-4.3,5.6-0.9,7.5l187,107.9
		c3.3,1.9,9.1,1.7,13-0.5l118.4-68.4l9.8-5.7C1138.1,406,1138.6,402.7,1135.2,400.8z"/>
	
		<linearGradient id="SVGID_5_" gradientUnits="userSpaceOnUse" x1="-1267.3558" y1="-472.9211" x2="-968.1547" y2="-472.9211" gradientTransform="matrix(0.866 0.5 -1.5 0.2887 1219.653 1076.4982)">
		<stop  offset="6.045854e-03" style="stop-color:#4FB1FF"/>
		<stop  offset="1" style="stop-color:#427CFF"/>
	</linearGradient>
	<path class="st11" d="M993.1,472L806.2,364c-3.3-1.9-2.9-5.3,0.9-7.5l118.4-68.4l199,114.9l-118.4,68.4
		C1002.2,473.7,996.4,473.9,993.1,472z"/>
	<path class="st12" d="M1124.5,403.1l-199-114.9l9.8-5.7c3.8-2.2,9.6-2.5,13-0.5l187,107.9c3.3,1.9,2.9,5.3-0.9,7.5L1124.5,403.1z"
		/>
	<path class="st13" d="M1082.5,373.6l-116.9-67.5c-1.8-1.1-1.6-2.9,0.5-4.1l0,0c2.1-1.2,5.3-1.3,7.1-0.3l116.9,67.5
		c1.8,1.1,1.6,2.9-0.5,4.1l0,0C1087.5,374.5,1084.3,374.6,1082.5,373.6z"/>
	<path class="st14" d="M939.9,290.2L939.9,290.2c-1.4-0.8-1.2-2.2,0.4-3.1l0,0c1.6-0.9,4-1,5.4-0.2v0c1.4,0.8,1.2,2.2-0.4,3.1l0,0
		C943.7,290.9,941.3,291,939.9,290.2z"/>
	<path class="st15" d="M947,294.3L947,294.3c-1.4-0.8-1.2-2.2,0.4-3.1l0,0c1.6-0.9,4-1,5.4-0.2l0,0c1.4,0.8,1.2,2.2-0.4,3.1l0,0
		C950.8,295,948.3,295.1,947,294.3z"/>
	<path class="st16" d="M954,298.3L954,298.3c-1.4-0.8-1.2-2.2,0.4-3.1h0c1.6-0.9,4-1,5.4-0.2l0,0c1.4,0.8,1.2,2.2-0.4,3.1l0,0
		C957.8,299,955.4,299.1,954,298.3z"/>
	<path class="st13" d="M1121.8,396.3l-27.3-15.8c-1.8-1.1-1.6-2.9,0.5-4.1l0,0c2.1-1.2,5.3-1.3,7.1-0.3l27.3,15.8
		c1.8,1.1,1.6,2.9-0.5,4.1l0,0C1126.8,397.2,1123.6,397.3,1121.8,396.3z"/>
	<g>
		<path class="st17" d="M922.2,349.5l-32-18.5c-2.9-1.7-2.6-4.7,0.8-6.6l30.4-17.5c3.4-2,8.5-2.2,11.5-0.5l32,18.5
			c2.9,1.7,2.6,4.7-0.8,6.6l-30.4,17.5C930.3,351,925.2,351.2,922.2,349.5z"/>
		<g>
			<path class="st3" d="M881.2,372.9l-32-18.5c-2.9-1.7-2.6-4.7,0.8-6.6l24.6-14.2c3.4-2,8.5-2.2,11.5-0.5l32,18.5
				c2.9,1.7,2.6,4.7-0.8,6.6l-24.6,14.2C889.3,374.3,884.2,374.6,881.2,372.9z"/>
			<g>
				<path class="st18" d="M904.6,357.1l-28-16.2c-1.1-0.6-1-1.8,0.3-2.5l0,0c1.3-0.7,3.2-0.8,4.3-0.2l28,16.2c1.1,0.6,1,1.8-0.3,2.5
					l0,0C907.6,357.6,905.7,357.7,904.6,357.1z"/>
				<path class="st18" d="M895.3,362.4l-28-16.2c-1.1-0.6-1-1.8,0.3-2.5l0,0c1.3-0.7,3.2-0.8,4.3-0.2l28,16.2c1.1,0.6,1,1.8-0.3,2.5
					h0C898.3,363,896.4,363.1,895.3,362.4z"/>
				<path class="st18" d="M864.7,355.4l-6.6-3.8c-1.1-0.6-1-1.8,0.3-2.5l0,0c1.3-0.7,3.2-0.8,4.3-0.2l6.6,3.8c1.1,0.6,1,1.8-0.3,2.5
					h0C867.7,356,865.8,356,864.7,355.4z"/>
			</g>
		</g>
		<path class="st19" d="M862.4,383.9l-32-18.5c-2.9-1.7-2.6-4.7,0.8-6.6l0.8-0.5c3.4-2,8.5-2.2,11.5-0.5l32,18.5
			c2.9,1.7,2.6,4.7-0.8,6.6l-0.8,0.5C870.5,385.4,865.3,385.6,862.4,383.9z"/>
	</g>
	<g>
		<path class="st17" d="M985.1,385.2l-32-18.5c-2.9-1.7-2.6-4.7,0.8-6.6l30.4-17.5c3.4-2,8.5-2.2,11.5-0.5l32,18.5
			c2.9,1.7,2.6,4.7-0.8,6.6l-30.4,17.5C993.1,386.7,988,386.9,985.1,385.2z"/>
		<g>
			<path class="st3" d="M944.1,408.5l-32-18.5c-2.9-1.7-2.6-4.7,0.8-6.6l24.6-14.2c3.4-2,8.5-2.2,11.5-0.5l32,18.5
				c2.9,1.7,2.6,4.7-0.8,6.6l-24.6,14.2C952.2,410,947,410.2,944.1,408.5z"/>
			<g>
				<path class="st18" d="M967.4,392.8l-28-16.2c-1.1-0.6-1-1.8,0.3-2.5l0,0c1.3-0.7,3.2-0.8,4.3-0.2l28,16.2c1.1,0.6,1,1.8-0.3,2.5
					l0,0C970.4,393.3,968.5,393.4,967.4,392.8z"/>
				<path class="st18" d="M958.2,398.1l-28-16.2c-1.1-0.6-1-1.8,0.3-2.5v0c1.3-0.7,3.2-0.8,4.3-0.2l28,16.2c1.1,0.6,1,1.8-0.3,2.5
					l0,0C961.2,398.7,959.3,398.8,958.2,398.1z"/>
				<path class="st18" d="M927.5,391.1l-6.6-3.8c-1.1-0.6-1-1.8,0.3-2.5l0,0c1.3-0.7,3.2-0.8,4.3-0.2l6.6,3.8c1.1,0.6,1,1.8-0.3,2.5
					l0,0C930.5,391.7,928.6,391.7,927.5,391.1z"/>
			</g>
		</g>
		<path class="st19" d="M925.2,419.6l-32-18.5c-2.9-1.7-2.6-4.7,0.8-6.6l0.8-0.5c3.4-2,8.5-2.2,11.5-0.5l32,18.5
			c2.9,1.7,2.6,4.7-0.8,6.6l-0.8,0.5C933.3,421,928.2,421.3,925.2,419.6z"/>
	</g>
	<g>
		<path class="st17" d="M1045.2,420.6l-32-18.5c-2.9-1.7-2.6-4.7,0.8-6.6l30.4-17.5c3.4-2,8.5-2.2,11.5-0.5l32,18.5
			c2.9,1.7,2.6,4.7-0.8,6.6l-30.4,17.5C1053.3,422.1,1048.1,422.3,1045.2,420.6z"/>
		<g>
			<path class="st3" d="M1004.2,444l-32-18.5c-2.9-1.7-2.6-4.7,0.8-6.6l24.6-14.2c3.4-2,8.5-2.2,11.5-0.5l32,18.5
				c2.9,1.7,2.6,4.7-0.8,6.6l-24.6,14.2C1012.3,445.4,1007.1,445.7,1004.2,444z"/>
			<g>
				<path class="st18" d="M1027.5,428.2l-28-16.2c-1.1-0.6-1-1.8,0.3-2.5h0c1.3-0.7,3.2-0.8,4.3-0.2l28,16.2c1.1,0.6,1,1.8-0.3,2.5
					l0,0C1030.5,428.8,1028.6,428.8,1027.5,428.2z"/>
				<path class="st18" d="M1018.3,433.5l-28-16.2c-1.1-0.6-1-1.8,0.3-2.5l0,0c1.3-0.7,3.2-0.8,4.3-0.2l28,16.2
					c1.1,0.6,1,1.8-0.3,2.5l0,0C1021.3,434.1,1019.4,434.2,1018.3,433.5z"/>
				<path class="st18" d="M987.6,426.5l-6.6-3.8c-1.1-0.6-1-1.8,0.3-2.5l0,0c1.3-0.7,3.2-0.8,4.3-0.2l6.6,3.8c1.1,0.6,1,1.8-0.3,2.5
					l0,0C990.7,427.1,988.7,427.2,987.6,426.5z"/>
			</g>
		</g>
		<path class="st19" d="M985.3,455l-32-18.5c-2.9-1.7-2.6-4.7,0.8-6.6l0.8-0.5c3.4-2,8.5-2.2,11.5-0.5l32,18.5
			c2.9,1.7,2.6,4.7-0.8,6.6l-0.8,0.5C993.4,456.5,988.3,456.7,985.3,455z"/>
	</g>
</g>
</svg>
