<?xml version="1.0" encoding="utf-8"?>
<!-- Generator: Adobe Illustrator 24.2.3, SVG Export Plug-In . SVG Version: 6.00 Build 0)  -->
<svg version="1.1" id="Layer_1" xmlns="http://www.w3.org/2000/svg" xmlns:xlink="http://www.w3.org/1999/xlink" x="0px" y="0px"
	 viewBox="0 0 566.1 1882.2" style="enable-background:new 0 0 566.1 1882.2;" xml:space="preserve">
<style type="text/css">
	.st0{fill:#C9C9DC;}
	.st1{fill:#FFFFFF;}
	.st2{fill:#0074BB;}
	.st3{fill:#E82D2E;}
	.st4{fill:#F05138;}
	.st5{fill:#35495E;}
	.st6{fill:none;}
	.st7{fill:#42B681;}
</style>
<ellipse class="st0" cx="393.3" cy="1251.8" rx="65.5" ry="37.8"/>
<ellipse class="st1" cx="393.3" cy="1245.8" rx="65.5" ry="37.8"/>
<g>
	<path class="st2" d="M389.2,1241c0,0-2.7-0.4-0.1,1.4c3.1,2.2,4.9,3.2,9.5,5c0,0,0.4,1,1.2,2.1
		C387.5,1246.7,380.6,1238.2,389.2,1241z M393,1237.6c0,0-3.3-0.3-0.7,1.6c3.3,2.4,6.3,4.1,12.3,6.5c0,0,0,0.8,0.7,1.7
		C391.9,1243.1,383.1,1234.7,393,1237.6z"/>
	<path class="st3" d="M410.1,1238c-0.3,2.6-5.2,2.4-5.2,2.4s8.2,1.5,9.2-1.9c0.9-3.2,0.8-5.2,16-2.8
		C430,1235.6,411.2,1229.1,410.1,1238z"/>
	<path class="st2" d="M404.9,1254.2c0,0,0.2,1.3-3.2,0.3c-6.5-2-22.7-10.8-25.2-14.5c-0.9-1.3,3-0.1,4.1,0.3
		c1.2,0.4,1.7,0.8,1.7,0.8c-0.5-1.7-13.7-5.1-8.3-0.8C388.8,1252,407.4,1258,404.9,1254.2z M399.9,1235.8c0,0-9.9-3.5-5.4-0.1
		c1.9,1.4,6.3,3.9,10.7,6c3.6,1.8,7.5,3.3,7.5,3.3s-1.7-0.4-3.1-0.5c-10.3-3.5-25-13.1-18.3-11.8
		C397,1233.9,399.9,1235.8,399.9,1235.8z M406.2,1248.7c12.6,2.3,12.9-2.3,9.6-3.5c-0.8-0.3-1.2-0.4-1.2-0.4s0.6-0.1,1.3,0.1
		c7.1,2,3.9,8.5-10.1,3.9C405.8,1248.8,406.1,1248.8,406.2,1248.7z"/>
	<path class="st3" d="M433.5,1227.2c0,0,0,5.3-16,4.2c-12.8-0.9-10.5,4.2-12.6,7.2c-0.4-4.6-0.2-8.3,5-8.9
		C417.5,1228.9,428.1,1232.5,433.5,1227.2z"/>
	<path class="st2" d="M381,1247.6c7.4,4.9,20.4,11.5,24.4,9.5c0,0-2,0.5-9.1-2.3c-8-3.2-16.3-8.1-20.4-11.4
		C375.9,1243.4,376.1,1244.4,381,1247.6z"/>
	<path class="st3" d="M394.3,1263.1l-0.2-0.1l0.1-0.1l0.7,0.4l-0.1,0.1l-0.2-0.1l-0.7,0.4l-0.2-0.1L394.3,1263.1z M395.6,1263.9
		L395.6,1263.9l-0.9,0.2l-0.1-0.1l0.4-0.5l0,0l-0.6,0.4l-0.2-0.1l0.8-0.5l0.2,0.1l-0.4,0.5l0.8-0.2l0.2,0.1l-0.8,0.5l-0.2-0.1
		L395.6,1263.9z M365.4,1255.2c-1.4-0.1-2.6-0.3-3.3-0.7c-1-0.6-1-1.3,0-1.8c1.1-0.6,2.4-0.7,4.8,0.6l0.9,0.5L365.4,1255.2
		L365.4,1255.2z M365.1,1257.7l7.2-4.2c1.8-1.1,2-2.4-0.5-3.8c-1.5-0.9-3.1-1.4-4.7-1.7l-1,0.9c1.1,0.3,2.5,0.8,3.5,1.4
		c1.5,0.8,1.5,1.5,0.3,2.2l-0.9,0.5l-0.7-0.4c-3.5-2-6.5-2.2-8.6-1c-1.8,1-1.7,2.2,0.2,3.4c1.3,0.7,2.8,1,4.4,1.1l-0.9,0.7
		L365.1,1257.7C365.1,1257.7,365.1,1257.7,365.1,1257.7z M372,1261.7l-2.6-1.5l7-7.6l2.2,1.3l-4.3,4.7l-1.4,1.3
		c3.7-1,7.1-2.2,10.1-3.5l2.2,1.3C381.3,1259.2,376.6,1260.7,372,1261.7z M384.2,1266c-1.4-0.1-2.6-0.3-3.3-0.7c-1-0.6-1-1.3,0-1.8
		c1.1-0.6,2.4-0.7,4.8,0.6l0.9,0.5L384.2,1266L384.2,1266z M383.9,1268.6l7.2-4.2c1.8-1.1,2-2.4-0.5-3.8c-1.5-0.9-3.1-1.4-4.7-1.7
		l-1,0.9c1.1,0.3,2.5,0.8,3.5,1.4c1.5,0.8,1.5,1.5,0.3,2.2l-0.9,0.5l-0.7-0.4c-3.5-2-6.5-2.2-8.6-1c-1.8,1-1.7,2.2,0.2,3.4
		c1.3,0.7,2.8,1,4.4,1.1l-0.9,0.7L383.9,1268.6L383.9,1268.6z M353.2,1252.8c-1.4,0.2-3.1,0-4.5-0.4l0.2-1.3
		c1.2,0.2,2.5,0.2,3.5,0.1c0.8-0.2,1.6-0.5,3.3-1.5l11.5-6.7l2.2,1.3l-11.4,6.6C355.7,1252.2,354.6,1252.6,353.2,1252.8z"/>
</g>
<ellipse class="st0" cx="120.5" cy="1389.2" rx="65.5" ry="37.8"/>
<ellipse class="st1" cx="120.5" cy="1383.1" rx="65.5" ry="37.8"/>
<path class="st4" d="M136.3,1398.1c0.4-0.1,0.7-0.3,1.1-0.3c14.4-4.5,19.6-16.8,13.3-28.4c-0.9,7.3-6.8,13.6-16.3,16.6
	c-0.9,0.2-1.6,0.5-2.7,0.7c-0.1-0.2-0.3-0.6-0.6-1c0,0-6.1-11.8-8-27.3c-0.1-0.4-2.3,10.2-1.5,20.3c-2.3-3.7-6.6-15-8.2-22.8
	c-0.4,1.3-0.5,2.7-0.6,4.1c-0.6,7.6-1,17.4,2.4,27c-10.6-1.9-20.8-7.4-26.6-15.4c-1.3-2-2.6-4-3.3-6c-1.6,5.8-0.2,12.2,4.7,18.5
	c5.9,7.3,15.3,12.5,25.2,14.7l0.1,0.1c0.4,0.1,0.8,0.2,1.2,0.2c4.8,1,12.8,4,10.4,9.4C126.4,1409.4,136,1406,136.3,1398.1
	L136.3,1398.1z"/>
<ellipse class="st0" cx="432.9" cy="252.6" rx="70.2" ry="40.5"/>
<ellipse class="st1" cx="432.9" cy="246.1" rx="70.2" ry="40.5"/>
<g>
	<path class="st5" d="M399.7,250.5c-0.2-0.1-0.4-0.2-0.6-0.2c-0.2,0-0.5,0-0.7,0.1c0,0-0.1,0-0.2,0.1l0,0l-6.3,6.9
		c-0.1,0.1-0.1,0.3-0.1,0.4c0.1,0.1,0.2,0.2,0.3,0.3c0.3,0.2,0.8,0.3,1.2,0.2l0,0l11.9-3.7l0,0c0,0,0,0,0.1,0
		c0.2-0.1,0.2-0.3,0.2-0.4c0-0.1-0.2-0.3-0.3-0.4c-0.2-0.1-0.6-0.2-0.9-0.1l0,0l-9.8,3.1l5.3-5.7c0.1-0.1,0.1-0.2,0.1-0.3
		C399.9,250.6,399.8,250.6,399.7,250.5L399.7,250.5z M421.6,263.7c-0.4-0.3-1.2-0.3-1.6,0c-0.4,0.2-0.4,0.7,0,0.9
		c0.4,0.3,1.2,0.3,1.6,0C422,264.3,422,263.9,421.6,263.7z M412.1,261.5c-1.5-0.9-4-0.9-5.5-0.1l-1.5,0.9c-0.8,0.5-1.2,1.1-1.1,1.7
		c0.1,0.6,0.6,1.2,1.5,1.7c0.7,0.4,1.3,0.6,1.9,0.7c0.3,0.1,0.6,0.1,0.8,0.1s0.5,0,0.6-0.1c0.2-0.1,0.2-0.2,0.3-0.3
		c0-0.1,0-0.3-0.2-0.4c-0.1-0.1-0.3-0.1-0.5-0.1c-0.2,0-0.3,0-0.5-0.1c-0.3-0.1-0.7-0.1-1.2-0.4c-0.5-0.3-0.9-0.7-0.9-1
		c-0.1-0.3,0.1-0.7,0.6-0.9l0.3-0.2l2.8,1.6c0.3,0.2,0.6,0.4,1.1,0.4c0.5,0.1,1-0.1,1.6-0.4C413.7,263.8,413.5,262.4,412.1,261.5
		L412.1,261.5z M422.7,267.7c-0.8-0.5-1.7-0.7-2.4-0.7c-0.8,0-1.5,0.2-1.9,0.5c-0.6,0.4-0.8,0.7-0.7,1.1c0.1,0.4,0.4,0.7,0.7,1
		c0.3,0.3,0.6,0.6,0.7,0.9c0.1,0.3,0.1,0.4-0.3,0.7c-0.2,0.1-0.4,0.2-0.7,0.2c-0.3,0-0.7-0.1-1.2-0.4c-0.6-0.3-0.7-0.6-0.8-0.8
		c0-0.1-0.1-0.2-0.1-0.3c0-0.1-0.1-0.2-0.2-0.3c-0.2-0.1-0.4-0.1-0.6-0.1c-0.2,0-0.4,0.1-0.5,0.2c-0.2,0.1-0.2,0.2-0.3,0.4
		c0,0.1,0,0.3,0.1,0.5c0.2,0.4,0.6,0.8,1.3,1.1c0.7,0.4,1.5,0.7,2.2,0.7c0.8,0,1.5-0.1,2.1-0.5c0.7-0.4,0.9-0.8,0.9-1.2
		s-0.3-0.7-0.6-1.1c-0.3-0.3-0.6-0.6-0.7-0.9c-0.1-0.2-0.1-0.4,0.2-0.6c0.2-0.1,0.4-0.2,0.8-0.2c0.3,0,0.7,0.1,1.2,0.3
		c0.4,0.2,0.5,0.4,0.7,0.6c0.1,0.1,0.1,0.2,0.2,0.2c0.1,0.1,0.1,0.1,0.2,0.2c0.2,0.1,0.5,0.1,0.7,0.1s0.4-0.1,0.5-0.2
		c0.2-0.1,0.2-0.2,0.2-0.4c0-0.1-0.1-0.3-0.2-0.4C423.5,268.2,423.1,267.9,422.7,267.7L422.7,267.7z M403.4,256.6
		c-0.4-0.2-0.9-0.3-1.2-0.1l-3.6,2.1c-1.5,0.8-1.5,2.3,0,3.2c1.5,0.9,4,0.9,5.5,0l3.6-2.1c0.2-0.1,0.2-0.2,0.2-0.4
		c0-0.1-0.1-0.2-0.3-0.3s-0.4-0.2-0.6-0.2c-0.2,0-0.5,0-0.6,0.1l-3.6,2.1c-0.8,0.4-2.2,0.5-3,0c-0.8-0.5-0.7-1.3,0-1.7l3.6-2.1
		c0.2-0.1,0.2-0.2,0.2-0.4S403.6,256.7,403.4,256.6L403.4,256.6z M418.6,265.4c-0.2-0.1-0.4-0.2-0.6-0.2c-0.2,0-0.5,0-0.6,0.1
		l-6.6,3.8c-0.5,0.3-0.9,0.5-1.3,0.6c-0.4,0.1-0.6,0.1-1-0.1c-0.3-0.2-0.9-0.2-1.2,0c-0.1,0.1-0.3,0.2-0.3,0.3s0.1,0.3,0.3,0.4
		c0.7,0.4,1.5,0.5,2.4,0.4c0.8-0.1,1.6-0.4,2.4-0.9l6.6-3.8c0.2-0.1,0.2-0.2,0.2-0.4C418.9,265.6,418.7,265.5,418.6,265.4
		L418.6,265.4z M410.9,262.2c0.9,0.5,0.7,1.3,0,1.7c-0.1,0-0.1,0.1-0.2,0.1s0,0,0,0c0,0-0.2-0.1-0.5-0.2l-2.5-1.4l0.3-0.2
		C408.8,261.7,410.1,261.7,410.9,262.2L410.9,262.2z M411,267c-0.5-0.3-1.2-0.3-1.7,0c-0.4,0.3-0.5,0.7,0,1c0.5,0.3,1.2,0.3,1.7,0
		C411.4,267.7,411.4,267.2,411,267z"/>
	<g transform="translate(9.106 -7.663) scale(.85771)">
		<path class="st6" d="M493.6,265.3l21.8,12.6l-4.5,9.8l17-2.5l21.8,12.5l-76.1,11.7L493.6,265.3z M548.9,297.6l-10.7-6.2l-45.7,7
			l12.1-26.4l-10.8-6.3L474.2,309L548.9,297.6z M537.9,291.2l-10-5.7l-17.4,2.4l4.3-10l-9.9-5.8L493.2,298L537.9,291.2z M504.8,272
			l10.1,5.8l-4.3,10.1l17.5-2.5l10.1,5.8l-45.3,7"/>
		<path class="st5" d="M504.8,272l10.1,5.8l-4.3,10.1l17.5-2.5l10.1,5.8l-45.3,7L504.8,272z"/>
		<path class="st7" d="M493.7,265.7l11,6.3l-12,26.2l45.3-7l11,6.4l-74.9,11.4L493.7,265.7z"/>
	</g>
</g>
</svg>
