<?xml version="1.0" encoding="utf-8"?>
<!-- Generator: Adobe Illustrator 24.2.3, SVG Export Plug-In . SVG Version: 6.00 Build 0)  -->
<svg version="1.1" id="Layer_1" xmlns="http://www.w3.org/2000/svg" xmlns:xlink="http://www.w3.org/1999/xlink" x="0px" y="0px"
	 viewBox="0 0 566.1 1882.2" style="enable-background:new 0 0 566.1 1882.2;" xml:space="preserve">
<style type="text/css">
	.st0{opacity:0.2;fill:none;stroke:#8888BA;stroke-miterlimit:10;}
	.st1{opacity:0.4;fill:#FFFFFF;}
	.st2{opacity:0.2;}
	.st3{fill:#FFFFFF;}
</style>
<line class="st0" x1="428.9" y1="290.6" x2="428.9" y2="788.6"/>
<line class="st0" x1="121.6" y1="1103" x2="121.6" y2="1397"/>
<line class="st0" x1="121.6" y1="1455.6" x2="121.6" y2="1749.6"/>
<line class="st0" x1="398.3" y1="1214.1" x2="398.3" y2="1508.1"/>
<polyline class="st0" points="213,472.2 333.5,541.8 333.5,694.6 "/>
<polyline class="st0" points="275.7,1090.1 396.2,1159.7 396.2,1312.5 "/>
<polyline class="st0" points="332,779.9 211.5,849.5 211.5,1002.3 "/>
<line class="st0" x1="190.8" y1="121.3" x2="402.1" y2="243.3"/>
<path class="st1" d="M434.1,1497.6L434.1,1497.6c-5.2-3-13.6-3-18.8,0h0c-5.2,3-5.2,7.9,0,10.9h0c5.2,3,13.6,3,18.8,0l0,0
	C439.3,1505.4,439.3,1500.6,434.1,1497.6z"/>
<path class="st1" d="M197.8,1745.8l-11.3-6.5c-2.1-1.2-5.4-1.2-7.5,0l-11.3,6.5c-2.1,1.2-2.1,3.1,0,4.3l11.3,6.5
	c2.1,1.2,5.4,1.2,7.5,0l11.3-6.5C199.8,1748.9,199.8,1747,197.8,1745.8z"/>
<g class="st2">
	<path class="st3" d="M119.5,64.5L87.5,46c-2.9-1.7-2.6-4.7,0.8-6.6l30.4-17.5c3.4-2,8.5-2.2,11.5-0.5l32,18.5
		c2.9,1.7,2.6,4.7-0.8,6.6L131,64.1C127.6,66,122.5,66.2,119.5,64.5z"/>
</g>
<g class="st2">
	<path class="st3" d="M182.4,100.2l-32-18.5c-2.9-1.7-2.6-4.7,0.8-6.6l30.4-17.5c3.4-2,8.5-2.2,11.5-0.5l32,18.5
		c2.9,1.7,2.6,4.7-0.8,6.6l-30.4,17.5C190.5,101.7,185.3,101.9,182.4,100.2z"/>
</g>
<g class="st2">
	<path class="st3" d="M242.5,135.6l-32-18.5c-2.9-1.7-2.6-4.7,0.8-6.6L241.7,93c3.4-2,8.5-2.2,11.5-0.5l32,18.5
		c2.9,1.7,2.6,4.7-0.8,6.6L254,135.2C250.6,137.1,245.4,137.3,242.5,135.6z"/>
</g>
</svg>
