<?xml version="1.0" encoding="utf-8"?>
<!-- Generator: Adobe Illustrator 24.2.1, SVG Export Plug-In . SVG Version: 6.00 Build 0)  -->
<svg version="1.1" id="Layer_1" xmlns="http://www.w3.org/2000/svg" xmlns:xlink="http://www.w3.org/1999/xlink" x="0px" y="0px"
	 viewBox="0 0 1137.5 848.9" style="enable-background:new 0 0 1137.5 848.9;" xml:space="preserve">
<style type="text/css">
	.st0{fill:#C9C9DC;}
	.st1{fill:#FFFFFF;}
	.st2{fill:#0074BB;}
	.st3{fill:#E82D2E;}
	.st4{fill:#35495E;}
	.st5{fill:none;}
	.st6{fill:#42B681;}
	.st7{fill:#F05138;}
</style>
<ellipse class="st0" cx="613.3" cy="766.2" rx="65.5" ry="37.8"/>
<ellipse class="st1" cx="613.3" cy="760.1" rx="65.5" ry="37.8"/>
<g>
	<path class="st2" d="M609.3,755.4c0,0-2.7-0.4-0.1,1.4c3.1,2.2,4.9,3.2,9.5,5c0,0,0.4,1,1.2,2.1
		C607.6,761.1,600.6,752.6,609.3,755.4z M613,752c0,0-3.3-0.3-0.7,1.6c3.3,2.4,6.3,4.1,12.3,6.5c0,0,0,0.8,0.7,1.7
		C611.9,757.5,603.1,749.1,613,752z"/>
	<path class="st3" d="M630.1,752.4c-0.3,2.6-5.2,2.4-5.2,2.4s8.2,1.5,9.2-1.9c0.9-3.2,0.8-5.2,16-2.8
		C650.1,750,631.2,743.5,630.1,752.4z"/>
	<path class="st2" d="M624.9,768.6c0,0,0.2,1.3-3.2,0.3c-6.5-2-22.7-10.8-25.2-14.5c-0.9-1.3,3-0.1,4.1,0.3c1.2,0.4,1.7,0.8,1.7,0.8
		c-0.5-1.7-13.7-5.1-8.3-0.8C608.8,766.4,627.4,772.4,624.9,768.6z M619.9,750.2c0,0-9.9-3.5-5.4-0.1c1.9,1.4,6.3,3.9,10.7,6
		c3.6,1.8,7.5,3.3,7.5,3.3s-1.7-0.4-3.1-0.5c-10.3-3.5-25-13.1-18.3-11.8C617,748.3,619.9,750.2,619.9,750.2z M626.2,763.1
		c12.6,2.3,12.9-2.3,9.6-3.5c-0.8-0.3-1.2-0.4-1.2-0.4s0.6-0.1,1.3,0.1c7.1,2,3.9,8.5-10.1,3.9C625.9,763.2,626.1,763.2,626.2,763.1
		z"/>
	<path class="st3" d="M653.5,741.6c0,0,0,5.3-16,4.2c-12.8-0.9-10.5,4.2-12.6,7.2c-0.4-4.6-0.2-8.3,5-8.9
		C637.5,743.3,648.1,746.9,653.5,741.6z"/>
	<path class="st2" d="M601,762c7.4,4.9,20.4,11.5,24.4,9.5c0,0-2,0.5-9.1-2.3c-8-3.2-16.3-8.1-20.4-11.4
		C596,757.7,596.2,758.8,601,762z"/>
	<path class="st3" d="M614.4,777.5l-0.2-0.1l0.1-0.1l0.7,0.4l-0.1,0.1l-0.2-0.1l-0.7,0.4l-0.2-0.1
		C613.7,777.9,614.4,777.5,614.4,777.5z M615.6,778.2L615.6,778.2l-0.9,0.2l-0.1-0.1l0.4-0.5l0,0l-0.6,0.4l-0.2-0.1l0.8-0.5l0.2,0.1
		l-0.4,0.5l0.8-0.2l0.2,0.1l-0.8,0.5l-0.2-0.1C615,778.6,615.6,778.2,615.6,778.2z M585.4,769.6c-1.4-0.1-2.6-0.3-3.3-0.7
		c-1-0.6-1-1.3,0-1.8c1.1-0.6,2.4-0.7,4.8,0.6l0.9,0.5L585.4,769.6L585.4,769.6z M585.1,772.1l7.2-4.2c1.8-1.1,2-2.4-0.5-3.8
		c-1.5-0.9-3.1-1.4-4.7-1.7l-1,0.9c1.1,0.3,2.5,0.8,3.5,1.4c1.5,0.8,1.5,1.5,0.3,2.2l-0.9,0.5l-0.7-0.4c-3.5-2-6.5-2.2-8.6-1
		c-1.8,1-1.7,2.2,0.2,3.4c1.3,0.7,2.8,1,4.4,1.1l-0.9,0.7L585.1,772.1C585.1,772.1,585.1,772.1,585.1,772.1z M592,776.1l-2.6-1.5
		l7-7.6l2.2,1.3l-4.3,4.7l-1.4,1.3c3.7-1,7.1-2.2,10.1-3.5l2.2,1.3C601.3,773.6,596.6,775.1,592,776.1z M604.2,780.4
		c-1.4-0.1-2.6-0.3-3.3-0.7c-1-0.6-1-1.3,0-1.8c1.1-0.6,2.4-0.7,4.8,0.6l0.9,0.5L604.2,780.4L604.2,780.4z M604,783l7.2-4.2
		c1.8-1.1,2-2.4-0.5-3.8c-1.5-0.9-3.1-1.4-4.7-1.7l-1,0.9c1.1,0.3,2.5,0.8,3.5,1.4c1.5,0.8,1.5,1.5,0.3,2.2l-0.9,0.5l-0.7-0.4
		c-3.5-2-6.5-2.2-8.6-1c-1.8,1-1.7,2.2,0.2,3.4c1.3,0.7,2.8,1,4.4,1.1l-0.9,0.7L604,783C604,783,604,783,604,783z M573.2,767.2
		c-1.4,0.2-3.1,0-4.5-0.4l0.2-1.3c1.2,0.2,2.5,0.2,3.5,0.1c0.8-0.2,1.6-0.5,3.3-1.5l11.5-6.6l2.2,1.3l-11.4,6.6
		C575.8,766.6,574.7,767,573.2,767.2z"/>
</g>
<ellipse class="st0" cx="705.3" cy="487.6" rx="70.2" ry="40.5"/>
<ellipse class="st1" cx="705.3" cy="481.1" rx="70.2" ry="40.5"/>
<g>
	<path class="st4" d="M672.1,485.5c-0.2-0.1-0.4-0.2-0.6-0.2c-0.2,0-0.5,0-0.7,0.1c0,0-0.1,0-0.2,0.1l0,0l-6.3,6.9
		c-0.1,0.1-0.1,0.3-0.1,0.4c0.1,0.1,0.2,0.2,0.3,0.3c0.3,0.2,0.8,0.3,1.2,0.2l0,0l11.9-3.7l0,0c0,0,0,0,0.1,0
		c0.2-0.1,0.2-0.3,0.2-0.4c0-0.1-0.2-0.3-0.3-0.4c-0.2-0.1-0.6-0.2-0.9-0.1l0,0l-9.8,3.1l5.3-5.7c0.1-0.1,0.1-0.2,0.1-0.3
		C672.3,485.7,672.2,485.6,672.1,485.5L672.1,485.5z M694,498.7c-0.4-0.3-1.2-0.3-1.6,0c-0.4,0.2-0.4,0.7,0,0.9
		c0.4,0.3,1.2,0.3,1.6,0S694.4,498.9,694,498.7z M684.5,496.6c-1.5-0.9-4-0.9-5.5-0.1l-1.5,0.9c-0.8,0.5-1.2,1.1-1.1,1.7
		c0.1,0.6,0.6,1.2,1.5,1.7c0.7,0.4,1.3,0.6,1.9,0.7c0.3,0.1,0.6,0.1,0.8,0.1c0.2,0,0.5,0,0.6-0.1c0.2-0.1,0.2-0.2,0.3-0.3
		c0-0.1,0-0.3-0.2-0.4c-0.1-0.1-0.3-0.1-0.5-0.1c-0.2,0-0.3,0-0.5-0.1c-0.3-0.1-0.7-0.1-1.2-0.4c-0.5-0.3-0.9-0.7-0.9-1
		c-0.1-0.3,0.1-0.7,0.6-0.9l0.3-0.2l2.8,1.6c0.3,0.2,0.6,0.4,1.1,0.4c0.5,0.1,1-0.1,1.6-0.4C686.1,498.8,685.9,497.4,684.5,496.6
		L684.5,496.6z M695.1,502.7c-0.8-0.5-1.7-0.7-2.4-0.7c-0.8,0-1.5,0.2-1.9,0.5c-0.6,0.4-0.8,0.7-0.7,1.1c0.1,0.4,0.4,0.7,0.7,1
		c0.3,0.3,0.6,0.6,0.7,0.9c0.1,0.3,0.1,0.4-0.3,0.7c-0.2,0.1-0.4,0.2-0.7,0.2c-0.3,0-0.7-0.1-1.2-0.4c-0.6-0.3-0.7-0.6-0.8-0.8
		c0-0.1-0.1-0.2-0.1-0.3c0-0.1-0.1-0.2-0.2-0.3c-0.2-0.1-0.4-0.1-0.6-0.1c-0.2,0-0.4,0.1-0.5,0.2c-0.2,0.1-0.2,0.2-0.3,0.4
		s0,0.3,0.1,0.5c0.2,0.4,0.6,0.8,1.3,1.1c0.7,0.4,1.5,0.7,2.2,0.7c0.8,0,1.5-0.1,2.1-0.5c0.7-0.4,0.9-0.8,0.9-1.2
		c0-0.4-0.3-0.7-0.6-1.1s-0.6-0.6-0.7-0.9c-0.1-0.2-0.1-0.4,0.2-0.6c0.2-0.1,0.4-0.2,0.8-0.2c0.3,0,0.7,0.1,1.2,0.3
		c0.4,0.2,0.5,0.4,0.7,0.6c0.1,0.1,0.1,0.2,0.2,0.2s0.1,0.1,0.2,0.2c0.2,0.1,0.5,0.1,0.7,0.1c0.2,0,0.4-0.1,0.5-0.2
		c0.2-0.1,0.2-0.2,0.2-0.4c0-0.1-0.1-0.3-0.2-0.4C695.9,503.3,695.5,503,695.1,502.7L695.1,502.7z M675.8,491.7
		c-0.4-0.2-0.9-0.3-1.2-0.1l-3.6,2.1c-1.5,0.8-1.5,2.3,0,3.2c1.5,0.9,4,0.9,5.5,0l3.6-2.1c0.2-0.1,0.2-0.2,0.2-0.4s-0.1-0.2-0.3-0.3
		c-0.2-0.1-0.4-0.2-0.6-0.2c-0.2,0-0.5,0-0.6,0.1l-3.6,2.1c-0.8,0.4-2.2,0.5-3,0c-0.8-0.5-0.7-1.3,0-1.7l3.6-2.1
		c0.2-0.1,0.2-0.2,0.2-0.4C676.1,491.9,676,491.8,675.8,491.7L675.8,491.7z M691,500.4c-0.2-0.1-0.4-0.2-0.6-0.2
		c-0.2,0-0.5,0-0.6,0.1l-6.6,3.8c-0.5,0.3-0.9,0.5-1.3,0.6c-0.4,0.1-0.6,0.1-1-0.1c-0.3-0.2-0.9-0.2-1.2,0c-0.1,0.1-0.3,0.2-0.3,0.3
		s0.1,0.3,0.3,0.4c0.7,0.4,1.5,0.5,2.4,0.4c0.8-0.1,1.6-0.4,2.4-0.9l6.6-3.8c0.2-0.1,0.2-0.2,0.2-0.4
		C691.3,500.6,691.2,500.5,691,500.4L691,500.4z M683.3,497.2c0.9,0.5,0.7,1.3,0,1.7c-0.1,0-0.1,0.1-0.2,0.1c0,0,0,0,0,0
		c0,0-0.2-0.1-0.5-0.2l-2.5-1.4l0.3-0.2C681.2,496.8,682.5,496.8,683.3,497.2L683.3,497.2z M683.4,502c-0.5-0.3-1.2-0.3-1.7,0
		c-0.4,0.3-0.5,0.7,0,1c0.5,0.3,1.2,0.3,1.7,0C683.8,502.7,683.8,502.3,683.4,502z"/>
	<g transform="translate(9.106 -7.663) scale(.85771)">
		<path class="st5" d="M811.2,539.3l21.8,12.6l-4.5,9.8l17-2.5l21.8,12.5l-76.1,11.7L811.2,539.3z M866.5,571.6l-10.7-6.2l-45.7,7
			l12.1-26.4l-10.8-6.3L791.8,583L866.5,571.6z M855.5,565.2l-10-5.7l-17.4,2.4l4.3-10l-9.9-5.8L810.8,572L855.5,565.2z M822.4,546
			l10.1,5.8l-4.3,10.1l17.5-2.5l10.1,5.8l-45.3,7"/>
		<path class="st4" d="M822.4,546l10.1,5.8l-4.3,10.1l17.5-2.5l10.1,5.8l-45.3,7L822.4,546z"/>
		<path class="st6" d="M811.3,539.7l11,6.3l-12,26.2l45.3-7l11,6.4L791.7,583L811.3,539.7z"/>
	</g>
</g>
<ellipse class="st0" cx="81.8" cy="459.2" rx="65.5" ry="37.8"/>
<ellipse class="st1" cx="81.8" cy="453.1" rx="65.5" ry="37.8"/>
<path class="st7" d="M97.6,468.1c0.4-0.1,0.7-0.3,1.1-0.3c14.4-4.5,19.6-16.8,13.3-28.4c-0.9,7.3-6.8,13.6-16.3,16.6
	c-0.9,0.2-1.6,0.5-2.7,0.7c-0.1-0.2-0.3-0.6-0.6-1c0,0-6.1-11.8-8-27.3c-0.1-0.4-2.3,10.2-1.5,20.3c-2.3-3.7-6.6-15-8.2-22.8
	c-0.4,1.3-0.5,2.7-0.6,4.1c-0.6,7.6-1,17.4,2.4,27c-10.6-1.9-20.8-7.4-26.6-15.4c-1.3-2-2.6-4-3.3-6c-1.6,5.8-0.2,12.2,4.7,18.5
	c5.9,7.3,15.3,12.5,25.2,14.7l0.1,0.1c0.4,0.1,0.8,0.2,1.2,0.2c4.8,1,12.8,4,10.4,9.4C87.7,479.4,97.3,476,97.6,468.1L97.6,468.1z"
	/>
</svg>
