<?xml version="1.0" encoding="utf-8"?>
<!-- Generator: Adobe Illustrator 24.2.1, SVG Export Plug-In . SVG Version: 6.00 Build 0)  -->
<svg version="1.1" id="Layer_1" xmlns="http://www.w3.org/2000/svg" xmlns:xlink="http://www.w3.org/1999/xlink" x="0px" y="0px"
	 viewBox="0 0 1137.5 848.9" style="enable-background:new 0 0 1137.5 848.9;" xml:space="preserve">
<style type="text/css">
	.st0{fill:#E7E8EB;}
	.st1{fill:#C9C9DC;}
	.st2{fill:url(#SVGID_1_);}
	.st3{fill:#FFFFFF;}
	.st4{fill:url(#SVGID_2_);}
	.st5{fill:url(#SVGID_3_);}
</style>
<ellipse class="st0" cx="718.4" cy="525.6" rx="87.7" ry="50.6"/>
<path class="st1" d="M789.1,510.4c-4.1-7.6-11.3-14.8-21.7-20.8c-34.3-19.8-89.8-19.8-124,0c-10.4,6-17.7,13.2-21.7,20.8h-3.9v15
	l0,0c0,13,8.6,25.9,25.7,35.8c34.3,19.8,89.8,19.8,124,0c17.1-9.9,25.7-22.8,25.7-35.8v-15H789.1z"/>
<linearGradient id="SVGID_1_" gradientUnits="userSpaceOnUse" x1="617.6276" y1="510.4136" x2="793.036" y2="510.4136">
	<stop  offset="1.550722e-03" style="stop-color:#EAEAF1"/>
	<stop  offset="1" style="stop-color:#EEEFF4"/>
</linearGradient>
<ellipse class="st2" cx="705.3" cy="510.4" rx="87.7" ry="50.6"/>
<g>
	<path class="st3" d="M705.3,459.8v1c23.2,0,45.1,5.2,61.5,14.7c16.2,9.4,25.2,21.8,25.2,34.9c0,13.2-8.9,25.6-25.2,34.9
		c-16.4,9.5-38.3,14.7-61.5,14.7c-23.3,0-45.1-5.2-61.5-14.7c-16.2-9.4-25.2-21.8-25.2-34.9c0-13.2,8.9-25.6,25.2-34.9
		c16.4-9.5,38.3-14.7,61.5-14.7L705.3,459.8 M705.3,459.8c-22.4,0-44.9,4.9-62,14.8c-34.3,19.8-34.3,51.8,0,71.6
		c17.1,9.9,39.6,14.8,62,14.8c22.4,0,44.9-4.9,62-14.8c34.3-19.8,34.3-51.8,0-71.6C750.2,464.7,727.8,459.8,705.3,459.8L705.3,459.8
		z"/>
</g>
<ellipse class="st0" cx="94" cy="494.6" rx="81.8" ry="47.2"/>
<path class="st1" d="M160,480.5c-3.8-7.1-10.6-13.8-20.3-19.4c-32-18.4-83.8-18.5-115.7,0c-9.7,5.6-16.5,12.3-20.3,19.4H0v14l0,0
	c0,12.1,8,24.2,24,33.4c32,18.5,83.8,18.5,115.7,0c16-9.2,24-21.3,24-33.4v-14H160z"/>
<linearGradient id="SVGID_2_" gradientUnits="userSpaceOnUse" x1="0" y1="480.4771" x2="163.6578" y2="480.4771">
	<stop  offset="1.550722e-03" style="stop-color:#EAEAF1"/>
	<stop  offset="1" style="stop-color:#EEEFF4"/>
</linearGradient>
<ellipse class="st4" cx="81.8" cy="480.5" rx="81.8" ry="47.2"/>
<g>
	<path class="st3" d="M81.8,433.2v1c21.7,0,42,4.9,57.4,13.7c15.1,8.7,23.5,20.3,23.5,32.5c0,12.2-8.3,23.8-23.5,32.5
		c-15.3,8.8-35.7,13.7-57.4,13.7c-21.7,0-42.1-4.9-57.4-13.7C9.3,504.3,1,492.7,1,480.5c0-12.2,8.3-23.8,23.5-32.5
		c15.3-8.8,35.7-13.7,57.4-13.7L81.8,433.2 M81.8,433.2c-20.9,0-41.9,4.6-57.9,13.8c-32,18.4-32,48.4,0,66.8
		c16,9.2,36.9,13.8,57.9,13.8c20.9,0,41.9-4.6,57.9-13.8c32-18.4,32-48.4,0-66.8C123.7,437.8,102.8,433.2,81.8,433.2L81.8,433.2z"/>
</g>
<ellipse class="st0" cx="625.5" cy="801.7" rx="81.8" ry="47.2"/>
<path class="st1" d="M691.5,787.5c-3.8-7.1-10.6-13.8-20.3-19.4c-32-18.4-83.8-18.5-115.7,0c-9.7,5.6-16.5,12.3-20.3,19.4h-3.7v14
	l0,0c0,12.1,8,24.2,24,33.4c32,18.5,83.8,18.5,115.7,0c16-9.2,24-21.3,24-33.4v-14H691.5z"/>
<linearGradient id="SVGID_3_" gradientUnits="userSpaceOnUse" x1="531.4879" y1="787.4827" x2="695.1457" y2="787.4827">
	<stop  offset="1.550722e-03" style="stop-color:#EAEAF1"/>
	<stop  offset="1" style="stop-color:#EEEFF4"/>
</linearGradient>
<ellipse class="st5" cx="613.3" cy="787.5" rx="81.8" ry="47.2"/>
<g>
	<path class="st3" d="M613.3,740.2v1c21.7,0,42,4.9,57.4,13.7c15.1,8.7,23.5,20.3,23.5,32.5c0,12.2-8.3,23.8-23.5,32.5
		c-15.3,8.8-35.7,13.7-57.4,13.7c-21.7,0-42.1-4.9-57.4-13.7c-15.1-8.7-23.5-20.3-23.5-32.5c0-12.2,8.3-23.8,23.5-32.5
		c15.3-8.8,35.7-13.7,57.4-13.7L613.3,740.2 M613.3,740.2c-20.9,0-41.9,4.6-57.9,13.8c-32,18.4-32,48.4,0,66.8
		c16,9.2,36.9,13.8,57.9,13.8c20.9,0,41.9-4.6,57.9-13.8c32-18.4,32-48.4,0-66.8C655.2,744.9,634.3,740.2,613.3,740.2L613.3,740.2z"
		/>
</g>
</svg>
