<?xml version="1.0" encoding="utf-8"?>
<!-- Generator: Adobe Illustrator 24.2.1, SVG Export Plug-In . SVG Version: 6.00 Build 0)  -->
<svg version="1.1" id="Layer_1" xmlns="http://www.w3.org/2000/svg" xmlns:xlink="http://www.w3.org/1999/xlink" x="0px" y="0px"
	 viewBox="0 0 1137.5 848.9" style="enable-background:new 0 0 1137.5 848.9;" xml:space="preserve">
<style type="text/css">
	.st0{fill:#E7E8EB;}
	.st1{fill:url(#SVGID_1_);}
	.st2{fill:url(#SVGID_2_);}
	.st3{fill:#FFFFFF;}
	.st4{fill:url(#SVGID_3_);}
	.st5{fill:url(#SVGID_4_);}
	.st6{fill:url(#SVGID_5_);}
	.st7{fill:url(#SVGID_6_);}
	.st8{fill:none;stroke:#FFFFFF;}
</style>
<path class="st0" d="M521.5,427.4l-150.3-86.8c-10.4-6-9.1-16.5,2.9-23.4l144.5-83.4c12-6.9,30.1-7.7,40.5-1.7l150.3,86.8
	c10.4,6,9.1,16.5-2.9,23.4L562,425.8C550,432.7,531.9,433.4,521.5,427.4z"/>
<linearGradient id="SVGID_1_" gradientUnits="userSpaceOnUse" x1="350.0608" y1="329.779" x2="702.3418" y2="329.779">
	<stop  offset="7.240053e-04" style="stop-color:#C9C9DC"/>
	<stop  offset="0.1605" style="stop-color:#CCCCDE"/>
	<stop  offset="0.2866" style="stop-color:#D6D6E4"/>
	<stop  offset="0.4008" style="stop-color:#E7E7EF"/>
	<stop  offset="0.5081" style="stop-color:#FEFEFE"/>
	<stop  offset="0.5119" style="stop-color:#FFFFFF"/>
	<stop  offset="0.6172" style="stop-color:#E7E7F0"/>
	<stop  offset="0.7284" style="stop-color:#D6D6E5"/>
	<stop  offset="0.85" style="stop-color:#CCCCDE"/>
	<stop  offset="1" style="stop-color:#C9C9DC"/>
</linearGradient>
<path class="st1" d="M702.3,328.5l0-42.1H639l-94-54.2c-10.4-6-28.5-5.2-40.5,1.7l-91.1,52.6h-63.4l0,43.4h0c-0.3,4.1,2,8,7,10.8
	l150.3,86.8c10.4,6,28.5,5.2,40.5-1.7l144.5-83.4c6.2-3.6,9.6-8.1,9.9-12.5C702.4,329.3,702.3,328.9,702.3,328.5z"/>
<linearGradient id="SVGID_2_" gradientUnits="userSpaceOnUse" x1="350.0609" y1="286.3787" x2="702.345" y2="286.3787">
	<stop  offset="1.550722e-03" style="stop-color:#EAEAF1"/>
	<stop  offset="1" style="stop-color:#EEEFF4"/>
</linearGradient>
<path class="st2" d="M507.4,384l-150.3-86.8c-10.4-6-9.1-16.5,2.9-23.4l144.5-83.4c12-6.9,30.1-7.7,40.5-1.7l150.3,86.8
	c10.4,6,9.1,16.5-2.9,23.4l-144.5,83.4C535.9,389.3,517.8,390,507.4,384z"/>
<g>
	<path class="st3" d="M527.4,184.7v1c6.6,0,12.7,1.4,17.1,3.9l150.3,86.8c4.2,2.4,6.5,5.7,6.5,9.3c0,4.4-3.4,8.9-9.4,12.4
		l-144.5,83.4c-6.2,3.6-14.3,5.6-22.4,5.6c-6.6,0-12.7-1.4-17.1-3.9l-150.3-86.8c-4.2-2.4-6.5-5.7-6.5-9.3c0-4.4,3.4-8.9,9.4-12.4
		L505,191.3c6.2-3.6,14.3-5.6,22.4-5.6L527.4,184.7 M527.4,184.7c-8,0-16.4,1.9-22.9,5.7L360,273.8c-12,6.9-13.3,17.4-2.9,23.4
		L507.4,384c4.7,2.7,11,4,17.6,4c8,0,16.4-1.9,22.9-5.7l144.5-83.4c12-6.9,13.3-17.4,2.9-23.4L545,188.7
		C540.3,186,534,184.7,527.4,184.7L527.4,184.7z"/>
</g>
<path class="st0" d="M843,242.7l-150.3-86.8c-10.4-6-9.1-16.5,2.9-23.4l144.5-83.4c12-6.9,30.1-7.7,40.5-1.7l150.3,86.8
	c10.4,6,9.1,16.5-2.9,23.4l-144.5,83.4C871.5,248,853.4,248.7,843,242.7z"/>
<linearGradient id="SVGID_3_" gradientUnits="userSpaceOnUse" x1="671.5624" y1="145.0959" x2="1023.8435" y2="145.0959">
	<stop  offset="7.240053e-04" style="stop-color:#C9C9DC"/>
	<stop  offset="0.1605" style="stop-color:#CCCCDE"/>
	<stop  offset="0.2866" style="stop-color:#D6D6E4"/>
	<stop  offset="0.4008" style="stop-color:#E7E7EF"/>
	<stop  offset="0.5081" style="stop-color:#FEFEFE"/>
	<stop  offset="0.5119" style="stop-color:#FFFFFF"/>
	<stop  offset="0.6172" style="stop-color:#E7E7F0"/>
	<stop  offset="0.7284" style="stop-color:#D6D6E5"/>
	<stop  offset="0.85" style="stop-color:#CCCCDE"/>
	<stop  offset="1" style="stop-color:#C9C9DC"/>
</linearGradient>
<path class="st4" d="M1023.8,143.8l0-42.1h-63.4l-94-54.2c-10.4-6-28.5-5.2-40.5,1.7l-91.1,52.6h-63.4l0,43.4h0c-0.3,4.1,2,8,7,10.8
	l150.3,86.8c10.4,6,28.5,5.2,40.5-1.7l144.5-83.4c6.2-3.6,9.6-8.1,9.9-12.5C1023.9,144.7,1023.8,144.2,1023.8,143.8z"/>
<linearGradient id="SVGID_4_" gradientUnits="userSpaceOnUse" x1="671.5626" y1="101.6957" x2="1023.8467" y2="101.6957">
	<stop  offset="1.550722e-03" style="stop-color:#EAEAF1"/>
	<stop  offset="1" style="stop-color:#EEEFF4"/>
</linearGradient>
<path class="st5" d="M828.9,199.3l-150.3-86.8c-10.4-6-9.1-16.5,2.9-23.4L826,5.7c12-6.9,30.1-7.7,40.5-1.7l150.3,86.8
	c10.4,6,9.1,16.5-2.9,23.4l-144.5,83.4C857.4,204.6,839.3,205.3,828.9,199.3z"/>
<g>
	<path class="st3" d="M848.9,0v1c6.6,0,12.7,1.4,17.1,3.9l150.3,86.8c4.2,2.4,6.5,5.7,6.5,9.3c0,4.4-3.4,8.9-9.4,12.4l-144.5,83.4
		c-6.2,3.6-14.3,5.6-22.4,5.6c-6.6,0-12.7-1.4-17.1-3.9l-150.3-86.8c-4.2-2.4-6.5-5.7-6.5-9.3c0-4.4,3.4-8.9,9.4-12.4L826.5,6.6
		C832.7,3,840.8,1,848.9,1L848.9,0 M848.9,0c-8,0-16.4,1.9-22.9,5.7L681.5,89.2c-12,6.9-13.3,17.4-2.9,23.4l150.3,86.8
		c4.7,2.7,11,4,17.6,4c8,0,16.4-1.9,22.9-5.7l144.5-83.4c12-6.9,13.3-17.4,2.9-23.4L866.5,4C861.8,1.3,855.5,0,848.9,0L848.9,0z"/>
</g>
<linearGradient id="SVGID_5_" gradientUnits="userSpaceOnUse" x1="169.7561" y1="654.4867" x2="522.0371" y2="654.4867">
	<stop  offset="7.240053e-04" style="stop-color:#C9C9DC"/>
	<stop  offset="0.1605" style="stop-color:#CCCCDE"/>
	<stop  offset="0.2866" style="stop-color:#D6D6E4"/>
	<stop  offset="0.4008" style="stop-color:#E7E7EF"/>
	<stop  offset="0.5081" style="stop-color:#FEFEFE"/>
	<stop  offset="0.5119" style="stop-color:#FFFFFF"/>
	<stop  offset="0.6172" style="stop-color:#E7E7F0"/>
	<stop  offset="0.7284" style="stop-color:#D6D6E5"/>
	<stop  offset="0.85" style="stop-color:#CCCCDE"/>
	<stop  offset="1" style="stop-color:#C9C9DC"/>
</linearGradient>
<path class="st6" d="M522,653.2l0-42.1h-63.4l-94-54.2c-10.4-6-28.5-5.2-40.5,1.7l-91.1,52.6h-63.4l0,43.4h0c-0.3,4.1,2,8,7,10.8
	l150.3,86.8c10.4,6,28.5,5.2,40.5-1.7L512.1,667c6.2-3.6,9.6-8.1,9.9-12.5C522,654.1,522,653.6,522,653.2z"/>
<linearGradient id="SVGID_6_" gradientUnits="userSpaceOnUse" x1="169.7562" y1="611.0864" x2="522.0403" y2="611.0864">
	<stop  offset="1.550722e-03" style="stop-color:#EAEAF1"/>
	<stop  offset="1" style="stop-color:#EEEFF4"/>
</linearGradient>
<path class="st7" d="M327.1,708.7l-150.3-86.8c-10.4-6-9.1-16.5,2.9-23.4l144.5-83.4c12-6.9,30.1-7.7,40.5-1.7L515,600.2
	c10.4,6,9.1,16.5-2.9,23.4l-144.5,83.4C355.6,714,337.5,714.7,327.1,708.7z"/>
<path class="st8" d="M515,600.2c10.4,6,9.1,16.5-2.9,23.4l-144.5,83.4c-12,6.9-30.1,7.7-40.5,1.7l-150.3-86.8
	c-10.4-6-9.1-16.5,2.9-23.4"/>
</svg>
