<svg xmlns="http://www.w3.org/2000/svg" xmlns:xlink="http://www.w3.org/1999/xlink" width="28" height="20" viewBox="0 0 28 20">
    <defs>
        <linearGradient id="mus2nqmzfe" x1="50%" x2="50%" y1="0%" y2="100%">
            <stop offset="0%" stop-color="#FFF"/>
            <stop offset="100%" stop-color="#F0F0F0"/>
        </linearGradient>
        <filter id="o5p5a98vrc" width="110.7%" height="130%" x="-5.4%" y="-7.5%" filterUnits="objectBoundingBox">
            <feOffset dy="1" in="SourceAlpha" result="shadowOffsetOuter1"/>
            <feColorMatrix in="shadowOffsetOuter1" values="0 0 0 0 0 0 0 0 0 0 0 0 0 0 0 0 0 0 0.06 0"/>
        </filter>
        <rect id="shc64r8bxa" width="28" height="20" x="0" y="0" rx="2"/>
        <path id="xepw3f4t1d" d="M2 2.667c-.368 0-.667-.299-.667-.667 0-.368.299-.667.667-.667.368 0 .667.299.667.667 0 .368-.299.667-.667.667zm2.667 0C4.298 2.667 4 2.368 4 2c0-.368.298-.667.667-.667.368 0 .666.299.666.667 0 .368-.298.667-.666.667zm2.666 0c-.368 0-.666-.299-.666-.667 0-.368.298-.667.666-.667.369 0 .667.299.667.667 0 .368-.298.667-.667.667zm2.667 0c-.368 0-.667-.299-.667-.667 0-.368.299-.667.667-.667.368 0 .667.299.667.667 0 .368-.299.667-.667.667zM3.333 4c-.368 0-.666-.298-.666-.667 0-.368.298-.666.666-.666.369 0 .667.298.667.666C4 3.702 3.702 4 3.333 4zM6 4c-.368 0-.667-.298-.667-.667 0-.368.299-.666.667-.666.368 0 .667.298.667.666C6.667 3.702 6.368 4 6 4zm2.667 0C8.298 4 8 3.702 8 3.333c0-.368.298-.666.667-.666.368 0 .666.298.666.666 0 .369-.298.667-.666.667zM10 5.333c-.368 0-.667-.298-.667-.666 0-.369.299-.667.667-.667.368 0 .667.298.667.667 0 .368-.299.666-.667.666zm-2.667 0c-.368 0-.666-.298-.666-.666 0-.369.298-.667.666-.667.369 0 .667.298.667.667 0 .368-.298.666-.667.666zm-2.666 0c-.369 0-.667-.298-.667-.666C4 4.298 4.298 4 4.667 4c.368 0 .666.298.666.667 0 .368-.298.666-.666.666zM2 5.333c-.368 0-.667-.298-.667-.666C1.333 4.298 1.632 4 2 4c.368 0 .667.298.667.667 0 .368-.299.666-.667.666zm1.333 1.334c-.368 0-.666-.299-.666-.667 0-.368.298-.667.666-.667.369 0 .667.299.667.667 0 .368-.298.667-.667.667zm2.667 0c-.368 0-.667-.299-.667-.667 0-.368.299-.667.667-.667.368 0 .667.299.667.667 0 .368-.299.667-.667.667zm2.667 0C8.298 6.667 8 6.368 8 6c0-.368.298-.667.667-.667.368 0 .666.299.666.667 0 .368-.298.667-.666.667zM10 8c-.368 0-.667-.298-.667-.667 0-.368.299-.666.667-.666.368 0 .667.298.667.666 0 .369-.299.667-.667.667zM7.333 8c-.368 0-.666-.298-.666-.667 0-.368.298-.666.666-.666.369 0 .667.298.667.666C8 7.702 7.702 8 7.333 8zM4.667 8C4.298 8 4 7.702 4 7.333c0-.368.298-.666.667-.666.368 0 .666.298.666.666 0 .369-.298.667-.666.667zM2 8c-.368 0-.667-.298-.667-.667 0-.368.299-.666.667-.666.368 0 .667.298.667.666C2.667 7.702 2.368 8 2 8z"/>
    </defs>
    <g fill="none" fill-rule="evenodd">
        <mask id="hm8a5g9rhb" fill="#fff">
            <use xlink:href="#shc64r8bxa"/>
        </mask>
        <use fill="#FFF" xlink:href="#shc64r8bxa"/>
        <path fill="#D02F44" d="M0 0h28v1.333H0V0zm0 2.667h28V4H0V2.667zm0 2.666h28v1.334H0V5.333zM0 8h28v1.333H0V8zm0 2.667h28V12H0v-1.333zm0 2.666h28v1.334H0v-1.334zM0 16h28v1.333H0V16zm0 2.667h28V20H0v-1.333z" mask="url(#hm8a5g9rhb)"/>
        <path fill="#46467F" d="M0 0H12V9.333H0z" mask="url(#hm8a5g9rhb)"/>
        <g mask="url(#hm8a5g9rhb)">
            <use fill="#000" filter="url(#o5p5a98vrc)" xlink:href="#xepw3f4t1d"/>
            <use fill="url(#mus2nqmzfe)" xlink:href="#xepw3f4t1d"/>
        </g>
    </g>
</svg>
