<svg width="28" height="28" viewBox="0 0 28 28" fill="none" xmlns="http://www.w3.org/2000/svg">
<g filter="url(#filter0_d_566_9959)">
<path d="M13.1813 13.203C13.4654 13.0551 13.8035 13.054 14.0887 13.1999L18.7841 15.603C19.5021 15.9705 19.5021 16.9966 18.7841 17.3641L14.0887 19.7672C13.8035 19.9131 13.4654 19.912 13.1813 19.7641L8.56476 17.361C7.85483 16.9914 7.85483 15.9757 8.56476 15.6061L13.1813 13.203Z" fill="black" fill-opacity="0.01"/>
</g>
<path d="M6 7.26556C6 5.49068 6.95103 3.85188 8.49206 2.97129L11.238 1.40221C12.7585 0.53333 14.6252 0.533331 16.1457 1.40221L18.8916 2.97129C20.4326 3.85188 21.3836 5.49068 21.3836 7.26556V10.3158C21.3836 12.0906 20.4326 13.7294 18.8916 14.61L16.1457 16.1791C14.6252 17.048 12.7585 17.048 11.238 16.1791L8.49206 14.61C6.95103 13.7294 6 12.0906 6 10.3158V7.26556Z" fill="#0E1D37"/>
<path d="M6.73257 7.61297C6.73257 5.84807 7.67303 4.21691 9.20041 3.33263L11.2137 2.16702C12.7466 1.27956 14.6371 1.27956 16.1699 2.16702L18.1833 3.33263C19.7107 4.21691 20.6511 5.84807 20.6511 7.61297V9.9679C20.6511 11.7328 19.7107 13.364 18.1833 14.2482L16.1699 15.4139C14.6371 16.3013 12.7466 16.3013 11.2138 15.4139L9.20042 14.2482C7.67303 13.364 6.73257 11.7328 6.73257 9.9679V7.61297Z" fill="#A0D6FE"/>
<path d="M13.6919 11.2106C13.6919 9.30732 14.784 7.5729 16.5003 6.75037L18.29 5.89272C19.3844 5.36827 20.6511 6.16593 20.6511 7.37946V9.96771C20.6511 11.7326 19.7107 13.3638 18.1833 14.2481L16.1665 15.4156C15.0674 16.052 13.6919 15.2589 13.6919 13.9889L13.6919 12.8193L13.6919 11.2106Z" fill="#316EDC"/>
<path d="M6.73254 7.38388C6.73254 6.16941 8.00112 5.37179 9.09563 5.89808L10.8892 6.76053C12.6024 7.58429 13.6918 9.317 13.6918 11.2179V15.2877C13.6918 15.2877 13.6978 15.8169 13.8211 15.9951C13.9268 16.1478 14.0966 16.2533 14.2503 16.2863C14.4722 16.3339 14.7001 16.261 14.7001 16.261C14.0767 16.6245 13.3062 16.6257 12.6817 16.2642L9.20038 14.2487C7.673 13.3644 6.73254 11.7332 6.73254 9.96832V7.38388Z" fill="url(#paint0_linear_566_9959)"/>
<defs>
<filter id="filter0_d_566_9959" x="0.11883" y="5.17779" width="27.1173" height="22.6115" filterUnits="userSpaceOnUse" color-interpolation-filters="sRGB">
<feFlood flood-opacity="0" result="BackgroundImageFix"/>
<feColorMatrix in="SourceAlpha" type="matrix" values="0 0 0 0 0 0 0 0 0 0 0 0 0 0 0 0 0 0 127 0" result="hardAlpha"/>
<feOffset/>
<feGaussianBlur stdDeviation="3.95674"/>
<feColorMatrix type="matrix" values="0 0 0 0 0 0 0 0 0 0.34902 0 0 0 0 0.870588 0 0 0 0.4 0"/>
<feBlend mode="normal" in2="BackgroundImageFix" result="effect1_dropShadow_566_9959"/>
<feBlend mode="normal" in="SourceGraphic" in2="effect1_dropShadow_566_9959" result="shape"/>
</filter>
<linearGradient id="paint0_linear_566_9959" x1="4.81068" y1="5.19434" x2="0.452044" y2="12.0438" gradientUnits="userSpaceOnUse">
<stop stop-color="#3272F6"/>
<stop offset="1" stop-color="#4499F8"/>
</linearGradient>
</defs>
</svg>
