<svg width="167" height="36" viewBox="0 0 167 36" fill="none" xmlns="http://www.w3.org/2000/svg">
<path fill-rule="evenodd" clip-rule="evenodd" d="M93.624 1.63247C93.2162 2.52955 92.8143 3.48062 92.7308 3.74567C92.5632 4.27757 92.0009 4.49357 90.7719 4.49807C89.1913 4.50415 87.8388 4.78742 87.7033 5.14067C87.6123 5.37827 88.125 5.9977 89.3205 7.09502L91.0709 8.7013L90.5652 10.8928C90.1301 12.7787 90.1038 13.1288 90.3763 13.4018C90.6488 13.6747 90.9588 13.5579 92.598 12.565C93.646 11.9305 94.6043 11.4112 94.7278 11.4112C94.8514 11.4112 95.7992 11.924 96.8339 12.5508C97.8688 13.1777 98.8543 13.6371 99.0241 13.5719C99.417 13.4209 99.4157 12.6633 99.0194 11.0586C98.3679 8.41915 98.27 8.76317 100.123 7.183C101.682 5.85347 102.113 5.16925 101.594 4.8475C101.478 4.77595 100.406 4.62475 99.2124 4.51157C98.0184 4.3984 97.0124 4.27397 96.9774 4.23482C96.9421 4.19567 96.5834 3.35372 96.1797 2.36372C94.968 -0.6092 94.6802 -0.691551 93.624 1.63247ZM109.798 1.63247C109.39 2.52955 108.989 3.48062 108.905 3.74567C108.737 4.27757 108.175 4.49357 106.946 4.49807C105.366 4.50415 104.013 4.78742 103.877 5.14067C103.787 5.37827 104.299 5.9977 105.495 7.09502L107.245 8.7013L106.739 10.8928C106.304 12.7787 106.278 13.1288 106.551 13.4018C106.823 13.6747 107.133 13.5579 108.772 12.565C109.82 11.9305 110.778 11.4112 110.902 11.4112C111.026 11.4112 111.973 11.924 113.008 12.5508C114.043 13.1777 115.028 13.6371 115.198 13.5719C115.591 13.4209 115.59 12.6633 115.194 11.0586C114.542 8.41915 114.444 8.76317 116.297 7.183C117.856 5.85347 118.287 5.16925 117.768 4.8475C117.652 4.77595 116.581 4.62475 115.387 4.51157C114.193 4.3984 113.187 4.27397 113.152 4.23482C113.116 4.19567 112.758 3.35372 112.354 2.36372C111.142 -0.6092 110.854 -0.691551 109.798 1.63247ZM125.972 1.63247C125.565 2.52955 125.163 3.48062 125.079 3.74567C124.912 4.27757 124.349 4.49357 123.12 4.49807C121.54 4.50415 120.187 4.78742 120.052 5.14067C119.961 5.37827 120.473 5.9977 121.669 7.09502L123.419 8.7013L122.914 10.8928C122.478 12.7787 122.452 13.1288 122.725 13.4018C122.997 13.6747 123.307 13.5579 124.946 12.565C125.994 11.9305 126.953 11.4112 127.076 11.4112C127.2 11.4112 128.148 11.924 129.182 12.5508C130.217 13.1777 131.203 13.6371 131.372 13.5719C131.765 13.4209 131.764 12.6633 131.368 11.0586C130.716 8.41915 130.618 8.76317 132.471 7.183C134.031 5.85347 134.462 5.16925 133.942 4.8475C133.826 4.77595 132.755 4.62475 131.561 4.51157C130.367 4.3984 129.361 4.27397 129.326 4.23482C129.291 4.19567 128.932 3.35372 128.528 2.36372C127.316 -0.6092 127.029 -0.691551 125.972 1.63247ZM142.147 1.63247C141.739 2.52955 141.337 3.48062 141.253 3.74567C141.086 4.27757 140.523 4.49357 139.294 4.49807C137.714 4.50415 136.361 4.78742 136.226 5.14067C136.135 5.37827 136.648 5.9977 137.843 7.09502L139.593 8.7013L139.088 10.8928C138.653 12.7787 138.626 13.1288 138.899 13.4018C139.171 13.6747 139.481 13.5579 141.121 12.565C142.169 11.9305 143.127 11.4112 143.25 11.4112C143.374 11.4112 144.322 11.924 145.356 12.5508C146.391 13.1777 147.377 13.6371 147.547 13.5719C147.94 13.4209 147.938 12.6633 147.542 11.0586C146.89 8.41915 146.793 8.76317 148.646 7.183C150.205 5.85347 150.636 5.16925 150.116 4.8475C150.001 4.77595 148.929 4.62475 147.735 4.51157C146.541 4.3984 145.535 4.27397 145.5 4.23482C145.465 4.19567 145.106 3.35372 144.702 2.36372C143.491 -0.6092 143.203 -0.691551 142.147 1.63247ZM158.321 1.63247C157.913 2.52955 157.511 3.48062 157.428 3.74567C157.26 4.27757 156.698 4.49357 155.469 4.49807C153.888 4.50415 152.536 4.78742 152.4 5.14067C152.309 5.37827 152.822 5.9977 154.017 7.09502L155.768 8.7013L155.262 10.8928C154.827 12.7787 154.801 13.1288 155.073 13.4018C155.346 13.6747 155.656 13.5579 157.295 12.565C158.343 11.9305 159.301 11.4112 159.425 11.4112C159.548 11.4112 160.496 11.924 161.531 12.5508C162.566 13.1777 163.551 13.6371 163.721 13.5719C164.114 13.4209 164.112 12.6633 163.716 11.0586C163.065 8.41915 162.967 8.76317 164.82 7.183C166.379 5.85347 166.81 5.16925 166.291 4.8475C166.175 4.77595 165.103 4.62475 163.909 4.51157C162.715 4.3984 161.709 4.27397 161.674 4.23482C161.639 4.19567 161.28 3.35372 160.876 2.36372C159.665 -0.6092 159.377 -0.691551 158.321 1.63247ZM52.3656 27.2089C51.4502 28.1258 51.4327 29.5788 52.3268 30.4307C53.16 31.2245 53.939 31.3831 54.9425 30.9632C55.9001 30.5623 56.5509 29.3349 56.3144 28.3755C55.8687 26.5679 53.6578 25.9147 52.3656 27.2089Z" fill="#EB4F3C"/>
<path fill-rule="evenodd" clip-rule="evenodd" d="M0.149836 1.98132C0.0673924 2.06367 0 3.68367 0 5.58132V9.03124H0.561604C1.10299 9.03124 1.12321 8.97882 1.12321 7.56874V6.10624H1.88497C2.59528 6.10624 2.69772 6.20502 3.4013 7.56784C4.05703 8.83797 4.23831 9.02967 4.78464 9.03035L5.41341 9.03124L4.58853 7.55367L3.76342 6.07632L4.35288 5.46027C5.39836 4.36722 5.07263 2.72585 3.6958 2.14962C2.92258 1.82607 0.423224 1.70749 0.149836 1.98132ZM7.12113 1.97367C7.03465 2.0603 6.96389 3.68367 6.96389 5.58132V9.03124H9.32262C11.5315 9.03124 11.6814 9.00267 11.6814 8.58124C11.6814 8.16882 11.5315 8.13124 9.88422 8.13124H8.08709V7.01659V5.90172L9.60118 5.83534C10.8329 5.78112 11.1292 5.69539 11.1901 5.37499C11.2557 5.03007 11.0681 4.98124 9.67598 4.98124H8.08709V3.85624V2.73124H9.90062C11.5068 2.73124 11.7056 2.68624 11.6391 2.33749C11.5747 2.00089 11.2532 1.93452 9.42124 1.87985C8.24277 1.84475 7.20785 1.88705 7.12113 1.97367ZM13.0292 2.1206C13.0292 2.297 13.5753 3.89877 14.2427 5.68009C15.3084 8.52387 15.5178 8.91874 15.9601 8.91874C16.4029 8.91874 16.6089 8.52724 17.6667 5.67267C18.3285 3.88729 18.8699 2.28552 18.8699 2.11317C18.8699 1.91742 18.6814 1.82697 18.3669 1.87175C17.9417 1.93272 17.7244 2.35257 16.9629 4.58637C16.4673 6.03987 16.0113 7.22922 15.9495 7.22922C15.8878 7.22922 15.4317 6.03987 14.9362 4.58637C14.1747 2.35257 13.9574 1.93272 13.5322 1.87175C13.213 1.8263 13.0292 1.9172 13.0292 2.1206ZM20.8917 5.43124C20.8917 8.88117 20.9103 9.03124 21.3409 9.03124C21.7716 9.03124 21.7902 8.88117 21.7902 5.43124C21.7902 1.98132 21.7716 1.83124 21.3409 1.83124C20.9103 1.83124 20.8917 1.98132 20.8917 5.43124ZM24.4185 1.97367C24.332 2.0603 24.2613 3.68367 24.2613 5.58132V9.03124H26.62C28.8289 9.03124 28.9787 9.00267 28.9787 8.58124C28.9787 8.16882 28.8289 8.13124 27.1816 8.13124H25.3845V7.01659V5.90172L26.8986 5.83534C28.1303 5.78112 28.4266 5.69539 28.4875 5.37499C28.5531 5.03007 28.3655 4.98124 26.9734 4.98124H25.3845V3.85624V2.73124H27.198C28.8042 2.73124 29.003 2.68624 28.9365 2.33749C28.872 2.00089 28.5506 1.93452 26.7186 1.87985C25.5402 1.84475 24.5052 1.88705 24.4185 1.97367ZM30.4068 2.33749C30.4798 2.61582 30.8707 4.23492 31.2755 5.93524C31.9454 8.74887 32.0559 9.02697 32.5074 9.02899C33.0234 9.03124 33.009 9.06612 34.2131 4.86874L34.5359 3.74374L35.0023 5.31874C35.2588 6.18499 35.5873 7.37479 35.7324 7.96249C35.9514 8.85079 36.083 9.03124 36.5121 9.03124C36.9915 9.03124 37.0856 8.79229 37.8332 5.67334C38.276 3.82654 38.6383 2.19957 38.6383 2.05782C38.6383 1.91607 38.411 1.83237 38.1329 1.87175C37.682 1.9361 37.5684 2.21757 37.0802 4.48489C36.7794 5.88259 36.4656 6.89509 36.3827 6.73489C36.3 6.57469 35.9514 5.40064 35.6079 4.12579C35.0573 2.08302 34.9288 1.81594 34.5249 1.87579C34.1473 1.93182 33.9476 2.37147 33.3923 4.36767C33.0216 5.70102 32.6478 6.71352 32.5616 6.61767C32.4755 6.52204 32.1741 5.40604 31.8919 4.13749C31.4112 1.97727 31.3438 1.83124 30.8264 1.83124C30.3641 1.83124 30.2958 1.91382 30.4068 2.33749ZM40.5927 1.97367C40.5062 2.0603 40.4355 3.68367 40.4355 5.58132V9.03124H42.7942C45.0031 9.03124 45.1529 9.00267 45.1529 8.58124C45.1529 8.16882 45.0031 8.13124 43.3558 8.13124H41.5587V7.01659V5.90172L43.0728 5.83534C44.3045 5.78112 44.6008 5.69539 44.6616 5.37499C44.7272 5.03007 44.5397 4.98124 43.1476 4.98124H41.5587V3.85624V2.73124H43.3722C44.9784 2.73124 45.1772 2.68624 45.1107 2.33749C45.0462 2.00089 44.7248 1.93452 42.8928 1.87985C41.7143 1.84475 40.6794 1.88705 40.5927 1.97367ZM47.1185 1.95747C47.0258 2.05309 46.9501 3.68367 46.9501 5.58132V9.03124H48.4893C51.0448 9.03124 52.1997 7.89927 52.1764 5.41707C52.1631 3.98562 51.7035 2.91259 50.8694 2.3654C50.2698 1.97187 47.4065 1.66047 47.1185 1.95747ZM58.7469 2.31904C57.933 2.96007 57.5082 4.02769 57.5082 5.43124C57.5082 7.74019 58.5726 9.03124 60.4762 9.03124C61.3965 9.03124 61.6955 8.92189 62.2248 8.39179C63.8539 6.76009 63.4902 2.75172 61.6493 2.05062C60.6651 1.67577 59.4168 1.79119 58.7469 2.31904ZM65.5205 1.98132C65.4381 2.06367 65.3707 3.68367 65.3707 5.58132V9.03124H65.9323H66.4939V6.39649V3.76174L68.2003 6.39649C69.5982 8.55469 70.0043 9.03124 70.4467 9.03124H70.9867V5.43124V1.83124H70.4325C69.8799 1.83124 69.8781 1.83889 69.8147 4.36024L69.7512 6.88902L68.1203 4.36024C66.581 1.97322 66.0309 1.46989 65.5205 1.98132ZM3.31953 3.08157C3.86967 3.46744 3.99615 4.48872 3.54934 4.93625C3.40107 5.08475 2.79454 5.20624 2.20149 5.20624H1.12321V3.96874V2.73124H1.97168C2.43848 2.73124 3.04501 2.88897 3.31953 3.08157ZM49.9596 3.04444C50.4671 3.25684 50.7903 3.59389 50.9633 4.09069C51.7228 6.27297 50.7088 8.13124 48.7584 8.13124H48.0733V5.43124V2.73124H48.6421C48.955 2.73124 49.5478 2.87232 49.9596 3.04444ZM61.5547 3.29689C62.256 4.04457 62.4474 6.14922 61.9089 7.19187C61.2793 8.41159 59.5918 8.43882 58.9724 7.23912C58.5685 6.45679 58.5229 4.48062 58.8927 3.78514C59.5165 2.61199 60.7076 2.39352 61.5547 3.29689ZM90.0812 27.2398C88.6249 27.7863 88.3868 27.9524 88.3254 28.464C88.2419 29.1597 88.1922 29.148 89.4073 28.7187C89.9325 28.5331 90.4508 28.3812 90.5588 28.3812C90.6669 28.3812 90.7552 30.0519 90.7552 32.0937V35.8062H91.3168H91.8784V31.1937C91.8784 28.6569 91.8532 26.5871 91.8222 26.5943C91.7912 26.6017 91.0079 26.892 90.0812 27.2398ZM160.009 26.739C159.736 26.7921 159.205 27.1226 158.83 27.4736C158.281 27.9873 158.148 28.2951 158.148 29.0513C158.148 30.2674 158.906 31.054 160.734 31.7349C162.558 32.4141 163.09 32.7935 163.09 33.414C163.09 34.1948 162.354 34.7366 161.313 34.7222C160.194 34.7067 159.534 34.3631 159.266 33.655C159.11 33.2442 158.89 33.1062 158.394 33.1062C157.758 33.1062 157.738 33.1362 157.929 33.8031C158.323 35.1776 159.334 35.8159 161.153 35.8377C163.145 35.8616 164.438 34.8905 164.438 33.3711C164.438 32.3374 163.346 31.2743 161.742 30.7449C159.981 30.1639 159.495 29.796 159.495 29.0432C159.495 27.7321 161.497 27.216 162.538 28.2586C162.841 28.5624 163.09 28.9674 163.09 29.1586C163.09 29.3976 163.308 29.5062 163.788 29.5062C164.437 29.5062 164.476 29.4624 164.334 28.8875C163.894 27.0927 162.291 26.2964 160.009 26.739ZM98.2806 27.225C96.7582 28.1668 96.1713 29.45 96.1567 31.8687C96.1412 34.4695 97.1651 35.8438 99.1186 35.8438C99.6784 35.8438 100.339 35.7171 100.586 35.5623C101.325 35.1 101.814 34.0389 101.814 32.8979C101.814 30.7055 100.4 29.4018 98.5569 29.8948C98.0365 30.0339 97.5908 30.1277 97.5663 30.1034C97.542 30.0789 97.6822 29.7276 97.8779 29.3229C98.2618 28.5288 98.7926 28.1574 99.8531 27.94C100.323 27.8439 100.549 27.6513 100.599 27.3042C100.662 26.8645 100.57 26.8062 99.8127 26.8071C99.3407 26.8076 98.6513 26.9955 98.2806 27.225ZM108.277 31.3062V35.8062H108.951H109.625V34.0062V32.2062H110.633H111.642L112.545 34.0062C113.416 35.7401 113.478 35.8062 114.234 35.8062H115.019L113.983 33.8883L112.948 31.9702L113.528 31.5137C114.865 30.4598 114.775 28.1011 113.365 27.2396C112.796 26.8922 112.23 26.8078 110.467 26.8071L108.277 26.8062V31.3062ZM117.038 31.3062V35.8062H119.846H122.654V35.2437V34.6812H120.408H118.161V33.2275V31.7738L120.127 31.7088C121.961 31.648 122.097 31.6104 122.163 31.1465C122.231 30.6697 122.152 30.6465 120.254 30.584L118.274 30.5187L118.206 29.225L118.139 27.9312H120.397H122.654V27.3687V26.8062H119.846H117.038V31.3062ZM124.227 27.004C124.227 27.1129 124.946 29.1379 125.824 31.504C127.345 35.6013 127.45 35.8062 128.015 35.8062C128.58 35.8062 128.682 35.606 130.16 31.5875C131.013 29.2673 131.76 27.2346 131.818 27.0711C131.896 26.8533 131.721 26.7927 131.165 26.8461L130.406 26.9187L129.279 30.222C128.659 32.0386 128.096 33.5803 128.029 33.648C127.961 33.7155 127.672 33.0392 127.387 32.1448C127.101 31.2504 126.566 29.6833 126.199 28.6625C125.572 26.9167 125.493 26.8062 124.879 26.8062C124.52 26.8062 124.227 26.8953 124.227 27.004ZM133.886 31.3062V35.8062H134.56H135.234V31.3062V26.8062H134.56H133.886V31.3062ZM138.155 31.3062V35.8062H141.075H143.995V35.2437V34.6812H141.749H139.502V33.2187V31.7562H141.412C143.299 31.7562 143.321 31.7497 143.321 31.1937C143.321 30.6378 143.299 30.6312 141.412 30.6312H139.502V29.2893V27.9474L141.693 27.8831C143.77 27.8221 143.886 27.7926 143.955 27.3125C144.026 26.8096 144.007 26.8062 141.091 26.8062H138.155V31.3062ZM145.718 27.425C145.805 27.7652 146.29 29.765 146.795 31.8687L147.714 35.6937H148.363C149.004 35.6937 149.022 35.658 149.962 32.4312C151.05 28.6992 150.898 28.6548 152.091 33.05C152.82 35.7399 152.854 35.8062 153.467 35.8062C153.969 35.8062 154.124 35.6814 154.237 35.1875C154.315 34.8473 154.772 32.9787 155.252 31.0351C155.733 29.0916 156.126 27.3451 156.126 27.1539C156.126 26.9241 155.915 26.8062 155.505 26.8062C154.89 26.8062 154.877 26.8382 154.233 29.7875C153.876 31.4271 153.522 32.8902 153.448 33.0387C153.374 33.187 152.918 31.8456 152.435 30.0575C151.579 26.8832 151.544 26.8062 150.946 26.8062C150.351 26.8062 150.311 26.8899 149.467 29.9542C148.991 31.6856 148.541 33.1031 148.469 33.1042C148.397 33.1053 148.114 32.0544 147.84 30.7689C147.003 26.8362 146.99 26.8062 146.227 26.8062C145.61 26.8062 145.571 26.8533 145.718 27.425ZM112.456 28.1034C112.793 28.329 113.219 29.1723 113.219 29.6142C113.219 29.8136 112.971 30.2251 112.668 30.5289C112.215 30.9825 111.894 31.0812 110.871 31.0812H109.625V29.5062V27.9312L110.917 27.9346C111.627 27.9366 112.32 28.0125 112.456 28.1034ZM99.6184 30.996C100.054 31.1636 100.639 32.2314 100.639 32.8594C100.639 34.0974 99.4782 35.1425 98.6163 34.6806C97.3825 34.0193 97.082 32.114 98.0863 31.3227C98.7086 30.8324 99.0199 30.766 99.6184 30.996Z" fill="#66757A"/>
<path fill-rule="evenodd" clip-rule="evenodd" d="M18.87 25.65V36H20.5548H22.2396V25.65V15.3H20.5548H18.87V25.65ZM60.8779 25.65V36H62.5425H64.2069L64.2866 31.5563C64.3529 27.8481 64.4315 26.9919 64.7608 26.3833C65.295 25.3962 66.0444 24.9498 67.1939 24.9341C67.9671 24.9233 68.2567 25.0387 68.6725 25.5229C69.1782 26.112 69.1896 26.2335 69.1896 31.0626V36H70.8745H72.5593V31.2035C72.5593 25.6948 72.3544 24.5964 71.0587 23.1597C69.6488 21.5969 67.1083 21.2157 65.0628 22.2602L64.2475 22.6764V18.9882V15.3H62.5627H60.8779V25.65ZM6.50164 16.3863C4.16829 17.2438 2.1126 18.9896 1.09924 20.9743C0.511577 22.1252 0.00748179 24.3871 0.00343824 25.8903C-0.000829947 27.4809 0.6695 30.0562 1.42272 31.3437C3.85155 35.4949 9.10097 37.0753 13.6035 35.0107C14.9632 34.3872 16.8482 32.9475 16.8482 32.5323C16.8482 32.3874 16.3955 31.8238 15.8425 31.28L14.8367 30.2914L13.9892 30.9587C12.558 32.0853 12.0224 32.3557 10.762 32.5888C7.79917 33.1367 5.03159 31.6787 3.78371 28.9125C3.0343 27.2509 3.06238 24.636 3.84795 22.9397C5.12706 20.1783 6.98912 18.9936 9.76299 19.1759C11.4442 19.2864 13.2067 20.0007 14.0188 20.9007C14.2542 21.1615 14.5618 21.375 14.7022 21.375C14.8426 21.375 15.4028 20.9205 15.9471 20.365L16.9369 19.355L16.2749 18.6521C15.3716 17.6931 14.1035 16.9113 12.6249 16.4019C11.0385 15.8551 7.96788 15.8472 6.50164 16.3863ZM40.3607 17.0251C40.2783 17.1075 40.2109 18.216 40.2109 19.4882V21.8014L39.0315 21.8696L37.8522 21.9375L37.7861 23.5688L37.7201 25.2H38.9655H40.2109V30.6V36H41.8917H43.5724L43.6326 30.6563L43.6928 25.3125L44.8722 25.2446L46.0516 25.1764V23.5008V21.825H44.816H43.5805V19.35V16.875H42.0455C41.2011 16.875 40.443 16.9426 40.3607 17.0251ZM52.4022 21.828C48.9095 22.5525 46.7255 25.1917 46.7255 28.6875C46.7255 33.3579 50.6428 36.6589 55.1347 35.7737C56.6073 35.4837 57.6974 34.9833 58.7438 34.1168L59.4177 33.5588L58.1822 32.4383C56.9811 31.3488 56.9341 31.3288 56.4974 31.7183C55.3551 32.7366 53.6242 32.9799 52.089 32.3373C49.434 31.2262 49.1685 27.1312 51.6447 25.4831C52.9247 24.6312 55.3877 24.8355 56.5084 25.8867C56.9656 26.3154 56.9766 26.3102 58.1496 25.1206L59.3308 23.9227L58.5282 23.3096C56.7986 21.9884 54.4114 21.411 52.4022 21.828ZM24.7515 26.9337C24.8178 31.6899 24.8584 32.1287 25.3104 32.9745C26.6547 35.4895 29.2095 36.5391 31.9196 35.6895C32.4644 35.5188 33.0871 35.3055 33.3032 35.2155C33.6049 35.0899 33.6963 35.1622 33.6963 35.526C33.6963 35.9659 33.8176 36 35.3811 36H37.0659V28.9026V21.8052L35.4373 21.8714L33.8086 21.9375L33.6963 26.3358C33.6019 30.0326 33.5208 30.8309 33.1877 31.3389C32.5661 32.2875 31.7412 32.7117 30.5169 32.7117C29.6152 32.7117 29.3003 32.5994 28.8025 32.1012L28.1926 31.4911L28.0803 26.7143L27.9679 21.9375L26.324 21.8712L24.6801 21.8048L24.7515 26.9337Z" fill="#1D303A"/>
</svg>
