<svg id="eZ7yPkdlItG1" xmlns="http://www.w3.org/2000/svg" xmlns:xlink="http://www.w3.org/1999/xlink" viewBox="0 0 816 624" shape-rendering="geometricPrecision" text-rendering="geometricPrecision"><defs><linearGradient id="eZ7yPkdlItG4-fill" x1="699.176" y1="230.589" x2="127.957" y2="467.239" spreadMethod="pad" gradientUnits="userSpaceOnUse" gradientTransform="translate(0 0)"><stop id="eZ7yPkdlItG4-fill-0" offset="0%" stop-color="#e5e8f5"/><stop id="eZ7yPkdlItG4-fill-1" offset="100%" stop-color="rgba(235,238,251,0.24)"/></linearGradient><linearGradient id="eZ7yPkdlItG11-fill" x1="339.438" y1="402.171" x2="472.255" y2="402.171" spreadMethod="pad" gradientUnits="userSpaceOnUse" gradientTransform="translate(0 0)"><stop id="eZ7yPkdlItG11-fill-0" offset="0.155072%" stop-color="#eaeaf1"/><stop id="eZ7yPkdlItG11-fill-1" offset="100%" stop-color="#eeeff4"/></linearGradient><linearGradient id="eZ7yPkdlItG14-fill" x1="342.993" y1="399.621" x2="468.7" y2="399.621" spreadMethod="pad" gradientUnits="userSpaceOnUse" gradientTransform="translate(0 0)"><stop id="eZ7yPkdlItG14-fill-0" offset="0.604585%" stop-color="#4fb1ff"/><stop id="eZ7yPkdlItG14-fill-1" offset="100%" stop-color="#427cff"/></linearGradient><linearGradient id="eZ7yPkdlItG19-fill" x1="260.044" y1="355.754" x2="392.86" y2="355.754" spreadMethod="pad" gradientUnits="userSpaceOnUse" gradientTransform="translate(0 0)"><stop id="eZ7yPkdlItG19-fill-0" offset="0.155072%" stop-color="#eaeaf1"/><stop id="eZ7yPkdlItG19-fill-1" offset="100%" stop-color="#eeeff4"/></linearGradient><linearGradient id="eZ7yPkdlItG22-fill" x1="263.599" y1="353.204" x2="389.305" y2="353.204" spreadMethod="pad" gradientUnits="userSpaceOnUse" gradientTransform="translate(0 0)"><stop id="eZ7yPkdlItG22-fill-0" offset="0.604585%" stop-color="#4fb1ff"/><stop id="eZ7yPkdlItG22-fill-1" offset="100%" stop-color="#427cff"/></linearGradient><linearGradient id="eZ7yPkdlItG30-fill" x1="181.923" y1="310.402" x2="314.74" y2="310.402" spreadMethod="pad" gradientUnits="userSpaceOnUse" gradientTransform="translate(0 0)"><stop id="eZ7yPkdlItG30-fill-0" offset="0.155072%" stop-color="#eaeaf1"/><stop id="eZ7yPkdlItG30-fill-1" offset="100%" stop-color="#eeeff4"/></linearGradient><linearGradient id="eZ7yPkdlItG33-fill" x1="185.479" y1="307.852" x2="311.185" y2="307.852" spreadMethod="pad" gradientUnits="userSpaceOnUse" gradientTransform="translate(0 0)"><stop id="eZ7yPkdlItG33-fill-0" offset="0.604585%" stop-color="#4fb1ff"/><stop id="eZ7yPkdlItG33-fill-1" offset="100%" stop-color="#427cff"/></linearGradient><linearGradient id="eZ7yPkdlItG36-fill" x1="218.011" y1="301.443" x2="280.318" y2="301.443" spreadMethod="pad" gradientUnits="userSpaceOnUse" gradientTransform="translate(0 0)"><stop id="eZ7yPkdlItG36-fill-0" offset="0.604585%" stop-color="#4fb1ff"/><stop id="eZ7yPkdlItG36-fill-1" offset="100%" stop-color="#427cff"/></linearGradient><linearGradient id="eZ7yPkdlItG39-fill" x1="416.263" y1="357.251" x2="549.08" y2="357.251" spreadMethod="pad" gradientUnits="userSpaceOnUse" gradientTransform="translate(0 0)"><stop id="eZ7yPkdlItG39-fill-0" offset="0.155072%" stop-color="#eaeaf1"/><stop id="eZ7yPkdlItG39-fill-1" offset="100%" stop-color="#eeeff4"/></linearGradient><linearGradient id="eZ7yPkdlItG42-fill" x1="419.818" y1="354.7" x2="545.525" y2="354.7" spreadMethod="pad" gradientUnits="userSpaceOnUse" gradientTransform="translate(0 0)"><stop id="eZ7yPkdlItG42-fill-0" offset="0.604585%" stop-color="#4fb1ff"/><stop id="eZ7yPkdlItG42-fill-1" offset="100%" stop-color="#427cff"/></linearGradient><linearGradient id="eZ7yPkdlItG46-fill" x1="472.235" y1="343.806" x2="483.22" y2="362.831" spreadMethod="pad" gradientUnits="userSpaceOnUse" gradientTransform="translate(0 0)"><stop id="eZ7yPkdlItG46-fill-0" offset="0.604585%" stop-color="#4fb1ff"/><stop id="eZ7yPkdlItG46-fill-1" offset="100%" stop-color="#427cff"/></linearGradient><linearGradient id="eZ7yPkdlItG49-fill" x1="336.868" y1="310.834" x2="469.685" y2="310.834" spreadMethod="pad" gradientUnits="userSpaceOnUse" gradientTransform="translate(0 0)"><stop id="eZ7yPkdlItG49-fill-0" offset="0.155072%" stop-color="#eaeaf1"/><stop id="eZ7yPkdlItG49-fill-1" offset="100%" stop-color="#eeeff4"/></linearGradient><linearGradient id="eZ7yPkdlItG52-fill" x1="340.423" y1="308.284" x2="466.13" y2="308.284" spreadMethod="pad" gradientUnits="userSpaceOnUse" gradientTransform="translate(0 0)"><stop id="eZ7yPkdlItG52-fill-0" offset="0.604585%" stop-color="#4fb1ff"/><stop id="eZ7yPkdlItG52-fill-1" offset="100%" stop-color="#427cff"/></linearGradient><linearGradient id="eZ7yPkdlItG63-fill" x1="258.747" y1="265.481" x2="391.564" y2="265.481" spreadMethod="pad" gradientUnits="userSpaceOnUse" gradientTransform="translate(0 0)"><stop id="eZ7yPkdlItG63-fill-0" offset="0.155072%" stop-color="#eaeaf1"/><stop id="eZ7yPkdlItG63-fill-1" offset="100%" stop-color="#eeeff4"/></linearGradient><linearGradient id="eZ7yPkdlItG66-fill" x1="262.303" y1="262.931" x2="388.009" y2="262.931" spreadMethod="pad" gradientUnits="userSpaceOnUse" gradientTransform="translate(0 0)"><stop id="eZ7yPkdlItG66-fill-0" offset="0.604585%" stop-color="#4fb1ff"/><stop id="eZ7yPkdlItG66-fill-1" offset="100%" stop-color="#427cff"/></linearGradient><linearGradient id="eZ7yPkdlItG91-fill" x1="491.693" y1="312.043" x2="624.51" y2="312.043" spreadMethod="pad" gradientUnits="userSpaceOnUse" gradientTransform="translate(0 0)"><stop id="eZ7yPkdlItG91-fill-0" offset="0.155072%" stop-color="#eaeaf1"/><stop id="eZ7yPkdlItG91-fill-1" offset="100%" stop-color="#eeeff4"/></linearGradient><linearGradient id="eZ7yPkdlItG94-fill" x1="495.248" y1="309.493" x2="620.955" y2="309.493" spreadMethod="pad" gradientUnits="userSpaceOnUse" gradientTransform="translate(0 0)"><stop id="eZ7yPkdlItG94-fill-0" offset="0.604585%" stop-color="#4fb1ff"/><stop id="eZ7yPkdlItG94-fill-1" offset="100%" stop-color="#427cff"/></linearGradient><linearGradient id="eZ7yPkdlItG101-fill" x1="527.688" y1="303.211" x2="595.723" y2="303.211" spreadMethod="pad" gradientUnits="userSpaceOnUse" gradientTransform="translate(0 0)"><stop id="eZ7yPkdlItG101-fill-0" offset="0.155072%" stop-color="#efeff6"/><stop id="eZ7yPkdlItG101-fill-1" offset="100%" stop-color="#eeeff4"/></linearGradient><linearGradient id="eZ7yPkdlItG105-fill" x1="412.298" y1="265.627" x2="545.115" y2="265.627" spreadMethod="pad" gradientUnits="userSpaceOnUse" gradientTransform="translate(0 0)"><stop id="eZ7yPkdlItG105-fill-0" offset="0.155072%" stop-color="#eaeaf1"/><stop id="eZ7yPkdlItG105-fill-1" offset="100%" stop-color="#eeeff4"/></linearGradient><linearGradient id="eZ7yPkdlItG108-fill" x1="415.853" y1="263.077" x2="541.56" y2="263.077" spreadMethod="pad" gradientUnits="userSpaceOnUse" gradientTransform="translate(0 0)"><stop id="eZ7yPkdlItG108-fill-0" offset="0.604585%" stop-color="#4fb1ff"/><stop id="eZ7yPkdlItG108-fill-1" offset="100%" stop-color="#427cff"/></linearGradient><linearGradient id="eZ7yPkdlItG113-fill" x1="334.177" y1="220.274" x2="466.994" y2="220.274" spreadMethod="pad" gradientUnits="userSpaceOnUse" gradientTransform="translate(0 0)"><stop id="eZ7yPkdlItG113-fill-0" offset="0.155072%" stop-color="#eaeaf1"/><stop id="eZ7yPkdlItG113-fill-1" offset="100%" stop-color="#eeeff4"/></linearGradient><linearGradient id="eZ7yPkdlItG116-fill" x1="337.733" y1="217.724" x2="463.439" y2="217.724" spreadMethod="pad" gradientUnits="userSpaceOnUse" gradientTransform="translate(0 0)"><stop id="eZ7yPkdlItG116-fill-0" offset="0.604585%" stop-color="#4fb1ff"/><stop id="eZ7yPkdlItG116-fill-1" offset="100%" stop-color="#427cff"/></linearGradient><linearGradient id="eZ7yPkdlItG121-stroke" x1="100.013079" y1="75.7621" x2="32.792879" y2="-29.5061" spreadMethod="pad" gradientUnits="userSpaceOnUse" gradientTransform="translate(0 0)"><stop id="eZ7yPkdlItG121-stroke-0" offset="0%" stop-color="#fff"/><stop id="eZ7yPkdlItG121-stroke-1" offset="100%" stop-color="rgba(255,255,255,0)"/></linearGradient><linearGradient id="eZ7yPkdlItG122-stroke" x1="100.013079" y1="75.7621" x2="32.792879" y2="-29.5061" spreadMethod="pad" gradientUnits="userSpaceOnUse" gradientTransform="translate(0 0)"><stop id="eZ7yPkdlItG122-stroke-0" offset="0%" stop-color="#fff"/><stop id="eZ7yPkdlItG122-stroke-1" offset="100%" stop-color="rgba(255,255,255,0)"/></linearGradient><linearGradient id="eZ7yPkdlItG123-stroke" x1="100.013079" y1="75.7621" x2="32.792879" y2="-29.5061" spreadMethod="pad" gradientUnits="userSpaceOnUse" gradientTransform="translate(0 0)"><stop id="eZ7yPkdlItG123-stroke-0" offset="0%" stop-color="#fff"/><stop id="eZ7yPkdlItG123-stroke-1" offset="100%" stop-color="rgba(255,255,255,0)"/></linearGradient></defs><g clip-path="url(#eZ7yPkdlItG124)"><g><path d="M310.305,113.171c34.078-19.6748,51.116-29.5121,71.152-32.5792c12.926-1.9787,26.521-1.9787,39.446,0c20.036,3.0671,37.075,12.9043,71.152,32.5792L757.729,266.557c34.077,19.675,51.115,29.512,56.428,41.08c3.427,7.462,3.427,15.312,0,22.774-5.313,11.568-22.351,21.405-56.428,41.079L497.341,521.825c-34.077,19.675-51.116,29.512-71.152,32.579-12.925,1.979-26.52,1.979-39.445,0-20.036-3.067-37.075-12.904-71.152-32.579L65.3205,377.331c-39.853-23.009-59.77944-34.514-65.992281-48.042-4.007949-8.727-4.007949-17.907.000001-26.634c6.21284-13.529,26.13938-25.033,65.99228-48.042L310.305,113.171Z" fill="url(#eZ7yPkdlItG4-fill)"/><path d="M116.613,203.474l-15.104,6.599l17.451,4.253-2.347-10.852Z" opacity="0.5" fill="none" stroke="#c9c9dc" stroke-width="1.59748" stroke-miterlimit="10"/><path d="M539.327,213.52l-4.693-5.426l9.459-2.713l4.692,5.426-9.458,2.713Z" opacity="0.5" fill="none" stroke="#c9c9dc" stroke-width="1.59748" stroke-miterlimit="10"/><path d="M461.456,90.9218c-2.639-1.5398-2.639-4.0328,0-5.5726c2.64-1.5398,6.966-1.5398,9.679,0" opacity="0.5" fill="none" stroke="#c9c9dc" stroke-width="1.59748" stroke-miterlimit="10"/><path d="M251.457,486.652c1.822,0,3.299-1.478,3.299-3.3s-1.477-3.3-3.299-3.3c-1.823,0-3.3,1.478-3.3,3.3s1.477,3.3,3.3,3.3Z" fill="#6a7aff"/><path d="M402.723,445.737l-56.166-32.41c-4.106-2.419-3.593-6.525,1.173-9.312l53.82-31.089c4.766-2.786,12.025-3.08,16.131-.66l56.167,32.409c4.106,2.42,3.592,6.526-1.174,9.312l-53.819,31.09c-4.766,2.786-11.952,3.079-16.132.66Z" fill="#e7e8eb"/><path d="M470.695,401.962v1.027c-.367-.293-.733-.587-1.247-.88L413.282,369.7c-4.106-2.42-11.365-2.053-16.131.66l-53.746,31.162c-.88.514-1.687,1.1-2.273,1.687v-1.027h-1.687v4.766c.073,1.467.953,2.86,2.786,3.887l56.166,32.409c4.107,2.419,11.366,2.053,16.132-.66l53.819-31.09c2.493-1.466,3.813-3.226,3.96-4.986c0-.146,0-.366,0-.513v-3.959h-1.613v-.074Z" fill="#c9c9dc"/><path d="M398.397,438.918l-56.166-32.41c-4.106-2.419-3.593-6.525,1.173-9.312l53.82-31.089c4.766-2.786,12.025-3.08,16.131-.66l56.166,32.409c4.106,2.42,3.593,6.526-1.173,9.312l-53.82,31.09c-4.839,2.713-12.025,3.006-16.131.66Z" fill="url(#eZ7yPkdlItG11-fill)"/><path d="M398.397,436.058l-52.573-30.356c-4.106-2.42-3.593-6.526,1.173-9.312l50.227-29.037c4.766-2.786,12.025-3.079,16.131-.66l52.573,30.357c4.106,2.419,3.593,6.525-1.173,9.312l-50.227,29.036c-4.839,2.713-12.025,3.006-16.131.66Z" fill="#211258"/><path d="M398.397,435.178l-52.573-30.356c-4.106-2.42-3.593-6.526,1.173-9.312l50.227-29.037c4.766-2.786,12.025-3.079,16.131-.659l52.573,30.356c4.106,2.419,3.593,6.526-1.173,9.312l-50.227,29.036c-4.839,2.713-12.025,3.007-16.131.66Z" fill="#362295"/><path d="M398.397,434.298l-52.573-30.356c-4.106-2.42-3.593-6.526,1.173-9.312l50.227-29.036c4.766-2.787,12.025-3.08,16.131-.66l52.573,30.356c4.106,2.419,3.593,6.526-1.173,9.312l-50.227,29.036c-4.839,2.713-12.025,3.08-16.131.66Z" fill="url(#eZ7yPkdlItG14-fill)"/><path d="M433.447,396.536c-1.614,0-3.227-.366-4.327-1.099-.293-.22-22.29-12.832-22.583-13.052-.074-.073-.22-.073-.367-.073-1.467,0-2.933.073-4.4.073-.293,0-.586-.073-.806-.147-.367-.22-.367-.513,0-.733.66-.367,1.246-.733,1.906-1.1.147-.073.147-.147,0-.22-1.319-1.32-1.246-2.566-.073-3.886.22-.22.513-.44.807-.66l.879-.513c.294-.147.66-.294,1.027-.367c1.98-.66,4.106-.806,6.233-.22.586.147,1.173.367,1.613.66c1.246.733,24.123,13.932,25.37,14.665c1.76,1.026,2.273,2.2,1.76,3.593-.734,1.76-3.667,3.079-7.039,3.079Zm-24.344-5.939c2.346-.293,4.473,0,6.159,1.027c1.247.733,17.451,10.118,18.698,10.778.513.294.88.587,1.173.954.953,1.246.733,2.419-.367,3.592-.22.22-.44.44-.66.587l-.879.513c-.367.147-.807.294-1.174.44-2.273.66-4.472.733-6.672,0-.147-.073-.22-.073-.367,0-.66.367-1.246.733-1.906,1.1-.367.22-.953.22-1.32,0-.22-.147-.293-.293-.293-.44.073-.88.073-1.686.073-2.566c0-.074-.073-.147-.147-.22-.293-.22-15.618-9.019-15.911-9.166-1.173-.66-1.833-1.54-1.906-2.493c0-1.979,2.273-3.666,5.499-4.106Zm-8.872,17.451c-1.613,0-3.227-.366-4.326-1.1-.294-.22-15.618-9.018-15.912-9.165-.073-.073-.22-.073-.366-.073-1.467,0-2.933.073-4.4.073-.293,0-.586-.073-.806-.147-.367-.22-.367-.513,0-.733.66-.367,1.246-.733,1.906-1.1.147-.073.147-.146,0-.22-1.32-1.32-1.246-2.566-.073-3.886.22-.22.513-.44.806-.66l.88-.513c.293-.147.66-.293,1.027-.367c1.979-.66,4.106-.806,6.232-.22.587.147,1.173.367,1.613.66c1.247.733,17.452,10.119,18.698,10.779c1.76,1.026,2.273,2.199,1.76,3.593-.807,1.759-3.74,3.079-7.039,3.079Zm-12.025,1.173c2.346-.293,4.472,0,6.159,1.027c1.246.733,11.732,6.819,13.051,7.479.514.293.88.587,1.174.953.953,1.247.733,2.42-.367,3.593-.22.22-.44.44-.66.587l-.88.513c-.366.147-.806.293-1.173.44-2.273.66-4.473.733-6.672,0-.147-.073-.22-.073-.367,0-.66.367-1.247.733-1.907,1.1-.366.22-.953.22-1.319,0-.22-.147-.294-.293-.294-.44.074-.88.074-1.687.074-2.566c0-.074-.074-.147-.147-.22-.293-.22-9.899-5.72-10.192-5.866-1.173-.66-1.833-1.54-1.906-2.493-.074-1.907,2.199-3.593,5.426-4.107Z" opacity="0.3" fill="#0449c5"/><path d="M433.447,394.85c-1.614,0-3.227-.367-4.327-1.1-.293-.22-22.29-12.832-22.583-13.052-.074-.073-.22-.073-.367-.073-1.467,0-2.933.073-4.4.073-.293,0-.586-.073-.806-.146-.367-.22-.367-.514,0-.733.66-.367,1.246-.734,1.906-1.1.147-.074.147-.147,0-.22-1.319-1.32-1.246-2.567-.073-3.887.22-.219.513-.439.807-.659l.879-.514c.294-.146.66-.293,1.027-.366c1.98-.66,4.106-.807,6.233-.22.586.146,1.173.366,1.613.66c1.246.733,24.123,13.931,25.37,14.664c1.76,1.027,2.273,2.2,1.76,3.593-.734,1.76-3.667,3.08-7.039,3.08Zm-24.344-6.013c2.346-.293,4.473,0,6.159,1.027c1.247.733,17.451,10.119,18.698,10.779.513.293.88.586,1.173.953.953,1.246.733,2.419-.367,3.593-.22.22-.44.44-.66.586l-.879.514c-.367.146-.807.293-1.174.439-2.273.66-4.472.734-6.672,0-.147-.073-.22-.073-.367,0-.66.367-1.246.734-1.906,1.1-.367.22-.953.22-1.32,0-.22-.146-.293-.293-.293-.44.073-.88.073-1.686.073-2.566c0-.073-.073-.147-.147-.22-.293-.22-15.618-9.019-15.911-9.165-1.173-.66-1.833-1.54-1.906-2.493c0-1.907,2.273-3.593,5.499-4.107Zm-8.872,17.525c-1.613,0-3.227-.367-4.326-1.1-.294-.22-15.618-9.019-15.912-9.166-.073-.073-.22-.073-.366-.073-1.467,0-2.933.073-4.4.073-.293,0-.586-.073-.806-.146-.367-.22-.367-.513,0-.733.66-.367,1.246-.734,1.906-1.1.147-.074.147-.147,0-.22-1.32-1.32-1.246-2.567-.073-3.886.22-.22.513-.44.806-.66l.88-.514c.293-.146.66-.293,1.027-.366c1.979-.66,4.106-.807,6.232-.22.587.146,1.173.366,1.613.66c1.247.733,17.452,10.118,18.698,10.778c1.76,1.027,2.273,2.2,1.76,3.593-.807,1.76-3.74,3.08-7.039,3.08Zm-12.025,1.173c2.346-.293,4.472,0,6.159,1.027c1.246.733,11.732,6.819,13.051,7.479.514.293.88.586,1.174.953.953,1.246.733,2.42-.367,3.593-.22.22-.44.44-.66.586l-.88.514c-.366.146-.806.293-1.173.44-2.273.659-4.473.733-6.672,0-.147-.074-.22-.074-.367,0-.66.366-1.247.733-1.907,1.099-.366.22-.953.22-1.319,0-.22-.146-.294-.293-.294-.44.074-.879.074-1.686.074-2.566c0-.073-.074-.147-.147-.22-.293-.22-9.899-5.719-10.192-5.866-1.173-.66-1.833-1.54-1.906-2.493-.074-1.98,2.199-3.666,5.426-4.106Z" fill="#fff"/><path d="M323.314,399.323l-56.166-32.41c-4.106-2.419-3.593-6.525,1.173-9.312l53.82-31.089c4.766-2.786,12.025-3.08,16.131-.66l56.166,32.409c4.106,2.42,3.593,6.526-1.173,9.312l-53.82,31.09c-4.766,2.786-11.952,3.079-16.131.66Z" fill="#e7e8eb"/><path d="M391.285,355.548v1.027c-.367-.294-.733-.587-1.247-.88l-56.092-32.336c-4.107-2.42-11.366-2.053-16.132.66l-53.819,31.089c-.88.514-1.687,1.1-2.273,1.687v-1.027h-1.687v4.766c.073,1.467.953,2.86,2.786,3.886l56.167,32.41c4.106,2.419,11.365,2.053,16.131-.66l53.82-31.09c2.493-1.466,3.812-3.226,3.959-4.986c0-.146,0-.366,0-.513v-3.959h-1.613v-.074Z" fill="#c9c9dc"/><path d="M318.987,392.504l-56.166-32.41c-4.106-2.419-3.593-6.526,1.173-9.312l53.82-31.089c4.766-2.787,12.025-3.08,16.131-.66l56.167,32.409c4.106,2.42,3.592,6.526-1.174,9.312l-53.819,31.09c-4.766,2.713-12.026,3.006-16.132.66Z" fill="url(#eZ7yPkdlItG19-fill)"/><path d="M318.987,389.644l-52.573-30.356c-4.106-2.42-3.593-6.526,1.173-9.312l50.227-29.037c4.766-2.786,12.025-3.079,16.131-.66l52.574,30.357c4.106,2.419,3.593,6.525-1.173,9.312l-50.227,29.036c-4.766,2.713-12.026,3.006-16.132.66Z" fill="#211258"/><path d="M318.987,388.764l-52.573-30.356c-4.106-2.42-3.593-6.526,1.173-9.312l50.227-29.037c4.766-2.786,12.025-3.079,16.131-.659l52.574,30.356c4.106,2.419,3.593,6.526-1.173,9.312l-50.227,29.036c-4.766,2.713-12.026,3.006-16.132.66Z" fill="#362295"/><path d="M318.987,387.884l-52.573-30.356c-4.106-2.42-3.593-6.526,1.173-9.312l50.227-29.036c4.766-2.787,12.025-3.08,16.131-.66l52.574,30.356c4.106,2.419,3.593,6.526-1.173,9.312l-50.227,29.036c-4.766,2.713-12.026,3.08-16.132.66Z" fill="url(#eZ7yPkdlItG22-fill)"/><path d="M330.133,371.533c16.846,0,30.503-7.879,30.503-17.598s-13.657-17.598-30.503-17.598-30.503,7.879-30.503,17.598s13.657,17.598,30.503,17.598Z" opacity="0.3" fill="#0449c5"/><path d="M356.016,347.629h-2.053c-1.466-2.273-3.813-4.326-6.892-6.159-11.952-6.892-31.236-6.892-43.114,0-3.153,1.833-5.426,3.886-6.893,6.159h-2.053v6.306c0,4.473,3.006,9.019,8.946,12.465c11.951,6.893,31.235,6.893,43.114,0c5.939-3.446,8.945-7.919,8.945-12.465v-6.306v0Z" fill="#ffba1e"/><path d="M325.514,365.227c16.846,0,30.502-7.879,30.502-17.598s-13.656-17.598-30.502-17.598-30.503,7.879-30.503,17.598s13.657,17.598,30.503,17.598Z" fill="#ffd06c"/><path d="M325.514,361.707c13.485,0,24.417-6.303,24.417-14.078s-10.932-14.078-24.417-14.078-24.417,6.303-24.417,14.078s10.932,14.078,24.417,14.078Z" fill="none" stroke="#fff" stroke-width="2.12997" stroke-miterlimit="10"/><path d="M316.715,355.108l-.734.44c-1.026.587-2.713.587-3.739,0-1.027-.586-1.027-1.54,0-2.126l.733-.367c-.953-.88-1.686-1.906-1.98-2.933-.293-.806.66-1.613,2.053-1.833.147,0,.22,0,.367,0c1.32-.073,2.493.513,2.713,1.247.293.953,1.027,1.833,2.2,2.566c1.76,1.027,4.253,1.247,5.426.513c1.026-.586.66-2.053-.88-3.886-3.373-4.106-1.76-6.306.22-7.406c2.713-1.613,7.186-1.686,10.852-.44l.733-.44c1.026-.586,2.713-.586,3.739,0c1.027.587,1.027,1.54,0,2.127l-.733.367c.953.879,1.687,1.906,1.98,2.932.293.807-.66,1.614-2.053,1.834-1.393.146-2.786-.367-3.08-1.174-.293-.953-1.026-1.833-2.199-2.566-1.76-1.026-4.253-1.246-5.426-.513-1.027.586-.66,2.053.88,3.886c3.372,4.106,1.759,6.306-.22,7.406-2.787,1.539-7.259,1.613-10.852.366Z" fill="#f48f36"/><path d="M245.224,354.008l-56.166-32.409c-4.106-2.419-3.593-6.526,1.173-9.312l53.82-31.089c4.766-2.787,12.025-3.08,16.131-.66l56.166,32.409c4.106,2.42,3.593,6.526-1.173,9.312l-53.82,31.09c-4.766,2.713-12.025,3.006-16.131.659Z" fill="#e7e8eb"/><path d="M313.195,310.234v1.027c-.366-.294-.733-.587-1.246-.88l-56.166-32.41c-4.106-2.419-11.366-2.053-16.132.66l-53.819,31.09c-.88.513-1.687,1.1-2.274,1.686v-1.026h-1.686v4.766c.073,1.466.953,2.859,2.786,3.886l56.167,32.409c4.106,2.42,11.365,2.053,16.131-.66l53.82-31.089c2.493-1.467,3.813-3.226,3.959-4.986c0-.147,0-.367,0-.514v-3.959h-1.54v0Z" fill="#c9c9dc"/><path d="M240.824,347.116l-56.166-32.409c-4.106-2.42-3.593-6.526,1.173-9.312l53.82-31.09c4.766-2.786,12.025-3.079,16.131-.66l56.167,32.409c4.106,2.42,3.592,6.526-1.174,9.313l-53.819,31.089c-4.766,2.786-11.952,3.08-16.132.66Z" fill="url(#eZ7yPkdlItG30-fill)"/><path d="M240.825,344.256L188.251,313.9c-4.106-2.419-3.592-6.526,1.174-9.312l50.227-29.036c4.766-2.787,12.025-3.08,16.131-.66l52.573,30.356c4.106,2.42,3.593,6.526-1.173,9.312l-50.227,29.036c-4.766,2.713-11.952,3.08-16.131.66Z" fill="#211258"/><path d="M240.825,343.376L188.251,313.02c-4.106-2.419-3.592-6.525,1.174-9.312l50.227-29.036c4.766-2.786,12.025-3.08,16.131-.66l52.573,30.356c4.106,2.42,3.593,6.526-1.173,9.312l-50.227,29.037c-4.766,2.786-11.952,3.079-16.131.659Z" fill="#362295"/><path d="M240.825,342.497L188.251,312.14c-4.106-2.419-3.592-6.525,1.174-9.312l50.227-29.036c4.766-2.786,12.025-3.08,16.131-.66l52.573,30.356c4.106,2.42,3.593,6.526-1.173,9.312l-50.227,29.037c-4.766,2.786-11.952,3.079-16.131.66Z" fill="url(#eZ7yPkdlItG33-fill)"/><path d="M246.323,331.938l-37.908-21.924c-3.52-1.98-3.08-5.499.953-7.846l29.183-16.864c4.033-2.346,10.119-2.566,13.638-.587l37.909,21.924c3.519,1.98,3.079,5.499-.954,7.846l-29.182,16.864c-4.033,2.347-10.119,2.567-13.639.587Z" opacity="0.3" fill="#0449c5"/><path d="M246.323,328.125l-37.908-21.924c-3.52-1.98-3.08-5.499.953-7.845l29.183-16.865c4.033-2.346,10.119-2.566,13.638-.587l37.909,21.924c3.519,1.98,3.079,5.5-.954,7.846l-29.182,16.864c-4.033,2.347-10.119,2.567-13.639.587Z" fill="#fff"/><path d="M273.966,309.427L240.751,290.29c-1.32-.733-1.174-2.053.366-2.933s3.813-.953,5.133-.22l33.142,19.138c1.32.733,1.174,2.053-.366,2.932-1.467.88-3.74.954-5.06.22Zm-5.866,6.086c1.54-.88,1.687-2.199.367-2.933l-33.142-19.137c-1.32-.733-3.593-.66-5.133.22s-1.687,2.2-.367,2.933l33.143,19.137c1.393.807,3.666.66,5.132-.22Zm-36.295-8.285c1.54-.88,1.686-2.2.367-2.933l-7.846-4.546c-1.32-.734-3.593-.66-5.133.22-1.539.88-1.686,2.199-.366,2.933l7.845,4.546c1.394.733,3.667.66,5.133-.22Z" fill="url(#eZ7yPkdlItG36-fill)"/><path d="M479.567,400.863l-56.166-32.41c-4.106-2.419-3.593-6.526,1.173-9.312l53.82-31.089c4.766-2.787,12.025-3.08,16.131-.66l56.167,32.409c4.106,2.42,3.592,6.526-1.174,9.312l-53.819,31.09c-4.767,2.713-12.026,3.006-16.132.66Z" fill="#e7e8eb"/><path d="M547.538,357.088v1.027c-.366-.294-.733-.587-1.246-.88l-56.166-32.41c-4.106-2.419-11.366-2.053-16.132.66l-53.819,31.09c-.88.513-1.687,1.1-2.273,1.686v-1.026h-1.687v4.766c.073,1.466.953,2.859,2.786,3.886l56.167,32.409c4.106,2.42,11.365,2.053,16.131-.66l53.82-31.089c2.493-1.467,3.813-3.226,3.959-4.986c0-.147,0-.367,0-.513v-3.96h-1.54Z" fill="#c9c9dc"/><path d="M475.168,393.97l-56.166-32.409c-4.106-2.42-3.593-6.526,1.173-9.312l53.82-31.09c4.766-2.786,12.025-3.079,16.131-.66l56.166,32.41c4.106,2.419,3.593,6.525-1.173,9.312l-53.82,31.089c-4.766,2.787-11.952,3.08-16.131.66Z" fill="url(#eZ7yPkdlItG39-fill)"/><path d="M475.168,391.11l-52.573-30.356c-4.107-2.419-3.593-6.526,1.173-9.312l50.227-29.036c4.766-2.787,12.025-3.08,16.131-.66l52.573,30.356c4.106,2.42,3.593,6.526-1.173,9.312L491.299,390.45c-4.766,2.713-11.952,3.007-16.131.66Z" fill="#211258"/><path d="M475.168,390.231l-52.573-30.357c-4.107-2.419-3.593-6.525,1.173-9.312l50.227-29.036c4.766-2.786,12.025-3.08,16.131-.66l52.573,30.356c4.106,2.42,3.593,6.526-1.173,9.312l-50.227,29.037c-4.766,2.786-11.952,3.079-16.131.66Z" fill="#362295"/><path d="M475.168,389.351l-52.573-30.357c-4.107-2.419-3.593-6.525,1.173-9.312l50.227-29.036c4.766-2.786,12.025-3.08,16.131-.66l52.573,30.356c4.106,2.42,3.593,6.526-1.173,9.312l-50.227,29.037c-4.766,2.786-11.952,3.079-16.131.66Z" fill="url(#eZ7yPkdlItG42-fill)"/><g opacity="0.3"><path d="M485.36,332.525c4.179,1.979,11.292,4.766,20.604,5.939c1.98.22,3.52,1.1,3.886,2.273c2.053,5.426,7.039,9.605,10.412,11.952c1.907,1.319,1.54,3.446-.88,4.839-10.045,6.013-36.295,19.504-62.985,13.565-1.466-.293-2.566-1.027-3.08-1.906-7.992-14.445,5.573-25.077,23.244-36.076c2.493-1.466,6.379-1.76,8.799-.586Z" opacity="0.3" fill="#0449c5"/></g><path d="M485.36,328.198c4.179,1.98,11.292,4.766,20.604,5.94c1.98.22,3.52,1.099,3.886,2.273c2.053,5.426,7.039,9.605,10.412,11.952c1.907,1.319,1.54,3.446-.88,4.839-10.045,6.012-36.295,19.504-62.985,13.565-1.466-.293-2.566-1.027-3.08-1.907-7.992-14.444,5.573-25.076,23.244-36.075c2.493-1.466,6.379-1.76,8.799-.587Z" fill="#fff"/><path d="M499.805,350.81c-.513-.293-1.246-.44-1.98-.44h-19.944l-1.1-5.573c-.147-.88-1.466-1.539-3.006-1.466s-2.64.88-2.567,1.76c0,.073,0,.073,0,.146l1.394,6.966c.146.807,1.319,1.393,2.786,1.393h22.437c1.54,0,2.787-.66,2.86-1.613c0-.44-.293-.88-.88-1.173Z" fill="url(#eZ7yPkdlItG46-fill)"/><path d="M400.157,354.448l-56.166-32.409c-4.106-2.419-3.593-6.526,1.173-9.312l53.82-31.089c4.766-2.787,12.025-3.08,16.131-.66l56.166,32.409c4.107,2.42,3.593,6.526-1.173,9.312l-53.82,31.089c-4.766,2.713-11.951,3.007-16.131.66Z" fill="#e7e8eb"/><path d="M468.128,310.674v1.026c-.366-.293-.733-.586-1.246-.879l-56.166-32.41c-4.106-2.419-11.366-2.053-16.132.66l-53.746,31.09c-.88.513-1.687,1.1-2.273,1.686v-1.026h-1.687v4.766c.074,1.466.954,2.859,2.787,3.886l56.166,32.409c4.106,2.42,11.365,2.053,16.131-.66l53.82-31.089c2.493-1.467,3.813-3.227,3.96-4.986c0-.147,0-.367,0-.514v-3.959h-1.614v0Z" fill="#c9c9dc"/><path d="M395.758,347.556l-56.166-32.409c-4.107-2.42-3.593-6.526,1.173-9.312l53.82-31.09c4.766-2.786,12.025-3.079,16.131-.66l56.166,32.409c4.106,2.42,3.593,6.526-1.173,9.313l-53.82,31.089c-4.766,2.786-11.952,3.08-16.131.66Z" fill="url(#eZ7yPkdlItG49-fill)"/><path d="M395.758,344.696L343.184,314.34c-4.106-2.42-3.593-6.526,1.174-9.312l50.227-29.036c4.766-2.787,12.025-3.08,16.131-.66l52.573,30.356c4.106,2.42,3.593,6.526-1.173,9.312l-50.227,29.036c-4.766,2.713-11.952,3.007-16.131.66Z" fill="#211258"/><path d="M395.758,343.816L343.184,313.46c-4.106-2.419-3.593-6.526,1.174-9.312l50.227-29.036c4.766-2.786,12.025-3.08,16.131-.66l52.573,30.356c4.106,2.42,3.593,6.526-1.173,9.312l-50.227,29.036c-4.766,2.787-11.952,3.08-16.131.66Z" fill="#362295"/><path d="M395.758,342.937L343.184,312.58c-4.106-2.419-3.593-6.525,1.174-9.312l50.227-29.036c4.766-2.786,12.025-3.08,16.131-.66l52.573,30.356c4.106,2.42,3.593,6.526-1.173,9.312l-50.227,29.037c-4.766,2.786-11.952,3.079-16.131.66Z" fill="url(#eZ7yPkdlItG52-fill)"/><g opacity="0.3"><path d="M405.656,295.716l-4.839,1.54-.22-.147-9.239-3.08-.513-3.373-6.746,2.127v4.326l5.573,2.2-5.646,3.299-16.718,5.353v4.253l8.652,4.986l29.696-17.158v-4.326Z" opacity="0.3" fill="#0449c5"/><path d="M421.641,308.694c-7.992-4.619-16.278-3.739-21.924-.513-.367.22-.733.44-1.1.66l-3.446.733v4.033c0,.073,0,.22,0,.293v.074c.073,1.686,1.393,3.372,4.179,4.986c3.08,1.759,6.16,2.346,6.16,2.346-3.74,1.466-6.966,1.686-11.146-.733-2.859-1.687-3.959-3.3-3.959-3.3l-1.76.733.147-1.466-5.793-.367v4.326c0,0,1.247,2.053,5.499,4.473c10.413,6.013,21.044,4.18,30.87-1.54c6.306-3.739,12.318-8.945,2.273-14.738Zm-9.899,9.166c0,0-2.199-.22-3.886-1.247-1.833-1.1-1.76-2.2.513-3.519c2.493-1.467,4.84-1.467,6.673-.44c2.639,1.539.366,3.079-3.3,5.206Z" opacity="0.3" fill="#0449c5"/></g><path d="M466.149,308.034c0-.073,0-.146,0-.22v-4.106h-1.613v1.1c-.367-.293-.733-.587-1.173-.807L410.79,273.645c-4.107-2.419-11.366-2.053-16.132.66l-8.139,4.693l68.632,38.348l7.039-4.106c2.493-1.466,3.813-3.226,3.959-4.986v-.22v0Z" fill="#f16646"/><path d="M386.446,274.672l8.139-4.693c4.766-2.786,12.025-3.08,16.131-.66l52.574,30.356c4.106,2.42,3.593,6.526-1.174,9.312l-7.039,4.107-68.631-38.422Z" fill="#ff6f47"/><path d="M367.308,307.961l22.364-12.905-5.573-2.2l4.986-3.886l11.512,3.886l5.059,2.933-29.696,17.158-8.652-4.986Z" fill="#fff"/><path d="M390.258,312.947c0,0,1.1,1.613,3.96,3.3c4.253,2.419,7.405,2.126,11.145.733c0,0-3.006-.513-6.159-2.347-6.159-3.592-4.986-7.625.366-10.705c5.646-3.299,13.932-4.179,21.924.513c10.046,5.793,4.106,11.072-2.346,14.739-9.899,5.719-20.457,7.552-30.869,1.539-4.18-2.419-5.5-4.472-5.5-4.472l7.479-3.3Zm24.857-4.546c-1.833-1.027-4.179-1.027-6.672.44-2.273,1.32-2.347,2.493-.514,3.519c1.687.954,3.887,1.247,3.887,1.247c3.592-2.126,5.865-3.74,3.299-5.206Z" fill="#fff"/><path d="M455.151,313.02v4.326l-68.705-38.348v-4.326l68.705,38.348Z" fill="#ce573c"/><path d="M322.067,309.061l-56.166-32.409c-4.106-2.42-3.593-6.526,1.173-9.313l53.82-31.089c4.766-2.786,12.025-3.08,16.131-.66l56.166,32.409c4.106,2.42,3.593,6.526-1.173,9.312l-53.82,31.09c-4.766,2.786-12.025,3.08-16.131.66Z" fill="#e7e8eb"/><path d="M389.965,265.286v1.027c-.367-.293-.733-.587-1.246-.88l-56.167-32.409c-4.106-2.42-11.365-2.053-16.131.66l-53.82,31.089c-.88.513-1.686,1.1-2.273,1.686v-1.026h-1.686v4.766c.073,1.466.953,2.86,2.786,3.886l56.166,32.409c4.106,2.42,11.366,2.053,16.132-.66l53.819-31.089c2.493-1.466,3.813-3.226,3.96-4.986c0-.147,0-.367,0-.513v-3.96h-1.54v0Z" fill="#c9c9dc"/><path d="M317.667,302.242l-56.166-32.41c-4.106-2.419-3.593-6.525,1.174-9.312l53.819-31.089c4.766-2.786,12.025-3.08,16.132-.66l56.166,32.409c4.106,2.42,3.593,6.526-1.174,9.312l-53.819,31.09c-4.766,2.713-12.025,3.006-16.132.66Z" fill="url(#eZ7yPkdlItG63-fill)"/><path d="M317.668,299.309l-52.573-30.356c-4.107-2.42-3.593-6.526,1.173-9.313l50.227-29.036c4.766-2.786,12.025-3.08,16.131-.66L385.199,260.3c4.106,2.42,3.593,6.526-1.173,9.312l-50.227,29.037c-4.766,2.786-12.025,3.079-16.131.66Z" fill="#211258"/><path d="M317.668,298.502l-52.573-30.356c-4.107-2.42-3.593-6.526,1.173-9.312l50.227-29.036c4.766-2.787,12.025-3.08,16.131-.66l52.573,30.356c4.106,2.419,3.593,6.526-1.173,9.312l-50.227,29.036c-4.766,2.713-12.025,3.006-16.131.66Z" fill="#362295"/><path d="M317.668,297.622l-52.573-30.356c-4.107-2.42-3.593-6.526,1.173-9.312l50.227-29.036c4.766-2.787,12.025-3.08,16.131-.66l52.573,30.356c4.106,2.419,3.593,6.526-1.173,9.312l-50.227,29.036c-4.766,2.713-12.025,3.007-16.131.66Z" fill="url(#eZ7yPkdlItG66-fill)"/><g mask="url(#eZ7yPkdlItG87)"><g><g opacity="0.3"><g opacity="0.3"><path d="M284.672,249.742l48.467,9.385l8.799-14.591-48.394-9.459-8.872,14.665Z" opacity="0.3" fill="#fff"/><path d="M360.416,248.129l-15.325-3.007-8.872,14.665l15.398,2.933l8.799-14.591Z" opacity="0.3" fill="#fff"/><path d="M388.059,251.208l-19.211-11.072-4.032,6.599l23.243,4.473Z" opacity="0.3" fill="#fff"/><path d="M361.662,246.075l4.547-7.479-12.686-7.332-7.186,11.805l15.325,3.006Z" opacity="0.3" fill="#fff"/><path d="M335.339,295.349l-7.626,12.612l18.331-10.559-10.705-2.053Z" opacity="0.3" fill="#fff"/><path d="M244.931,263.6l20.604,11.878l14.811-24.417-14.078-2.786L245.444,260.3c-1.686.954-1.906,2.347-.513,3.3Z" opacity="0.3" fill="#fff"/><path d="M382.927,276.065l2.712-4.399-32.115-6.306-16.938,27.936l12.391,2.42l33.95-19.651Z" opacity="0.3" fill="#fff"/><path d="M395.392,255.461l-1.394-.807-30.429-5.939-8.799,14.665l32.043,6.233l8.579-14.152Z" opacity="0.3" fill="#fff"/><path d="M313.709,291.096l-31.97-6.159l26.544,15.252l5.426-9.093Z" opacity="0.3" fill="#fff"/><path d="M350.371,264.773l-15.325-3.006-16.938,27.936l15.325,3.007l16.938-27.937Z" opacity="0.3" fill="#fff"/><path d="M323.828,308.548l8.359-13.859-15.325-3.006-6.013,9.972l11.292,6.526c.44.22.953.367,1.54.44l.147-.073Z" opacity="0.3" fill="#fff"/><path d="M295.818,231.337l-1.1,1.76l48.467,9.386l7.699-12.759-2.86-1.613-39.228-4.326-12.978,7.552Z" opacity="0.3" fill="#fff"/><path d="M281.519,249.082l8.873-14.592h-.074l-21.117,12.245l12.318,2.347Z" opacity="0.3" fill="#fff"/><path d="M283.426,251.721l-15.325,25.297l7.699,4.473l39.155,7.626l16.938-27.937-48.467-9.459Z" opacity="0.3" fill="#fff"/></g></g><path d="M331.233,246.222c-2.933-1.686-5.646-1.98-7.626-1.026-.073.073-.147.073-.293.146l-4.106,2.053-.294,1.467l1.32.66c-.293,1.026-.44,2.126-.44,3.446c0,6.013,2.713,12.245,10.045,29.77l-3.372,1.979.733,3.153l4.253-2.126.073-.074c8.212-10.045,11.145-13.198,11.145-19.504.074-7.405-5.059-16.278-11.438-19.944Zm0,19.358c-2.933-1.687-5.28-5.793-5.28-9.239c0-3.373,2.347-4.766,5.28-3.08c2.933,1.687,5.279,5.793,5.279,9.239.073,3.446-2.346,4.766-5.279,3.08Z" fill="#c9c9dc"/><path d="M326.98,248.275c-6.306-3.666-11.512-.66-11.512,6.599c0,6.306,3.006,12.905,11.145,32.41.147.439.44.586.587.366c8.212-10.045,11.145-13.198,11.145-19.504.147-7.332-4.986-16.205-11.365-19.871Zm0,19.431c-2.933-1.686-5.279-5.793-5.279-9.239c0-3.373,2.346-4.766,5.279-3.079c2.933,1.686,5.279,5.792,5.279,9.238.074,3.373-2.346,4.767-5.279,3.08Z" fill="#fff"/></g><mask id="eZ7yPkdlItG87" mask-type="alpha"><path d="M317.668,297.622l-52.573-30.356c-4.106-2.42-3.593-6.526,1.173-9.312l50.227-29.036c4.766-2.787,12.025-3.08,16.131-.66l52.573,30.356c4.106,2.419,3.593,6.526-1.173,9.312l-50.227,29.036c-4.766,2.713-12.025,3.007-16.131.66Z" fill="#fff"/></mask></g><path d="M555.018,355.622l-56.166-32.41c-4.106-2.419-3.593-6.526,1.173-9.312l53.82-31.089c4.766-2.787,12.025-3.08,16.131-.66l56.166,32.409c4.106,2.42,3.593,6.526-1.173,9.312l-53.82,31.09c-4.839,2.786-12.025,3.079-16.131.66Z" fill="#e7e8eb"/><path d="M622.916,311.847v1.027c-.367-.294-.733-.587-1.247-.88l-56.093-32.336c-4.106-2.42-11.365-2.053-16.131.66l-53.82,31.089c-.88.514-1.686,1.1-2.273,1.687v-1.027h-1.686v4.766c.073,1.467.953,2.86,2.786,3.886l56.166,32.41c4.106,2.419,11.366,2.053,16.132-.66l53.819-31.09c2.493-1.466,3.813-3.226,3.96-4.986c0-.146,0-.366,0-.513v-3.96h-1.613v-.073Z" fill="#c9c9dc"/><path d="M550.619,348.802l-56.167-32.409c-4.106-2.419-3.592-6.526,1.174-9.312l53.819-31.089c4.766-2.787,12.026-3.08,16.132-.66l56.166,32.409c4.106,2.42,3.593,6.526-1.173,9.312l-53.82,31.09c-4.766,2.713-12.025,3.006-16.131.659Z" fill="url(#eZ7yPkdlItG91-fill)"/><path d="M550.618,345.87l-52.573-30.357c-4.106-2.419-3.593-6.525,1.173-9.312l50.227-29.036c4.766-2.786,12.025-3.08,16.132-.66l52.573,30.356c4.106,2.42,3.593,6.526-1.173,9.312L566.75,345.21c-4.766,2.786-12.025,3.079-16.132.66Z" fill="#211258"/><path d="M550.618,345.063l-52.573-30.356c-4.106-2.42-3.593-6.526,1.173-9.312l50.227-29.037c4.766-2.786,12.025-3.079,16.132-.66l52.573,30.357c4.106,2.419,3.593,6.525-1.173,9.312L566.75,344.403c-4.766,2.713-12.025,3.006-16.132.66Z" fill="#362295"/><path d="M550.618,344.183l-52.573-30.356c-4.106-2.42-3.593-6.526,1.173-9.312l50.227-29.037c4.766-2.786,12.025-3.079,16.132-.659l52.573,30.356c4.106,2.419,3.593,6.526-1.173,9.312L566.75,343.523c-4.766,2.713-12.025,3.006-16.132.66Z" fill="url(#eZ7yPkdlItG94-fill)"/><g id="eZ7yPkdlItG95_to" transform="translate(565.942505,297.114487)"><path d="M559.783,305.761l12.319-19.504v-7.039h-12.319v26.543Z" transform="translate(-565.942505,-292.489487)" fill="#ffba1e"/></g><path d="M525.688,297.476v-.514h-2.053v7.259c0,3.153,1.32,6.38,3.959,9.386v-18.771c-.66.88-1.32,1.76-1.906,2.64Z" fill="#ffa01e"/><g id="eZ7yPkdlItG97_to" transform="translate(556.48349,292.341583)"><path d="M559.783,298.722l-18.991-17.598c9.606-3.446,20.678-4.106,31.383-1.833l-12.392,19.431Z" transform="translate(-556.48349,-288.341583)" fill="#ffd06c"/></g><path d="M555.384,296.889l-14.592-10.192c-7.259,2.64-12.391,6.453-15.031,10.705v-.513h-2.053v7.259c0,3.153,1.32,6.379,3.959,9.386l32.043-9.386-1.612313-5.353-2.713687-1.906v0Z" fill="#c9c9dc"/><path d="M527.668,306.275v7.332l32.115-9.385-1.685313-4.767-30.429687,6.82Z" fill="#d9d9ea"/><path d="M595.712,311.7c0-.293,0-.586,0-.879v-7.626l-30.136-1.027-29.55,8.752-8.285,1v8.726c4.252,4.839,10.852,8.212,19.724,10.119c18.624,3.959,39.302-1.613,46.121-12.392c1.393-2.126,2.053-4.326,2.199-6.526v-.147h-.073Z" fill="#c9c9dc"/><g id="eZ7yPkdlItG101_to" transform="translate(561.760834,311.231171)"><path d="M559.783,302.608l12.392-19.504c18.624,3.96,28.23,15.838,21.411,26.617-6.82,10.778-27.497,16.278-46.121,12.391-8.872-1.906-15.398-5.206-19.724-10.118l32.042-9.386Z" transform="translate(-561.760834,-303.231171)" fill="url(#eZ7yPkdlItG101-fill)"/></g><g id="eZ7yPkdlItG102_to" transform="translate(541.757935,296.782486)"><path d="M559.784,296.889l-32.043,9.385c-8.579-9.752-3.006-21.264,13.052-26.983l18.991,17.598Z" transform="translate(-541.757935,-292.782486)" fill="#fff"/></g><path d="M475.608,309.207l-56.166-32.409c-4.106-2.42-3.593-6.526,1.173-9.312l53.82-31.089c4.766-2.787,12.025-3.08,16.131-.66l56.166,32.409c4.106,2.42,3.593,6.526-1.173,9.312l-53.82,31.089c-4.766,2.787-12.025,3.08-16.131.66Z" fill="#e7e8eb"/><path d="M543.506,265.433v1.027c-.367-.294-.733-.587-1.246-.88l-56.167-32.41c-4.106-2.419-11.365-2.053-16.131.66l-53.82,31.09c-.88.513-1.686,1.1-2.273,1.686v-1.026h-1.54v4.766c.074,1.466.954,2.859,2.787,3.886l56.166,32.409c4.106,2.42,11.365,2.053,16.131-.66l53.82-31.089c2.493-1.467,3.813-3.226,3.96-4.986c0-.147,0-.367,0-.513v-3.96h-1.687Z" fill="#c9c9dc"/><path d="M471.208,302.388l-56.166-32.409c-4.106-2.42-3.593-6.526,1.173-9.312l53.82-31.09c4.766-2.786,12.025-3.079,16.132-.659l56.166,32.409c4.106,2.419,3.593,6.526-1.173,9.312l-53.82,31.089c-4.766,2.713-11.952,3.007-16.132.66Z" fill="url(#eZ7yPkdlItG105-fill)"/><path d="M471.208,299.455l-52.573-30.356c-4.106-2.42-3.593-6.526,1.173-9.312l50.227-29.036c4.766-2.787,12.025-3.08,16.132-.66l52.573,30.356c4.106,2.42,3.593,6.526-1.173,9.312L487.34,298.795c-4.766,2.787-11.952,3.08-16.132.66Z" fill="#211258"/><path d="M471.208,298.649l-52.573-30.356c-4.106-2.42-3.593-6.526,1.173-9.312l50.227-29.037c4.766-2.786,12.025-3.079,16.132-.66L538.74,259.64c4.106,2.42,3.593,6.526-1.173,9.313L487.34,297.989c-4.766,2.713-11.952,3.006-16.132.66Z" fill="#362295"/><path d="M471.208,297.769l-52.573-30.356c-4.106-2.42-3.593-6.526,1.173-9.312l50.227-29.037c4.766-2.786,12.025-3.079,16.132-.66l52.573,30.357c4.106,2.419,3.593,6.525-1.173,9.312L487.34,297.109c-4.766,2.713-11.952,3.006-16.132.66Z" fill="url(#eZ7yPkdlItG108-fill)"/><path id="eZ7yPkdlItG109" d="M497.752,268.513h-.66l-7.259-20.898c-.807-1.906-4.84-2.639-7.259-1.246l-31.09,17.964c-.073.073-.146.073-.146.147v-.513h-1.1v2.346c.147,1.026,1.393,2.053,3.446,2.273l38.935,4.619c2.786.294,5.133-.88,5.206-2.346v-2.346h-.073Z" opacity="0" fill="#0449c5"/><path d="M453.611,265.946c-3.373-.366-4.62-2.786-2.2-4.179L482.5,243.802c2.42-1.393,6.453-.66,7.26,1.247l7.845,22.51c.66,1.76-1.979,3.3-5.059,2.933l-38.935-4.546Z" fill="#fff"/><path d="M397.445,263.893l-56.166-32.409c-4.107-2.42-3.593-6.526,1.173-9.312l53.819-31.09c4.767-2.786,12.026-3.079,16.132-.659l56.166,32.409c4.106,2.419,3.593,6.526-1.173,9.312l-53.82,31.089c-4.766,2.713-11.952,3.007-16.131.66Z" fill="#e7e8eb"/><path d="M465.416,220.119v1.026c-.367-.293-.733-.586-1.247-.88l-56.166-32.409c-4.106-2.42-11.365-2.053-16.131.66l-53.82,31.089c-.88.514-1.686,1.1-2.273,1.687v-1.027h-1.686v4.766c.073,1.467.953,2.86,2.786,3.887l56.166,32.409c4.106,2.419,11.365,2.053,16.131-.66l53.82-31.089c2.493-1.467,3.813-3.227,3.96-4.987c0-.146,0-.366,0-.513v-3.959h-1.54v0Z" fill="#c9c9dc"/><path d="M393.118,257.001l-56.166-32.409c-4.106-2.42-3.593-6.526,1.173-9.313l53.82-31.089c4.766-2.786,12.025-3.08,16.131-.66l56.166,32.409c4.106,2.42,3.593,6.526-1.173,9.312l-53.82,31.09c-4.766,2.786-12.025,3.079-16.131.66Z" fill="url(#eZ7yPkdlItG113-fill)"/><path d="M393.118,254.141l-52.573-30.356c-4.106-2.42-3.593-6.526,1.173-9.312l50.227-29.037c4.766-2.786,12.025-3.079,16.132-.659l52.573,30.356c4.106,2.419,3.592,6.526-1.174,9.312L409.25,253.481c-4.766,2.713-12.025,3.006-16.132.66Z" fill="#211258"/><path d="M393.118,253.261l-52.573-30.356c-4.106-2.42-3.593-6.526,1.173-9.312l50.227-29.036c4.766-2.787,12.025-3.08,16.132-.66l52.573,30.356c4.106,2.42,3.592,6.526-1.174,9.312L409.25,252.601c-4.766,2.787-12.025,3.08-16.132.66Z" fill="#362295"/><path d="M393.118,252.381l-52.573-30.356c-4.106-2.42-3.593-6.526,1.173-9.312l50.227-29.036c4.766-2.787,12.025-3.08,16.132-.66l52.573,30.356c4.106,2.42,3.592,6.526-1.174,9.312L409.25,251.721c-4.766,2.787-12.025,3.08-16.132.66Z" fill="url(#eZ7yPkdlItG116-fill)"/><path d="M393.851,248.055l-47.294-27.35c-3.739-2.126-3.226-5.866,1.027-8.359l45.241-26.103c4.326-2.493,10.778-2.713,14.518-.587l47.294,27.35c3.739,2.127,3.226,5.866-1.027,8.359l-45.241,26.104c-4.326,2.493-10.778,2.713-14.518.586Z" opacity="0.6" fill="none" stroke="#fff" stroke-width="1.06499"/><path d="M393.851,243.143l-47.294-27.35c-3.739-2.127-3.226-5.866,1.027-8.359l45.241-26.104c4.326-2.493,10.778-2.713,14.518-.586l47.294,27.35c3.739,2.126,3.226,5.866-1.027,8.359l-45.241,26.103c-4.326,2.493-10.778,2.786-14.518.587Z" opacity="0.4" fill="#00d4ca"/><path d="M393.851,234.564l-47.294-27.35c-3.739-2.127-3.226-5.866,1.027-8.359l45.241-26.104c4.326-2.493,10.778-2.713,14.518-.586l47.294,27.35c3.739,2.126,3.226,5.866-1.027,8.359l-45.241,26.03c-4.326,2.493-10.778,2.786-14.518.66Z" opacity="0.4" fill="#00d4ca"/><path d="M421.201,213.373l-2.713-2.713c.734-1.027,1.027-1.54,1.907-2.566l5.279-.807c.733-.147,1.247-.513,1.173-.953v-2.86c0-.44-.513-.806-1.173-.953l-5.279-.807c-.733-1.026-1.027-1.539-1.907-2.566l2.713-2.713c.367-.367.22-.88-.293-1.173l-3.52-2.053c-.513-.293-1.393-.367-1.979-.147l-4.693,1.54c-1.833-.44-2.64-.587-4.473-1.1l-1.466-3.006c-.22-.44-.88-.733-1.613-.733h-4.987c-.806,0-1.466.293-1.613.733l-1.466,3.006c-1.833.44-2.64.587-4.473,1.1l-4.693-1.54c-.66-.22-1.466-.146-1.979.147l-3.52,2.053c-.513.293-.66.806-.293,1.173l2.713,2.713c-.734,1.027-1.027,1.54-1.907,2.566l-5.279.807c-.733.147-1.247.513-1.173.953v2.86c0,.44.513.806,1.173.953l5.279.807c.733,1.026,1.027,1.539,1.907,2.566l-2.713,2.713c-.367.366-.22.88.293,1.173l3.52,2.053c.513.293,1.393.367,1.979.147l4.693-1.54c1.833.44,2.64.587,4.473,1.1l1.466,3.006c.22.44.88.733,1.613.733h4.987c.806,0,1.466-.293,1.613-.733l1.466-3.006c1.833-.44,2.64-.587,4.473-1.1l4.693,1.54c.66.22,1.466.146,1.979-.147l3.52-2.053c.587-.293.66-.807.293-1.173Zm-26.103-5.279c-3.08-1.76-3.08-4.693,0-6.453c3.079-1.76,8.066-1.76,11.145,0c3.08,1.76,3.08,4.693,0,6.453-3.079,1.759-8.066,1.759-11.145,0Z" fill="#fff"/><g id="eZ7yPkdlItG121_to" transform="translate(93.0679,290.886)"><rect width="100.922" height="100.922" rx="17.2676" ry="17.2676" transform="rotate(-29.999983) skewX(30.000006) skewY(0) scale(1.000001,0.866025) translate(0.506921,0)" fill="#fff" fill-opacity="0.62" stroke="url(#eZ7yPkdlItG121-stroke)" stroke-width="0.585342"/></g><g id="eZ7yPkdlItG122_to" transform="translate(320.252,432.34)"><rect width="100.922" height="100.922" rx="17.2676" ry="17.2676" transform="rotate(-29.999983) skewX(30.000006) skewY(0) scale(1.000001,0.866025) translate(0.506921,0)" fill="#fff" fill-opacity="0.62" stroke="url(#eZ7yPkdlItG122-stroke)" stroke-width="0.585342"/></g><g id="eZ7yPkdlItG123_to" transform="translate(309.536,172.714479)"><rect width="100.922" height="100.922" rx="17.2676" ry="17.2676" transform="rotate(-30.000012) skewX(29.999977) skewY(0) scale(1,0.866025) translate(0.506921,0)" fill="#fff" fill-opacity="0.62" stroke="url(#eZ7yPkdlItG123-stroke)" stroke-width="0.585342"/></g></g><clipPath id="eZ7yPkdlItG124"><rect width="816" height="624" rx="0" ry="0" fill="#fff"/></clipPath></g></svg>
