<svg width="169" height="36" viewBox="0 0 169 36" fill="none" xmlns="http://www.w3.org/2000/svg">
<path fill-rule="evenodd" clip-rule="evenodd" d="M89.1683 3.54609C88.7791 4.40221 88.3954 5.30985 88.3156 5.5628C88.1556 6.07041 87.6188 6.27655 86.4454 6.28085C84.9363 6.28664 83.645 6.55698 83.5156 6.8941C83.4288 7.12085 83.9182 7.712 85.0596 8.75922L86.7308 10.2921L86.248 12.3836C85.8326 14.1834 85.8075 14.5175 86.0677 14.778C86.3278 15.0385 86.6238 14.927 88.1888 13.9794C89.1894 13.3739 90.1043 12.8783 90.2223 12.8783C90.3402 12.8783 91.2451 13.3677 92.233 13.9659C93.2211 14.5641 94.162 15.0026 94.3241 14.9403C94.6992 14.7962 94.6979 14.0733 94.3196 12.5418C93.6976 10.0229 93.6041 10.3512 95.3733 8.84317C96.862 7.57436 97.2734 6.92137 96.7775 6.61432C96.667 6.54603 95.6438 6.40174 94.5038 6.29373C93.3639 6.18572 92.4035 6.06698 92.37 6.02962C92.3363 5.99225 91.9938 5.18875 91.6084 4.24395C90.4515 1.40678 90.1768 1.32819 89.1683 3.54609ZM104.611 3.54609C104.221 4.40221 103.838 5.30985 103.758 5.5628C103.598 6.07041 103.061 6.27655 101.888 6.28085C100.379 6.28664 99.0872 6.55698 98.9578 6.8941C98.871 7.12085 99.3604 7.712 100.502 8.75922L102.173 10.2921L101.69 12.3836C101.275 14.1834 101.25 14.5175 101.51 14.778C101.77 15.0385 102.066 14.927 103.631 13.9794C104.632 13.3739 105.547 12.8783 105.664 12.8783C105.782 12.8783 106.687 13.3677 107.675 13.9659C108.663 14.5641 109.604 15.0026 109.766 14.9403C110.141 14.7962 110.14 14.0733 109.762 12.5418C109.14 10.0229 109.046 10.3512 110.816 8.84317C112.304 7.57436 112.716 6.92137 112.22 6.61432C112.109 6.54603 111.086 6.40174 109.946 6.29373C108.806 6.18572 107.846 6.06698 107.812 6.02962C107.779 5.99225 107.436 5.18875 107.051 4.24395C105.894 1.40678 105.619 1.32819 104.611 3.54609ZM120.053 3.54609C119.663 4.40221 119.28 5.30985 119.2 5.5628C119.04 6.07041 118.503 6.27655 117.33 6.28085C115.821 6.28664 114.529 6.55698 114.4 6.8941C114.313 7.12085 114.803 7.712 115.944 8.75922L117.615 10.2921L117.132 12.3836C116.717 14.1834 116.692 14.5175 116.952 14.778C117.212 15.0385 117.508 14.927 119.073 13.9794C120.074 13.3739 120.989 12.8783 121.107 12.8783C121.225 12.8783 122.13 13.3677 123.117 13.9659C124.105 14.5641 125.046 15.0026 125.209 14.9403C125.584 14.7962 125.582 14.0733 125.204 12.5418C124.582 10.0229 124.489 10.3512 126.258 8.84317C127.746 7.57436 128.158 6.92137 127.662 6.61432C127.551 6.54603 126.528 6.40174 125.388 6.29373C124.248 6.18572 123.288 6.06698 123.254 6.02962C123.221 5.99225 122.878 5.18875 122.493 4.24395C121.336 1.40678 121.061 1.32819 120.053 3.54609ZM135.495 3.54609C135.106 4.40221 134.722 5.30985 134.642 5.5628C134.482 6.07041 133.945 6.27655 132.772 6.28085C131.263 6.28664 129.972 6.55698 129.842 6.8941C129.755 7.12085 130.245 7.712 131.386 8.75922L133.057 10.2921L132.575 12.3836C132.159 14.1834 132.134 14.5175 132.394 14.778C132.654 15.0385 132.95 14.927 134.515 13.9794C135.516 13.3739 136.431 12.8783 136.549 12.8783C136.667 12.8783 137.572 13.3677 138.56 13.9659C139.548 14.5641 140.489 15.0026 140.651 14.9403C141.026 14.7962 141.025 14.0733 140.646 12.5418C140.024 10.0229 139.931 10.3512 141.7 8.84317C143.189 7.57436 143.6 6.92137 143.104 6.61432C142.994 6.54603 141.97 6.40174 140.83 6.29373C139.69 6.18572 138.73 6.06698 138.697 6.02962C138.663 5.99225 138.32 5.18875 137.935 4.24395C136.778 1.40678 136.503 1.32819 135.495 3.54609ZM150.937 3.54609C150.548 4.40221 150.164 5.30985 150.084 5.5628C149.924 6.07041 149.388 6.27655 148.214 6.28085C146.705 6.28664 145.414 6.55698 145.284 6.8941C145.198 7.12085 145.687 7.712 146.828 8.75922L148.5 10.2921L148.017 12.3836C147.601 14.1834 147.576 14.5175 147.836 14.778C148.097 15.0385 148.393 14.927 149.958 13.9794C150.958 13.3739 151.873 12.8783 151.991 12.8783C152.109 12.8783 153.014 13.3677 154.002 13.9659C154.99 14.5641 155.931 15.0026 156.093 14.9403C156.468 14.7962 156.467 14.0733 156.088 12.5418C155.466 10.0229 155.373 10.3512 157.142 8.84317C158.631 7.57436 159.042 6.92137 158.546 6.61432C158.436 6.54603 157.413 6.40174 156.273 6.29373C155.133 6.18572 154.172 6.06698 154.139 6.02962C154.105 5.99225 153.763 5.18875 153.377 4.24395C152.22 1.40678 151.946 1.32819 150.937 3.54609Z" fill="#F5BD41"/>
<path fill-rule="evenodd" clip-rule="evenodd" d="M19.5092 4.6008C17.734 5.25143 16.7552 7.01229 16.7578 9.5504C16.7602 11.9655 17.5525 13.7275 18.9641 14.4574C20.005 14.9957 22.2924 14.955 23.2753 14.381C24.2146 13.8324 25.1346 12.5361 25.1346 11.7613C25.1346 11.2555 25.0276 11.1983 24.0808 11.1983C23.1248 11.1983 23.0039 11.2651 22.7762 11.9178C22.2975 13.2909 20.5115 13.3862 19.5437 12.0899C19.1702 11.5899 19.0726 11.0874 19.0812 9.71126C19.0944 7.5461 19.3761 6.81289 20.3494 6.40978C21.3807 5.98273 22.2836 6.32001 22.7408 7.30361C23.0647 8.00019 23.2028 8.07656 24.1486 8.0811L25.1973 8.08637L25.0623 7.25501C24.6946 4.98884 21.9848 3.69357 19.5092 4.6008ZM0 9.64232V14.7889H3.47096H6.94193V13.8314V12.8739H4.53571H2.12926L2.20179 11.6172L2.27408 10.3604L4.24894 10.291L6.2238 10.2214V9.39337V8.56512H4.17593H2.12806L2.20107 7.42808L2.27408 6.29104L4.608 6.22258L6.94193 6.15412V5.32492V4.49572H3.47096H0V9.64232ZM7.69165 5.03432C7.85012 5.33066 8.50721 6.46651 9.15209 7.55854L10.3246 9.54441L8.8725 12.0284C8.07394 13.3945 7.42068 14.5747 7.42068 14.6506C7.42068 14.7267 7.98609 14.7882 8.67741 14.7872L9.93414 14.7858L10.8574 13.0905L11.7807 11.3953L12.2219 12.1208C12.4646 12.5199 12.8861 13.2835 13.1588 13.8178C13.6469 14.7746 13.6734 14.7889 14.9658 14.7889C15.6873 14.7889 16.2776 14.7401 16.2776 14.6805C16.2776 14.6206 15.6313 13.502 14.8414 12.1943C14.0514 10.8866 13.4051 9.70695 13.4051 9.57242C13.4051 9.43813 14.0354 8.26782 14.8057 6.97183L16.206 4.61541L15.1353 4.5412C14.5462 4.50051 13.9372 4.51583 13.7816 4.57567C13.6263 4.63528 13.1475 5.34359 12.7176 6.14981C12.2879 6.95627 11.8336 7.55232 11.7079 7.47452C11.5822 7.39697 11.1571 6.69487 10.7631 5.9145L10.0469 4.49572H8.72528C7.42906 4.49572 7.40943 4.50601 7.69165 5.03432ZM26.5708 9.64232V14.7889H30.0561H33.5417L33.4673 13.8913L33.3931 12.9936L31.0591 12.9251L28.7252 12.8567V11.5487V10.2408H30.7599H32.7946V9.40294V8.56512H30.7599H28.7252V7.36824V6.17136H31.119H33.5127V5.33354V4.49572H30.0418H26.5708V9.64232ZM34.4703 9.64232V14.7889H37.8215H41.1728V13.8314V12.8739H39.0184H36.864V8.68481V4.49572H35.6671H34.4703V9.64232ZM42.3697 9.64232V14.7889H45.7353H49.1012L49.0268 13.8913L48.9525 12.9936L46.7383 12.9247L44.5241 12.856V8.67572V4.49572H43.4469H42.3697V9.64232ZM50.0297 9.64232V14.7889H53.5007H56.9717V13.8314V12.8739H54.5655H52.159L52.2315 11.6172L52.3038 10.3604L54.2787 10.291L56.2535 10.2214V9.39337V8.56512H54.2057H52.1578L52.2308 7.42808L52.3038 6.29104L54.6377 6.22258L56.9717 6.15412V5.32492V4.49572H53.5007H50.0297V9.64232ZM58.1686 9.64232V14.7889H59.2388H60.3091L60.3758 11.6172L60.4426 8.44544L62.3576 11.6126L64.2727 14.7796L65.4097 14.7844L66.5467 14.7889V9.64232V4.49572H65.4765H64.4062L64.3394 7.66746L64.2727 10.8392L62.3576 7.67536L60.4426 4.51152L59.3056 4.50362L58.1686 4.49572V9.64232ZM67.5042 5.32205V6.14862L69.0004 6.21971L70.4965 6.29104L70.5618 10.54L70.6272 14.7889H71.6933H72.7595L72.8249 10.54L72.8902 6.29104L74.3863 6.21971L75.8824 6.14862V5.32205V4.49572H71.6933H67.5042V5.32205Z" fill="#042055"/>
<g clip-path="url(#clip0_1929_9360)">
<path d="M88.1005 25.5787C88.1005 25.5787 87.3879 25.5078 87.3879 26.1428V28.9634H92.0939V29.8099C92.0939 29.8099 92.108 30.2328 91.6661 30.2328H87.3879V33.8999H92.5217C92.5217 33.8999 95.6302 33.4201 95.6589 30.2328V25.5787H88.1005ZM95.5159 21.0652H86.2468C82.8951 21.8548 82.8242 24.6051 82.8242 24.6051V33.8999H86.3898V25.4375C86.3898 24.7182 87.1024 24.5917 87.1024 24.5917H95.5165V21.0652H95.5159ZM107.753 31.24C107.508 31.4032 107.327 31.523 107.2 31.5994C106.743 31.8824 106.307 32.1006 105.903 32.2747C105.318 32.5143 104.797 32.6341 104.329 32.6341C102.723 32.6341 101.394 32.1439 100.32 31.1526C99.2453 30.1613 98.7148 28.92 98.7148 27.4171C98.7148 25.9686 99.1933 24.7157 100.161 23.648C101.128 22.5809 102.298 22.0577 103.681 22.0577C104.255 22.0577 104.871 22.1555 105.509 22.3633C106.339 22.6243 107.008 23.0167 107.54 23.5282L106.615 24.5519C106.222 24.1712 105.711 23.8876 105.116 23.7134C104.669 23.5826 104.18 23.5178 103.638 23.5178C102.67 23.5178 101.851 23.909 101.203 24.6827C100.554 25.4669 100.225 26.3928 100.225 27.4819C100.225 28.5606 100.597 29.4426 101.341 30.1509C102.085 30.8586 103.031 31.218 104.18 31.218C104.658 31.218 105.148 31.0652 105.647 30.7719C106.062 30.4559 106.275 30.3031 106.285 30.2921V28.0595H103.181L103.627 26.6654H107.753V31.24ZM117.131 28.5166C117.131 29.5947 116.749 30.5317 115.983 31.3158C115.217 32.0999 114.271 32.5033 113.144 32.5033C112.102 32.5033 111.188 32.1109 110.4 31.3378C109.613 30.5647 109.231 29.6277 109.231 28.5276C109.231 27.4385 109.603 26.5016 110.347 25.6954C111.091 24.8893 112.006 24.4975 113.08 24.4975C114.271 24.4975 115.238 24.8789 115.993 25.6521C116.749 26.4038 117.131 27.3621 117.131 28.5166ZM115.674 28.5386C115.674 27.8089 115.43 27.1879 114.941 26.6868C114.452 26.1746 113.846 25.924 113.123 25.924C112.442 25.924 111.868 26.1856 111.389 26.7088C110.911 27.2313 110.677 27.8303 110.677 28.5056C110.677 29.214 110.921 29.8129 111.4 30.3141C111.878 30.8153 112.474 31.0762 113.197 31.0762C113.867 31.0762 114.441 30.8256 114.93 30.3245C115.43 29.8233 115.675 29.2244 115.675 28.5386H115.674ZM126.382 28.5166C126.382 29.5947 125.999 30.5317 125.234 31.3158C124.468 32.0999 123.522 32.5033 122.395 32.5033C121.353 32.5033 120.438 32.1109 119.651 31.3378C118.865 30.5647 118.481 29.6277 118.481 28.5276C118.481 27.4385 118.854 26.5016 119.598 25.6954C120.342 24.8893 121.257 24.4975 122.331 24.4975C123.522 24.4975 124.489 24.8789 125.244 25.6521C125.999 26.4038 126.382 27.3621 126.382 28.5166ZM124.925 28.5386C124.925 27.8089 124.681 27.1879 124.192 26.6868C123.703 26.1746 123.096 25.924 122.373 25.924C121.693 25.924 121.119 26.1856 120.64 26.7088C120.161 27.2313 119.927 27.8303 119.927 28.5056C119.927 29.214 120.172 29.8129 120.651 30.3141C121.129 30.8153 121.725 31.0762 122.448 31.0762C123.118 31.0762 123.692 30.8256 124.181 30.3245C124.681 29.8233 124.926 29.2244 124.926 28.5386H124.925ZM134.942 32.2851L133.602 32.4923V31.196L133.315 31.5224C133.062 31.7594 132.775 31.9578 132.464 32.1109C132.008 32.3215 131.511 32.4294 131.008 32.4269C129.966 32.4269 129.072 32.0456 128.349 31.2718C127.626 30.4981 127.265 29.5837 127.265 28.5166C127.265 27.4165 127.626 26.4692 128.339 25.6844C129.052 24.8997 129.923 24.5079 130.965 24.5079C131.561 24.5079 132.082 24.6057 132.518 24.8019C132.826 24.9437 133.092 25.1289 133.315 25.3581C133.39 25.4559 133.464 25.5647 133.539 25.6624V22.2643L134.963 22.0571L134.942 32.2851ZM133.687 28.6144C133.687 27.8523 133.432 27.2093 132.911 26.6868C132.39 26.1526 131.805 25.8916 131.136 25.8916C130.391 25.8916 129.796 26.1422 129.339 26.6434C128.913 27.1219 128.69 27.7105 128.69 28.3968C128.69 29.17 128.913 29.8123 129.36 30.3135C129.806 30.8146 130.37 31.0652 131.061 31.0652C131.741 31.0652 132.337 30.8366 132.869 30.3685C133.411 29.8887 133.688 29.3008 133.688 28.6144H133.687ZM142.46 23.681H138.472V26.3928H141.566V27.7869H138.472V32.2747L136.92 32.5033V22.2753H142.151L142.46 23.681ZM145.66 22.8853L144.703 24.0942L143.789 22.8853L144.756 21.6874L145.66 22.8853ZM145.373 32.2851L143.948 32.4813V24.9113L145.373 24.6937V32.2857V32.2851ZM151.806 24.6173L151.136 26.1636C151.048 26.1502 150.96 26.143 150.871 26.1422C150.732 26.1422 150.594 26.1532 150.456 26.1746C150.317 26.196 150.168 26.251 150.009 26.3274C149.712 26.4582 149.456 26.7412 149.233 27.1659C148.986 27.648 148.859 28.1822 148.86 28.7238V32.2747L147.436 32.5033V24.9113L148.755 24.6717V26.251C148.925 25.9784 149.106 25.7064 149.275 25.4235C149.52 25.1399 149.807 24.9333 150.126 24.8129C150.296 24.7481 150.605 24.6931 151.072 24.6497C151.519 24.6173 151.775 24.5953 151.806 24.6173ZM162.418 32.2851L160.993 32.4923V27.2967C160.993 26.817 160.887 26.4686 160.674 26.251C160.461 26.0328 160.142 25.924 159.727 25.924C159.228 25.924 158.845 26.1312 158.59 26.545C158.419 26.828 158.324 27.1329 158.324 27.4379V32.2741L156.899 32.5357V27.3291C156.899 26.872 156.793 26.523 156.591 26.284C156.378 26.0438 156.102 25.924 155.74 25.924H155.602C155.102 25.924 154.74 26.1312 154.517 26.556C154.347 26.872 154.262 27.2747 154.262 27.7649V32.2741L152.784 32.5357V24.9113L154.113 24.6827V25.6521C154.262 25.4229 154.411 25.2377 154.549 25.1075C154.932 24.7481 155.379 24.5733 155.878 24.5733C156.441 24.5733 156.856 24.6607 157.143 24.8459C157.388 24.9987 157.622 25.3031 157.856 25.7388C158.345 24.9657 159.036 24.5733 159.951 24.5733C160.822 24.5733 161.471 24.8459 161.896 25.4015C162.248 25.8586 162.418 26.534 162.418 27.4165V32.2851ZM168.927 29.9871C168.927 30.6839 168.682 31.2614 168.193 31.7082C167.704 32.1653 167.087 32.3835 166.342 32.3835C165.779 32.3835 165.279 32.2527 164.822 31.9912C164.365 31.7302 164.025 31.4356 163.801 31.0872L164.801 30.1943C164.875 30.3031 164.939 30.3899 165.003 30.4553C165.376 30.8366 165.822 31.0328 166.342 31.0328C166.704 31.0328 166.992 30.935 167.193 30.7499C167.406 30.5647 167.502 30.3031 167.502 29.9651C167.502 29.5843 167.257 29.3228 166.768 29.181C165.8 28.887 165.279 28.7238 165.205 28.6908C164.758 28.4622 164.439 28.2227 164.237 27.9501C164.014 27.6341 163.897 27.2203 163.897 26.6868C163.897 26.0328 164.142 25.4889 164.62 25.0531C165.099 24.6173 165.673 24.4101 166.331 24.4101C166.832 24.4101 167.3 24.5189 167.725 24.7481C168.15 24.9767 168.458 25.2163 168.639 25.4999L167.789 26.4252C167.661 26.2973 167.522 26.1807 167.374 26.0768C167.034 25.8372 166.704 25.7174 166.396 25.7174C166.098 25.7174 165.854 25.7828 165.662 25.913C165.439 26.0768 165.322 26.3164 165.322 26.6324C165.322 26.9374 165.428 27.1659 165.652 27.3077C165.843 27.4275 166.247 27.5583 166.885 27.6995C167.523 27.8523 168.012 28.1139 168.363 28.4842C168.757 28.876 168.927 29.3662 168.927 29.9871Z" fill="#042055"/>
</g>
<path d="M0.535538 30.4165V25.5419H2.32066C2.66658 25.5419 2.95299 25.599 3.1799 25.7133C3.40681 25.826 3.5766 25.9791 3.68926 26.1727C3.80192 26.3647 3.85825 26.5813 3.85825 26.8225C3.85825 27.0256 3.82096 27.1969 3.74638 27.3366C3.6718 27.4746 3.57184 27.5857 3.44648 27.6698C3.32271 27.7523 3.18625 27.8126 3.03709 27.8507V27.8983C3.19894 27.9062 3.35683 27.9586 3.51075 28.0554C3.66625 28.1506 3.79478 28.2863 3.89633 28.4624C3.99789 28.6385 4.04866 28.8527 4.04866 29.105C4.04866 29.3542 3.98995 29.5779 3.87253 29.7762C3.7567 29.973 3.57739 30.1293 3.33461 30.2451C3.09184 30.3594 2.78162 30.4165 2.40397 30.4165H0.535538ZM1.27101 29.7858H2.33256C2.68483 29.7858 2.93713 29.7175 3.08946 29.5811C3.24179 29.4446 3.31795 29.274 3.31795 29.0693C3.31795 28.9154 3.27908 28.7742 3.20132 28.6457C3.12357 28.5171 3.0125 28.4148 2.8681 28.3386C2.72529 28.2625 2.55551 28.2244 2.35875 28.2244H1.27101V29.7858ZM1.27101 27.6508H2.2564C2.42142 27.6508 2.56979 27.619 2.70149 27.5555C2.83478 27.4921 2.9403 27.4032 3.01805 27.289C3.09739 27.1731 3.13706 27.0367 3.13706 26.8796C3.13706 26.6781 3.06645 26.5091 2.92523 26.3726C2.784 26.2361 2.56741 26.1679 2.27544 26.1679H1.27101V27.6508ZM5.33276 30.4165H4.55207L6.30625 25.5419H7.15597L8.91015 30.4165H8.12946L6.75134 26.4273H6.71326L5.33276 30.4165ZM5.46367 28.5076H7.99617V29.1265H5.46367V28.5076ZM12.2335 26.8225C12.2081 26.5971 12.1033 26.4226 11.9193 26.2988C11.7352 26.1735 11.5035 26.1108 11.2243 26.1108C11.0243 26.1108 10.8514 26.1425 10.7054 26.206C10.5594 26.2679 10.446 26.3536 10.365 26.463C10.2857 26.5709 10.246 26.6939 10.246 26.832C10.246 26.9478 10.273 27.0478 10.3269 27.1319C10.3825 27.216 10.4547 27.2866 10.5435 27.3437C10.634 27.3992 10.7308 27.4461 10.8339 27.4841C10.9371 27.5206 11.0362 27.5508 11.1314 27.5746L11.6075 27.6984C11.763 27.7364 11.9225 27.788 12.0859 27.8531C12.2493 27.9181 12.4009 28.0038 12.5405 28.1101C12.6801 28.2164 12.7928 28.3481 12.8785 28.5052C12.9658 28.6623 13.0094 28.8504 13.0094 29.0693C13.0094 29.3454 12.938 29.5906 12.7952 29.8048C12.654 30.019 12.4485 30.188 12.1787 30.3118C11.9106 30.4355 11.5861 30.4974 11.2052 30.4974C10.8403 30.4974 10.5245 30.4395 10.2579 30.3237C9.99134 30.2078 9.78268 30.0436 9.63194 29.831C9.4812 29.6168 9.39789 29.3629 9.38202 29.0693H10.1199C10.1342 29.2455 10.1913 29.3922 10.2912 29.5097C10.3928 29.6255 10.5221 29.712 10.6792 29.7691C10.8379 29.8246 11.0116 29.8524 11.2005 29.8524C11.4083 29.8524 11.5932 29.8199 11.755 29.7548C11.9185 29.6882 12.047 29.5961 12.1406 29.4787C12.2343 29.3597 12.2811 29.2209 12.2811 29.0622C12.2811 28.9178 12.2398 28.7996 12.1573 28.7075C12.0764 28.6155 11.9661 28.5393 11.8265 28.479C11.6884 28.4188 11.5321 28.3656 11.3576 28.3196L10.7816 28.1625C10.3912 28.0562 10.0818 27.8999 9.8533 27.6936C9.62639 27.4873 9.51293 27.2144 9.51293 26.8748C9.51293 26.594 9.5891 26.3488 9.74143 26.1393C9.89376 25.9299 10.1 25.7672 10.3603 25.6514C10.6205 25.534 10.9141 25.4753 11.2409 25.4753C11.571 25.4753 11.8622 25.5332 12.1145 25.649C12.3683 25.7649 12.5683 25.9243 12.7143 26.1274C12.8602 26.329 12.9364 26.5606 12.9428 26.8225H12.2335ZM13.8883 30.4165V25.5419H16.9444V26.175H14.6237V27.6603H16.7849V28.291H14.6237V29.7834H16.973V30.4165H13.8883ZM19.5049 30.4165H17.9268V25.5419H19.5549C20.0325 25.5419 20.4427 25.6395 20.7854 25.8347C21.1281 26.0283 21.3908 26.3067 21.5732 26.6701C21.7573 27.0319 21.8493 27.4659 21.8493 27.9721C21.8493 28.4798 21.7565 28.9162 21.5709 29.2812C21.3868 29.6461 21.1202 29.927 20.7711 30.1237C20.422 30.3189 19.9999 30.4165 19.5049 30.4165ZM18.6623 29.7739H19.4644C19.8357 29.7739 20.1443 29.704 20.3903 29.5644C20.6362 29.4232 20.8203 29.2193 20.9425 28.9527C21.0647 28.6845 21.1258 28.3577 21.1258 27.9721C21.1258 27.5897 21.0647 27.2652 20.9425 26.9986C20.8219 26.732 20.6418 26.5297 20.4022 26.3916C20.1626 26.2536 19.8651 26.1846 19.5096 26.1846H18.6623V29.7739ZM28.772 27.9792C28.772 28.4997 28.6768 28.9471 28.4864 29.3216C28.296 29.6945 28.035 29.9817 27.7034 30.1832C27.3733 30.3832 26.998 30.4831 26.5775 30.4831C26.1555 30.4831 25.7786 30.3832 25.447 30.1832C25.1169 29.9817 24.8567 29.6937 24.6663 29.3192C24.4758 28.9448 24.3806 28.4981 24.3806 27.9792C24.3806 27.4587 24.4758 27.0121 24.6663 26.6392C24.8567 26.2647 25.1169 25.9775 25.447 25.7776C25.7786 25.576 26.1555 25.4753 26.5775 25.4753C26.998 25.4753 27.3733 25.576 27.7034 25.7776C28.035 25.9775 28.296 26.2647 28.4864 26.6392C28.6768 27.0121 28.772 27.4587 28.772 27.9792ZM28.0437 27.9792C28.0437 27.5825 27.9795 27.2485 27.8509 26.9772C27.724 26.7042 27.5494 26.498 27.3273 26.3583C27.1067 26.2171 26.8568 26.1465 26.5775 26.1465C26.2967 26.1465 26.046 26.2171 25.8254 26.3583C25.6048 26.498 25.4303 26.7042 25.3018 26.9772C25.1748 27.2485 25.1114 27.5825 25.1114 27.9792C25.1114 28.3759 25.1748 28.7107 25.3018 28.9836C25.4303 29.255 25.6048 29.4613 25.8254 29.6025C26.046 29.7421 26.2967 29.8119 26.5775 29.8119C26.8568 29.8119 27.1067 29.7421 27.3273 29.6025C27.5494 29.4613 27.724 29.255 27.8509 28.9836C27.9795 28.7107 28.0437 28.3759 28.0437 27.9792ZM33.6234 25.5419V30.4165H32.9475L30.4697 26.8415H30.4245V30.4165H29.689V25.5419H30.3697L32.8499 29.1217H32.8951V25.5419H33.6234ZM38.2528 25.5419V30.4165H37.515V26.2798H37.4864L36.3202 27.0414V26.3369L37.5364 25.5419H38.2528ZM41.2185 30.4831C40.8774 30.4831 40.5759 30.4244 40.3141 30.307C40.0538 30.1896 39.8499 30.0277 39.7024 29.8215C39.5548 29.6152 39.4818 29.3803 39.4834 29.1169C39.4818 28.9107 39.5239 28.721 39.6095 28.5481C39.6968 28.3735 39.815 28.2283 39.9642 28.1125C40.1133 27.9951 40.28 27.9205 40.464 27.8888V27.8602C40.2212 27.8015 40.0269 27.6714 39.8809 27.4699C39.7349 27.2683 39.6627 27.0367 39.6643 26.7748C39.6627 26.5257 39.7286 26.3036 39.8618 26.1084C39.9967 25.9116 40.1816 25.7569 40.4164 25.6443C40.6513 25.5316 40.9186 25.4753 41.2185 25.4753C41.5153 25.4753 41.7803 25.5324 42.0135 25.6466C42.2484 25.7593 42.4332 25.914 42.5681 26.1108C42.703 26.306 42.7712 26.5273 42.7728 26.7748C42.7712 27.0367 42.6966 27.2683 42.5491 27.4699C42.4015 27.6714 42.2095 27.8015 41.9731 27.8602V27.8888C42.1555 27.9205 42.3198 27.9951 42.4657 28.1125C42.6133 28.2283 42.7307 28.3735 42.818 28.5481C42.9069 28.721 42.9521 28.9107 42.9537 29.1169C42.9521 29.3803 42.8775 29.6152 42.7299 29.8215C42.5824 30.0277 42.3777 30.1896 42.1159 30.307C41.8556 30.4244 41.5565 30.4831 41.2185 30.4831ZM41.2185 29.881C41.4201 29.881 41.5946 29.8476 41.7422 29.781C41.8897 29.7128 42.004 29.6184 42.0849 29.4978C42.1658 29.3756 42.2071 29.2328 42.2087 29.0693C42.2071 28.8995 42.1627 28.7496 42.0754 28.6195C41.9897 28.4894 41.8731 28.387 41.7255 28.3124C41.5779 28.2379 41.409 28.2006 41.2185 28.2006C41.0265 28.2006 40.856 28.2379 40.7068 28.3124C40.5576 28.387 40.4402 28.4894 40.3545 28.6195C40.2689 28.7496 40.2268 28.8995 40.2284 29.0693C40.2268 29.2328 40.2657 29.3756 40.345 29.4978C40.4259 29.6184 40.541 29.7128 40.6901 29.781C40.8393 29.8476 41.0154 29.881 41.2185 29.881ZM41.2185 27.6127C41.3804 27.6127 41.524 27.5801 41.6493 27.5151C41.7747 27.45 41.8731 27.3596 41.9445 27.2437C42.0175 27.1279 42.0548 26.9922 42.0564 26.8367C42.0548 26.6844 42.0183 26.5511 41.9469 26.4369C41.8771 26.3226 41.7795 26.2346 41.6541 26.1727C41.5288 26.1092 41.3836 26.0775 41.2185 26.0775C41.0503 26.0775 40.9028 26.1092 40.7758 26.1727C40.6505 26.2346 40.5529 26.3226 40.4831 26.4369C40.4132 26.5511 40.3791 26.6844 40.3807 26.8367C40.3791 26.9922 40.414 27.1279 40.4854 27.2437C40.5569 27.3596 40.6552 27.45 40.7806 27.5151C40.9075 27.5801 41.0535 27.6127 41.2185 27.6127ZM45.6468 30.4165V25.5419H47.3844C47.762 25.5419 48.0754 25.607 48.3245 25.7371C48.5752 25.8672 48.7625 26.0473 48.8862 26.2774C49.01 26.5059 49.0719 26.7701 49.0719 27.07C49.0719 27.3683 49.0092 27.6309 48.8839 27.8578C48.7601 28.0831 48.5729 28.2585 48.3221 28.3838C48.073 28.5092 47.7596 28.5719 47.382 28.5719H46.0657V27.9388H47.3153C47.5533 27.9388 47.7469 27.9046 47.8961 27.8364C48.0468 27.7682 48.1571 27.669 48.2269 27.5389C48.2968 27.4088 48.3317 27.2525 48.3317 27.07C48.3317 26.8859 48.296 26.7265 48.2246 26.5916C48.1547 26.4567 48.0445 26.3536 47.8937 26.2822C47.7446 26.2092 47.5486 26.1727 47.3058 26.1727H46.3823V30.4165H45.6468ZM48.0532 28.2172L49.2575 30.4165H48.4197L47.2392 28.2172H48.0532ZM49.9668 30.4165V25.5419H53.023V26.175H50.7023V27.6603H52.8635V28.291H50.7023V29.7834H53.0515V30.4165H49.9668ZM54.4314 25.5419L55.7881 29.512H55.8429L57.1996 25.5419H57.9945L56.2404 30.4165H55.3906L53.6365 25.5419H54.4314ZM59.434 25.5419V30.4165H58.6985V25.5419H59.434ZM60.505 30.4165V25.5419H63.5612V26.175H61.2405V27.6603H63.4017V28.291H61.2405V29.7834H63.5897V30.4165H60.505ZM65.498 30.4165L64.1461 25.5419H64.9196L65.8693 29.3169H65.9146L66.9023 25.5419H67.6687L68.6565 29.3192H68.7017L69.649 25.5419H70.425L69.0707 30.4165H68.3304L67.3046 26.7653H67.2665L66.2406 30.4165H65.498ZM73.7411 26.8225C73.7157 26.5971 73.611 26.4226 73.427 26.2988C73.2429 26.1735 73.0112 26.1108 72.7319 26.1108C72.532 26.1108 72.3591 26.1425 72.2131 26.206C72.0671 26.2679 71.9536 26.3536 71.8727 26.463C71.7934 26.5709 71.7537 26.6939 71.7537 26.832C71.7537 26.9478 71.7807 27.0478 71.8346 27.1319C71.8902 27.216 71.9624 27.2866 72.0512 27.3437C72.1417 27.3992 72.2385 27.4461 72.3416 27.4841C72.4447 27.5206 72.5439 27.5508 72.6391 27.5746L73.1152 27.6984C73.2707 27.7364 73.4301 27.788 73.5936 27.8531C73.757 27.9181 73.9085 28.0038 74.0482 28.1101C74.1878 28.2164 74.3005 28.3481 74.3862 28.5052C74.4734 28.6623 74.5171 28.8504 74.5171 29.0693C74.5171 29.3454 74.4457 29.5906 74.3029 29.8048C74.1616 30.019 73.9561 30.188 73.6864 30.3118C73.4182 30.4355 73.0937 30.4974 72.7129 30.4974C72.3479 30.4974 72.0322 30.4395 71.7656 30.3237C71.499 30.2078 71.2904 30.0436 71.1396 29.831C70.9889 29.6168 70.9056 29.3629 70.8897 29.0693H71.6275C71.6418 29.2455 71.699 29.3922 71.7989 29.5097C71.9005 29.6255 72.0298 29.712 72.1869 29.7691C72.3456 29.8246 72.5193 29.8524 72.7081 29.8524C72.916 29.8524 73.1009 29.8199 73.2627 29.7548C73.4262 29.6882 73.5547 29.5961 73.6483 29.4787C73.7419 29.3597 73.7887 29.2209 73.7887 29.0622C73.7887 28.9178 73.7475 28.7996 73.665 28.7075C73.584 28.6155 73.4738 28.5393 73.3341 28.479C73.1961 28.4188 73.0398 28.3656 72.8652 28.3196L72.2892 28.1625C71.8989 28.0562 71.5895 27.8999 71.361 27.6936C71.1341 27.4873 71.0206 27.2144 71.0206 26.8748C71.0206 26.594 71.0968 26.3488 71.2491 26.1393C71.4014 25.9299 71.6077 25.7672 71.8679 25.6514C72.1282 25.534 72.4217 25.4753 72.7486 25.4753C73.0787 25.4753 73.3698 25.5332 73.6221 25.649C73.876 25.7649 74.0759 25.9243 74.2219 26.1274C74.3679 26.329 74.4441 26.5606 74.4504 26.8225H73.7411Z" fill="#979BA0"/>
<defs>
<clipPath id="clip0_1929_9360">
<rect width="86.1756" height="12.8347" fill="white" transform="translate(82.8242 21.0652)"/>
</clipPath>
</defs>
</svg>
