<svg width="922" height="660" viewBox="0 0 922 660" fill="none" xmlns="http://www.w3.org/2000/svg">
<path d="M368.41 174.676C405.606 153.201 424.204 142.464 446.074 139.116C460.182 136.956 475.022 136.956 489.13 139.116C511 142.464 529.598 153.201 566.794 174.676L856.783 342.101C893.978 363.577 912.576 374.314 918.375 386.941C922.116 395.086 922.116 403.654 918.375 411.799C912.576 424.425 893.978 435.163 856.782 456.638L572.564 620.732C535.368 642.207 516.77 652.944 494.9 656.292C480.792 658.452 465.952 658.452 451.844 656.292C429.975 652.944 411.377 642.207 374.181 620.732L101.004 463.013C57.5035 437.898 35.7533 425.341 28.9719 410.574C24.5971 401.048 24.5971 391.028 28.9719 381.502C35.7533 366.736 57.5035 354.178 101.004 329.063L368.41 174.676Z" fill="url(#paint0_linear_663_7474)"/>
<g clip-path="url(#clip0_663_7474)">
<g opacity="0.2">
<path opacity="0.2" d="M459.453 375.383L508.977 345.442L576.65 356.388L594.8 397.273L545.276 427.214L477.517 416.269L459.453 375.383Z" stroke="#8888BA" stroke-width="1.16245" stroke-miterlimit="10"/>
<path opacity="0.2" d="M414.77 368.147L496.963 318.396L609.407 336.578L639.484 404.51L557.204 454.17L444.847 435.989L414.77 368.147Z" stroke="#8888BA" stroke-width="1.16245" stroke-miterlimit="10"/>
<path opacity="0.2" d="M340.614 356.116L477.171 273.621L663.684 303.833L713.639 416.541L577.082 499.036L390.57 468.824L340.614 356.116Z" stroke="#8888BA" stroke-width="1.16245" stroke-miterlimit="10"/>
<path opacity="0.2" d="M217.454 336.216L444.155 199.176L753.742 249.378L836.713 436.441L610.098 573.391L300.425 523.278L217.454 336.216Z" stroke="#8888BA" stroke-width="1.16245" stroke-miterlimit="10"/>
<path opacity="0.2" d="M-58.7026 303.109L298.752 75.7036L787.102 158.923L917.996 469.548L560.459 696.863L72.1096 613.643L-58.7026 303.109Z" stroke="#8888BA" stroke-width="1.16245" stroke-miterlimit="10"/>
</g>
<path opacity="0.5" d="M696.958 461.316L711.737 468.01L694.711 472.442L696.958 461.316Z" stroke="#C9C9DC" stroke-width="1.74368" stroke-miterlimit="10"/>
<path opacity="0.5" d="M520.558 26.5862L532.398 14.6461L528.423 2.79639L516.582 14.7365L520.558 26.5862Z" stroke="#C9C9DC" stroke-width="1.74368" stroke-miterlimit="10"/>
<path opacity="0.5" d="M684.944 267.379C687.277 266.023 689.092 262.585 689.092 259.872C689.092 257.158 687.191 255.982 684.944 257.339" stroke="#C9C9DC" stroke-width="1.74368" stroke-miterlimit="10"/>
<path opacity="0.5" d="M223.676 532.143C220.565 531.691 218.663 529.701 219.441 527.801C220.219 525.902 223.417 524.726 226.615 525.268C229.726 525.721 232.924 524.635 233.788 522.736C234.566 520.836 232.751 518.937 229.553 518.394" stroke="#C9C9DC" stroke-width="1.74368" stroke-miterlimit="10"/>
<path d="M243.075 219.128C245.462 214.802 245.453 210.12 243.056 208.671C240.658 207.223 236.78 209.555 234.393 213.882C232.007 218.208 232.015 222.89 234.413 224.338C236.81 225.787 240.689 223.454 243.075 219.128Z" fill="#FFCD2D"/>
<path d="M640.52 342.096C644.339 342.096 647.435 340.233 647.435 337.935C647.435 335.637 644.339 333.774 640.52 333.774C636.702 333.774 633.606 335.637 633.606 337.935C633.606 340.233 636.702 342.096 640.52 342.096Z" fill="#73DF15"/>
<path d="M421.338 595.733C423.82 595.733 425.832 594.518 425.832 593.02C425.832 591.521 423.82 590.306 421.338 590.306C418.855 590.306 416.843 591.521 416.843 593.02C416.843 594.518 418.855 595.733 421.338 595.733Z" fill="#6A7AFF"/>
<path opacity="0.5" d="M720.236 38.4657C722.67 34.0529 722.666 29.2809 720.228 27.8071C717.789 26.3334 713.838 28.716 711.404 33.1288C708.97 37.5416 708.973 42.3136 711.412 43.7873C713.851 45.2611 717.801 42.8785 720.236 38.4657Z" stroke="#C9C9DC" stroke-width="1.74368" stroke-miterlimit="10"/>
</g>
<g clip-path="url(#clip1_663_7474)">
<path d="M295.671 216.272L620.642 19.8927C626.865 16.0936 631.878 19.1691 631.878 26.6769V236.624C631.878 244.132 626.865 253.268 620.642 257.067L295.671 453.447C289.448 457.246 284.436 454.17 284.436 446.663V236.624C284.436 229.117 289.448 219.981 295.671 216.272Z" fill="#C9C9DC"/>
<path d="M298.524 217.719L623.495 21.34C629.718 17.5408 634.73 20.6163 634.73 28.1242V238.072C634.73 245.58 629.718 254.716 623.495 258.515L298.524 454.894C292.301 458.693 287.288 455.618 287.288 448.11V238.162C287.288 230.654 292.301 221.518 298.524 217.719Z" fill="#F5F5F7"/>
<path d="M415.461 463.216H419.263V463.306L600.158 353.945C600.936 353.493 602.319 353.493 603.27 354.036L668.437 393.384V392.208H670.079V395.012C670.079 395.374 669.906 395.645 669.56 395.917L485.468 507.177C484.69 507.63 483.307 507.63 482.356 507.087L416.238 467.196C415.633 466.834 415.374 466.382 415.461 465.929V463.216Z" fill="#B9BDC8"/>
<path d="M485.467 504.373L669.646 393.113C670.423 392.661 670.337 391.756 669.386 391.213L603.355 351.232C602.404 350.689 601.021 350.599 600.244 351.141L416.065 462.402C415.287 462.854 415.373 463.759 416.324 464.301L482.442 504.192C483.219 504.825 484.602 504.826 485.467 504.373Z" fill="#DCDFE1"/>
<path d="M426.178 465.025L604.047 357.564C604.566 357.292 604.479 356.659 603.874 356.297L601.454 354.85C600.849 354.488 599.985 354.488 599.467 354.76L421.683 462.221C421.165 462.492 421.251 463.125 421.856 463.487L424.276 464.935C424.795 465.296 425.659 465.296 426.178 465.025Z" fill="#C9C9DC"/>
<path d="M605.171 370.499C605.689 370.77 606.554 370.77 607.072 370.499L616.32 364.891C616.839 364.619 616.839 364.077 616.32 363.715L608.196 358.83C607.677 358.559 606.813 358.559 606.294 358.83L597.047 364.438C596.528 364.71 596.528 365.252 597.047 365.614L605.171 370.499Z" fill="#C9C9DC"/>
<path d="M592.639 378.007C593.157 378.278 594.022 378.278 594.54 378.007L603.788 372.399C604.307 372.127 604.307 371.585 603.788 371.223L595.664 366.338C595.145 366.067 594.281 366.067 593.762 366.338L584.514 371.946C583.996 372.218 583.996 372.76 584.514 373.122L592.639 378.007Z" fill="#C9C9DC"/>
<path d="M580.107 385.605C580.625 385.876 581.49 385.876 582.008 385.605L591.256 379.997C591.775 379.725 591.775 379.183 591.256 378.821L583.132 373.936C582.613 373.665 581.749 373.665 581.23 373.936L571.983 379.545C571.464 379.816 571.464 380.359 571.983 380.72L580.107 385.605Z" fill="#C9C9DC"/>
<path d="M567.661 393.113C568.18 393.384 569.044 393.384 569.563 393.113L578.81 387.505C579.329 387.233 579.329 386.69 578.81 386.329L570.686 381.444C570.168 381.173 569.303 381.173 568.785 381.444L559.537 387.052C559.018 387.324 559.018 387.866 559.537 388.228L567.661 393.113Z" fill="#C9C9DC"/>
<path d="M555.128 400.711C555.647 400.982 556.511 400.982 557.03 400.711L566.278 395.103C566.796 394.831 566.796 394.289 566.278 393.927L558.153 389.042C557.635 388.771 556.771 388.771 556.252 389.042L547.004 394.651C546.486 394.922 546.486 395.465 547.004 395.826L555.128 400.711Z" fill="#C9C9DC"/>
<path d="M542.596 408.219C543.115 408.49 543.979 408.49 544.498 408.219L553.745 402.611C554.264 402.339 554.264 401.797 553.745 401.435L545.621 396.55C545.103 396.279 544.238 396.279 543.72 396.55L534.472 402.158C533.953 402.43 533.953 402.973 534.472 403.334L542.596 408.219Z" fill="#C9C9DC"/>
<path d="M530.151 415.817C530.67 416.089 531.534 416.089 532.053 415.817L541.301 410.209C541.819 409.938 541.819 409.395 541.301 409.033L533.176 404.148C532.658 403.877 531.793 403.877 531.275 404.148L522.027 409.757C521.509 410.028 521.509 410.571 522.027 410.933L530.151 415.817Z" fill="#C9C9DC"/>
<path d="M517.619 423.325C518.137 423.596 519.002 423.596 519.52 423.325L528.768 417.717C529.287 417.445 529.287 416.903 528.768 416.541L520.644 411.656C520.125 411.385 519.261 411.385 518.742 411.656L509.494 417.264C508.976 417.536 508.976 418.079 509.494 418.44L517.619 423.325Z" fill="#C9C9DC"/>
<path d="M505.087 430.923C505.605 431.195 506.47 431.195 506.988 430.923L516.236 425.315C516.755 425.044 516.755 424.501 516.236 424.139L508.112 419.255C507.593 418.983 506.729 418.983 506.21 419.255L496.963 424.863C496.444 425.134 496.444 425.677 496.963 426.039L505.087 430.923Z" fill="#C9C9DC"/>
<path d="M492.641 438.431C493.159 438.702 494.024 438.702 494.542 438.431L503.79 432.823C504.309 432.552 504.309 432.009 503.79 431.647L495.666 426.762C495.147 426.491 494.283 426.491 493.764 426.762L484.516 432.371C483.998 432.642 483.998 433.185 484.516 433.547L492.641 438.431Z" fill="#C9C9DC"/>
<path d="M480.109 446.029C480.628 446.301 481.492 446.301 482.011 446.029L491.259 440.421C491.777 440.15 491.777 439.607 491.259 439.245L483.134 434.361C482.616 434.089 481.751 434.089 481.233 434.361L471.985 439.969C471.467 440.24 471.467 440.783 471.985 441.145L480.109 446.029Z" fill="#C9C9DC"/>
<path d="M467.577 453.628C468.096 453.899 468.96 453.899 469.479 453.628L478.726 448.019C479.245 447.748 479.245 447.205 478.726 446.843L470.602 441.959C470.084 441.687 469.219 441.687 468.701 441.959L459.453 447.567C458.934 447.838 458.934 448.381 459.453 448.743L467.577 453.628Z" fill="#C9C9DC"/>
<path d="M455.131 461.135C455.649 461.407 456.514 461.407 457.032 461.135L466.28 455.527C466.799 455.256 466.799 454.713 466.28 454.351L458.156 449.467C457.637 449.195 456.773 449.195 456.254 449.467L447.007 455.075C446.488 455.346 446.488 455.889 447.007 456.251L455.131 461.135Z" fill="#C9C9DC"/>
<path d="M436.549 472.352C437.067 472.623 437.932 472.623 438.45 472.352L453.402 463.306C453.921 463.035 453.921 462.492 453.402 462.13L445.278 457.246C444.76 456.974 443.895 456.974 443.377 457.246L428.425 466.291C427.906 466.563 427.906 467.105 428.425 467.467L436.549 472.352Z" fill="#C9C9DC"/>
<path d="M459.885 472.985C460.404 473.256 460.404 473.799 459.885 474.161L450.637 479.769C450.119 480.041 449.254 480.041 448.736 479.769L440.612 474.885C440.093 474.613 440.093 474.071 440.612 473.709L449.859 468.1C450.378 467.829 451.242 467.829 451.761 468.1L459.885 472.985Z" fill="#C9C9DC"/>
<path d="M472.417 465.387C472.935 465.658 472.935 466.201 472.417 466.563L463.169 472.171C462.65 472.442 461.786 472.442 461.268 472.171L453.143 467.286C452.625 467.015 452.625 466.472 453.143 466.11L462.391 460.502C462.91 460.231 463.774 460.231 464.293 460.502L472.417 465.387Z" fill="#C9C9DC"/>
<path d="M484.862 457.879C485.381 458.15 485.381 458.693 484.862 459.055L475.614 464.663C475.096 464.935 474.231 464.935 473.713 464.663L465.589 459.779C465.07 459.507 465.07 458.965 465.589 458.603L474.836 452.995C475.355 452.723 476.219 452.723 476.738 452.995L484.862 457.879Z" fill="#C9C9DC"/>
<path d="M497.394 450.281C497.913 450.552 497.913 451.095 497.394 451.457L488.147 457.065C487.628 457.336 486.764 457.336 486.245 457.065L478.121 452.18C477.602 451.909 477.602 451.366 478.121 451.004L487.369 445.396C487.887 445.125 488.752 445.125 489.27 445.396L497.394 450.281Z" fill="#C9C9DC"/>
<path d="M509.927 442.773C510.445 443.044 510.445 443.587 509.927 443.949L500.679 449.557C500.16 449.828 499.296 449.828 498.777 449.557L490.653 444.672C490.135 444.401 490.135 443.858 490.653 443.497L499.901 437.888C500.42 437.617 501.284 437.617 501.802 437.888L509.927 442.773Z" fill="#C9C9DC"/>
<path d="M522.372 435.175C522.891 435.446 522.891 435.989 522.372 436.35L513.125 441.959C512.606 442.23 511.742 442.23 511.223 441.959L503.099 437.074C502.58 436.803 502.58 436.26 503.099 435.898L512.347 430.29C512.865 430.019 513.73 430.019 514.248 430.29L522.372 435.175Z" fill="#C9C9DC"/>
<path d="M534.904 427.667C535.423 427.938 535.423 428.481 534.904 428.843L525.656 434.451C525.138 434.723 524.273 434.723 523.755 434.451L515.631 429.566C515.112 429.295 515.112 428.752 515.631 428.391L524.878 422.782C525.397 422.511 526.261 422.511 526.78 422.782L534.904 427.667Z" fill="#C9C9DC"/>
<path d="M547.437 420.069C547.955 420.34 547.955 420.883 547.437 421.245L538.189 426.853C537.67 427.124 536.806 427.124 536.288 426.853L528.163 421.968C527.645 421.697 527.645 421.154 528.163 420.792L537.411 415.184C537.93 414.913 538.794 414.913 539.313 415.184L547.437 420.069Z" fill="#C9C9DC"/>
<path d="M559.882 412.561C560.401 412.832 560.401 413.375 559.882 413.737L550.634 419.345C550.116 419.616 549.251 419.616 548.733 419.345L540.609 414.46C540.09 414.189 540.09 413.646 540.609 413.284L549.856 407.676C550.375 407.405 551.239 407.405 551.758 407.676L559.882 412.561Z" fill="#C9C9DC"/>
<path d="M572.414 404.963C572.933 405.234 572.933 405.777 572.414 406.138L563.167 411.747C562.648 412.018 561.784 412.018 561.265 411.747L553.141 406.862C552.622 406.591 552.622 406.048 553.141 405.686L562.389 400.078C562.907 399.807 563.772 399.807 564.29 400.078L572.414 404.963Z" fill="#C9C9DC"/>
<path d="M584.947 397.455C585.465 397.726 585.465 398.269 584.947 398.631L575.699 404.239C575.18 404.51 574.316 404.51 573.797 404.239L565.673 399.354C565.155 399.083 565.155 398.54 565.673 398.178L574.921 392.57C575.439 392.299 576.304 392.299 576.822 392.57L584.947 397.455Z" fill="#C9C9DC"/>
<path d="M597.392 389.856C597.911 390.128 597.911 390.671 597.392 391.032L588.145 396.641C587.626 396.912 586.762 396.912 586.243 396.641L578.119 391.756C577.6 391.485 577.6 390.942 578.119 390.58L587.367 384.972C587.885 384.7 588.75 384.7 589.268 384.972L597.392 389.856Z" fill="#C9C9DC"/>
<path d="M609.924 382.349C610.442 382.62 610.442 383.163 609.924 383.525L600.676 389.133C600.157 389.404 599.293 389.404 598.775 389.133L590.65 384.248C590.132 383.977 590.132 383.434 590.65 383.072L599.898 377.464C600.417 377.193 601.281 377.193 601.8 377.464L609.924 382.349Z" fill="#C9C9DC"/>
<path d="M628.506 371.132C629.025 371.403 629.025 371.946 628.506 372.308L613.554 381.354C613.036 381.625 612.171 381.625 611.653 381.354L603.529 376.469C603.01 376.198 603.01 375.655 603.529 375.293L618.481 366.247C618.999 365.976 619.863 365.976 620.382 366.247L628.506 371.132Z" fill="#C9C9DC"/>
<path d="M496.444 495.056C496.963 495.328 496.963 495.87 496.444 496.232L487.196 501.841C486.678 502.112 485.814 502.112 485.295 501.841L477.171 496.956C476.652 496.685 476.652 496.142 477.171 495.78L486.419 490.172C486.937 489.9 487.801 489.9 488.32 490.172L496.444 495.056Z" fill="#C9C9DC"/>
<path d="M509.149 487.458C509.668 487.729 509.668 488.272 509.149 488.634L499.901 494.242C499.383 494.513 498.518 494.513 498 494.242L495.321 492.614C494.802 492.343 494.802 491.8 495.321 491.438L504.568 485.83C505.087 485.558 505.951 485.558 506.47 485.83L509.149 487.458Z" fill="#C9C9DC"/>
<path d="M521.767 479.769C522.286 480.041 522.286 480.583 521.767 480.945L512.52 486.553C512.001 486.825 511.137 486.825 510.618 486.553L502.494 481.669C501.975 481.397 501.975 480.855 502.494 480.493L511.742 474.885C512.26 474.613 513.125 474.613 513.643 474.885L521.767 479.769Z" fill="#C9C9DC"/>
<path d="M534.473 472.171C534.991 472.442 534.991 472.985 534.473 473.347L525.225 478.955C524.706 479.227 523.842 479.227 523.323 478.955L515.199 474.071C514.68 473.799 514.68 473.256 515.199 472.895L524.447 467.286C524.965 467.015 525.83 467.015 526.348 467.286L534.473 472.171Z" fill="#C9C9DC"/>
<path d="M549.252 463.216C549.77 463.487 549.77 464.03 549.252 464.392L538.103 471.086C537.584 471.357 536.72 471.357 536.201 471.086L528.077 466.201C527.558 465.93 527.558 465.387 528.077 465.025L539.226 458.331C539.745 458.06 540.609 458.06 541.128 458.331L549.252 463.216Z" fill="#C9C9DC"/>
<path d="M665.066 393.203C665.585 393.475 665.585 394.017 665.066 394.379L655.818 399.988C655.3 400.259 654.435 400.259 653.917 399.988L645.792 395.103C645.274 394.832 645.274 394.289 645.792 393.927L655.04 388.319C655.559 388.047 656.423 388.047 656.942 388.319L665.066 393.203Z" fill="#C9C9DC"/>
<path d="M652.448 400.802C652.966 401.073 652.966 401.616 652.448 401.978L643.113 407.586C642.595 407.857 641.731 407.857 641.212 407.586L633.088 402.701C632.569 402.43 632.569 401.887 633.088 401.525L642.335 395.917C642.854 395.646 643.718 395.646 644.237 395.917L652.448 400.802Z" fill="#C9C9DC"/>
<path d="M639.742 408.49C640.261 408.762 640.261 409.304 639.742 409.666L630.494 415.275C629.976 415.546 629.111 415.546 628.593 415.275L620.469 410.39C619.95 410.119 619.95 409.576 620.469 409.214L629.716 403.606C630.235 403.334 631.099 403.334 631.618 403.606L639.742 408.49Z" fill="#C9C9DC"/>
<path d="M627.123 416.179C627.642 416.45 627.642 416.993 627.123 417.355L616.06 424.049C615.542 424.32 614.677 424.32 614.159 424.049L606.034 419.164C605.516 418.893 605.516 418.35 606.034 417.988L617.097 411.294C617.616 411.023 618.48 411.023 618.999 411.294L627.123 416.179Z" fill="#C9C9DC"/>
<path d="M612.171 425.224C612.69 425.496 612.69 426.039 612.171 426.4L553.4 461.949C552.881 462.221 552.017 462.221 551.499 461.949L543.374 457.065C542.856 456.793 542.856 456.251 543.374 455.889L602.146 420.34C602.664 420.069 603.529 420.069 604.047 420.34L612.171 425.224Z" fill="#C9C9DC"/>
<path d="M624.963 402.701C625.481 402.973 625.481 403.515 624.963 403.877L615.715 409.485C615.196 409.757 614.332 409.757 613.814 409.485L605.689 404.601C605.171 404.329 605.171 403.787 605.689 403.425L614.937 397.817C615.456 397.545 616.32 397.545 616.839 397.817L624.963 402.701Z" fill="#C9C9DC"/>
<path d="M612.517 410.209C613.036 410.48 613.036 411.023 612.517 411.385L603.269 416.993C602.751 417.265 601.886 417.265 601.368 416.993L593.243 412.109C592.725 411.837 592.725 411.294 593.243 410.933L602.491 405.324C603.01 405.053 603.874 405.053 604.393 405.324L612.517 410.209Z" fill="#C9C9DC"/>
<path d="M599.985 417.807C600.504 418.078 600.504 418.621 599.985 418.983L590.737 424.591C590.219 424.863 589.355 424.863 588.836 424.591L580.712 419.707C580.193 419.435 580.193 418.893 580.712 418.531L589.96 412.923C590.478 412.651 591.342 412.651 591.861 412.923L599.985 417.807Z" fill="#C9C9DC"/>
<path d="M587.453 425.315C587.971 425.586 587.971 426.129 587.453 426.491L578.205 432.099C577.686 432.371 576.822 432.371 576.303 432.099L568.179 427.215C567.66 426.943 567.66 426.401 568.179 426.039L577.427 420.43C577.945 420.159 578.81 420.159 579.328 420.43L587.453 425.315Z" fill="#C9C9DC"/>
<path d="M575.007 432.913C575.526 433.185 575.526 433.727 575.007 434.089L565.759 439.697C565.241 439.969 564.376 439.969 563.858 439.697L555.734 434.813C555.215 434.541 555.215 433.999 555.734 433.637L564.981 428.029C565.5 427.757 566.364 427.757 566.883 428.029L575.007 432.913Z" fill="#C9C9DC"/>
<path d="M562.475 440.421C562.994 440.692 562.994 441.235 562.475 441.597L553.228 447.205C552.709 447.477 551.845 447.477 551.326 447.205L543.202 442.321C542.683 442.049 542.683 441.507 543.202 441.145L552.45 435.537C552.968 435.265 553.833 435.265 554.351 435.537L562.475 440.421Z" fill="#C9C9DC"/>
<path d="M550.03 448.019C550.548 448.291 550.548 448.834 550.03 449.195L540.782 454.804C540.263 455.075 539.399 455.075 538.88 454.804L530.756 449.919C530.238 449.648 530.238 449.105 530.756 448.743L540.004 443.135C540.523 442.863 541.387 442.863 541.905 443.135L550.03 448.019Z" fill="#C9C9DC"/>
<path d="M537.497 455.527C538.016 455.798 538.016 456.341 537.497 456.703L528.25 462.311C527.731 462.583 526.867 462.583 526.348 462.311L518.224 457.427C517.705 457.155 517.705 456.613 518.224 456.251L527.472 450.642C527.99 450.371 528.855 450.371 529.373 450.642L537.497 455.527Z" fill="#C9C9DC"/>
<path d="M524.965 463.125C525.483 463.397 525.483 463.94 524.965 464.301L515.717 469.91C515.198 470.181 514.334 470.181 513.816 469.91L505.691 465.025C505.173 464.754 505.173 464.211 505.691 463.849L514.939 458.241C515.458 457.97 516.322 457.97 516.841 458.241L524.965 463.125Z" fill="#C9C9DC"/>
<path d="M512.52 470.633C513.038 470.905 513.038 471.447 512.52 471.809L503.272 477.417C502.753 477.689 501.889 477.689 501.371 477.417L493.246 472.533C492.728 472.261 492.728 471.719 493.246 471.357L502.494 465.749C503.013 465.477 503.877 465.477 504.396 465.749L512.52 470.633Z" fill="#C9C9DC"/>
<path d="M652.879 385.786C653.398 386.057 653.398 386.6 652.879 386.962L628.938 401.435C628.42 401.706 627.556 401.706 627.037 401.435L618.913 396.55C618.394 396.279 618.394 395.736 618.913 395.374L642.853 380.901C643.372 380.63 644.236 380.63 644.755 380.901L652.879 385.786Z" fill="#C9C9DC"/>
<path d="M618.826 391.665C619.345 391.937 619.345 392.48 618.826 392.841L609.578 398.45C609.06 398.721 608.195 398.721 607.677 398.45L599.553 393.565C599.034 393.294 599.034 392.751 599.553 392.389L608.8 386.781C609.319 386.51 610.183 386.51 610.702 386.781L618.826 391.665Z" fill="#C9C9DC"/>
<path d="M606.295 399.264C606.813 399.535 606.813 400.078 606.295 400.44L597.047 406.048C596.528 406.319 595.664 406.319 595.146 406.048L587.021 401.163C586.503 400.892 586.503 400.349 587.021 399.987L596.269 394.379C596.788 394.108 597.652 394.108 598.171 394.379L606.295 399.264Z" fill="#C9C9DC"/>
<path d="M593.849 406.772C594.367 407.043 594.367 407.586 593.849 407.948L584.601 413.556C584.082 413.827 583.218 413.827 582.699 413.556L574.575 408.671C574.056 408.4 574.056 407.857 574.575 407.495L583.823 401.887C584.341 401.616 585.206 401.616 585.724 401.887L593.849 406.772Z" fill="#C9C9DC"/>
<path d="M581.317 414.37C581.835 414.641 581.835 415.184 581.317 415.546L572.069 421.154C571.55 421.425 570.686 421.425 570.167 421.154L562.043 416.269C561.525 415.998 561.525 415.455 562.043 415.094L571.291 409.485C571.81 409.214 572.674 409.214 573.192 409.485L581.317 414.37Z" fill="#C9C9DC"/>
<path d="M568.785 421.878C569.303 422.149 569.303 422.692 568.785 423.054L559.537 428.662C559.018 428.933 558.154 428.933 557.635 428.662L549.511 423.777C548.992 423.506 548.992 422.963 549.511 422.601L558.759 416.993C559.277 416.722 560.142 416.722 560.66 416.993L568.785 421.878Z" fill="#C9C9DC"/>
<path d="M556.252 429.476C556.771 429.747 556.771 430.29 556.252 430.652L547.005 436.26C546.486 436.532 545.622 436.532 545.103 436.26L536.979 431.376C536.46 431.104 536.46 430.562 536.979 430.2L546.227 424.591C546.745 424.32 547.61 424.32 548.128 424.591L556.252 429.476Z" fill="#C9C9DC"/>
<path d="M543.72 437.074C544.239 437.346 544.239 437.888 543.72 438.25L534.472 443.858C533.954 444.13 533.089 444.13 532.571 443.858L524.447 438.974C523.928 438.702 523.928 438.16 524.447 437.798L533.694 432.19C534.213 431.918 535.077 431.918 535.596 432.19L543.72 437.074Z" fill="#C9C9DC"/>
<path d="M531.274 444.582C531.793 444.853 531.793 445.396 531.274 445.758L522.026 451.366C521.508 451.638 520.644 451.638 520.125 451.366L512.001 446.482C511.482 446.21 511.482 445.668 512.001 445.306L521.249 439.697C521.767 439.426 522.631 439.426 523.15 439.697L531.274 444.582Z" fill="#C9C9DC"/>
<path d="M518.742 452.18C519.261 452.452 519.261 452.994 518.742 453.356L509.495 458.964C508.976 459.236 508.112 459.236 507.593 458.964L499.469 454.08C498.95 453.808 498.95 453.266 499.469 452.904L508.717 447.296C509.235 447.024 510.1 447.024 510.618 447.296L518.742 452.18Z" fill="#C9C9DC"/>
<path d="M506.21 459.688C506.729 459.96 506.729 460.502 506.21 460.864L496.962 466.472C496.444 466.744 495.58 466.744 495.061 466.472L486.937 461.588C486.418 461.316 486.418 460.774 486.937 460.412L496.185 454.804C496.703 454.532 497.567 454.532 498.086 454.804L506.21 459.688Z" fill="#C9C9DC"/>
<path d="M493.678 467.287C494.196 467.558 494.196 468.101 493.678 468.462L484.43 474.071C483.911 474.342 483.047 474.342 482.528 474.071L474.404 469.186C473.885 468.915 473.885 468.372 474.404 468.01L483.652 462.402C484.17 462.131 485.035 462.131 485.553 462.402L493.678 467.287Z" fill="#C9C9DC"/>
<path d="M640.693 378.459C641.211 378.73 641.211 379.273 640.693 379.635L623.234 390.128C622.716 390.399 621.852 390.399 621.333 390.128L613.209 385.243C612.69 384.972 612.69 384.429 613.209 384.067L630.667 373.484C631.186 373.212 632.05 373.212 632.569 373.484L640.693 378.459Z" fill="#C9C9DC"/>
<path d="M480.281 475.428C480.8 475.699 480.8 476.242 480.281 476.603L462.823 487.187C462.304 487.458 461.44 487.458 460.921 487.187L452.797 482.302C452.279 482.031 452.279 481.488 452.797 481.126L470.256 470.543C470.774 470.272 471.639 470.272 472.157 470.543L480.281 475.428Z" fill="#C9C9DC"/>
<path d="M499.556 478.503C500.074 478.774 500.074 479.317 499.556 479.679L475.01 494.423C474.491 494.695 473.627 494.695 473.108 494.423L464.984 489.539C464.466 489.267 464.466 488.724 464.984 488.363L489.53 473.528C490.048 473.257 490.913 473.257 491.431 473.528L499.556 478.503Z" fill="#C9C9DC"/>
<path d="M503.704 484.111C504.222 484.382 504.222 484.925 503.704 485.287L494.456 490.895C493.937 491.167 493.073 491.167 492.555 490.895L489.875 489.267C489.357 488.996 489.357 488.453 489.875 488.091L499.123 482.483C499.642 482.212 500.506 482.212 501.024 482.483L503.704 484.111Z" fill="#C9C9DC"/>
<path d="M426.178 464.663L604.047 357.202C604.566 356.931 604.479 356.297 603.874 355.936L601.454 354.488C600.849 354.126 599.985 354.126 599.467 354.398L421.683 461.949C421.165 462.221 421.251 462.854 421.856 463.216L424.276 464.663C424.795 464.935 425.659 465.025 426.178 464.663Z" fill="#C7CBD3"/>
<path d="M605.171 370.137C605.689 370.408 606.554 370.408 607.072 370.137L616.32 364.529C616.839 364.257 616.839 363.715 616.32 363.353L608.196 358.468C607.677 358.197 606.813 358.197 606.294 358.468L597.047 364.076C596.528 364.348 596.528 364.891 597.047 365.252L605.171 370.137Z" fill="#C7CBD3"/>
<path d="M592.639 377.735C593.157 378.007 594.022 378.007 594.54 377.735L603.788 372.127C604.307 371.856 604.307 371.313 603.788 370.951L595.664 366.067C595.145 365.795 594.281 365.795 593.762 366.067L584.514 371.675C583.996 371.946 583.996 372.489 584.514 372.851L592.639 377.735Z" fill="#C7CBD3"/>
<path d="M580.107 385.243C580.625 385.514 581.49 385.514 582.008 385.243L591.256 379.635C591.775 379.363 591.775 378.821 591.256 378.459L583.132 373.574C582.613 373.303 581.749 373.303 581.23 373.574L571.983 379.183C571.464 379.454 571.464 379.997 571.983 380.358L580.107 385.243Z" fill="#C7CBD3"/>
<path d="M567.661 392.841C568.18 393.113 569.044 393.113 569.563 392.841L578.81 387.233C579.329 386.962 579.329 386.419 578.81 386.057L570.686 381.173C570.168 380.901 569.303 380.901 568.785 381.173L559.537 386.781C559.018 387.052 559.018 387.595 559.537 387.957L567.661 392.841Z" fill="#C7CBD3"/>
<path d="M555.128 400.349C555.647 400.621 556.511 400.621 557.03 400.349L566.278 394.741C566.796 394.47 566.796 393.927 566.278 393.565L558.153 388.68C557.635 388.409 556.771 388.409 556.252 388.68L547.004 394.289C546.486 394.56 546.486 395.103 547.004 395.465L555.128 400.349Z" fill="#C7CBD3"/>
<path d="M542.596 407.947C543.115 408.219 543.979 408.219 544.498 407.947L553.745 402.339C554.264 402.068 554.264 401.525 553.745 401.163L545.621 396.279C545.103 396.007 544.238 396.007 543.72 396.279L534.472 401.887C533.953 402.158 533.953 402.701 534.472 403.063L542.596 407.947Z" fill="#C7CBD3"/>
<path d="M530.151 415.455C530.67 415.727 531.534 415.727 532.053 415.455L541.301 409.847C541.819 409.576 541.819 409.033 541.301 408.671L533.176 403.787C532.658 403.515 531.793 403.515 531.275 403.787L522.027 409.395C521.509 409.666 521.509 410.209 522.027 410.571L530.151 415.455Z" fill="#C7CBD3"/>
<path d="M517.619 423.053C518.137 423.325 519.002 423.325 519.52 423.053L528.768 417.445C529.287 417.174 529.287 416.631 528.768 416.269L520.644 411.385C520.125 411.113 519.261 411.113 518.742 411.385L509.494 416.993C508.976 417.264 508.976 417.807 509.494 418.169L517.619 423.053Z" fill="#C7CBD3"/>
<path d="M505.087 430.561C505.605 430.833 506.47 430.833 506.988 430.561L516.236 424.953C516.755 424.682 516.755 424.139 516.236 423.777L508.112 418.892C507.593 418.621 506.729 418.621 506.21 418.892L496.963 424.501C496.444 424.772 496.444 425.315 496.963 425.677L505.087 430.561Z" fill="#C7CBD3"/>
<path d="M492.641 438.16C493.159 438.431 494.024 438.431 494.542 438.16L503.79 432.551C504.309 432.28 504.309 431.737 503.79 431.375L495.666 426.491C495.147 426.22 494.283 426.22 493.764 426.491L484.516 432.099C483.998 432.37 483.998 432.913 484.516 433.275L492.641 438.16Z" fill="#C7CBD3"/>
<path d="M480.109 445.667C480.628 445.939 481.492 445.939 482.011 445.667L491.259 440.059C491.777 439.788 491.777 439.245 491.259 438.883L483.134 433.999C482.616 433.727 481.751 433.727 481.233 433.999L471.985 439.607C471.467 439.878 471.467 440.421 471.985 440.783L480.109 445.667Z" fill="#C7CBD3"/>
<path d="M467.577 453.266C468.096 453.537 468.96 453.537 469.479 453.266L478.726 447.658C479.245 447.386 479.245 446.843 478.726 446.482L470.602 441.597C470.084 441.326 469.219 441.326 468.701 441.597L459.453 447.205C458.934 447.477 458.934 448.019 459.453 448.381L467.577 453.266Z" fill="#C7CBD3"/>
<path d="M455.131 460.864C455.649 461.135 456.514 461.135 457.032 460.864L466.28 455.256C466.799 454.984 466.799 454.442 466.28 454.08L458.156 449.195C457.637 448.924 456.773 448.924 456.254 449.195L447.007 454.803C446.488 455.075 446.488 455.618 447.007 455.979L455.131 460.864Z" fill="#C7CBD3"/>
<path d="M436.549 472.081C437.067 472.352 437.932 472.352 438.45 472.081L453.402 463.035C453.921 462.764 453.921 462.221 453.402 461.859L445.278 456.975C444.76 456.703 443.895 456.703 443.377 456.975L428.425 466.02C427.906 466.292 427.906 466.834 428.425 467.196L436.549 472.081Z" fill="#C7CBD3"/>
<path d="M459.885 472.714C460.404 472.985 460.404 473.528 459.885 473.89L450.637 479.498C450.119 479.769 449.254 479.769 448.736 479.498L440.612 474.613C440.093 474.342 440.093 473.799 440.612 473.437L449.859 467.829C450.378 467.558 451.242 467.558 451.761 467.829L459.885 472.714Z" fill="#C7CBD3"/>
<path d="M472.417 465.115C472.935 465.387 472.935 465.93 472.417 466.291L463.169 471.9C462.65 472.171 461.786 472.171 461.268 471.9L453.143 467.015C452.625 466.744 452.625 466.201 453.143 465.839L462.391 460.231C462.91 459.96 463.774 459.96 464.293 460.231L472.417 465.115Z" fill="#C7CBD3"/>
<path d="M484.862 457.517C485.381 457.789 485.381 458.331 484.862 458.693L475.614 464.301C475.096 464.573 474.231 464.573 473.713 464.301L465.589 459.417C465.07 459.145 465.07 458.603 465.589 458.241L474.836 452.633C475.355 452.361 476.219 452.361 476.738 452.633L484.862 457.517Z" fill="#C7CBD3"/>
<path d="M497.394 450.009C497.913 450.281 497.913 450.823 497.394 451.185L488.147 456.794C487.628 457.065 486.764 457.065 486.245 456.794L478.121 451.909C477.602 451.638 477.602 451.095 478.121 450.733L487.369 445.125C487.887 444.853 488.752 444.853 489.27 445.125L497.394 450.009Z" fill="#C7CBD3"/>
<path d="M509.927 442.411C510.445 442.682 510.445 443.225 509.927 443.587L500.679 449.195C500.16 449.467 499.296 449.467 498.777 449.195L490.653 444.311C490.135 444.039 490.135 443.497 490.653 443.135L499.901 437.527C500.42 437.255 501.284 437.255 501.802 437.527L509.927 442.411Z" fill="#C7CBD3"/>
<path d="M522.372 434.903C522.891 435.175 522.891 435.717 522.372 436.079L513.125 441.688C512.606 441.959 511.742 441.959 511.223 441.688L503.099 436.803C502.58 436.532 502.58 435.989 503.099 435.627L512.347 430.019C512.865 429.747 513.73 429.747 514.248 430.019L522.372 434.903Z" fill="#C7CBD3"/>
<path d="M534.904 427.305C535.423 427.576 535.423 428.119 534.904 428.481L525.656 434.089C525.138 434.361 524.273 434.361 523.755 434.089L515.631 429.205C515.112 428.933 515.112 428.391 515.631 428.029L524.878 422.42C525.397 422.149 526.261 422.149 526.78 422.42L534.904 427.305Z" fill="#C7CBD3"/>
<path d="M547.437 419.797C547.955 420.068 547.955 420.611 547.437 420.973L538.189 426.581C537.67 426.853 536.806 426.853 536.288 426.581L528.163 421.697C527.645 421.425 527.645 420.883 528.163 420.521L537.411 414.913C537.93 414.641 538.794 414.641 539.313 414.913L547.437 419.797Z" fill="#C7CBD3"/>
<path d="M559.882 412.199C560.401 412.47 560.401 413.013 559.882 413.375L550.634 418.983C550.116 419.254 549.251 419.254 548.733 418.983L540.609 414.098C540.09 413.827 540.09 413.284 540.609 412.922L549.856 407.314C550.375 407.043 551.239 407.043 551.758 407.314L559.882 412.199Z" fill="#C7CBD3"/>
<path d="M572.414 404.691C572.933 404.962 572.933 405.505 572.414 405.867L563.167 411.475C562.648 411.746 561.784 411.746 561.265 411.475L553.141 406.59C552.622 406.319 552.622 405.776 553.141 405.415L562.389 399.806C562.907 399.535 563.772 399.535 564.29 399.806L572.414 404.691Z" fill="#C7CBD3"/>
<path d="M584.947 397.093C585.465 397.364 585.465 397.907 584.947 398.269L575.699 403.877C575.18 404.148 574.316 404.148 573.797 403.877L565.673 398.992C565.155 398.721 565.155 398.178 565.673 397.816L574.921 392.208C575.439 391.937 576.304 391.937 576.822 392.208L584.947 397.093Z" fill="#C7CBD3"/>
<path d="M597.392 389.585C597.911 389.856 597.911 390.399 597.392 390.761L588.145 396.369C587.626 396.641 586.762 396.641 586.243 396.369L578.119 391.485C577.6 391.213 577.6 390.67 578.119 390.309L587.367 384.7C587.885 384.429 588.75 384.429 589.268 384.7L597.392 389.585Z" fill="#C7CBD3"/>
<path d="M609.924 381.987C610.442 382.258 610.442 382.801 609.924 383.163L600.676 388.771C600.157 389.042 599.293 389.042 598.775 388.771L590.65 383.886C590.132 383.615 590.132 383.072 590.65 382.71L599.898 377.102C600.417 376.831 601.281 376.831 601.8 377.102L609.924 381.987Z" fill="#C7CBD3"/>
<path d="M628.506 370.77C629.025 371.042 629.025 371.584 628.506 371.946L613.554 380.992C613.036 381.263 612.171 381.263 611.653 380.992L603.529 376.107C603.01 375.836 603.01 375.293 603.529 374.931L618.481 365.886C618.999 365.614 619.863 365.614 620.382 365.886L628.506 370.77Z" fill="#C7CBD3"/>
<path d="M496.444 494.785C496.963 495.056 496.963 495.599 496.444 495.961L487.196 501.569C486.678 501.84 485.814 501.84 485.295 501.569L477.171 496.684C476.652 496.413 476.652 495.87 477.171 495.509L486.419 489.9C486.937 489.629 487.801 489.629 488.32 489.9L496.444 494.785Z" fill="#C7CBD3"/>
<path d="M509.149 487.096C509.668 487.368 509.668 487.91 509.149 488.272L499.901 493.88C499.383 494.152 498.518 494.152 498 493.88L495.321 492.252C494.802 491.981 494.802 491.438 495.321 491.076L504.568 485.468C505.087 485.197 505.951 485.197 506.47 485.468L509.149 487.096Z" fill="#C7CBD3"/>
<path d="M521.767 479.498C522.286 479.769 522.286 480.312 521.767 480.674L512.52 486.282C512.001 486.554 511.137 486.554 510.618 486.282L502.494 481.398C501.975 481.126 501.975 480.583 502.494 480.222L511.742 474.613C512.26 474.342 513.125 474.342 513.643 474.613L521.767 479.498Z" fill="#C7CBD3"/>
<path d="M534.473 471.809C534.991 472.08 534.991 472.623 534.473 472.985L525.225 478.593C524.706 478.865 523.842 478.865 523.323 478.593L515.199 473.618C514.68 473.347 514.68 472.804 515.199 472.442L524.447 466.834C524.965 466.563 525.83 466.563 526.348 466.834L534.473 471.809Z" fill="#C7CBD3"/>
<path d="M549.252 462.854C549.77 463.125 549.77 463.668 549.252 464.03L538.103 470.724C537.584 470.995 536.72 470.995 536.201 470.724L528.077 465.839C527.558 465.568 527.558 465.025 528.077 464.663L539.226 457.97C539.745 457.698 540.609 457.698 541.128 457.97L549.252 462.854Z" fill="#C7CBD3"/>
<path d="M665.066 392.842C665.585 393.113 665.585 393.656 665.066 394.017L655.818 399.626C655.3 399.897 654.435 399.897 653.917 399.626L645.792 394.741C645.274 394.47 645.274 393.927 645.792 393.565L655.04 387.957C655.559 387.686 656.423 387.686 656.942 387.957L665.066 392.842Z" fill="#C7CBD3"/>
<path d="M652.447 400.53C652.966 400.802 652.966 401.344 652.447 401.706L643.199 407.314C642.681 407.586 641.816 407.586 641.298 407.314L633.174 402.43C632.655 402.158 632.655 401.616 633.174 401.254L642.421 395.646C642.94 395.374 643.804 395.374 644.323 395.646L652.447 400.53Z" fill="#C7CBD3"/>
<path d="M639.742 408.128C640.261 408.4 640.261 408.942 639.742 409.304L630.494 414.913C629.976 415.184 629.111 415.184 628.593 414.913L620.469 410.028C619.95 409.757 619.95 409.214 620.469 408.852L629.716 403.244C630.235 402.972 631.099 402.972 631.618 403.244L639.742 408.128Z" fill="#C7CBD3"/>
<path d="M627.123 415.817C627.642 416.089 627.642 416.631 627.123 416.993L616.06 423.687C615.542 423.958 614.677 423.958 614.159 423.687L606.034 418.802C605.516 418.531 605.516 417.988 606.034 417.626L617.097 410.933C617.616 410.661 618.48 410.661 618.999 410.933L627.123 415.817Z" fill="#C7CBD3"/>
<path d="M612.171 424.863C612.69 425.134 612.69 425.677 612.171 426.039L553.4 461.588C552.881 461.859 552.017 461.859 551.499 461.588L543.374 456.703C542.856 456.432 542.856 455.889 543.374 455.527L602.146 419.978C602.664 419.707 603.529 419.707 604.047 419.978L612.171 424.863Z" fill="#C7CBD3"/>
<path d="M624.963 402.339C625.481 402.611 625.481 403.153 624.963 403.515L615.715 409.123C615.196 409.395 614.332 409.395 613.814 409.123L605.689 404.239C605.171 403.967 605.171 403.425 605.689 403.063L614.937 397.455C615.456 397.183 616.32 397.183 616.839 397.455L624.963 402.339Z" fill="#C7CBD3"/>
<path d="M612.517 409.938C613.036 410.209 613.036 410.752 612.517 411.113L603.269 416.722C602.751 416.993 601.886 416.993 601.368 416.722L593.243 411.837C592.725 411.566 592.725 411.023 593.243 410.661L602.491 405.053C603.01 404.782 603.874 404.782 604.393 405.053L612.517 409.938Z" fill="#C7CBD3"/>
<path d="M599.985 417.445C600.504 417.717 600.504 418.259 599.985 418.621L590.737 424.229C590.219 424.501 589.355 424.501 588.836 424.229L580.712 419.345C580.193 419.073 580.193 418.531 580.712 418.169L589.96 412.561C590.478 412.289 591.342 412.289 591.861 412.561L599.985 417.445Z" fill="#C7CBD3"/>
<path d="M587.453 425.044C587.971 425.315 587.971 425.858 587.453 426.22L578.205 431.828C577.686 432.099 576.822 432.099 576.303 431.828L568.179 426.943C567.66 426.672 567.66 426.129 568.179 425.767L577.427 420.159C577.945 419.888 578.81 419.888 579.328 420.159L587.453 425.044Z" fill="#C7CBD3"/>
<path d="M575.007 432.551C575.526 432.823 575.526 433.365 575.007 433.727L565.759 439.336C565.241 439.607 564.376 439.607 563.858 439.336L555.734 434.451C555.215 434.18 555.215 433.637 555.734 433.275L564.981 427.667C565.5 427.395 566.364 427.395 566.883 427.667L575.007 432.551Z" fill="#C7CBD3"/>
<path d="M562.475 440.15C562.994 440.421 562.994 440.964 562.475 441.326L553.228 446.934C552.709 447.205 551.845 447.205 551.326 446.934L543.202 442.049C542.683 441.778 542.683 441.235 543.202 440.873L552.45 435.265C552.968 434.994 553.833 434.994 554.351 435.265L562.475 440.15Z" fill="#C7CBD3"/>
<path d="M550.03 447.658C550.548 447.929 550.548 448.472 550.03 448.833L540.782 454.442C540.263 454.713 539.399 454.713 538.88 454.442L530.756 449.557C530.238 449.286 530.238 448.743 530.756 448.381L540.004 442.773C540.523 442.502 541.387 442.502 541.905 442.773L550.03 447.658Z" fill="#C7CBD3"/>
<path d="M537.497 455.256C538.016 455.527 538.016 456.07 537.497 456.432L528.25 462.04C527.731 462.311 526.867 462.311 526.348 462.04L518.224 457.155C517.705 456.884 517.705 456.341 518.224 455.98L527.472 450.371C527.99 450.1 528.855 450.1 529.373 450.371L537.497 455.256Z" fill="#C7CBD3"/>
<path d="M524.965 462.764C525.483 463.035 525.483 463.578 524.965 463.94L515.717 469.548C515.198 469.819 514.334 469.819 513.816 469.548L505.691 464.663C505.173 464.392 505.173 463.849 505.691 463.487L514.939 457.879C515.458 457.608 516.322 457.608 516.841 457.879L524.965 462.764Z" fill="#C7CBD3"/>
<path d="M512.52 470.362C513.038 470.633 513.038 471.176 512.52 471.538L503.272 477.146C502.753 477.417 501.889 477.417 501.371 477.146L493.246 472.261C492.728 471.99 492.728 471.447 493.246 471.086L502.494 465.477C503.013 465.206 503.877 465.206 504.396 465.477L512.52 470.362Z" fill="#C7CBD3"/>
<path d="M652.879 385.515C653.398 385.786 653.398 386.329 652.879 386.69L628.938 401.163C628.42 401.435 627.556 401.435 627.037 401.163L618.913 396.279C618.394 396.007 618.394 395.465 618.913 395.103L642.853 380.63C643.372 380.359 644.236 380.359 644.755 380.63L652.879 385.515Z" fill="#C7CBD3"/>
<path d="M618.826 391.304C619.345 391.575 619.345 392.118 618.826 392.48L609.578 398.088C609.06 398.359 608.195 398.359 607.677 398.088L599.553 393.203C599.034 392.932 599.034 392.389 599.553 392.027L608.8 386.419C609.319 386.148 610.183 386.148 610.702 386.419L618.826 391.304Z" fill="#C7CBD3"/>
<path d="M606.295 398.902C606.813 399.173 606.813 399.716 606.295 400.078L597.047 405.686C596.528 405.958 595.664 405.958 595.146 405.686L587.021 400.802C586.503 400.53 586.503 399.987 587.021 399.626L596.269 394.017C596.788 393.746 597.652 393.746 598.171 394.017L606.295 398.902Z" fill="#C7CBD3"/>
<path d="M593.849 406.5C594.367 406.771 594.367 407.314 593.849 407.676L584.601 413.284C584.082 413.556 583.218 413.556 582.699 413.284L574.575 408.4C574.056 408.128 574.056 407.586 574.575 407.224L583.823 401.616C584.341 401.344 585.206 401.344 585.724 401.616L593.849 406.5Z" fill="#C7CBD3"/>
<path d="M581.317 414.008C581.835 414.279 581.835 414.822 581.317 415.184L572.069 420.792C571.55 421.064 570.686 421.064 570.167 420.792L562.043 415.908C561.525 415.636 561.525 415.094 562.043 414.732L571.291 409.123C571.81 408.852 572.674 408.852 573.192 409.123L581.317 414.008Z" fill="#C7CBD3"/>
<path d="M568.785 421.606C569.303 421.878 569.303 422.42 568.785 422.782L559.537 428.39C559.018 428.662 558.154 428.662 557.635 428.39L549.511 423.506C548.992 423.234 548.992 422.692 549.511 422.33L558.759 416.722C559.277 416.45 560.142 416.45 560.66 416.722L568.785 421.606Z" fill="#C7CBD3"/>
<path d="M556.252 429.205C556.771 429.476 556.771 430.019 556.252 430.381L547.005 435.989C546.486 436.26 545.622 436.26 545.103 435.989L536.979 431.104C536.46 430.833 536.46 430.29 536.979 429.928L546.227 424.32C546.745 424.049 547.61 424.049 548.128 424.32L556.252 429.205Z" fill="#C7CBD3"/>
<path d="M543.72 436.712C544.239 436.984 544.239 437.526 543.72 437.888L534.472 443.497C533.954 443.768 533.089 443.768 532.571 443.497L524.447 438.612C523.928 438.341 523.928 437.798 524.447 437.436L533.694 431.828C534.213 431.556 535.077 431.556 535.596 431.828L543.72 436.712Z" fill="#C7CBD3"/>
<path d="M531.274 444.311C531.793 444.582 531.793 445.125 531.274 445.487L522.026 451.095C521.508 451.366 520.644 451.366 520.125 451.095L512.001 446.21C511.482 445.939 511.482 445.396 512.001 445.034L521.249 439.426C521.767 439.155 522.631 439.155 523.15 439.426L531.274 444.311Z" fill="#C7CBD3"/>
<path d="M518.742 451.819C519.261 452.09 519.261 452.633 518.742 452.994L509.495 458.603C508.976 458.874 508.112 458.874 507.593 458.603L499.469 453.718C498.95 453.447 498.95 452.904 499.469 452.542L508.717 446.934C509.235 446.663 510.1 446.663 510.618 446.934L518.742 451.819Z" fill="#C7CBD3"/>
<path d="M506.21 459.417C506.729 459.688 506.729 460.231 506.21 460.593L496.962 466.201C496.444 466.472 495.58 466.472 495.061 466.201L486.937 461.316C486.418 461.045 486.418 460.502 486.937 460.14L496.185 454.532C496.703 454.261 497.567 454.261 498.086 454.532L506.21 459.417Z" fill="#C7CBD3"/>
<path d="M493.678 467.015C494.196 467.287 494.196 467.829 493.678 468.191L484.43 473.799C483.911 474.071 483.047 474.071 482.528 473.799L474.404 468.915C473.885 468.643 473.885 468.101 474.404 467.739L483.652 462.131C484.17 461.859 485.035 461.859 485.553 462.131L493.678 467.015Z" fill="#C7CBD3"/>
<path d="M640.693 378.187C641.211 378.459 641.211 379.002 640.693 379.363L623.234 389.856C622.716 390.128 621.852 390.128 621.333 389.856L613.209 384.972C612.69 384.7 612.69 384.158 613.209 383.796L630.667 373.212C631.186 372.941 632.05 372.941 632.569 373.212L640.693 378.187Z" fill="#C7CBD3"/>
<path d="M480.281 475.066C480.8 475.337 480.8 475.88 480.281 476.241L462.823 486.825C462.304 487.096 461.44 487.096 460.921 486.825L452.797 481.94C452.279 481.669 452.279 481.126 452.797 480.764L470.256 470.181C470.774 469.91 471.639 469.91 472.157 470.181L480.281 475.066Z" fill="#C7CBD3"/>
<path d="M499.556 478.141C500.074 478.413 500.074 478.955 499.556 479.317L475.01 494.152C474.491 494.423 473.627 494.423 473.108 494.152L464.984 489.267C464.466 488.996 464.466 488.453 464.984 488.091L489.53 473.257C490.048 472.985 490.913 472.985 491.431 473.257L499.556 478.141Z" fill="#C7CBD3"/>
<path d="M503.704 483.84C504.222 484.111 504.222 484.654 503.704 485.016L494.456 490.624C493.937 490.895 493.073 490.895 492.555 490.624L489.875 488.996C489.357 488.724 489.357 488.182 489.875 487.82L499.123 482.212C499.642 481.94 500.506 481.94 501.024 482.212L503.704 483.84Z" fill="#C7CBD3"/>
<path d="M424.19 464.573L421.77 463.125C421.165 462.764 421.078 462.221 421.597 461.859L599.467 354.398C599.985 354.126 600.849 354.126 601.454 354.488L603.874 355.936C604.479 356.297 604.566 356.84 604.047 357.202L426.178 464.663C425.659 465.025 424.795 464.935 424.19 464.573ZM605.171 369.323C605.689 369.594 606.554 369.594 607.072 369.323L616.32 363.715C616.839 363.443 616.839 362.901 616.32 362.539L608.196 357.654C607.677 357.383 606.813 357.383 606.294 357.654L597.047 363.262C596.528 363.534 596.528 364.077 597.047 364.438L605.171 369.323ZM592.639 376.921C593.157 377.193 594.022 377.193 594.54 376.921L603.788 371.313C604.306 371.042 604.306 370.499 603.788 370.137L595.664 365.252C595.145 364.981 594.281 364.981 593.762 365.252L584.514 370.861C583.996 371.132 583.996 371.675 584.514 372.037L592.639 376.921ZM580.107 384.52C580.625 384.791 581.489 384.791 582.008 384.52L591.256 378.911C591.774 378.64 591.774 378.097 591.256 377.735L583.132 372.851C582.613 372.579 581.749 372.579 581.23 372.851L571.982 378.459C571.464 378.73 571.464 379.273 571.982 379.635L580.107 384.52ZM567.661 392.027C568.179 392.299 569.044 392.299 569.562 392.027L578.81 386.419C579.329 386.148 579.329 385.605 578.81 385.243L570.686 380.359C570.167 380.087 569.303 380.087 568.784 380.359L559.537 385.967C559.018 386.238 559.018 386.781 559.537 387.143L567.661 392.027ZM555.129 399.626C555.647 399.897 556.512 399.897 557.03 399.626L566.278 394.017C566.797 393.746 566.797 393.203 566.278 392.841L558.154 387.957C557.635 387.685 556.771 387.685 556.252 387.957L547.004 393.565C546.486 393.836 546.486 394.379 547.004 394.741L555.129 399.626ZM542.597 407.133C543.115 407.405 543.979 407.405 544.498 407.133L553.746 401.525C554.264 401.254 554.264 400.711 553.746 400.349L545.622 395.465C545.103 395.193 544.239 395.193 543.72 395.465L534.472 401.073C533.954 401.344 533.954 401.887 534.472 402.249L542.597 407.133ZM530.151 414.732C530.669 415.003 531.534 415.003 532.052 414.732L541.3 409.123C541.819 408.852 541.819 408.309 541.3 407.948L533.176 403.063C532.657 402.792 531.793 402.792 531.274 403.063L522.027 408.671C521.508 408.943 521.508 409.485 522.027 409.847L530.151 414.732ZM517.619 422.24C518.137 422.511 519.002 422.511 519.52 422.24L528.768 416.631C529.287 416.36 529.287 415.817 528.768 415.455L520.644 410.571C520.125 410.299 519.261 410.299 518.742 410.571L509.495 416.179C508.976 416.45 508.976 416.993 509.495 417.355L517.619 422.24ZM505.087 429.838C505.605 430.109 506.47 430.109 506.988 429.838L516.236 424.23C516.755 423.958 516.755 423.415 516.236 423.054L508.112 418.169C507.593 417.898 506.729 417.898 506.21 418.169L496.962 423.777C496.444 424.049 496.444 424.591 496.962 424.953L505.087 429.838ZM492.641 437.346C493.16 437.617 494.024 437.617 494.542 437.346L503.79 431.737C504.309 431.466 504.309 430.923 503.79 430.561L495.666 425.677C495.147 425.405 494.283 425.405 493.765 425.677L484.517 431.285C483.998 431.556 483.998 432.099 484.517 432.461L492.641 437.346ZM480.109 444.944C480.627 445.215 481.492 445.215 482.01 444.944L491.258 439.336C491.777 439.064 491.777 438.522 491.258 438.16L483.134 433.275C482.615 433.004 481.751 433.004 481.232 433.275L471.985 438.883C471.466 439.155 471.466 439.697 471.985 440.059L480.109 444.944ZM467.577 452.452C468.095 452.723 468.96 452.723 469.478 452.452L478.726 446.843C479.245 446.572 479.245 446.029 478.726 445.667L470.602 440.783C470.083 440.512 469.219 440.512 468.7 440.783L459.452 446.391C458.934 446.663 458.934 447.205 459.452 447.567L467.577 452.452ZM455.131 460.05C455.65 460.321 456.514 460.321 457.033 460.05L466.28 454.442C466.799 454.17 466.799 453.628 466.28 453.266L458.156 448.381C457.637 448.11 456.773 448.11 456.255 448.381L447.007 453.989C446.488 454.261 446.488 454.804 447.007 455.165L455.131 460.05ZM436.549 471.266C437.068 471.538 437.932 471.538 438.45 471.266L453.402 462.221C453.921 461.95 453.921 461.407 453.402 461.045L445.278 456.16C444.76 455.889 443.895 455.889 443.377 456.16L428.425 465.206C427.906 465.477 427.906 466.02 428.425 466.382L436.549 471.266ZM451.76 467.015C451.242 466.744 450.378 466.744 449.859 467.015L440.611 472.623C440.093 472.895 440.093 473.437 440.611 473.799L448.735 478.684C449.254 478.955 450.118 478.955 450.637 478.684L459.885 473.076C460.403 472.804 460.403 472.261 459.885 471.9L451.76 467.015ZM464.292 459.417C463.774 459.145 462.91 459.145 462.391 459.417L453.143 465.025C452.625 465.296 452.625 465.839 453.143 466.201L461.267 471.086C461.786 471.357 462.65 471.357 463.169 471.086L472.417 465.477C472.935 465.206 472.935 464.663 472.417 464.301L464.292 459.417ZM476.825 451.909C476.306 451.638 475.442 451.638 474.923 451.909L465.675 457.517C465.157 457.789 465.157 458.331 465.675 458.693L473.8 463.578C474.318 463.849 475.182 463.849 475.701 463.578L484.949 457.969C485.467 457.698 485.467 457.155 484.949 456.794L476.825 451.909ZM489.27 444.311C488.752 444.039 487.887 444.039 487.369 444.311L478.121 449.919C477.602 450.19 477.602 450.733 478.121 451.095L486.245 455.979C486.764 456.251 487.628 456.251 488.147 455.979L497.395 450.371C497.913 450.1 497.913 449.557 497.395 449.195L489.27 444.311ZM501.802 436.803C501.284 436.531 500.42 436.531 499.901 436.803L490.653 442.411C490.135 442.682 490.135 443.225 490.653 443.587L498.777 448.472C499.296 448.743 500.16 448.743 500.679 448.472L509.927 442.863C510.445 442.592 510.445 442.049 509.927 441.687L501.802 436.803ZM514.335 429.205C513.816 428.933 512.952 428.933 512.433 429.205L503.185 434.813C502.667 435.084 502.667 435.627 503.185 435.989L511.31 440.873C511.828 441.145 512.692 441.145 513.211 440.873L522.459 435.265C522.977 434.994 522.977 434.451 522.459 434.089L514.335 429.205ZM526.78 421.697C526.262 421.425 525.397 421.425 524.879 421.697L515.631 427.305C515.112 427.576 515.112 428.119 515.631 428.481L523.755 433.366C524.274 433.637 525.138 433.637 525.657 433.366L534.904 427.757C535.423 427.486 535.423 426.943 534.904 426.581L526.78 421.697ZM539.312 414.099C538.794 413.827 537.929 413.827 537.411 414.099L528.163 419.707C527.645 419.978 527.645 420.521 528.163 420.883L536.287 425.767C536.806 426.039 537.67 426.039 538.189 425.767L547.437 420.159C547.955 419.888 547.955 419.345 547.437 418.983L539.312 414.099ZM551.844 406.5C551.326 406.229 550.462 406.229 549.943 406.5L540.695 412.108C540.177 412.38 540.177 412.923 540.695 413.284L548.819 418.169C549.338 418.44 550.202 418.44 550.721 418.169L559.969 412.561C560.487 412.289 560.487 411.747 559.969 411.385L551.844 406.5ZM564.29 398.992C563.772 398.721 562.907 398.721 562.389 398.992L553.141 404.601C552.622 404.872 552.622 405.415 553.141 405.777L561.265 410.661C561.784 410.933 562.648 410.933 563.167 410.661L572.414 405.053C572.933 404.782 572.933 404.239 572.414 403.877L564.29 398.992ZM576.822 391.394C576.304 391.123 575.439 391.123 574.921 391.394L565.673 397.002C565.154 397.274 565.154 397.816 565.673 398.178L573.797 403.063C574.316 403.334 575.18 403.334 575.699 403.063L584.947 397.455C585.465 397.183 585.465 396.641 584.947 396.279L576.822 391.394ZM589.354 383.886C588.836 383.615 587.972 383.615 587.453 383.886L578.205 389.495C577.687 389.766 577.687 390.309 578.205 390.67L586.329 395.555C586.848 395.826 587.712 395.826 588.231 395.555L597.479 389.947C597.997 389.675 597.997 389.133 597.479 388.771L589.354 383.886ZM601.8 376.288C601.282 376.017 600.417 376.017 599.899 376.288L590.651 381.896C590.132 382.168 590.132 382.71 590.651 383.072L598.775 387.957C599.294 388.228 600.158 388.228 600.677 387.957L609.924 382.349C610.443 382.077 610.443 381.534 609.924 381.173L601.8 376.288ZM620.382 365.072C619.864 364.8 618.999 364.8 618.481 365.072L603.529 374.117C603.01 374.388 603.01 374.931 603.529 375.293L611.653 380.178C612.171 380.449 613.036 380.449 613.554 380.178L628.506 371.132C629.025 370.861 629.025 370.318 628.506 369.956L620.382 365.072ZM488.32 489.086C487.801 488.815 486.937 488.815 486.418 489.086L477.17 494.694C476.652 494.966 476.652 495.509 477.17 495.87L485.295 500.755C485.813 501.026 486.677 501.026 487.196 500.755L496.444 495.147C496.962 494.875 496.962 494.333 496.444 493.971L488.32 489.086ZM506.47 484.744C505.951 484.473 505.087 484.473 504.568 484.744L495.32 490.353C494.802 490.624 494.802 491.167 495.32 491.529L498 493.157C498.518 493.428 499.382 493.428 499.901 493.157L509.149 487.548C509.667 487.277 509.667 486.734 509.149 486.373L506.47 484.744ZM513.73 473.799C513.211 473.528 512.347 473.528 511.828 473.799L502.58 479.407C502.062 479.679 502.062 480.222 502.58 480.583L510.705 485.468C511.223 485.739 512.087 485.739 512.606 485.468L521.854 479.86C522.372 479.588 522.372 479.046 521.854 478.684L513.73 473.799ZM526.348 466.111C525.83 465.839 524.965 465.839 524.447 466.111L515.199 471.719C514.68 471.99 514.68 472.533 515.199 472.895L523.323 477.779C523.842 478.051 524.706 478.051 525.224 477.779L534.472 472.171C534.991 471.9 534.991 471.357 534.472 470.995L526.348 466.111ZM541.127 457.246C540.609 456.974 539.744 456.974 539.226 457.246L528.077 463.94C527.558 464.211 527.558 464.754 528.077 465.115L536.201 470C536.719 470.271 537.584 470.271 538.102 470L549.252 463.306C549.77 463.035 549.77 462.492 549.252 462.13L541.127 457.246ZM656.941 387.233C656.423 386.962 655.559 386.962 655.04 387.233L645.792 392.841C645.274 393.113 645.274 393.656 645.792 394.017L653.916 398.902C654.435 399.173 655.299 399.173 655.818 398.902L665.066 393.294C665.584 393.022 665.584 392.48 665.066 392.118L656.941 387.233ZM644.323 394.831C643.804 394.56 642.94 394.56 642.421 394.831L633.174 400.44C632.655 400.711 632.655 401.254 633.174 401.616L641.298 406.5C641.816 406.772 642.681 406.772 643.199 406.5L652.447 400.892C652.966 400.621 652.966 400.078 652.447 399.716L644.323 394.831ZM631.704 402.52C631.186 402.249 630.321 402.249 629.803 402.52L620.555 408.128C620.036 408.4 620.036 408.943 620.555 409.304L628.679 414.189C629.198 414.46 630.062 414.46 630.581 414.189L639.829 408.581C640.347 408.309 640.347 407.767 639.829 407.405L631.704 402.52ZM618.999 410.118C618.481 409.847 617.616 409.847 617.098 410.118L606.035 416.812C605.516 417.084 605.516 417.626 606.035 417.988L614.159 422.873C614.678 423.144 615.542 423.144 616.061 422.873L627.124 416.179C627.642 415.908 627.642 415.365 627.124 415.003L618.999 410.118ZM604.047 419.164C603.529 418.893 602.664 418.893 602.146 419.164L543.374 454.713C542.856 454.984 542.856 455.527 543.374 455.889L551.499 460.774C552.017 461.045 552.882 461.045 553.4 460.774L612.171 425.225C612.69 424.953 612.69 424.41 612.171 424.049L604.047 419.164ZM616.925 396.731C616.406 396.46 615.542 396.46 615.024 396.731L605.776 402.339C605.257 402.611 605.257 403.153 605.776 403.515L613.9 408.4C614.419 408.671 615.283 408.671 615.801 408.4L625.049 402.792C625.568 402.52 625.568 401.977 625.049 401.616L616.925 396.731ZM604.393 404.239C603.874 403.967 603.01 403.967 602.491 404.239L593.244 409.847C592.725 410.118 592.725 410.661 593.244 411.023L601.368 415.908C601.887 416.179 602.751 416.179 603.269 415.908L612.517 410.299C613.036 410.028 613.036 409.485 612.517 409.123L604.393 404.239ZM591.861 411.837C591.342 411.566 590.478 411.566 589.959 411.837L580.712 417.445C580.193 417.717 580.193 418.259 580.712 418.621L588.836 423.506C589.354 423.777 590.219 423.777 590.737 423.506L599.985 417.898C600.504 417.626 600.504 417.084 599.985 416.722L591.861 411.837ZM579.415 419.345C578.897 419.074 578.032 419.074 577.514 419.345L568.266 424.953C567.747 425.225 567.747 425.767 568.266 426.129L576.39 431.014C576.909 431.285 577.773 431.285 578.292 431.014L587.539 425.405C588.058 425.134 588.058 424.591 587.539 424.23L579.415 419.345ZM566.883 426.943C566.364 426.672 565.5 426.672 564.982 426.943L555.734 432.551C555.215 432.823 555.215 433.366 555.734 433.727L563.858 438.612C564.377 438.883 565.241 438.883 565.759 438.612L575.007 433.004C575.526 432.732 575.526 432.19 575.007 431.828L566.883 426.943ZM554.437 434.451C553.919 434.18 553.054 434.18 552.536 434.451L543.288 440.059C542.769 440.331 542.769 440.873 543.288 441.235L551.412 446.12C551.931 446.391 552.795 446.391 553.314 446.12L562.562 440.512C563.08 440.24 563.08 439.697 562.562 439.336L554.437 434.451ZM541.905 442.049C541.387 441.778 540.522 441.778 540.004 442.049L530.756 447.658C530.237 447.929 530.237 448.472 530.756 448.833L538.88 453.718C539.399 453.989 540.263 453.989 540.782 453.718L550.029 448.11C550.548 447.838 550.548 447.296 550.029 446.934L541.905 442.049ZM529.373 449.557C528.855 449.286 527.99 449.286 527.472 449.557L518.224 455.165C517.705 455.437 517.705 455.979 518.224 456.341L526.348 461.226C526.867 461.497 527.731 461.497 528.249 461.226L537.497 455.618C538.016 455.346 538.016 454.804 537.497 454.442L529.373 449.557ZM516.927 457.065C516.409 456.794 515.545 456.794 515.026 457.065L505.778 462.673C505.26 462.945 505.26 463.487 505.778 463.849L513.902 468.734C514.421 469.005 515.285 469.005 515.804 468.734L525.052 463.125C525.57 462.854 525.57 462.311 525.052 461.95L516.927 457.065ZM504.395 464.663C503.877 464.392 503.012 464.392 502.494 464.663L493.246 470.271C492.727 470.543 492.727 471.086 493.246 471.447L501.37 476.332C501.889 476.603 502.753 476.603 503.272 476.332L512.52 470.724C513.038 470.452 513.038 469.91 512.52 469.548L504.395 464.663ZM644.755 379.816C644.236 379.544 643.372 379.544 642.854 379.816L618.913 394.289C618.394 394.56 618.394 395.103 618.913 395.465L627.037 400.349C627.556 400.621 628.42 400.621 628.939 400.349L652.879 385.876C653.398 385.605 653.398 385.062 652.879 384.7L644.755 379.816ZM610.702 385.695C610.184 385.424 609.319 385.424 608.801 385.695L599.553 391.304C599.034 391.575 599.034 392.118 599.553 392.48L607.677 397.364C608.196 397.636 609.06 397.636 609.579 397.364L618.826 391.756C619.345 391.485 619.345 390.942 618.826 390.58L610.702 385.695ZM598.256 393.203C597.738 392.932 596.874 392.932 596.355 393.203L587.107 398.811C586.589 399.083 586.589 399.626 587.107 399.987L595.231 404.872C595.75 405.143 596.614 405.143 597.133 404.872L606.381 399.264C606.899 398.992 606.899 398.45 606.381 398.088L598.256 393.203ZM585.724 400.802C585.206 400.53 584.342 400.53 583.823 400.802L574.575 406.41C574.057 406.681 574.057 407.224 574.575 407.586L582.699 412.47C583.218 412.742 584.082 412.742 584.601 412.47L593.849 406.862C594.367 406.591 594.367 406.048 593.849 405.686L585.724 400.802ZM573.192 408.4C572.674 408.128 571.809 408.128 571.291 408.4L562.043 414.008C561.524 414.279 561.524 414.822 562.043 415.184L570.167 420.069C570.686 420.34 571.55 420.34 572.069 420.069L581.317 414.46C581.835 414.189 581.835 413.646 581.317 413.284L573.192 408.4ZM560.66 415.908C560.142 415.636 559.277 415.636 558.759 415.908L549.511 421.516C548.992 421.787 548.992 422.33 549.511 422.692L557.635 427.576C558.154 427.848 559.018 427.848 559.537 427.576L568.784 421.968C569.303 421.697 569.303 421.154 568.784 420.792L560.66 415.908ZM548.128 423.506C547.609 423.235 546.745 423.235 546.227 423.506L536.979 429.114C536.46 429.385 536.46 429.928 536.979 430.29L545.103 435.175C545.622 435.446 546.486 435.446 547.004 435.175L556.252 429.566C556.771 429.295 556.771 428.752 556.252 428.39L548.128 423.506ZM535.682 431.014C535.164 430.742 534.299 430.742 533.781 431.014L524.533 436.622C524.014 436.893 524.014 437.436 524.533 437.798L532.657 442.682C533.176 442.954 534.04 442.954 534.559 442.682L543.807 437.074C544.325 436.803 544.325 436.26 543.807 435.898L535.682 431.014ZM523.15 438.612C522.632 438.341 521.767 438.341 521.249 438.612L512.001 444.22C511.482 444.492 511.482 445.034 512.001 445.396L520.125 450.281C520.644 450.552 521.508 450.552 522.027 450.281L531.274 444.673C531.793 444.401 531.793 443.858 531.274 443.497L523.15 438.612ZM510.618 446.21C510.1 445.939 509.235 445.939 508.717 446.21L499.469 451.819C498.95 452.09 498.95 452.633 499.469 452.994L507.593 457.879C508.112 458.15 508.976 458.15 509.495 457.879L518.742 452.271C519.261 451.999 519.261 451.457 518.742 451.095L510.618 446.21ZM498.086 453.718C497.567 453.447 496.703 453.447 496.185 453.718L486.937 459.326C486.418 459.598 486.418 460.14 486.937 460.502L495.061 465.387C495.58 465.658 496.444 465.658 496.962 465.387L506.21 459.779C506.729 459.507 506.729 458.965 506.21 458.603L498.086 453.718ZM485.554 461.316C485.035 461.045 484.171 461.045 483.652 461.316L474.405 466.925C473.886 467.196 473.886 467.739 474.405 468.101L482.529 472.985C483.047 473.256 483.912 473.256 484.43 472.985L493.678 467.377C494.197 467.105 494.197 466.563 493.678 466.201L485.554 461.316ZM632.569 372.489C632.05 372.218 631.186 372.218 630.667 372.489L613.209 383.072C612.69 383.344 612.69 383.886 613.209 384.248L621.333 389.133C621.851 389.404 622.716 389.404 623.234 389.133L640.693 378.549C641.211 378.278 641.211 377.735 640.693 377.374L632.569 372.489ZM472.157 469.457C471.639 469.186 470.775 469.186 470.256 469.457L452.797 479.95C452.279 480.222 452.279 480.764 452.797 481.126L460.922 486.011C461.44 486.282 462.305 486.282 462.823 486.011L480.282 475.427C480.8 475.156 480.8 474.613 480.282 474.252L472.157 469.457ZM491.431 472.533C490.912 472.261 490.048 472.261 489.53 472.533L464.984 487.368C464.465 487.639 464.465 488.182 464.984 488.543L473.108 493.428C473.627 493.699 474.491 493.699 475.01 493.428L499.555 478.593C500.074 478.322 500.074 477.779 499.555 477.417L491.431 472.533ZM501.025 481.397C500.506 481.126 499.642 481.126 499.123 481.397L489.875 487.006C489.357 487.277 489.357 487.82 489.875 488.182L492.555 489.81C493.073 490.081 493.937 490.081 494.456 489.81L503.704 484.202C504.222 483.93 504.222 483.388 503.704 483.026L501.025 481.397Z" fill="white"/>
</g>
<g clip-path="url(#clip2_663_7474)">
<path opacity="0.3" d="M307.252 224.594L632.223 28.2146C638.446 24.4155 643.459 27.491 643.459 34.9988V244.946C643.459 252.454 638.446 261.59 632.223 265.389L307.252 461.769C301.03 465.568 296.017 462.492 296.017 454.984V244.946C295.93 237.439 301.03 228.303 307.252 224.594Z" fill="#00D4CA"/>
<path opacity="0.6" d="M307.252 224.594L632.223 28.2146C638.446 24.4155 643.459 27.491 643.459 34.9988V244.946C643.459 252.454 638.446 261.59 632.223 265.389L307.252 461.769C301.03 465.568 296.017 462.492 296.017 454.984V244.946C295.93 237.439 301.03 228.303 307.252 224.594Z" stroke="white" stroke-width="1.16245"/>
<path opacity="0.6" d="M307.252 224.594L632.223 28.2146C638.446 24.4155 643.459 27.491 643.459 34.9988V244.946C643.459 252.454 638.446 261.59 632.223 265.389L307.252 461.769C301.03 465.568 296.017 462.492 296.017 454.984V244.946C295.93 237.439 301.03 228.303 307.252 224.594Z" stroke="white" stroke-width="1.16245"/>
</g>
<g clip-path="url(#clip3_663_7474)">
<path d="M318.746 230.564L643.717 34.1848C649.94 30.3857 654.953 33.4612 654.953 40.969V250.917C654.953 258.424 649.94 267.56 643.717 271.36L318.746 467.739C312.523 471.538 307.51 468.462 307.51 460.955V251.007C307.51 243.499 312.523 234.363 318.746 230.564Z" fill="url(#paint1_linear_663_7474)"/>
<path opacity="0.25" d="M321.684 232.102L393.334 188.864L559.103 325.904L321.684 469.277C315.462 473.076 310.449 470 310.449 462.492V252.545C310.449 245.037 315.462 235.901 321.684 232.102Z" fill="url(#paint2_linear_663_7474)"/>
<path d="M318.746 230.564L643.717 34.1848C649.94 30.3857 654.953 33.4612 654.953 40.969V250.917C654.953 258.424 649.94 267.56 643.717 271.36L318.746 467.739C312.523 471.538 307.51 468.462 307.51 460.955V251.007C307.51 243.499 312.523 234.363 318.746 230.564Z" fill="url(#paint3_linear_663_7474)"/>
<path opacity="0.25" d="M321.684 232.102L393.334 188.864L559.103 325.904L321.684 469.277C315.462 473.076 310.449 470 310.449 462.492V252.545C310.449 245.037 315.462 235.901 321.684 232.102Z" fill="url(#paint4_linear_663_7474)"/>
<path d="M318.747 230.564L643.718 34.1846C649.941 30.3854 654.954 33.4609 654.954 40.9688V250.916C654.954 258.424 649.941 267.56 643.718 271.359L318.747 467.738C312.524 471.538 307.511 468.462 307.511 460.954V251.007C307.511 243.499 312.524 234.363 318.747 230.564Z" fill="url(#paint5_linear_663_7474)"/>
<path d="M321.686 232.102L646.57 35.8129C652.793 32.0137 657.806 35.0892 657.806 42.5971V252.545C657.806 260.052 652.793 269.188 646.57 272.988L321.599 469.367C315.377 473.166 310.364 470.09 310.364 462.583V252.545C310.45 245.037 315.463 235.901 321.686 232.102Z" fill="url(#paint6_linear_663_7474)"/>
<path opacity="0.25" d="M321.686 232.102L393.336 188.864L559.105 325.904L321.686 469.276C315.464 473.076 310.451 470 310.451 462.492V252.545C310.451 245.037 315.464 235.901 321.686 232.102Z" fill="url(#paint7_linear_663_7474)"/>
<path opacity="0.5" d="M484.172 371.132L321.686 469.276C315.464 473.076 310.451 470 310.451 462.492V252.545C310.451 245.037 315.464 235.901 321.686 232.102L484.172 133.957V371.132Z" fill="#212762"/>
<g opacity="0.7">
<g opacity="0.7">
<g opacity="0.7">
<path opacity="0.7" d="M646.57 35.8129L387.285 193.025L322.464 232.102C319.784 233.639 317.537 235.901 315.636 238.524C313.821 241.147 312.352 244.042 311.574 247.117C311.142 248.655 310.882 250.283 310.796 251.821C310.709 253.449 310.796 255.077 310.796 256.706V266.475L310.709 305.642L310.45 462.402L310.191 305.642L310.104 266.475V256.706C310.104 255.077 310.104 253.449 310.104 251.821C310.191 250.193 310.45 248.474 310.882 246.936C311.747 243.77 313.216 240.785 315.031 238.072C315.982 236.715 317.019 235.539 318.142 234.363C319.266 233.187 320.649 232.283 321.945 231.468L386.766 192.211L646.57 35.8129Z" fill="white"/>
</g>
</g>
</g>
</g>
<g clip-path="url(#clip4_663_7474)">
<path d="M455.995 187.055L327.908 264.485C327.044 265.027 326.266 264.485 326.266 263.218C326.266 261.952 326.958 260.505 327.908 259.962L455.995 182.532C456.859 181.989 457.637 182.532 457.637 183.798C457.637 185.065 456.859 186.512 455.995 187.055Z" fill="#277CFF"/>
<path d="M430.932 219.257L340.355 273.983C339.49 274.525 338.712 273.983 338.712 272.716C338.712 271.45 339.404 270.003 340.355 269.46L430.932 214.734C431.796 214.191 432.574 214.734 432.574 216C432.574 217.267 431.882 218.714 430.932 219.257Z" fill="#B47FD5"/>
<path d="M393.422 259.057L340.355 291.079C339.49 291.621 338.712 291.079 338.712 289.812C338.712 288.546 339.404 287.099 340.355 286.556L393.422 254.535C394.286 253.992 395.064 254.535 395.064 255.801C395.064 257.067 394.286 258.515 393.422 259.057Z" fill="#86B36F"/>
</g>
<g clip-path="url(#clip5_663_7474)">
<path d="M412.177 264.756L340.355 308.175C339.49 308.717 338.712 308.175 338.712 306.908C338.712 305.642 339.404 304.195 340.355 303.652L412.177 260.233C413.041 259.691 413.819 260.233 413.819 261.5C413.819 262.766 413.127 264.213 412.177 264.756Z" fill="#B47FD5"/>
<path d="M468.442 247.841L352.887 317.673C352.023 318.215 351.245 317.673 351.245 316.406C351.245 315.14 351.936 313.693 352.887 313.15L468.442 243.318C469.306 242.775 470.084 243.318 470.084 244.584C470.084 245.851 469.392 247.298 468.442 247.841Z" fill="#277CFF"/>
<path d="M412.177 316.044L371.642 340.558C370.777 341.101 370 340.558 370 339.292C370 338.025 370.691 336.578 371.642 336.035L412.177 311.522C413.041 310.979 413.819 311.522 413.819 312.788C413.819 314.054 413.127 315.502 412.177 316.044Z" fill="#B47FD5"/>
</g>
<g clip-path="url(#clip6_663_7474)">
<path d="M430.931 321.743L327.908 384.067C327.044 384.61 326.266 384.067 326.266 382.801C326.266 381.534 326.958 380.087 327.908 379.544L431.017 317.22C431.882 316.678 432.659 317.22 432.659 318.487C432.573 319.753 431.882 321.2 430.931 321.743Z" fill="#277CFF"/>
<path d="M455.995 323.733L340.44 393.565C339.576 394.108 338.798 393.565 338.798 392.299C338.798 391.032 339.49 389.585 340.44 389.042L455.995 319.21C456.86 318.668 457.637 319.21 457.637 320.477C457.637 321.743 456.86 323.19 455.995 323.733Z" fill="#86B36F"/>
<path d="M455.995 340.829L340.44 410.661C339.576 411.204 338.798 410.661 338.798 409.395C338.798 408.128 339.49 406.681 340.44 406.138L455.995 336.306C456.86 335.764 457.637 336.306 457.637 337.573C457.637 338.839 456.86 340.287 455.995 340.829Z" fill="#93A2BF"/>
<path d="M468.442 350.327L452.885 359.734C452.021 360.277 451.243 359.734 451.243 358.468C451.243 357.202 451.934 355.754 452.885 355.212L468.442 345.804C469.306 345.262 470.084 345.804 470.084 347.071C470.084 348.337 469.393 349.784 468.442 350.327Z" fill="#5CA6E7"/>
</g>
<g clip-path="url(#clip7_663_7474)">
<path opacity="0.3" d="M592.553 187.326L635.594 161.365C639.051 159.285 641.817 153.677 641.817 148.882V67.8342C641.817 63.04 639.051 60.7786 635.594 62.8591L592.553 88.8199C589.096 90.9004 586.33 96.5086 586.33 101.303V182.351C586.244 187.145 589.096 189.407 592.553 187.326Z" fill="#0449C5"/>
<path d="M506.556 329.432L563.599 294.968C564.982 294.154 566.105 291.893 566.105 289.993V282.757C566.105 280.857 564.982 279.953 563.599 280.767L506.556 315.231C505.173 316.045 504.05 318.306 504.05 320.206V327.442C504.05 329.432 505.173 330.246 506.556 329.432Z" fill="#F5F5F7"/>
<path opacity="0.3" d="M505.001 264.123L565.673 227.488C566.538 226.946 567.315 225.498 567.315 224.232C567.315 222.966 566.624 222.423 565.673 222.966L505.001 259.6C504.136 260.143 503.358 261.59 503.358 262.856C503.358 264.123 504.136 264.666 505.001 264.123Z" fill="#0449C5"/>
<path opacity="0.3" d="M505.001 273.983L565.673 237.348C566.538 236.805 567.315 235.358 567.315 234.092C567.315 232.825 566.624 232.283 565.673 232.825L505.001 269.46C504.136 270.003 503.358 271.45 503.358 272.716C503.358 273.892 504.136 274.525 505.001 273.983Z" fill="#0449C5"/>
<path opacity="0.3" d="M505.001 283.752L565.673 247.117C566.538 246.575 567.315 245.127 567.315 243.861C567.315 242.594 566.624 242.052 565.673 242.594L505.001 279.229C504.136 279.772 503.358 281.219 503.358 282.485C503.358 283.752 504.136 284.295 505.001 283.752Z" fill="#0449C5"/>
<path opacity="0.3" d="M505.001 293.611L565.673 256.977C566.538 256.434 567.315 254.987 567.315 253.72C567.315 252.454 566.624 251.911 565.673 252.454L505.001 289.089C504.136 289.631 503.358 291.079 503.358 292.345C503.358 293.611 504.136 294.154 505.001 293.611Z" fill="#0449C5"/>
<path opacity="0.3" d="M505.001 303.471L565.673 266.836C566.538 266.294 567.315 264.846 567.315 263.58C567.315 262.314 566.624 261.771 565.673 262.314L505.001 298.948C504.136 299.491 503.358 300.938 503.358 302.205C503.358 303.381 504.136 304.014 505.001 303.471Z" fill="#0449C5"/>
<path opacity="0.3" d="M592.38 255.168L635.421 229.207C638.878 227.127 641.644 221.518 641.644 216.724V173.487C641.644 168.692 638.878 166.431 635.421 168.511L592.38 194.472C588.922 196.553 586.157 202.161 586.157 206.955V250.193C586.157 254.987 588.922 257.248 592.38 255.168Z" fill="#0449C5"/>
<g opacity="0.3">
<path opacity="0.3" d="M521.595 227.036V223.599C528.336 219.528 531.707 214.011 531.707 207.045V154.853C531.707 152.32 530.151 151.958 527.04 153.858C517.878 159.375 512.865 168.421 512.088 180.994L509.581 182.08V158.471C511.05 157.838 512.433 157.204 513.816 156.481C515.199 155.757 516.495 155.033 517.878 154.31L553.919 132.51C555.129 131.786 556.339 130.972 557.635 130.068C558.932 129.163 560.315 128.168 561.697 127.083L564.204 149.697L561.265 152.32C560.055 146.621 558.154 142.912 555.561 141.194C552.968 139.566 549.684 139.927 545.535 142.46C542.51 144.269 540.955 146.621 540.955 149.425V201.618C540.955 208.583 544.325 210.031 550.98 205.96V209.397L521.595 227.036Z" fill="#0449C5"/>
</g>
<path opacity="0.5" d="M501.112 345.443L569.39 304.195C572.848 302.114 575.613 296.506 575.613 291.712V111.072C575.613 106.278 572.848 104.016 569.39 106.097L501.112 147.345C497.655 149.425 494.889 155.033 494.889 159.828V340.377C494.889 345.262 497.655 347.523 501.112 345.443Z" stroke="white" stroke-width="1.16245" stroke-miterlimit="10" stroke-dasharray="4.65 4.65"/>
<path opacity="0.5" d="M592.553 291.621L635.594 265.661C639.051 263.58 641.817 257.972 641.817 253.178V243.228C641.817 238.433 639.051 236.172 635.594 238.253L592.553 264.213C589.096 266.294 586.33 271.902 586.33 276.696V286.646C586.244 291.44 589.096 293.702 592.553 291.621Z" stroke="white" stroke-width="1.16245" stroke-miterlimit="10" stroke-dasharray="4.65 4.65"/>
</g>
<g clip-path="url(#clip8_663_7474)">
<path d="M596.01 255.168L639.051 229.207C642.508 227.127 645.274 221.518 645.274 216.724V173.487C645.274 168.692 642.508 166.431 639.051 168.511L596.01 194.472C592.553 196.553 589.787 202.161 589.787 206.955V250.193C589.787 254.987 592.553 257.248 596.01 255.168Z" fill="#C9C9DC"/>
<path d="M598.171 255.892L641.212 229.931C644.669 227.85 647.435 222.242 647.435 217.448V174.21C647.435 169.416 644.669 167.155 641.212 169.235L598.171 195.196C594.713 197.276 591.948 202.885 591.948 207.679V250.917C591.948 255.801 594.713 257.972 598.171 255.892Z" fill="white"/>
<path d="M604.999 226.132L623.149 210.031L616.061 232.825L618.222 234.001L616.666 237.8L610.184 234.092C607.591 232.644 605.863 230.021 604.999 226.132Z" fill="#FDB960"/>
<path d="M629.63 213.649L611.48 229.75C612.777 235.901 616.493 239.067 621.765 238.886L629.63 213.649Z" fill="#FFDE9A"/>
<path d="M629.631 213.649L623.149 210.031L604.999 226.132L611.481 229.75L629.631 213.649Z" fill="#FFD575"/>
<path d="M620.21 208.312L620.901 194.02L614.419 190.401C605.085 199.718 599.813 214.191 602.06 224.413L608.542 228.031L620.21 208.312Z" fill="#CE573C"/>
<path d="M626.692 211.93L620.901 194.02C611.567 203.337 606.295 217.809 608.542 228.031L626.692 211.93Z" fill="#FF6F47"/>
<path d="M614.159 202.432L657.201 176.471C660.658 174.391 663.424 168.783 663.424 163.988V82.8498C663.424 78.0556 660.658 75.7942 657.201 77.8747L614.159 103.835C610.702 105.916 607.937 111.524 607.937 116.318V197.367C607.937 202.251 610.702 204.513 614.159 202.432Z" fill="#C9C9DC"/>
<path d="M616.32 203.156L659.361 177.195C662.819 175.115 665.584 169.506 665.584 164.712V83.6639C665.584 78.8697 662.819 76.6083 659.361 78.6888L616.32 104.74C612.863 106.821 610.097 112.429 610.097 117.223V198.271C610.097 203.065 612.863 205.236 616.32 203.156Z" fill="#F5F5F7"/>
<path d="M626.346 131.395C626.346 139.083 631.532 142.159 637.841 138.36C644.15 134.56 649.336 125.153 649.336 117.464C649.336 109.776 644.15 106.7 637.841 110.499C631.532 114.389 626.346 123.706 626.346 131.395ZM641.99 118.007C641.99 120.721 640.175 124.068 637.841 125.424C635.594 126.781 633.693 125.696 633.693 122.982C633.693 120.268 635.508 116.922 637.841 115.565C640.175 114.117 641.99 115.293 641.99 118.007ZM645.274 127.867C643.459 131.394 640.866 134.56 637.841 136.37C634.903 138.179 632.223 138.179 630.408 136.822C630.408 134.108 632.31 130.761 634.557 129.404L641.125 125.424C643.372 124.068 645.274 125.153 645.274 127.867Z" fill="white"/>
<path d="M627.21 167.426L622.456 170.32C621.333 171.044 620.382 170.32 620.382 168.692V163.898C620.382 162.27 621.333 160.37 622.456 159.647L627.21 156.752C628.333 156.028 629.284 156.752 629.284 158.38V163.174C629.284 164.802 628.333 166.702 627.21 167.426Z" fill="#BBD3E5"/>
<path d="M655.126 143.907L633.865 156.752C633.519 156.933 633.26 156.752 633.26 156.209V155.305C633.26 154.852 633.519 154.219 633.865 154.038L655.126 141.194C655.472 141.013 655.731 141.194 655.731 141.736V142.641C655.731 143.093 655.472 143.636 655.126 143.907Z" fill="#BBD3E5"/>
<path d="M643.804 156.028L633.778 162.089C633.433 162.27 633.173 162.089 633.173 161.546V160.642C633.173 160.189 633.433 159.556 633.778 159.375L643.804 153.315C644.15 153.134 644.409 153.315 644.409 153.857V154.762C644.495 155.214 644.15 155.757 643.804 156.028Z" fill="#BBD3E5"/>
<path d="M627.21 182.984L622.456 185.879C621.333 186.602 620.382 185.879 620.382 184.25V179.456C620.382 177.828 621.333 175.928 622.456 175.205L627.21 172.31C628.333 171.587 629.284 172.31 629.284 173.938V178.733C629.284 180.361 628.333 182.26 627.21 182.984Z" fill="#BBD3E5"/>
<path d="M655.126 159.466L633.865 172.31C633.519 172.491 633.26 172.31 633.26 171.768V170.863C633.26 170.411 633.519 169.778 633.865 169.597L655.126 156.752C655.472 156.571 655.731 156.752 655.731 157.295V158.199C655.731 158.651 655.472 159.194 655.126 159.466Z" fill="#BBD3E5"/>
<path d="M643.804 171.587L633.778 177.647C633.433 177.828 633.173 177.647 633.173 177.105V176.2C633.173 175.748 633.433 175.114 633.778 174.934L643.804 168.873C644.15 168.692 644.409 168.873 644.409 169.416V170.32C644.495 170.773 644.15 171.315 643.804 171.587Z" fill="#BBD3E5"/>
<path d="M641.989 117.947C641.989 120.66 640.174 124.007 637.841 125.364C635.593 126.721 633.692 125.635 633.692 122.922C633.692 120.208 635.507 116.861 637.841 115.504C640.174 114.147 641.989 115.233 641.989 117.947ZM645.273 127.897C643.458 131.424 640.866 134.59 637.841 136.4C634.902 138.209 632.223 138.209 630.408 136.852C630.408 134.138 632.309 130.791 634.556 129.434L641.125 125.454C643.372 124.098 645.273 125.183 645.273 127.897Z" fill="#BBD3E5"/>
<path d="M541.3 171.587C542.683 170.863 543.98 170.139 545.363 169.416L581.403 147.616C582.613 146.892 583.823 146.078 585.12 145.174C586.416 144.269 587.799 143.274 589.182 142.189L591.342 143.726L589.614 146.078L591.688 164.712L591.515 164.893L592.207 165.255L590.997 168.963L588.836 167.426C587.626 161.727 585.725 158.018 583.132 156.3C580.539 154.671 577.255 155.033 573.106 157.566C570.081 159.375 568.525 161.727 568.525 164.531V216.724C568.525 223.056 571.378 224.865 576.909 221.97L578.465 221.066L580.625 222.604L578.465 224.503L551.24 240.966V243.77L549.079 242.233V238.795C555.82 234.725 559.191 229.207 559.191 222.242V170.049C559.191 167.516 557.635 167.154 554.524 169.054C545.363 174.572 540.35 183.617 539.572 196.191L539.226 196.372V198.814L537.065 197.276V192.934V173.667C538.535 172.944 539.918 172.31 541.3 171.587Z" fill="#C9C9DC"/>
<path d="M551.24 243.68V240.243C557.982 236.172 561.352 230.654 561.352 223.689V171.496C561.352 168.964 559.797 168.602 556.685 170.501C547.524 176.019 542.511 185.065 541.733 197.638L539.227 198.723V175.115C540.696 174.481 542.079 173.848 543.462 173.125C544.844 172.401 546.141 171.677 547.524 170.954L583.564 149.154C584.774 148.43 585.984 147.616 587.281 146.711C588.577 145.807 589.96 144.812 591.343 143.726L593.849 166.34L590.911 168.964C589.701 163.265 587.799 159.556 585.207 157.838C582.614 156.209 579.329 156.571 575.181 159.104C572.156 160.913 570.6 163.265 570.6 166.069V218.262C570.6 225.227 573.971 226.674 580.626 222.604V226.041L551.24 243.68Z" fill="white"/>
</g>
<g clip-path="url(#clip9_663_7474)">
<path d="M589.183 142.189L561.698 126.992" stroke="white" stroke-width="0.581227" stroke-miterlimit="10" stroke-dasharray="2.32 2.32"/>
<path d="M578.465 220.975L551.067 205.869" stroke="white" stroke-width="0.581227" stroke-miterlimit="10" stroke-dasharray="2.32 2.32"/>
<path d="M537.065 173.577L536.288 173.215" stroke="white" stroke-width="0.581227" stroke-miterlimit="10"/>
<path d="M534.818 172.311L511.137 159.285" stroke="white" stroke-width="0.581227" stroke-miterlimit="10" stroke-dasharray="2.32 2.32"/>
<path d="M510.445 158.923L509.667 158.471" stroke="white" stroke-width="0.581227" stroke-miterlimit="10"/>
<path d="M549.078 238.795L521.594 223.689" stroke="white" stroke-width="0.581227" stroke-miterlimit="10" stroke-dasharray="2.32 2.32"/>
<path d="M537.065 197.276L509.667 182.17" stroke="white" stroke-width="0.581227" stroke-miterlimit="10" stroke-dasharray="2.32 2.32"/>
<path d="M589.182 143.365C589.803 143.365 590.306 142.838 590.306 142.189C590.306 141.539 589.803 141.013 589.182 141.013C588.562 141.013 588.059 141.539 588.059 142.189C588.059 142.838 588.562 143.365 589.182 143.365Z" fill="white"/>
<path d="M561.697 128.168C562.318 128.168 562.821 127.641 562.821 126.992C562.821 126.343 562.318 125.816 561.697 125.816C561.077 125.816 560.574 126.343 560.574 126.992C560.574 127.641 561.077 128.168 561.697 128.168Z" fill="white"/>
<path d="M509.668 159.647C510.289 159.647 510.792 159.12 510.792 158.471C510.792 157.821 510.289 157.295 509.668 157.295C509.047 157.295 508.544 157.821 508.544 158.471C508.544 159.12 509.047 159.647 509.668 159.647Z" fill="white"/>
<path d="M537.066 174.843C537.686 174.843 538.189 174.317 538.189 173.667C538.189 173.018 537.686 172.491 537.066 172.491C536.445 172.491 535.942 173.018 535.942 173.667C535.942 174.317 536.445 174.843 537.066 174.843Z" fill="white"/>
<path d="M537.066 198.452C537.686 198.452 538.189 197.926 538.189 197.276C538.189 196.627 537.686 196.1 537.066 196.1C536.445 196.1 535.942 196.627 535.942 197.276C535.942 197.926 536.445 198.452 537.066 198.452Z" fill="white"/>
<path d="M509.668 183.346C510.289 183.346 510.792 182.819 510.792 182.17C510.792 181.521 510.289 180.994 509.668 180.994C509.047 180.994 508.544 181.521 508.544 182.17C508.544 182.819 509.047 183.346 509.668 183.346Z" fill="white"/>
<path d="M551.066 207.045C551.687 207.045 552.19 206.519 552.19 205.869C552.19 205.22 551.687 204.693 551.066 204.693C550.446 204.693 549.943 205.22 549.943 205.869C549.943 206.519 550.446 207.045 551.066 207.045Z" fill="white"/>
<path d="M578.465 222.151C579.085 222.151 579.588 221.625 579.588 220.976C579.588 220.326 579.085 219.8 578.465 219.8C577.844 219.8 577.341 220.326 577.341 220.976C577.341 221.625 577.844 222.151 578.465 222.151Z" fill="white"/>
<path d="M521.595 224.865C522.216 224.865 522.719 224.339 522.719 223.689C522.719 223.04 522.216 222.513 521.595 222.513C520.975 222.513 520.472 223.04 520.472 223.689C520.472 224.339 520.975 224.865 521.595 224.865Z" fill="white"/>
<path d="M549.079 239.971C549.699 239.971 550.202 239.445 550.202 238.795C550.202 238.146 549.699 237.619 549.079 237.619C548.458 237.619 547.955 238.146 547.955 238.795C547.955 239.445 548.458 239.971 549.079 239.971Z" fill="white"/>
<g filter="url(#filter0_d_663_7474)">
<rect width="80.0447" height="80.0447" rx="20.413" transform="matrix(0.855883 -0.517169 0.855883 0.517169 72.0352 374.762)" fill="white"/>
</g>
<g filter="url(#filter1_b_663_7474)">
<rect width="80.0447" height="80.0447" rx="20.413" transform="matrix(0.855883 -0.517169 0.855883 0.517169 148.751 329.853)" fill="white" fill-opacity="0.62"/>
<rect x="0.582372" y="2.02785e-08" width="79.3643" height="79.3643" rx="20.0728" transform="matrix(0.855883 -0.517169 0.855883 0.517169 148.835 330.155)" stroke="url(#paint8_linear_663_7474)" stroke-width="0.680434"/>
</g>
<g filter="url(#filter2_d_663_7474)">
<rect width="80.0447" height="80.0447" rx="20.413" transform="matrix(0.855883 -0.517169 0.855883 0.517169 76.5864 280.862)" fill="white"/>
</g>
</g>
<defs>
<filter id="filter0_d_663_7474" x="27.1544" y="299.404" width="266.245" height="220.121" filterUnits="userSpaceOnUse" color-interpolation-filters="sRGB">
<feFlood flood-opacity="0" result="BackgroundImageFix"/>
<feColorMatrix in="SourceAlpha" type="matrix" values="0 0 0 0 0 0 0 0 0 0 0 0 0 0 0 0 0 0 127 0" result="hardAlpha"/>
<feOffset dx="19.7326" dy="34.7021"/>
<feGaussianBlur stdDeviation="37.4239"/>
<feColorMatrix type="matrix" values="0 0 0 0 0.261267 0 0 0 0 0.38352 0 0 0 0 0.620833 0 0 0 0.1 0"/>
<feBlend mode="normal" in2="BackgroundImageFix" result="effect1_dropShadow_663_7474"/>
<feBlend mode="normal" in="SourceGraphic" in2="effect1_dropShadow_663_7474" result="shape"/>
</filter>
<filter id="filter1_b_663_7474" x="151.501" y="287.156" width="131.519" height="85.3946" filterUnits="userSpaceOnUse" color-interpolation-filters="sRGB">
<feFlood flood-opacity="0" result="BackgroundImageFix"/>
<feGaussianBlur in="BackgroundImage" stdDeviation="3.74239"/>
<feComposite in2="SourceAlpha" operator="in" result="effect1_backgroundBlur_663_7474"/>
<feBlend mode="normal" in="SourceGraphic" in2="effect1_backgroundBlur_663_7474" result="shape"/>
</filter>
<filter id="filter2_d_663_7474" x="31.7056" y="205.504" width="266.245" height="220.121" filterUnits="userSpaceOnUse" color-interpolation-filters="sRGB">
<feFlood flood-opacity="0" result="BackgroundImageFix"/>
<feColorMatrix in="SourceAlpha" type="matrix" values="0 0 0 0 0 0 0 0 0 0 0 0 0 0 0 0 0 0 127 0" result="hardAlpha"/>
<feOffset dx="19.7326" dy="34.7021"/>
<feGaussianBlur stdDeviation="37.4239"/>
<feColorMatrix type="matrix" values="0 0 0 0 0.261267 0 0 0 0 0.38352 0 0 0 0 0.620833 0 0 0 0.1 0"/>
<feBlend mode="normal" in2="BackgroundImageFix" result="effect1_dropShadow_663_7474"/>
<feBlend mode="normal" in="SourceGraphic" in2="effect1_dropShadow_663_7474" result="shape"/>
</filter>
<linearGradient id="paint0_linear_663_7474" x1="792.871" y1="302.841" x2="169.373" y2="561.15" gradientUnits="userSpaceOnUse">
<stop stop-color="#E5E8F5"/>
<stop offset="1" stop-color="#EBEEFB" stop-opacity="0.24"/>
</linearGradient>
<linearGradient id="paint1_linear_663_7474" x1="318.826" y1="443.961" x2="672.796" y2="60.0978" gradientUnits="userSpaceOnUse">
<stop offset="0.00463254" stop-color="#4BFDF1"/>
<stop offset="1" stop-color="#18069A"/>
</linearGradient>
<linearGradient id="paint2_linear_663_7474" x1="434.841" y1="163.804" x2="539.83" y2="337.548" gradientUnits="userSpaceOnUse">
<stop stop-color="white"/>
<stop offset="1" stop-color="white" stop-opacity="0"/>
</linearGradient>
<linearGradient id="paint3_linear_663_7474" x1="318.826" y1="443.961" x2="672.796" y2="60.0978" gradientUnits="userSpaceOnUse">
<stop offset="0.00463254" stop-color="#4BFDF1"/>
<stop offset="1" stop-color="#18069A"/>
</linearGradient>
<linearGradient id="paint4_linear_663_7474" x1="434.841" y1="163.804" x2="539.83" y2="337.548" gradientUnits="userSpaceOnUse">
<stop stop-color="white"/>
<stop offset="1" stop-color="white" stop-opacity="0"/>
</linearGradient>
<linearGradient id="paint5_linear_663_7474" x1="318.827" y1="443.961" x2="672.797" y2="60.0976" gradientUnits="userSpaceOnUse">
<stop offset="0.00123665" stop-color="#51C2F4"/>
<stop offset="1" stop-color="#18069A"/>
</linearGradient>
<linearGradient id="paint6_linear_663_7474" x1="657.975" y1="147.565" x2="310.533" y2="147.565" gradientUnits="userSpaceOnUse">
<stop offset="0.00604585" stop-color="#4FB1FF"/>
<stop offset="1" stop-color="#427CFF"/>
</linearGradient>
<linearGradient id="paint7_linear_663_7474" x1="434.843" y1="163.804" x2="539.832" y2="337.548" gradientUnits="userSpaceOnUse">
<stop stop-color="white"/>
<stop offset="1" stop-color="white" stop-opacity="0"/>
</linearGradient>
<linearGradient id="paint8_linear_663_7474" x1="79.2663" y1="59.743" x2="26.2589" y2="-23.2673" gradientUnits="userSpaceOnUse">
<stop stop-color="white"/>
<stop offset="1" stop-color="white" stop-opacity="0"/>
</linearGradient>
<clipPath id="clip0_663_7474">
<rect width="917.05" height="620.751" fill="white" transform="translate(0.950195)"/>
</clipPath>
<clipPath id="clip1_663_7474">
<rect width="917.05" height="620.751" fill="white" transform="translate(0.950195)"/>
</clipPath>
<clipPath id="clip2_663_7474">
<rect width="917.05" height="620.751" fill="white" transform="translate(0.950195)"/>
</clipPath>
<clipPath id="clip3_663_7474">
<rect width="917.05" height="620.751" fill="white" transform="translate(0.950195)"/>
</clipPath>
<clipPath id="clip4_663_7474">
<rect width="917.05" height="620.751" fill="white" transform="translate(0.950195)"/>
</clipPath>
<clipPath id="clip5_663_7474">
<rect width="917.05" height="620.751" fill="white" transform="translate(0.950195)"/>
</clipPath>
<clipPath id="clip6_663_7474">
<rect width="917.05" height="620.751" fill="white" transform="translate(0.950195)"/>
</clipPath>
<clipPath id="clip7_663_7474">
<rect width="917.05" height="620.751" fill="white" transform="translate(0.950195)"/>
</clipPath>
<clipPath id="clip8_663_7474">
<rect width="917.05" height="620.751" fill="white" transform="translate(0.950195)"/>
</clipPath>
<clipPath id="clip9_663_7474">
<rect width="868.847" height="620.751" fill="white" transform="translate(0.950195)"/>
</clipPath>
</defs>
</svg>
